<svg width="110" height="148" viewBox="0 0 110 148" fill="none" xmlns="http://www.w3.org/2000/svg">
<g id="Group">
<path id="Vector" d="M46.7919 3.75741C42.0112 7.25394 41.1549 12.7421 41.1549 12.7421C41.1549 12.7421 48.0441 12.5591 52.8248 9.0626C57.6055 5.56608 58.4618 0.0779419 58.4618 0.0779419C58.4618 0.0779419 51.5726 0.26088 46.7919 3.75741Z" fill="url(#paint0_linear_2045_297)"/>
<g id="Group_2">
<g id="Group_3">
<path id="Vector_2" d="M80.4029 132.611C84.5166 136.846 84.7662 141.848 84.7102 141.862C84.7275 141.924 76.0783 139.984 72.1927 135.314C68.3113 130.702 70.2004 125.922 70.1444 125.936C70.1659 125.98 76.2935 128.414 80.4029 132.608V132.611Z" fill="url(#paint1_linear_2045_297)"/>
<path id="Vector_3" d="M74.3443 147.277C81.9349 146.241 84.7706 141.637 84.7663 141.678C84.676 141.699 76.5389 139.818 69.5292 140.477C62.4507 141.167 58.2897 144.695 58.2897 144.733C58.1907 144.75 66.6677 148.333 74.34 147.273L74.3443 147.277Z" fill="url(#paint2_linear_2045_297)"/>
</g>
<g id="Group_4">
<path id="Vector_4" d="M65.3938 127.324C68.2209 131.966 67.2054 136.823 67.1538 136.833C67.1624 136.899 59.5589 133.868 56.9986 128.829C54.4297 123.844 57.3514 119.475 57.2998 119.482C57.3127 119.53 62.5667 122.719 65.3938 127.324Z" fill="url(#paint3_linear_2045_297)"/>
<path id="Vector_5" d="M56.1251 140.668C63.5048 140.685 67.2613 136.619 67.257 136.661C67.1753 136.671 60.0408 133.765 53.2377 133.457C46.3657 133.167 41.5506 136.012 41.5463 136.05C41.4517 136.056 48.6679 140.668 56.1251 140.671V140.668Z" fill="url(#paint4_linear_2045_297)"/>
</g>
<g id="Group_5">
<path id="Vector_6" d="M52.4374 120.168C54.0424 125.049 51.9038 129.605 51.8565 129.605C51.8565 129.667 45.3417 125.708 44.0378 120.468C42.7211 115.287 46.525 111.449 46.4777 111.449C46.4777 111.497 50.8238 115.322 52.4374 120.165V120.168Z" fill="url(#paint5_linear_2045_297)"/>
<path id="Vector_7" d="M40.4319 131.818C47.476 132.843 52.0028 129.415 51.9899 129.453C51.9125 129.453 45.8236 125.674 39.3476 124.438C32.8069 123.213 27.5013 125.304 27.4884 125.339C27.4023 125.332 33.3104 130.799 40.4276 131.818H40.4319Z" fill="url(#paint6_linear_2045_297)"/>
</g>
<g id="Group_6">
<path id="Vector_8" d="M41.6197 111.443C42.0672 116.403 38.9561 120.521 38.9088 120.517C38.8959 120.58 33.5214 115.84 33.4095 110.566C33.2761 105.344 37.8115 102.141 37.7642 102.134C37.7599 102.182 41.155 106.517 41.6154 111.443H41.6197Z" fill="url(#paint7_linear_2045_297)"/>
<path id="Vector_9" d="M27.3766 121.083C33.9602 123.05 39.0895 120.354 39.0765 120.389C39.0077 120.379 34.0033 115.874 27.979 113.765C21.8988 111.66 16.2661 112.947 16.2489 112.982C16.1671 112.964 20.7241 119.105 27.3766 121.079V121.083Z" fill="url(#paint8_linear_2045_297)"/>
</g>
<g id="Group_7">
<path id="Vector_10" d="M33.0394 101.446C32.4026 106.341 28.461 109.906 28.4222 109.896C28.4007 109.955 24.2052 104.594 25.2165 99.4304C26.2019 94.3185 31.3053 91.8299 31.2622 91.8195C31.2493 91.8678 33.6547 96.5863 33.0394 101.446Z" fill="url(#paint9_linear_2045_297)"/>
<path id="Vector_11" d="M17.0623 108.826C23.0521 111.667 28.6289 109.761 28.6074 109.792C28.5428 109.775 24.6615 104.691 19.2224 101.781C13.7317 98.8679 7.94414 99.3235 7.92263 99.3545C7.84948 99.3269 11.0079 105.968 17.0623 108.822V108.826Z" fill="url(#paint10_linear_2045_297)"/>
</g>
<g id="Group_8">
<path id="Vector_12" d="M26.7783 90.4698C25.1259 95.1675 20.5131 98.0842 20.4786 98.0704C20.4485 98.1256 17.4751 92.2957 19.5406 87.3806C21.5673 82.5137 27.0838 80.7983 27.0494 80.781C27.0236 80.8259 28.4048 85.8032 26.7826 90.4664L26.7783 90.4698Z" fill="url(#paint11_linear_2045_297)"/>
<path id="Vector_13" d="M9.59648 95.409C14.8591 99.0366 20.7113 97.9632 20.6854 97.9943C20.6295 97.9701 17.9057 92.4543 13.1852 88.8267C8.41314 85.1886 2.64706 84.8055 2.62124 84.8331C2.55239 84.7986 4.26931 91.7606 9.59648 95.409Z" fill="url(#paint12_linear_2045_297)"/>
</g>
<g id="Group_9">
<path id="Vector_14" d="M22.936 78.8135C20.3413 83.1902 15.2206 85.3889 15.1862 85.3682C15.1432 85.4199 13.4435 79.276 16.4857 74.7336C19.485 70.2327 25.2467 69.3352 25.2123 69.3145C25.1779 69.3559 25.4963 74.4644 22.936 78.8135Z" fill="url(#paint13_linear_2045_297)"/>
<path id="Vector_15" d="M5.07391 81.1985C9.47592 85.5165 15.4313 85.2991 15.4012 85.3233C15.3539 85.2922 13.8263 79.4934 9.95786 75.241C6.03779 70.9747 0.478252 69.7632 0.443827 69.7873C0.383585 69.7459 0.611647 76.8529 5.07391 81.1985Z" fill="url(#paint14_linear_2045_297)"/>
</g>
<g id="Group_10">
<path id="Vector_16" d="M21.5976 66.7771C18.1422 70.7258 12.6688 72.1479 12.6386 72.1271C12.587 72.172 12.1997 65.8727 16.1456 61.8136C20.0399 57.789 25.8748 57.7268 25.8447 57.6992C25.8017 57.7372 25.0142 62.8525 21.5976 66.7771Z" fill="url(#paint15_linear_2045_297)"/>
<path id="Vector_17" d="M3.61088 66.5564C7.01459 71.4508 12.8969 72.0928 12.8581 72.1136C12.8194 72.0756 12.5311 66.1422 9.64806 61.3755C6.72198 56.5846 1.54542 54.5791 1.50669 54.5999C1.45505 54.5515 0.151232 61.6274 3.61088 66.5564Z" fill="url(#paint16_linear_2045_297)"/>
</g>
<g id="Group_11">
<path id="Vector_18" d="M22.8541 54.6587C18.6156 58.0827 12.9571 58.7006 12.9313 58.6729C12.8667 58.7109 13.8435 52.4116 18.6113 48.9358C23.3188 45.4876 29.0548 46.2539 29.029 46.2263C28.973 46.2573 27.0453 51.2519 22.8541 54.6587Z" fill="url(#paint17_linear_2045_297)"/>
<path id="Vector_19" d="M5.30617 51.8489C7.57387 57.199 13.198 58.6763 13.1549 58.6936C13.1205 58.6522 14.1145 52.7291 12.3546 47.5654C10.5602 42.3741 5.96023 39.6266 5.9172 39.6439C5.87417 39.5887 2.99113 46.4575 5.31047 51.8489H5.30617Z" fill="url(#paint18_linear_2045_297)"/>
</g>
<g id="Group_12">
<path id="Vector_20" d="M26.8044 42.7645C21.8645 45.5811 16.1973 45.3809 16.1758 45.3532C16.1027 45.3843 18.4823 39.2404 23.9902 36.4342C29.4292 33.6487 34.8855 35.2226 34.864 35.1916C34.7994 35.2157 31.6883 39.9618 26.8044 42.7645Z" fill="url(#paint19_linear_2045_297)"/>
<path id="Vector_21" d="M10.2678 37.4457C11.2532 43.1133 16.4383 45.3914 16.3867 45.4018C16.3609 45.3569 18.6673 39.5926 18.1811 34.1666C17.6604 28.7096 13.8307 25.2959 13.7791 25.3062C13.7403 25.2476 9.23935 31.7298 10.2721 37.4457H10.2678Z" fill="url(#paint20_linear_2045_297)"/>
</g>
<g id="Group_13">
<path id="Vector_22" d="M33.5345 31.3923C27.9793 33.5288 22.4757 32.521 22.4585 32.4899C22.3724 32.5141 26.2064 26.6842 32.3684 24.6167C38.4572 22.5629 43.453 24.9066 43.4358 24.8721C43.3584 24.8893 39.0252 29.2591 33.5345 31.3888V31.3923Z" fill="url(#paint21_linear_2045_297)"/>
<path id="Vector_23" d="M18.5983 23.7118C18.155 29.5486 22.7077 32.5619 22.6517 32.5688C22.6345 32.5205 26.2964 27.0599 27.2216 21.52C28.1209 15.9456 25.2551 11.9589 25.1991 11.9624C25.169 11.9003 19.0027 17.8233 18.5983 23.7084V23.7118Z" fill="url(#paint22_linear_2045_297)"/>
</g>
<g id="Group_14">
<path id="Vector_24" d="M43.1387 20.8436C37.0542 22.2416 31.8949 20.4536 31.8863 20.4225C31.7916 20.4363 37.1188 15.0794 43.8487 13.8161C50.4969 12.5562 54.843 15.604 54.8301 15.5695C54.744 15.5764 49.1501 19.4423 43.1387 20.8436Z" fill="url(#paint23_linear_2045_297)"/>
<path id="Vector_25" d="M30.406 11.0163C28.3879 16.8599 32.1143 20.5325 32.0498 20.5325C32.0412 20.4842 37.0972 15.4758 39.5844 9.97734C42.0501 4.44088 40.3547 0.00205303 40.2901 -0.00139863C40.2686 -0.0669801 32.3897 5.11741 30.406 11.0163Z" fill="url(#paint24_linear_2045_297)"/>
</g>
</g>
<path id="Vector_26" d="M109.044 143.398L108.924 142.328C97.8606 143.132 86.8319 142.141 76.1474 139.39C65.734 136.708 56.0952 132.473 47.4934 126.806C29.6444 115.042 18.1337 98.2535 15.0829 79.5317C12.5828 64.2029 13.8651 50.5413 18.8954 38.9299C24.2957 26.459 33.9087 16.7047 47.4762 9.92906L46.7662 9.01782C32.9362 15.9246 23.1339 25.8723 17.6303 38.5778C12.5312 50.348 11.2316 64.1753 13.7575 79.6732C16.8557 98.6643 28.5342 115.698 46.65 127.637C55.3809 133.395 65.1703 137.692 75.7472 140.415C86.6081 143.211 97.8133 144.216 109.057 143.401L109.044 143.398Z" fill="url(#paint25_linear_2045_297)"/>
</g>
<defs>
<linearGradient id="paint0_linear_2045_297" x1="41.1549" y1="6.4126" x2="58.4612" y2="6.4126" gradientUnits="userSpaceOnUse">
<stop stop-color="#969696"/>
<stop offset="0.21" stop-color="#CACACA"/>
<stop offset="0.33" stop-color="#F0F0F0"/>
<stop offset="0.52" stop-color="white"/>
<stop offset="0.73" stop-color="#EBEBEB"/>
<stop offset="1" stop-color="#B0B0B0"/>
</linearGradient>
<linearGradient id="paint1_linear_2045_297" x1="69.7334" y1="133.903" x2="84.7158" y2="133.903" gradientUnits="userSpaceOnUse">
<stop stop-color="#969696"/>
<stop offset="0.21" stop-color="#CACACA"/>
<stop offset="0.33" stop-color="#F0F0F0"/>
<stop offset="0.52" stop-color="white"/>
<stop offset="0.73" stop-color="#EBEBEB"/>
<stop offset="1" stop-color="#B0B0B0"/>
</linearGradient>
<linearGradient id="paint2_linear_2045_297" x1="58.2888" y1="143.905" x2="84.7655" y2="143.905" gradientUnits="userSpaceOnUse">
<stop stop-color="#969696"/>
<stop offset="0.21" stop-color="#CACACA"/>
<stop offset="0.33" stop-color="#F0F0F0"/>
<stop offset="0.52" stop-color="white"/>
<stop offset="0.73" stop-color="#EBEBEB"/>
<stop offset="1" stop-color="#B0B0B0"/>
</linearGradient>
<linearGradient id="paint3_linear_2045_297" x1="55.9402" y1="128.161" x2="67.3726" y2="128.161" gradientUnits="userSpaceOnUse">
<stop stop-color="#969696"/>
<stop offset="0.21" stop-color="#CACACA"/>
<stop offset="0.33" stop-color="#F0F0F0"/>
<stop offset="0.52" stop-color="white"/>
<stop offset="0.73" stop-color="#EBEBEB"/>
<stop offset="1" stop-color="#B0B0B0"/>
</linearGradient>
<linearGradient id="paint4_linear_2045_297" x1="41.5454" y1="137.055" x2="67.2562" y2="137.055" gradientUnits="userSpaceOnUse">
<stop stop-color="#969696"/>
<stop offset="0.21" stop-color="#CACACA"/>
<stop offset="0.33" stop-color="#F0F0F0"/>
<stop offset="0.52" stop-color="white"/>
<stop offset="0.73" stop-color="#EBEBEB"/>
<stop offset="1" stop-color="#B0B0B0"/>
</linearGradient>
<linearGradient id="paint5_linear_2045_297" x1="43.7606" y1="120.531" x2="53.0333" y2="120.531" gradientUnits="userSpaceOnUse">
<stop stop-color="#969696"/>
<stop offset="0.21" stop-color="#CACACA"/>
<stop offset="0.33" stop-color="#F0F0F0"/>
<stop offset="0.52" stop-color="white"/>
<stop offset="0.73" stop-color="#EBEBEB"/>
<stop offset="1" stop-color="#B0B0B0"/>
</linearGradient>
<linearGradient id="paint6_linear_2045_297" x1="27.4874" y1="128.033" x2="51.9891" y2="128.033" gradientUnits="userSpaceOnUse">
<stop stop-color="#969696"/>
<stop offset="0.21" stop-color="#CACACA"/>
<stop offset="0.33" stop-color="#F0F0F0"/>
<stop offset="0.52" stop-color="white"/>
<stop offset="0.73" stop-color="#EBEBEB"/>
<stop offset="1" stop-color="#B0B0B0"/>
</linearGradient>
<linearGradient id="paint7_linear_2045_297" x1="33.4066" y1="111.33" x2="41.6635" y2="111.33" gradientUnits="userSpaceOnUse">
<stop stop-color="#969696"/>
<stop offset="0.21" stop-color="#CACACA"/>
<stop offset="0.33" stop-color="#F0F0F0"/>
<stop offset="0.52" stop-color="white"/>
<stop offset="0.73" stop-color="#EBEBEB"/>
<stop offset="1" stop-color="#B0B0B0"/>
</linearGradient>
<linearGradient id="paint8_linear_2045_297" x1="16.2478" y1="117.183" x2="39.0758" y2="117.183" gradientUnits="userSpaceOnUse">
<stop stop-color="#969696"/>
<stop offset="0.21" stop-color="#CACACA"/>
<stop offset="0.33" stop-color="#F0F0F0"/>
<stop offset="0.52" stop-color="white"/>
<stop offset="0.73" stop-color="#EBEBEB"/>
<stop offset="1" stop-color="#B0B0B0"/>
</linearGradient>
<linearGradient id="paint9_linear_2045_297" x1="25.0592" y1="100.862" x2="33.1399" y2="100.862" gradientUnits="userSpaceOnUse">
<stop stop-color="#969696"/>
<stop offset="0.21" stop-color="#CACACA"/>
<stop offset="0.33" stop-color="#F0F0F0"/>
<stop offset="0.52" stop-color="white"/>
<stop offset="0.73" stop-color="#EBEBEB"/>
<stop offset="1" stop-color="#B0B0B0"/>
</linearGradient>
<linearGradient id="paint10_linear_2045_297" x1="7.92139" y1="104.852" x2="28.6068" y2="104.852" gradientUnits="userSpaceOnUse">
<stop stop-color="#969696"/>
<stop offset="0.21" stop-color="#CACACA"/>
<stop offset="0.33" stop-color="#F0F0F0"/>
<stop offset="0.52" stop-color="white"/>
<stop offset="0.73" stop-color="#EBEBEB"/>
<stop offset="1" stop-color="#B0B0B0"/>
</linearGradient>
<linearGradient id="paint11_linear_2045_297" x1="18.811" y1="89.4294" x2="27.5729" y2="89.4294" gradientUnits="userSpaceOnUse">
<stop stop-color="#969696"/>
<stop offset="0.21" stop-color="#CACACA"/>
<stop offset="0.33" stop-color="#F0F0F0"/>
<stop offset="0.52" stop-color="white"/>
<stop offset="0.73" stop-color="#EBEBEB"/>
<stop offset="1" stop-color="#B0B0B0"/>
</linearGradient>
<linearGradient id="paint12_linear_2045_297" x1="2.61927" y1="91.4783" x2="20.6849" y2="91.4783" gradientUnits="userSpaceOnUse">
<stop stop-color="#969696"/>
<stop offset="0.21" stop-color="#CACACA"/>
<stop offset="0.33" stop-color="#F0F0F0"/>
<stop offset="0.52" stop-color="white"/>
<stop offset="0.73" stop-color="#EBEBEB"/>
<stop offset="1" stop-color="#B0B0B0"/>
</linearGradient>
<linearGradient id="paint13_linear_2045_297" x1="14.6743" y1="77.3448" x2="25.2121" y2="77.3448" gradientUnits="userSpaceOnUse">
<stop stop-color="#969696"/>
<stop offset="0.21" stop-color="#CACACA"/>
<stop offset="0.33" stop-color="#F0F0F0"/>
<stop offset="0.52" stop-color="white"/>
<stop offset="0.73" stop-color="#EBEBEB"/>
<stop offset="1" stop-color="#B0B0B0"/>
</linearGradient>
<linearGradient id="paint14_linear_2045_297" x1="0.43677" y1="77.5583" x2="15.4008" y2="77.5583" gradientUnits="userSpaceOnUse">
<stop stop-color="#969696"/>
<stop offset="0.21" stop-color="#CACACA"/>
<stop offset="0.33" stop-color="#F0F0F0"/>
<stop offset="0.52" stop-color="white"/>
<stop offset="0.73" stop-color="#EBEBEB"/>
<stop offset="1" stop-color="#B0B0B0"/>
</linearGradient>
<linearGradient id="paint15_linear_2045_297" x1="12.6047" y1="64.9163" x2="25.8444" y2="64.9163" gradientUnits="userSpaceOnUse">
<stop stop-color="#969696"/>
<stop offset="0.21" stop-color="#CACACA"/>
<stop offset="0.33" stop-color="#F0F0F0"/>
<stop offset="0.52" stop-color="white"/>
<stop offset="0.73" stop-color="#EBEBEB"/>
<stop offset="1" stop-color="#B0B0B0"/>
</linearGradient>
<linearGradient id="paint16_linear_2045_297" x1="1.22363" y1="63.3602" x2="12.8579" y2="63.3602" gradientUnits="userSpaceOnUse">
<stop stop-color="#969696"/>
<stop offset="0.21" stop-color="#CACACA"/>
<stop offset="0.33" stop-color="#F0F0F0"/>
<stop offset="0.52" stop-color="white"/>
<stop offset="0.73" stop-color="#EBEBEB"/>
<stop offset="1" stop-color="#B0B0B0"/>
</linearGradient>
<linearGradient id="paint17_linear_2045_297" x1="12.9283" y1="52.4255" x2="29.0285" y2="52.4255" gradientUnits="userSpaceOnUse">
<stop stop-color="#969696"/>
<stop offset="0.21" stop-color="#CACACA"/>
<stop offset="0.33" stop-color="#F0F0F0"/>
<stop offset="0.52" stop-color="white"/>
<stop offset="0.73" stop-color="#EBEBEB"/>
<stop offset="1" stop-color="#B0B0B0"/>
</linearGradient>
<linearGradient id="paint18_linear_2045_297" x1="4.40894" y1="49.1725" x2="13.4035" y2="49.1725" gradientUnits="userSpaceOnUse">
<stop stop-color="#969696"/>
<stop offset="0.21" stop-color="#CACACA"/>
<stop offset="0.33" stop-color="#F0F0F0"/>
<stop offset="0.52" stop-color="white"/>
<stop offset="0.73" stop-color="#EBEBEB"/>
<stop offset="1" stop-color="#B0B0B0"/>
</linearGradient>
<linearGradient id="paint19_linear_2045_297" x1="16.1742" y1="40.0737" x2="34.8634" y2="40.0737" gradientUnits="userSpaceOnUse">
<stop stop-color="#969696"/>
<stop offset="0.21" stop-color="#CACACA"/>
<stop offset="0.33" stop-color="#F0F0F0"/>
<stop offset="0.52" stop-color="white"/>
<stop offset="0.73" stop-color="#EBEBEB"/>
<stop offset="1" stop-color="#B0B0B0"/>
</linearGradient>
<linearGradient id="paint20_linear_2045_297" x1="10.1182" y1="35.3579" x2="18.2482" y2="35.3579" gradientUnits="userSpaceOnUse">
<stop stop-color="#969696"/>
<stop offset="0.21" stop-color="#CACACA"/>
<stop offset="0.33" stop-color="#F0F0F0"/>
<stop offset="0.52" stop-color="white"/>
<stop offset="0.73" stop-color="#EBEBEB"/>
<stop offset="1" stop-color="#B0B0B0"/>
</linearGradient>
<linearGradient id="paint21_linear_2045_297" x1="22.457" y1="28.2652" x2="43.4352" y2="28.2652" gradientUnits="userSpaceOnUse">
<stop stop-color="#969696"/>
<stop offset="0.21" stop-color="#CACACA"/>
<stop offset="0.33" stop-color="#F0F0F0"/>
<stop offset="0.52" stop-color="white"/>
<stop offset="0.73" stop-color="#EBEBEB"/>
<stop offset="1" stop-color="#B0B0B0"/>
</linearGradient>
<linearGradient id="paint22_linear_2045_297" x1="18.5679" y1="22.2696" x2="27.3958" y2="22.2696" gradientUnits="userSpaceOnUse">
<stop stop-color="#969696"/>
<stop offset="0.21" stop-color="#CACACA"/>
<stop offset="0.33" stop-color="#F0F0F0"/>
<stop offset="0.52" stop-color="white"/>
<stop offset="0.73" stop-color="#EBEBEB"/>
<stop offset="1" stop-color="#B0B0B0"/>
</linearGradient>
<linearGradient id="paint23_linear_2045_297" x1="31.885" y1="17.4455" x2="54.8294" y2="17.4455" gradientUnits="userSpaceOnUse">
<stop stop-color="#969696"/>
<stop offset="0.21" stop-color="#CACACA"/>
<stop offset="0.33" stop-color="#F0F0F0"/>
<stop offset="0.52" stop-color="white"/>
<stop offset="0.73" stop-color="#EBEBEB"/>
<stop offset="1" stop-color="#B0B0B0"/>
</linearGradient>
<linearGradient id="paint24_linear_2045_297" x1="29.8062" y1="10.2695" x2="40.9179" y2="10.2695" gradientUnits="userSpaceOnUse">
<stop stop-color="#969696"/>
<stop offset="0.21" stop-color="#CACACA"/>
<stop offset="0.33" stop-color="#F0F0F0"/>
<stop offset="0.52" stop-color="white"/>
<stop offset="0.73" stop-color="#EBEBEB"/>
<stop offset="1" stop-color="#B0B0B0"/>
</linearGradient>
<linearGradient id="paint25_linear_2045_297" x1="12.5058" y1="76.374" x2="109.054" y2="76.374" gradientUnits="userSpaceOnUse">
<stop stop-color="#969696"/>
<stop offset="0.21" stop-color="#CACACA"/>
<stop offset="0.33" stop-color="#F0F0F0"/>
<stop offset="0.52" stop-color="white"/>
<stop offset="0.73" stop-color="#EBEBEB"/>
<stop offset="1" stop-color="#B0B0B0"/>
</linearGradient>
</defs>
</svg>
