<svg width="109" height="148" viewBox="0 0 109 148" fill="none" xmlns="http://www.w3.org/2000/svg">
<g id="Group">
<path id="Vector" d="M62.3605 3.75741C67.1412 7.25394 67.9975 12.7421 67.9975 12.7421C67.9975 12.7421 61.1084 12.5591 56.3277 9.0626C51.547 5.56608 50.6907 0.0779419 50.6907 0.0779419C50.6907 0.0779419 57.5799 0.26088 62.3605 3.75741Z" fill="url(#paint0_linear_2045_257)"/>
<g id="Group_2">
<g id="Group_3">
<path id="Vector_2" d="M28.7494 132.611C24.6357 136.846 24.3862 141.848 24.4421 141.862C24.4249 141.924 33.074 139.984 36.9597 135.314C40.841 130.702 38.952 125.922 39.0079 125.936C38.9864 125.98 32.8588 128.414 28.7494 132.608V132.611Z" fill="url(#paint1_linear_2045_257)"/>
<path id="Vector_3" d="M34.8085 147.277C27.2179 146.241 24.3822 141.637 24.3865 141.678C24.4768 141.699 32.6139 139.818 39.6236 140.477C46.7021 141.167 50.8631 144.695 50.8631 144.733C50.9621 144.75 42.4851 148.333 34.8128 147.273L34.8085 147.277Z" fill="url(#paint2_linear_2045_257)"/>
</g>
<g id="Group_4">
<path id="Vector_4" d="M43.7584 127.324C40.9313 131.966 41.9468 136.823 41.9985 136.833C41.9899 136.898 49.5933 133.868 52.1537 128.828C54.7226 123.844 51.8008 119.474 51.8524 119.481C51.8395 119.53 46.5855 122.719 43.7584 127.324Z" fill="url(#paint3_linear_2045_257)"/>
<path id="Vector_5" d="M53.0314 140.668C45.6517 140.685 41.8951 136.619 41.8994 136.66C41.9812 136.671 49.1156 133.765 55.9188 133.457C62.7907 133.167 67.6058 136.012 67.6101 136.05C67.7048 136.056 60.4886 140.668 53.0314 140.671V140.668Z" fill="url(#paint4_linear_2045_257)"/>
</g>
<g id="Group_5">
<path id="Vector_6" d="M56.7193 120.168C55.1142 125.049 57.2528 129.605 57.3002 129.605C57.3002 129.667 63.815 125.708 65.1188 120.468C66.4356 115.287 62.6317 111.449 62.679 111.449C62.679 111.497 58.3329 115.322 56.7193 120.164V120.168Z" fill="url(#paint5_linear_2045_257)"/>
<path id="Vector_7" d="M68.7206 131.818C61.6765 132.843 57.1497 129.415 57.1626 129.453C57.2401 129.453 63.3289 125.674 69.805 124.438C76.3456 123.213 81.6513 125.304 81.6642 125.339C81.7502 125.332 75.8422 130.799 68.7249 131.818H68.7206Z" fill="url(#paint6_linear_2045_257)"/>
</g>
<g id="Group_6">
<path id="Vector_8" d="M67.5328 111.443C67.0853 116.403 70.1964 120.521 70.2437 120.517C70.2566 120.579 75.6311 115.84 75.743 110.566C75.8764 105.344 71.341 102.141 71.3883 102.134C71.3926 102.182 67.9975 106.517 67.5371 111.443H67.5328Z" fill="url(#paint7_linear_2045_257)"/>
<path id="Vector_9" d="M81.7759 121.083C75.1923 123.05 70.063 120.354 70.076 120.389C70.1448 120.378 75.1492 115.874 81.1735 113.765C87.2537 111.66 92.8864 112.947 92.9036 112.982C92.9854 112.964 88.4284 119.105 81.7759 121.079V121.083Z" fill="url(#paint8_linear_2045_257)"/>
</g>
<g id="Group_7">
<path id="Vector_10" d="M76.1173 101.446C76.7542 106.34 80.6958 109.906 80.7345 109.896C80.756 109.954 84.9515 104.594 83.9403 99.4302C82.9549 94.3183 77.8515 91.8297 77.8945 91.8193C77.9074 91.8677 75.502 96.5861 76.1173 101.446Z" fill="url(#paint9_linear_2045_257)"/>
<path id="Vector_11" d="M92.0901 108.826C86.1002 111.666 80.5235 109.761 80.545 109.792C80.6052 109.775 84.4909 104.691 89.9299 101.781C95.4206 98.8677 101.208 99.3234 101.23 99.3544C101.303 99.3268 98.1444 105.968 92.0901 108.822V108.826Z" fill="url(#paint10_linear_2045_257)"/>
</g>
<g id="Group_8">
<path id="Vector_12" d="M82.374 90.4697C84.0263 95.1674 88.6392 98.0841 88.6736 98.0703C88.7037 98.1255 91.6772 92.2957 89.6117 87.3805C87.585 82.5137 82.0685 80.7982 82.1029 80.7809C82.1287 80.8258 80.7474 85.8031 82.3697 90.4663L82.374 90.4697Z" fill="url(#paint11_linear_2045_257)"/>
<path id="Vector_13" d="M99.5605 95.4089C94.2978 99.0366 88.4457 97.9631 88.4715 97.9942C88.5275 97.97 91.2513 92.4543 95.9717 88.8266C100.744 85.1885 106.51 84.8054 106.536 84.833C106.605 84.7985 104.888 91.7605 99.5605 95.4089Z" fill="url(#paint12_linear_2045_257)"/>
</g>
<g id="Group_9">
<path id="Vector_14" d="M86.221 78.8134C88.8158 83.1901 93.9364 85.3888 93.9708 85.368C94.0139 85.4198 95.7136 79.2759 92.6713 74.7335C89.6721 70.2325 83.9103 69.3351 83.9447 69.3144C83.9792 69.3558 83.6607 74.4643 86.221 78.8134Z" fill="url(#paint13_linear_2045_257)"/>
<path id="Vector_15" d="M104.079 81.1991C99.6767 85.5171 93.7169 85.2997 93.7514 85.3238C93.7987 85.2928 95.3263 79.494 99.1947 75.2415C103.111 70.9718 108.674 69.7603 108.709 69.7845C108.769 69.7431 108.541 76.85 104.079 81.1956V81.1991Z" fill="url(#paint14_linear_2045_257)"/>
</g>
<g id="Group_10">
<path id="Vector_16" d="M87.559 66.777C91.0143 70.7257 96.4878 72.1478 96.5179 72.1271C96.5696 72.172 96.9569 65.8727 93.011 61.8135C89.1167 57.7889 83.2818 57.7268 83.3119 57.6992C83.3549 57.7371 84.1424 62.8525 87.559 66.777Z" fill="url(#paint15_linear_2045_257)"/>
<path id="Vector_17" d="M105.546 66.5563C102.142 71.4507 96.2598 72.0927 96.2985 72.1134C96.3373 72.0755 96.6256 66.1421 99.5086 61.3753C102.435 56.5844 107.611 54.579 107.65 54.5997C107.702 54.5514 109.005 61.6273 105.546 66.5563Z" fill="url(#paint16_linear_2045_257)"/>
</g>
<g id="Group_11">
<path id="Vector_18" d="M86.2985 54.6586C90.537 58.0827 96.1955 58.7005 96.2213 58.6729C96.2859 58.7109 95.3091 52.4116 90.5413 48.9358C85.8338 45.4876 80.0978 46.2538 80.1236 46.2262C80.1796 46.2573 82.1073 51.2518 86.2985 54.6586Z" fill="url(#paint17_linear_2045_257)"/>
<path id="Vector_19" d="M103.851 51.8488C101.583 57.1989 95.9587 58.6762 96.0018 58.6935C96.0362 58.652 95.0422 52.729 96.8021 47.5653C98.5965 42.374 103.196 39.6265 103.24 39.6438C103.283 39.5885 106.166 46.4573 103.846 51.8488H103.851Z" fill="url(#paint18_linear_2045_257)"/>
</g>
<g id="Group_12">
<path id="Vector_20" d="M82.3524 42.7644C87.2923 45.581 92.9594 45.3808 92.9809 45.3532C93.0541 45.3842 90.6745 39.2403 85.1666 36.4341C79.7275 33.6486 74.2713 35.2226 74.2928 35.1915C74.3573 35.2157 77.4684 39.9617 82.3524 42.7644Z" fill="url(#paint19_linear_2045_257)"/>
<path id="Vector_21" d="M98.8891 37.4456C97.9037 43.1132 92.7185 45.3913 92.7702 45.4017C92.796 45.3568 90.4896 39.5925 90.9758 34.1665C91.4965 28.7095 95.3262 25.2958 95.3778 25.3061C95.4166 25.2474 99.9175 31.7297 98.8848 37.4456H98.8891Z" fill="url(#paint20_linear_2045_257)"/>
</g>
<g id="Group_13">
<path id="Vector_22" d="M75.6226 31.3922C81.1778 33.5288 86.6814 32.5209 86.6986 32.4898C86.7847 32.514 82.9506 26.6841 76.7887 24.6166C70.6999 22.5629 65.704 24.9065 65.7212 24.872C65.7987 24.8893 70.1319 29.2591 75.6226 31.3888V31.3922Z" fill="url(#paint21_linear_2045_257)"/>
<path id="Vector_23" d="M90.5584 23.7119C91.0016 29.5487 86.4489 32.562 86.5049 32.5689C86.5221 32.5205 82.8602 27.06 81.935 21.5201C81.0357 15.9457 83.9015 11.959 83.9575 11.9625C83.9876 11.9003 90.1539 17.8234 90.5584 23.7084V23.7119Z" fill="url(#paint22_linear_2045_257)"/>
</g>
<g id="Group_14">
<path id="Vector_24" d="M66.0181 20.8436C72.1026 22.2415 77.2619 20.4535 77.2705 20.4225C77.3652 20.4363 72.038 15.0793 65.3081 13.816C58.6599 12.5561 54.3138 15.604 54.3267 15.5694C54.4127 15.5763 60.0067 19.4422 66.0181 20.8436Z" fill="url(#paint23_linear_2045_257)"/>
<path id="Vector_25" d="M78.7466 11.0162C80.7647 16.8598 77.0383 20.5324 77.1028 20.5324C77.1114 20.4841 72.0554 15.4757 69.5682 9.97722C67.1026 4.44076 68.798 0.00193096 68.8625 -0.0015207C68.884 -0.0671022 76.7629 5.11729 78.7466 11.0162Z" fill="url(#paint24_linear_2045_257)"/>
</g>
</g>
<path id="Vector_26" d="M0.108368 143.398L0.228852 142.328C11.292 143.132 22.3207 142.141 33.0052 139.39C43.4185 136.708 53.0574 132.473 61.6591 126.806C79.5082 115.042 91.0188 98.2535 94.0697 79.5317C96.5698 64.2029 95.2875 50.5413 90.2572 38.9299C84.8569 26.459 75.2439 16.7047 61.6764 9.92906L62.3864 9.01782C76.2164 15.9246 86.0187 25.8723 91.5223 38.5778C96.6214 50.348 97.9209 64.1753 95.395 79.6732C92.2968 98.6643 80.6184 115.698 62.5025 127.637C53.7717 133.395 43.9822 137.692 33.4053 140.415C22.5445 143.211 11.3393 144.216 0.095459 143.401L0.108368 143.398Z" fill="url(#paint25_linear_2045_257)"/>
</g>
<defs>
<linearGradient id="paint0_linear_2045_257" x1="50.6907" y1="6.4126" x2="67.997" y2="6.4126" gradientUnits="userSpaceOnUse">
<stop stop-color="#969696"/>
<stop offset="0.21" stop-color="#CACACA"/>
<stop offset="0.33" stop-color="#F0F0F0"/>
<stop offset="0.52" stop-color="white"/>
<stop offset="0.73" stop-color="#EBEBEB"/>
<stop offset="1" stop-color="#B0B0B0"/>
</linearGradient>
<linearGradient id="paint1_linear_2045_257" x1="24.436" y1="133.903" x2="39.4185" y2="133.903" gradientUnits="userSpaceOnUse">
<stop stop-color="#969696"/>
<stop offset="0.21" stop-color="#CACACA"/>
<stop offset="0.33" stop-color="#F0F0F0"/>
<stop offset="0.52" stop-color="white"/>
<stop offset="0.73" stop-color="#EBEBEB"/>
<stop offset="1" stop-color="#B0B0B0"/>
</linearGradient>
<linearGradient id="paint2_linear_2045_257" x1="24.3865" y1="143.905" x2="50.8631" y2="143.905" gradientUnits="userSpaceOnUse">
<stop stop-color="#969696"/>
<stop offset="0.21" stop-color="#CACACA"/>
<stop offset="0.33" stop-color="#F0F0F0"/>
<stop offset="0.52" stop-color="white"/>
<stop offset="0.73" stop-color="#EBEBEB"/>
<stop offset="1" stop-color="#B0B0B0"/>
</linearGradient>
<linearGradient id="paint3_linear_2045_257" x1="41.7793" y1="128.161" x2="53.2117" y2="128.161" gradientUnits="userSpaceOnUse">
<stop stop-color="#969696"/>
<stop offset="0.21" stop-color="#CACACA"/>
<stop offset="0.33" stop-color="#F0F0F0"/>
<stop offset="0.52" stop-color="white"/>
<stop offset="0.73" stop-color="#EBEBEB"/>
<stop offset="1" stop-color="#B0B0B0"/>
</linearGradient>
<linearGradient id="paint4_linear_2045_257" x1="41.8994" y1="137.055" x2="67.6102" y2="137.055" gradientUnits="userSpaceOnUse">
<stop stop-color="#969696"/>
<stop offset="0.21" stop-color="#CACACA"/>
<stop offset="0.33" stop-color="#F0F0F0"/>
<stop offset="0.52" stop-color="white"/>
<stop offset="0.73" stop-color="#EBEBEB"/>
<stop offset="1" stop-color="#B0B0B0"/>
</linearGradient>
<linearGradient id="paint5_linear_2045_257" x1="56.123" y1="120.531" x2="65.3957" y2="120.531" gradientUnits="userSpaceOnUse">
<stop stop-color="#969696"/>
<stop offset="0.21" stop-color="#CACACA"/>
<stop offset="0.33" stop-color="#F0F0F0"/>
<stop offset="0.52" stop-color="white"/>
<stop offset="0.73" stop-color="#EBEBEB"/>
<stop offset="1" stop-color="#B0B0B0"/>
</linearGradient>
<linearGradient id="paint6_linear_2045_257" x1="57.1626" y1="128.033" x2="81.6643" y2="128.033" gradientUnits="userSpaceOnUse">
<stop stop-color="#969696"/>
<stop offset="0.21" stop-color="#CACACA"/>
<stop offset="0.33" stop-color="#F0F0F0"/>
<stop offset="0.52" stop-color="white"/>
<stop offset="0.73" stop-color="#EBEBEB"/>
<stop offset="1" stop-color="#B0B0B0"/>
</linearGradient>
<linearGradient id="paint7_linear_2045_257" x1="67.4888" y1="111.33" x2="75.7456" y2="111.33" gradientUnits="userSpaceOnUse">
<stop stop-color="#969696"/>
<stop offset="0.21" stop-color="#CACACA"/>
<stop offset="0.33" stop-color="#F0F0F0"/>
<stop offset="0.52" stop-color="white"/>
<stop offset="0.73" stop-color="#EBEBEB"/>
<stop offset="1" stop-color="#B0B0B0"/>
</linearGradient>
<linearGradient id="paint8_linear_2045_257" x1="70.0759" y1="117.183" x2="92.904" y2="117.183" gradientUnits="userSpaceOnUse">
<stop stop-color="#969696"/>
<stop offset="0.21" stop-color="#CACACA"/>
<stop offset="0.33" stop-color="#F0F0F0"/>
<stop offset="0.52" stop-color="white"/>
<stop offset="0.73" stop-color="#EBEBEB"/>
<stop offset="1" stop-color="#B0B0B0"/>
</linearGradient>
<linearGradient id="paint9_linear_2045_257" x1="76.0166" y1="100.861" x2="84.0973" y2="100.861" gradientUnits="userSpaceOnUse">
<stop stop-color="#969696"/>
<stop offset="0.21" stop-color="#CACACA"/>
<stop offset="0.33" stop-color="#F0F0F0"/>
<stop offset="0.52" stop-color="white"/>
<stop offset="0.73" stop-color="#EBEBEB"/>
<stop offset="1" stop-color="#B0B0B0"/>
</linearGradient>
<linearGradient id="paint10_linear_2045_257" x1="80.5449" y1="104.852" x2="101.23" y2="104.852" gradientUnits="userSpaceOnUse">
<stop stop-color="#969696"/>
<stop offset="0.21" stop-color="#CACACA"/>
<stop offset="0.33" stop-color="#F0F0F0"/>
<stop offset="0.52" stop-color="white"/>
<stop offset="0.73" stop-color="#EBEBEB"/>
<stop offset="1" stop-color="#B0B0B0"/>
</linearGradient>
<linearGradient id="paint11_linear_2045_257" x1="81.5791" y1="89.4294" x2="90.3409" y2="89.4294" gradientUnits="userSpaceOnUse">
<stop stop-color="#969696"/>
<stop offset="0.21" stop-color="#CACACA"/>
<stop offset="0.33" stop-color="#F0F0F0"/>
<stop offset="0.52" stop-color="white"/>
<stop offset="0.73" stop-color="#EBEBEB"/>
<stop offset="1" stop-color="#B0B0B0"/>
</linearGradient>
<linearGradient id="paint12_linear_2045_257" x1="88.4714" y1="91.4782" x2="106.537" y2="91.4782" gradientUnits="userSpaceOnUse">
<stop stop-color="#969696"/>
<stop offset="0.21" stop-color="#CACACA"/>
<stop offset="0.33" stop-color="#F0F0F0"/>
<stop offset="0.52" stop-color="white"/>
<stop offset="0.73" stop-color="#EBEBEB"/>
<stop offset="1" stop-color="#B0B0B0"/>
</linearGradient>
<linearGradient id="paint13_linear_2045_257" x1="83.9446" y1="77.3447" x2="94.4824" y2="77.3447" gradientUnits="userSpaceOnUse">
<stop stop-color="#969696"/>
<stop offset="0.21" stop-color="#CACACA"/>
<stop offset="0.33" stop-color="#F0F0F0"/>
<stop offset="0.52" stop-color="white"/>
<stop offset="0.73" stop-color="#EBEBEB"/>
<stop offset="1" stop-color="#B0B0B0"/>
</linearGradient>
<linearGradient id="paint14_linear_2045_257" x1="93.7512" y1="77.5572" x2="108.715" y2="77.5572" gradientUnits="userSpaceOnUse">
<stop stop-color="#969696"/>
<stop offset="0.21" stop-color="#CACACA"/>
<stop offset="0.33" stop-color="#F0F0F0"/>
<stop offset="0.52" stop-color="white"/>
<stop offset="0.73" stop-color="#EBEBEB"/>
<stop offset="1" stop-color="#B0B0B0"/>
</linearGradient>
<linearGradient id="paint15_linear_2045_257" x1="83.3118" y1="64.9162" x2="96.5514" y2="64.9162" gradientUnits="userSpaceOnUse">
<stop stop-color="#969696"/>
<stop offset="0.21" stop-color="#CACACA"/>
<stop offset="0.33" stop-color="#F0F0F0"/>
<stop offset="0.52" stop-color="white"/>
<stop offset="0.73" stop-color="#EBEBEB"/>
<stop offset="1" stop-color="#B0B0B0"/>
</linearGradient>
<linearGradient id="paint16_linear_2045_257" x1="96.2983" y1="63.3601" x2="107.933" y2="63.3601" gradientUnits="userSpaceOnUse">
<stop stop-color="#969696"/>
<stop offset="0.21" stop-color="#CACACA"/>
<stop offset="0.33" stop-color="#F0F0F0"/>
<stop offset="0.52" stop-color="white"/>
<stop offset="0.73" stop-color="#EBEBEB"/>
<stop offset="1" stop-color="#B0B0B0"/>
</linearGradient>
<linearGradient id="paint17_linear_2045_257" x1="80.1235" y1="52.4254" x2="96.2237" y2="52.4254" gradientUnits="userSpaceOnUse">
<stop stop-color="#969696"/>
<stop offset="0.21" stop-color="#CACACA"/>
<stop offset="0.33" stop-color="#F0F0F0"/>
<stop offset="0.52" stop-color="white"/>
<stop offset="0.73" stop-color="#EBEBEB"/>
<stop offset="1" stop-color="#B0B0B0"/>
</linearGradient>
<linearGradient id="paint18_linear_2045_257" x1="95.7529" y1="49.1723" x2="104.747" y2="49.1723" gradientUnits="userSpaceOnUse">
<stop stop-color="#969696"/>
<stop offset="0.21" stop-color="#CACACA"/>
<stop offset="0.33" stop-color="#F0F0F0"/>
<stop offset="0.52" stop-color="white"/>
<stop offset="0.73" stop-color="#EBEBEB"/>
<stop offset="1" stop-color="#B0B0B0"/>
</linearGradient>
<linearGradient id="paint19_linear_2045_257" x1="74.2927" y1="40.0736" x2="92.9819" y2="40.0736" gradientUnits="userSpaceOnUse">
<stop stop-color="#969696"/>
<stop offset="0.21" stop-color="#CACACA"/>
<stop offset="0.33" stop-color="#F0F0F0"/>
<stop offset="0.52" stop-color="white"/>
<stop offset="0.73" stop-color="#EBEBEB"/>
<stop offset="1" stop-color="#B0B0B0"/>
</linearGradient>
<linearGradient id="paint20_linear_2045_257" x1="90.9084" y1="35.3578" x2="99.0385" y2="35.3578" gradientUnits="userSpaceOnUse">
<stop stop-color="#969696"/>
<stop offset="0.21" stop-color="#CACACA"/>
<stop offset="0.33" stop-color="#F0F0F0"/>
<stop offset="0.52" stop-color="white"/>
<stop offset="0.73" stop-color="#EBEBEB"/>
<stop offset="1" stop-color="#B0B0B0"/>
</linearGradient>
<linearGradient id="paint21_linear_2045_257" x1="65.7212" y1="28.2652" x2="86.6993" y2="28.2652" gradientUnits="userSpaceOnUse">
<stop stop-color="#969696"/>
<stop offset="0.21" stop-color="#CACACA"/>
<stop offset="0.33" stop-color="#F0F0F0"/>
<stop offset="0.52" stop-color="white"/>
<stop offset="0.73" stop-color="#EBEBEB"/>
<stop offset="1" stop-color="#B0B0B0"/>
</linearGradient>
<linearGradient id="paint22_linear_2045_257" x1="81.7605" y1="22.2696" x2="90.5885" y2="22.2696" gradientUnits="userSpaceOnUse">
<stop stop-color="#969696"/>
<stop offset="0.21" stop-color="#CACACA"/>
<stop offset="0.33" stop-color="#F0F0F0"/>
<stop offset="0.52" stop-color="white"/>
<stop offset="0.73" stop-color="#EBEBEB"/>
<stop offset="1" stop-color="#B0B0B0"/>
</linearGradient>
<linearGradient id="paint23_linear_2045_257" x1="54.3267" y1="17.4454" x2="77.271" y2="17.4454" gradientUnits="userSpaceOnUse">
<stop stop-color="#969696"/>
<stop offset="0.21" stop-color="#CACACA"/>
<stop offset="0.33" stop-color="#F0F0F0"/>
<stop offset="0.52" stop-color="white"/>
<stop offset="0.73" stop-color="#EBEBEB"/>
<stop offset="1" stop-color="#B0B0B0"/>
</linearGradient>
<linearGradient id="paint24_linear_2045_257" x1="68.2344" y1="10.2693" x2="79.3461" y2="10.2693" gradientUnits="userSpaceOnUse">
<stop stop-color="#969696"/>
<stop offset="0.21" stop-color="#CACACA"/>
<stop offset="0.33" stop-color="#F0F0F0"/>
<stop offset="0.52" stop-color="white"/>
<stop offset="0.73" stop-color="#EBEBEB"/>
<stop offset="1" stop-color="#B0B0B0"/>
</linearGradient>
<linearGradient id="paint25_linear_2045_257" x1="0.0954768" y1="76.374" x2="96.6437" y2="76.374" gradientUnits="userSpaceOnUse">
<stop stop-color="#969696"/>
<stop offset="0.21" stop-color="#CACACA"/>
<stop offset="0.33" stop-color="#F0F0F0"/>
<stop offset="0.52" stop-color="white"/>
<stop offset="0.73" stop-color="#EBEBEB"/>
<stop offset="1" stop-color="#B0B0B0"/>
</linearGradient>
</defs>
</svg>
