<svg width="63" height="63" viewBox="0 0 63 63" fill="none" xmlns="http://www.w3.org/2000/svg">
<circle cx="31.5" cy="31.5" r="31.5" fill="#043798"/>
<g filter="url(#filter0_d_2451_25)">
<path d="M32.5 17.375C35.8746 17.375 38.9983 17.97 41.3346 18.9923C42.4998 19.5027 43.5352 20.1473 44.2979 20.9377C45.0052 21.6669 45.5302 22.5827 45.6133 23.6444L45.625 23.9375V38.5208C45.625 39.7079 45.0694 40.7229 44.2979 41.5206C43.5352 42.311 42.4998 42.9556 41.3346 43.466C38.9983 44.4869 35.8746 45.0833 32.5 45.0833C29.1254 45.0833 26.0017 44.4883 23.6654 43.466C22.5002 42.9556 21.4648 42.311 20.7021 41.5206C19.9948 40.7915 19.4698 39.8756 19.3867 38.814L19.375 38.5208V23.9375C19.375 22.7504 19.9306 21.7354 20.7021 20.9377C21.4648 20.1473 22.5002 19.5027 23.6654 18.9923C26.0017 17.9715 29.1254 17.375 32.5 17.375ZM42.7083 35.4685C42.2665 35.7339 41.8076 35.9697 41.3346 36.1744C38.9983 37.1952 35.8746 37.7917 32.5 37.7917C29.1254 37.7917 26.0017 37.1967 23.6654 36.1744C23.1924 35.9697 22.7335 35.7339 22.2917 35.4685V38.5208C22.2917 38.7425 22.3879 39.0692 22.7992 39.4935C23.2163 39.9252 23.89 40.3802 24.835 40.7944C26.7221 41.6198 29.4302 42.1667 32.5 42.1667C35.5698 42.1667 38.2779 41.6198 40.165 40.7944C41.11 40.3802 41.7838 39.9252 42.2008 39.4935C42.6121 39.0706 42.7083 38.7425 42.7083 38.5208V35.4685ZM42.7083 28.1769C42.2665 28.4422 41.8076 28.678 41.3346 28.8827C38.9983 29.9035 35.8746 30.5 32.5 30.5C29.1254 30.5 26.0017 29.905 23.6654 28.8827C23.1924 28.678 22.7335 28.4422 22.2917 28.1769V31.2292C22.2917 31.4508 22.3879 31.7775 22.7992 32.2019C23.2163 32.6335 23.89 33.0885 24.835 33.5027C26.7221 34.3281 29.4302 34.875 32.5 34.875C35.5698 34.875 38.2779 34.3281 40.165 33.5027C41.11 33.0885 41.7838 32.6335 42.2008 32.2019C42.6121 31.779 42.7083 31.4508 42.7083 31.2292V28.1769ZM32.5 20.2917C29.4302 20.2917 26.7221 20.8385 24.835 21.664C23.89 22.0781 23.2163 22.5331 22.7992 22.9648C22.3879 23.3877 22.2917 23.7158 22.2917 23.9375C22.2917 24.1592 22.3879 24.4858 22.7992 24.9102C23.2163 25.3419 23.89 25.7969 24.835 26.211C26.7221 27.0365 29.4302 27.5833 32.5 27.5833C35.5698 27.5833 38.2779 27.0365 40.165 26.211C41.11 25.7969 41.7838 25.3419 42.2008 24.9102C42.6121 24.4873 42.7083 24.1592 42.7083 23.9375C42.7083 23.7158 42.6121 23.3892 42.2008 22.9648C41.7838 22.5331 41.11 22.0781 40.165 21.664C38.2779 20.8385 35.5698 20.2917 32.5 20.2917Z" fill="white"/>
</g>
<defs>
<filter id="filter0_d_2451_25" x="15.375" y="16.375" width="34.25" height="35.709" filterUnits="userSpaceOnUse" color-interpolation-filters="sRGB">
<feFlood flood-opacity="0" result="BackgroundImageFix"/>
<feColorMatrix in="SourceAlpha" type="matrix" values="0 0 0 0 0 0 0 0 0 0 0 0 0 0 0 0 0 0 127 0" result="hardAlpha"/>
<feOffset dy="3"/>
<feGaussianBlur stdDeviation="2"/>
<feComposite in2="hardAlpha" operator="out"/>
<feColorMatrix type="matrix" values="0 0 0 0 0 0 0 0 0 0 0 0 0 0 0 0 0 0 0.5 0"/>
<feBlend mode="normal" in2="BackgroundImageFix" result="effect1_dropShadow_2451_25"/>
<feBlend mode="normal" in="SourceGraphic" in2="effect1_dropShadow_2451_25" result="shape"/>
</filter>
</defs>
</svg>
