<svg width="624" height="108" viewBox="0 0 624 108" fill="none" xmlns="http://www.w3.org/2000/svg">
<g opacity="0.87">
<path d="M119.039 102.936H101.846V39.6032H119.039V45.8124C123.398 40.9687 129.786 38.3605 137.092 38.3605V55.1865C136.355 55.0615 135.434 54.9388 134.697 54.9388C126.161 54.9388 119.039 61.0231 119.039 69.5292V102.934V102.936ZM138.996 71.2695C138.996 52.7668 152.872 38.2991 170.926 38.2991C188.98 38.2991 200.892 51.3378 200.892 69.9654C200.892 72.6349 200.648 75.4294 200.279 78.2239H155.699C158.094 85.0534 164.48 88.9656 172.463 88.9656C178.111 88.9656 183.515 86.9163 186.771 83.129L197.27 93.7458C191.498 100.203 182.962 104.115 172.094 104.115C153.427 104.24 138.998 89.7722 138.998 71.2695H138.996ZM170.557 53.4507C163.188 53.4507 156.496 58.2945 155.267 65.8691H185.234C184.252 58.1082 177.864 53.4507 170.557 53.4507ZM206.91 71.2695C206.91 53.1394 219.315 38.2991 237.245 38.2991C244.367 38.2991 250.753 41.5889 254.93 46.185V39.6032H272.123V102.936H254.93V96.1063C250.816 100.764 244.43 104.24 237.245 104.24C219.315 104.24 206.91 89.5245 206.91 71.2695ZM239.453 55.684C230.917 55.684 224.04 62.6384 224.04 71.2695C224.04 79.9006 230.917 86.855 239.453 86.855C247.989 86.855 254.867 79.9006 254.867 71.2695C254.867 62.6384 247.989 55.684 239.453 55.684ZM284.034 102.936V39.6032H301.227V45.5648C305.833 40.9073 312.403 38.3628 319.28 38.3628C328.43 38.3628 335.676 42.5227 339.85 49.6634C345.746 42.584 351.64 38.3628 361.773 38.3628C376.203 38.3628 386.212 48.8568 386.212 64.4401V102.936H369.019V69.0975C369.019 59.8462 363.984 55.1887 356.983 55.1887C349.492 55.1887 343.72 60.7777 343.72 69.4065V102.997H326.526V69.1589C326.526 59.9075 321.491 55.2501 314.49 55.2501C306.999 55.2501 301.227 60.9617 301.227 69.5928V103.058H284.034V102.934V102.936ZM427.047 104.24C409.117 104.24 394.44 89.3996 394.44 71.3331C394.44 53.2667 409.117 38.3628 427.047 38.3628C436.32 38.3628 444.732 42.275 450.626 48.6069L438.468 60.9004C435.704 57.7333 431.59 55.684 427.047 55.684C418.511 55.684 411.634 62.6384 411.634 71.2695C411.634 79.9006 418.511 86.855 427.047 86.855C431.53 86.855 435.704 84.8057 438.468 81.6386L450.626 93.9321C444.73 100.328 436.318 104.24 427.047 104.24ZM452.715 71.2695C452.715 53.1394 465.12 38.2991 483.05 38.2991C490.173 38.2991 496.559 41.5889 500.736 46.185V39.6032H517.929V102.936H500.736V96.1063C496.622 100.764 490.236 104.24 483.05 104.24C465.12 104.24 452.715 89.5245 452.715 71.2695ZM485.322 55.684C476.786 55.684 469.909 62.6384 469.909 71.2695C469.909 79.9006 476.786 86.855 485.322 86.855C493.858 86.855 500.736 79.9006 500.736 71.2695C500.736 62.6384 493.797 55.684 485.322 55.684ZM547.035 102.936H529.842V39.6032H547.035V45.8124C551.394 40.9687 557.782 38.3605 565.088 38.3605V55.1865C564.351 55.0615 563.43 54.9388 562.693 54.9388C554.157 54.9388 547.035 61.0231 547.035 69.5292V102.934V102.936ZM568.465 93.1869L578.107 81.3887C583.142 85.6736 590.509 88.9634 597.387 88.9634C602.667 88.9634 606.536 86.7891 606.536 83.9969C606.536 79.712 600.272 78.5329 596.037 77.4151C585.29 74.4979 570.984 71.3309 570.984 57.2971C570.984 46.4304 581.731 38.2969 596.529 38.2969C606.292 38.2969 615.072 41.7116 621.582 47.0507L612.924 58.7239C608.687 55.4341 601.993 53.3848 596.652 53.3848C590.757 53.3848 588.117 55.3091 588.117 57.4198C588.117 60.3369 593.397 61.3321 599.906 62.8838C613.293 65.5533 623.853 70.3357 623.853 83.9333C623.853 95.7315 612.432 104.051 596.895 104.051C586.088 104.113 576.446 100.45 568.465 93.1846V93.1869Z" fill="white"/>
<path d="M46.5705 10.9023H9.28496C9.20135 36.9751 9.11547 63.0513 9.02734 89.1308C9.24969 89.1821 9.47709 89.2083 9.70526 89.2088C10.1357 89.2088 10.2645 89.1139 10.5425 89.1885C10.8204 89.263 11.1221 89.4427 11.1526 89.6969C11.159 89.7979 11.1262 89.8974 11.0611 89.9749H11.0814C11.3784 89.7095 11.7337 89.5178 12.1187 89.4156C12.4213 89.3324 12.7335 89.2891 13.0474 89.2868C13.3981 89.0479 13.7745 88.8489 14.1694 88.6936C15.4006 88.2442 16.7122 88.0571 18.0199 88.1445C19.6402 88.1852 20.8672 88.9715 21.7722 90.3918C22.6162 90.5884 23.4433 90.8223 24.2602 91.0697L23.8975 90.1037C23.2772 88.4902 23.5212 87.6971 24.9856 86.9174C26.0431 86.3548 27.1244 85.8294 28.2192 85.3481C28.2359 85.0266 28.307 84.7102 28.4294 84.4125C28.0532 84.5583 27.7108 84.6939 27.4125 84.8159L27.3312 28.2808H46.5604C62.8948 28.2808 73.9585 39.7071 73.9585 56.5873C73.9585 59.4888 73.7144 66.6578 69.6977 72.8032C68.0857 75.1793 66.1457 77.3156 63.9354 79.1485C62.6775 80.1912 61.3143 81.1 59.8679 81.8602C59.1222 82.2457 58.3536 82.5853 57.5664 82.877L57.3122 82.7923C57.4145 83.121 57.457 83.4654 57.4376 83.8092C57.7771 83.6554 58.1462 83.5779 58.5189 83.5821C58.9792 83.564 59.4345 83.6833 59.8268 83.9247C60.2191 84.1662 60.5308 84.5189 60.7221 84.9379C61.1763 84.9379 61.8203 84.9379 62.7931 84.8803C63.1651 84.8429 63.5398 84.8429 63.9117 84.8803C64.2842 84.9328 64.6501 85.0248 65.0032 85.1548C65.3271 85.2624 65.6421 85.395 65.9455 85.5514L69.0639 87.8089C69.4369 88.0392 69.7495 88.3553 69.9757 88.7309C70.1441 89.021 70.2589 89.339 70.3147 89.6698C70.5341 89.8305 70.7144 90.0386 70.8424 90.2786C70.9703 90.5186 71.0425 90.7844 71.0536 91.0561C71.0598 91.2449 71.0265 91.4328 70.9559 91.6079C70.8853 91.783 70.7788 91.9414 70.6434 92.073C70.43 92.2719 70.1548 92.3915 69.8638 92.412C69.7757 92.8221 69.6367 93.4797 69.474 94.2864C69.0537 96.371 69.0334 96.6896 68.7114 97.1777C68.4605 97.5574 68.2436 97.6794 66.803 98.7404C65.9217 99.3844 65.1862 99.9132 64.6574 100.283C70.0068 97.6822 74.8324 94.1204 78.8937 89.7749C91.7403 75.9555 91.9979 59.1566 91.9979 56.6246C92.0149 29.9417 72.9111 10.9023 46.5705 10.9023Z" fill="white"/>
<path d="M59.1287 82.8525C59.1287 82.8525 45.7941 74.8192 27.192 84.2084L9.54232 87.0692C9.54232 87.0692 8.06446 87.0692 7.91871 88.2352V89.0419C7.91871 89.0419 6.6137 89.3809 6.70183 90.6113C6.78996 91.8417 7.07809 92.157 7.07809 92.157C7.07809 92.157 6.06121 96.1668 6.26798 96.4855C6.47474 96.8041 10.5287 98.3599 10.5287 98.3599C11.1072 99.5211 12.0023 100.495 13.1107 101.169C14.2191 101.843 15.4955 102.19 16.7927 102.17C21.433 102.197 22.2736 98.9667 22.2736 98.9667L32.4221 99.3056L53.502 99.3361C53.502 99.3361 56.1086 101.99 59.9422 102.017C63.7759 102.044 68.7891 97.3735 68.7891 97.3735L71.4296 92.9874C71.4296 92.9874 72.7346 91.0587 72.7346 90.7401C72.7346 90.4215 75.026 88.2284 71.7177 86.8997C68.4095 85.571 59.1287 82.8525 59.1287 82.8525Z" fill="#E1E1E1"/>
<path d="M70.1101 91.6114C70.2593 91.025 70.3508 90.4827 69.7305 90.0996C69.5341 89.9643 69.396 89.7596 69.3441 89.5268C69.1949 88.6184 68.5374 88.2354 67.9306 87.7947L65.2495 85.8457C65.0947 85.709 64.9101 85.6103 64.7105 85.5576C62.5683 85.2966 60.4294 85.1203 58.2703 85.5881C54.9925 86.3067 52.0232 87.8083 49.237 89.7708C46.7573 91.5082 44.009 92.8262 41.102 93.6723C35.6515 95.2925 30.0892 95.7908 24.459 95.5772C24.1201 95.5772 23.7574 95.5772 23.3574 95.5772C23.3981 96.3534 23.4286 97.072 23.4727 97.9703C25.0048 97.8991 26.4724 97.9703 27.8961 97.7398C31.6755 97.1059 35.421 96.2145 39.2207 95.6552C42.9514 95.0978 46.762 95.7801 50.0674 97.5974C51.3521 98.2753 52.5791 97.9364 53.796 98.1025C53.8638 96.6178 53.8401 95.2213 54.0096 93.8553C54.2807 91.5775 55.1688 89.6522 57.1788 88.5811C58.2601 88.0049 59.416 87.9371 60.5921 87.9845C63.7546 88.1133 65.9104 90.1301 66.4087 93.5367C66.5646 94.6078 66.5511 95.706 66.6155 96.7941C67.2256 96.8856 68.1882 96.5704 68.273 96.1941C68.5306 95.0213 68.8052 93.8485 68.9679 92.6588C69.1136 91.5809 69.1373 91.4894 70.1135 91.6114H70.1101Z" fill="url(#paint0_linear_6809_229)"/>
<path d="M24.7156 87.8017C24.4611 87.9735 24.2789 88.233 24.2039 88.5307C24.1288 88.8284 24.1662 89.1433 24.3088 89.4152C24.9664 91.1303 25.5935 92.8488 26.2104 94.5843C26.346 94.9504 26.4985 95.1368 26.8883 95.1131C27.6069 95.0758 28.3289 95.1131 29.2983 95.1131C30.9728 94.9402 32.9048 94.7945 34.82 94.5301C39.0584 93.9969 43.1619 92.6857 46.9242 90.6625C48.2123 89.9541 48.5614 88.7745 48.6868 87.4153C48.7715 86.5442 48.5546 86.3984 47.7784 86.3984C41.015 86.525 34.2505 86.647 27.4849 86.7645C26.477 86.8019 25.5086 87.166 24.7257 87.8017H24.7156Z" fill="url(#paint1_linear_6809_229)"/>
<path d="M60.0301 90.2077C59.3922 90.2089 58.7614 90.3427 58.1779 90.6006C57.5944 90.8585 57.0709 91.2349 56.6405 91.7059C55.7334 92.704 55.2306 94.0043 55.2305 95.3531C55.2294 96.0351 55.3523 96.7115 55.5932 97.3496C55.828 97.9761 56.1813 98.5515 56.6338 99.0444C57.0718 99.5213 57.6023 99.9042 58.193 100.17C58.7721 100.429 59.3992 100.563 60.0335 100.563C60.6629 100.561 61.2846 100.424 61.8571 100.163C62.4404 99.8933 62.9637 99.5095 63.396 99.0342C63.8406 98.5398 64.1859 97.9644 64.4129 97.3394C64.6475 96.7062 64.7625 96.035 64.7519 95.3599C64.7593 94.685 64.6445 94.0143 64.4129 93.3803C64.1858 92.7554 63.8406 92.18 63.396 91.6855C62.9608 91.2131 62.4352 90.8327 61.8504 90.567C61.276 90.3194 60.6555 90.1969 60.0301 90.2077Z" fill="url(#paint2_linear_6809_229)"/>
<path d="M16.9933 90.2072C16.3605 90.2015 15.7339 90.3321 15.1562 90.5902C14.5645 90.8526 14.0327 91.2333 13.5936 91.7088C13.1397 92.2019 12.7842 92.7771 12.5462 93.4036C12.3026 94.0413 12.1752 94.7175 12.1699 95.4001C12.1752 96.7485 12.6786 98.0474 13.5834 99.0473C14.008 99.5184 14.5251 99.897 15.1024 100.159C15.6798 100.422 16.305 100.562 16.9391 100.573C17.5726 100.567 18.1981 100.429 18.7758 100.169C19.3534 99.909 19.8707 99.5316 20.2948 99.0608C21.2013 98.062 21.7049 96.7624 21.7083 95.4136C21.7199 94.0659 21.2293 92.762 20.3321 91.7562C19.9134 91.2807 19.4003 90.8974 18.8256 90.6307C18.2508 90.364 17.6268 90.2198 16.9933 90.2072Z" fill="url(#paint3_linear_6809_229)"/>
<path d="M33.5132 86.0867C37.757 86.0053 41.9985 85.9104 46.2378 85.802C46.4446 85.802 46.7632 85.7443 46.8276 85.6054C47.292 84.5614 47.6987 83.4937 48.1597 82.3412C41.0687 81.1345 34.6928 83.6428 28.2695 85.8664L28.2865 86.0664C28.456 86.0921 28.6269 86.108 28.7983 86.1138C30.3711 86.1138 31.9405 86.1138 33.5132 86.0833V86.0867Z" fill="url(#paint4_linear_6809_229)"/>
<path d="M40.659 96.2225C38.9472 96.3242 37.2423 96.531 35.5475 96.7649C33.9306 96.992 32.3308 97.3207 30.7207 97.6055L30.7546 97.7953L49.5194 97.8258C49.2855 97.7072 49.2076 97.6597 49.1262 97.6292C46.4145 96.6327 43.591 96.0463 40.6522 96.2225H40.659Z" fill="url(#paint5_linear_6809_229)"/>
<path d="M53.5083 83.6312C52.5728 83.3397 51.6203 83.116 50.6237 82.8516C50.4237 83.8176 50.2543 84.6514 50.0645 85.5632C51.4203 85.5632 52.6202 85.3599 53.6066 84.4447C53.9455 84.1057 54.0133 83.7668 53.5117 83.621L53.5083 83.6312Z" fill="url(#paint6_linear_6809_229)"/>
<path d="M49.5094 85.3537C49.6958 84.5029 49.8484 83.6386 50.0517 82.5742C49.5636 82.6149 48.9365 82.4929 48.8281 82.7064C48.3642 83.7308 47.9535 84.7784 47.5977 85.8452C48.218 85.8011 48.7095 85.7876 49.1942 85.713C49.269 85.6831 49.3362 85.6367 49.3908 85.5774C49.4485 85.514 49.4893 85.4371 49.5094 85.3537Z" fill="url(#paint7_linear_6809_229)"/>
<path d="M57.9586 84.8574L54.7894 83.9219L53.5996 85.376C54.9893 85.7421 56.8333 85.5455 57.9586 84.8574Z" fill="url(#paint8_linear_6809_229)"/>
<path d="M51.0764 88.0182L53.8626 86.3878L53.8219 86.1133L49.2324 86.3675L49.3612 87.0827C50.8594 86.7709 50.9272 86.8014 51.0764 88.0216V88.0182Z" fill="url(#paint9_linear_6809_229)"/>
<path d="M61.4009 84.9218C60.2198 84.1208 58.9617 83.4395 57.6453 82.8881C57.644 82.8779 57.644 82.8677 57.6453 82.8576H57.608H57.5876C57.1801 82.6941 56.7636 82.5538 56.3403 82.4373L56.2725 82.4169C53.7642 81.6224 51.1778 81.0997 48.5578 80.8577C45.5743 80.5049 42.5549 80.5986 39.5991 81.1357C38.1517 81.417 36.6704 81.8305 34.5994 82.4101C32.3453 83.0406 31.0335 83.4846 30.298 83.7423C29.1388 84.149 28.1727 84.5286 27.4507 84.8269L26.9389 84.9151C24.4645 85.2744 10.9773 87.2708 9.07234 88.4301V88.4572C9.07234 88.6809 9.07234 88.9012 9.07234 89.1351C9.29469 89.1864 9.52208 89.2125 9.75026 89.2131C10.1807 89.2131 10.3095 89.1182 10.5875 89.1927C10.8654 89.2673 11.1671 89.4469 11.1976 89.7012C11.2281 89.9554 10.9875 90.1316 10.7027 90.3554C9.86212 91.0062 9.00793 91.6197 8.15714 92.2739C7.95106 92.4161 7.79743 92.6222 7.71989 92.8603C7.55041 93.8433 7.41596 94.8319 7.31653 95.8262C7.29619 96.0397 7.42839 96.4261 7.57075 96.4804C8.67237 96.9074 9.79432 97.2701 10.9061 97.6532C10.8248 96.2973 10.6858 95.1381 10.7027 93.9856C10.7366 91.4909 12.0586 89.5791 14.2144 88.7114C15.4456 88.262 16.7572 88.075 18.0649 88.1623C19.7021 88.203 20.9393 89.0063 21.8477 90.4537C22.5567 91.6912 23.0334 93.0478 23.2544 94.4568C23.2892 94.5715 23.3502 94.6765 23.4325 94.7635C23.5149 94.8506 23.6164 94.9173 23.729 94.9584C24.373 95.0228 25.0238 94.9855 25.722 94.9855C25.661 94.7686 25.6034 94.5415 25.522 94.3076C25 92.9089 24.4735 91.5101 23.9425 90.1113C23.3222 88.4979 23.5663 87.7047 25.0306 86.9251C26.1525 86.3285 27.2982 85.7692 28.4608 85.2676C31.7284 83.8541 35.1383 82.9728 38.5618 82.1627C41.1826 81.487 43.9005 81.2703 46.5952 81.5221C50.8438 82.0521 55.0093 83.1123 58.9943 84.6778C59.1551 84.7456 59.3236 84.7935 59.496 84.8202L59.557 84.8473H59.7773L60.0349 84.871L60.9095 84.9252L61.4009 84.9218Z" fill="url(#paint10_linear_6809_229)"/>
<path d="M10.2833 89.8011C9.86122 89.666 9.41572 89.6198 8.97491 89.6655C8.61246 89.6691 8.25898 89.7787 7.95803 89.9808C7.31401 90.4926 7.61907 91.5095 7.61907 91.5569L10.2596 89.8045L10.2833 89.8011Z" fill="url(#paint11_linear_6809_229)"/>
<path d="M50.3383 87.7461C49.257 87.8681 49.2299 87.8952 48.9824 89.1019C49.6942 88.7833 50.3518 88.502 50.3383 87.7461Z" fill="url(#paint12_linear_6809_229)"/>
</g>
<defs>
<linearGradient id="paint0_linear_6809_229" x1="46.7795" y1="98.0923" x2="46.8168" y2="76.2633" gradientUnits="userSpaceOnUse">
<stop/>
<stop offset="0.45" stop-color="#043798"/>
</linearGradient>
<linearGradient id="paint1_linear_6809_229" x1="36.4266" y1="95.1334" x2="36.4504" y2="80.226" gradientUnits="userSpaceOnUse">
<stop/>
<stop offset="0.45" stop-color="#043798"/>
</linearGradient>
<linearGradient id="paint2_linear_6809_229" x1="60.003" y1="100.563" x2="60.0335" y2="82.9302" gradientUnits="userSpaceOnUse">
<stop/>
<stop offset="0.45" stop-color="#043798"/>
</linearGradient>
<linearGradient id="paint3_linear_6809_229" x1="16.9289" y1="100.562" x2="16.9594" y2="82.9297" gradientUnits="userSpaceOnUse">
<stop/>
<stop offset="0.45" stop-color="#043798"/>
</linearGradient>
<linearGradient id="paint4_linear_6809_229" x1="38.2112" y1="86.1308" x2="38.2248" y2="79.1278" gradientUnits="userSpaceOnUse">
<stop/>
<stop offset="0.45" stop-color="#043798"/>
</linearGradient>
<linearGradient id="paint5_linear_6809_229" x1="40.12" y1="97.8122" x2="40.1234" y2="95.0463" gradientUnits="userSpaceOnUse">
<stop/>
<stop offset="0.45" stop-color="#043798"/>
</linearGradient>
<linearGradient id="paint6_linear_6809_229" x1="51.9694" y1="85.5768" x2="51.9762" y2="80.9364" gradientUnits="userSpaceOnUse">
<stop/>
<stop offset="0.45" stop-color="#043798"/>
</linearGradient>
<linearGradient id="paint7_linear_6809_229" x1="48.8213" y1="85.8418" x2="48.8315" y2="80.2659" gradientUnits="userSpaceOnUse">
<stop/>
<stop offset="0.45" stop-color="#043798"/>
</linearGradient>
<linearGradient id="paint8_linear_6809_229" x1="55.7791" y1="85.5591" x2="55.7825" y2="82.7762" gradientUnits="userSpaceOnUse">
<stop/>
<stop offset="0.45" stop-color="#043798"/>
</linearGradient>
<linearGradient id="paint9_linear_6809_229" x1="51.5441" y1="88.0182" x2="51.5509" y2="84.7642" gradientUnits="userSpaceOnUse">
<stop/>
<stop offset="0.45" stop-color="#043798"/>
</linearGradient>
<linearGradient id="paint10_linear_6809_229" x1="7.27586" y1="89.1588" x2="64.0448" y2="89.1588" gradientUnits="userSpaceOnUse">
<stop/>
<stop offset="0.45" stop-color="#043798"/>
</linearGradient>
<linearGradient id="paint11_linear_6809_229" x1="8.92068" y1="91.5569" x2="8.92746" y2="88.3063" gradientUnits="userSpaceOnUse">
<stop/>
<stop offset="0.45" stop-color="#043798"/>
</linearGradient>
<linearGradient id="paint12_linear_6809_229" x1="49.657" y1="89.1087" x2="49.6603" y2="86.7834" gradientUnits="userSpaceOnUse">
<stop/>
<stop offset="0.45" stop-color="#043798"/>
</linearGradient>
</defs>
</svg>
