<svg width="35" height="35" viewBox="0 0 35 35" fill="none" xmlns="http://www.w3.org/2000/svg">
<path d="M34.93 17.2157C34.93 7.70807 27.2226 0.000659792 17.715 0.000661203C8.20742 0.000662614 0.5 7.70808 0.5 17.2157C0.5 26.7232 8.20742 34.4307 17.715 34.4307C27.2226 34.4307 34.93 26.7232 34.93 17.2157Z" fill="#148B63"/>
<path d="M20.2351 14.41V11.8353H26.1503V7.91211H10.0429V11.8353H15.958V14.4054C11.1523 14.6262 7.53613 15.5706 7.53613 16.7076C7.53613 17.8447 11.1523 18.7891 15.958 19.0098V27.2557H20.2351V19.0146C25.0314 18.7937 28.6382 17.8493 28.6382 16.7123C28.6382 15.58 25.0314 14.6309 20.2351 14.41ZM20.2351 18.3145C20.1124 18.3192 19.494 18.3568 18.1155 18.3568C17.0108 18.3568 16.2366 18.3239 15.9628 18.3098V18.3145C11.7188 18.1266 8.54638 17.3936 8.54638 16.5103C8.54638 15.627 11.7141 14.894 15.9628 14.7061V17.5815C16.2413 17.6003 17.0344 17.6473 18.1344 17.6473C19.4515 17.6473 20.1171 17.5909 20.2398 17.5815V14.7061C24.4791 14.894 27.642 15.6316 27.642 16.5103C27.6374 17.3889 24.4744 18.1266 20.2351 18.3145Z" fill="white"/>
</svg>
