<svg width="228" height="40" viewBox="0 0 228 40" fill="none" xmlns="http://www.w3.org/2000/svg">
<path d="M33.9391 23.7182C33.2582 24.1411 32.4638 24.2179 31.8586 23.872C31.1021 23.4107 30.6481 22.3728 30.6481 20.9504V16.6066C30.6481 14.5308 29.8538 13.0316 28.492 12.6471C26.1846 11.9552 24.4445 14.8383 23.8015 15.9146L19.7161 22.565V14.377C19.6783 12.4934 19.0731 11.3786 17.9383 11.0326C17.1817 10.802 16.0469 10.9173 14.9499 12.6087L5.83361 27.447C4.62315 25.1021 3.98009 22.4881 3.98009 19.8357C3.98009 10.8789 11.0537 3.61347 19.7161 3.61347C28.3785 3.61347 35.4522 10.8789 35.4522 19.8357V19.8741V19.9125C35.5278 21.6424 34.9982 23.0263 33.9391 23.7182ZM38.9323 19.8357V19.7972V19.7588C38.8944 8.87991 30.2699 0 19.7161 0C9.12456 0 0.5 8.87992 0.5 19.8357C0.5 30.7529 9.12456 39.6713 19.7161 39.6713C24.5958 39.6713 29.2107 37.7877 32.7665 34.3664C33.4852 33.6745 33.523 32.5597 32.8421 31.8293C32.1991 31.0989 31.1021 31.0605 30.3834 31.714C30.3834 31.714 30.3834 31.714 30.3455 31.7524C27.4707 34.5202 23.6123 36.0963 19.6405 36.0963C14.9878 36.0963 10.8268 34.0204 7.95193 30.7145L16.1604 17.337V23.526C16.1604 26.486 17.2952 27.447 18.2409 27.7161C19.1866 27.9852 20.624 27.793 22.1749 25.2943L26.6763 17.8752C26.8276 17.6445 26.9411 17.4139 27.0924 17.2601V21.0273C27.0924 23.7951 28.1894 26.0247 30.0807 27.101C31.783 28.1005 33.9391 27.9852 35.717 26.8704C37.9109 25.4096 39.0836 22.8725 38.9323 19.8357ZM65.7138 13.07C66.1677 13.3391 66.5838 13.9926 66.5838 14.5692C66.5838 15.4918 65.8273 16.2606 64.9573 16.2606C64.7303 16.2606 64.5412 16.1837 64.352 16.1453C63.3307 15.3765 62.0446 14.8767 60.6828 14.8767C57.4675 14.8767 55.2735 17.5292 55.2735 20.8351C55.2735 24.1411 57.5053 26.7551 60.6828 26.7551C62.2715 26.7551 63.709 26.1016 64.7681 25.0637C65.0329 24.8714 65.3734 24.7561 65.7138 24.7561C66.5838 24.7561 67.2647 25.4481 67.2647 26.3322C67.2647 26.9088 66.9243 27.4086 66.5082 27.6777C64.9573 29.0231 62.8768 29.9072 60.7206 29.9072C55.8031 29.9072 51.7935 25.794 51.7935 20.7198C51.7935 15.6456 55.8031 11.5324 60.7206 11.5324C62.5363 11.4939 64.2764 12.0705 65.7138 13.07ZM74.7166 16.9141C78.0832 16.9141 80.8824 19.7972 80.8824 23.3722C80.8824 26.9088 78.0454 29.9457 74.7166 29.9457C71.1987 29.9457 68.286 26.9473 68.286 23.3722C68.286 19.7972 71.1987 16.9141 74.7166 16.9141ZM74.6788 26.7551C76.1541 26.7551 77.4024 25.3327 77.4024 23.4107C77.4024 21.4886 76.1541 20.2585 74.6788 20.2585C73.0901 20.2585 71.7661 21.4502 71.7661 23.4107C71.7661 25.2943 73.0901 26.7551 74.6788 26.7551ZM83.0008 27.9467V18.8746C83.0008 17.8752 83.7573 17.0679 84.7408 17.0679C85.6865 17.0679 86.4808 17.8752 86.4808 18.8746V27.9467C86.4808 28.9462 85.6865 29.7535 84.7408 29.7535C83.7951 29.7535 83.0008 28.9078 83.0008 27.9467ZM82.736 13.6466C82.736 12.4549 83.6438 11.5324 84.7408 11.5324C85.8756 11.5324 86.7835 12.4934 86.7835 13.6466C86.7835 14.7999 85.8756 15.7224 84.7408 15.7224C83.606 15.684 82.736 14.7614 82.736 13.6466ZM93.1384 23.0263V27.9467C93.1384 28.9462 92.344 29.7535 91.3984 29.7535C90.4527 29.7535 89.6583 28.9462 89.6583 27.9467V18.4518C89.6583 17.6829 90.2635 17.0679 91.0201 17.0679C91.7766 17.0679 92.344 17.7214 92.344 18.4518C93.7436 17.1063 94.9919 16.9141 96.1646 16.9141C99.6446 16.9141 101.196 19.5666 101.196 22.6034V27.9467C101.196 28.9462 100.401 29.7535 99.4555 29.7535C98.5098 29.7535 97.7155 28.9462 97.7155 27.9467V23.0263C97.7155 21.4886 97.5263 20.1816 95.3324 20.1816C93.7815 20.1816 93.1384 21.4886 93.1384 23.0263ZM112.468 24.9099C112.052 24.9099 111.787 24.7177 111.56 24.4486L107.513 19.9894V27.9467C107.513 28.9462 106.718 29.7535 105.773 29.7535C104.827 29.7535 104.033 28.9462 104.033 27.9467V12.1859C104.146 11.9168 104.411 11.7246 104.676 11.7246C104.978 11.7246 105.243 11.9937 105.432 12.1859L111.901 19.5666C112.09 19.7972 112.317 19.9125 112.468 19.9125C112.581 19.9125 112.846 19.7972 113.035 19.5666L119.504 12.1859C119.693 11.9937 119.92 11.7246 120.26 11.7246C120.563 11.7246 120.828 11.9168 120.903 12.1859V27.9467C120.903 28.9462 120.147 29.7535 119.163 29.7535C118.218 29.7535 117.423 28.9462 117.423 27.9467V19.9894L113.376 24.4486C113.073 24.7177 112.808 24.9099 112.468 24.9099ZM129.188 26.7551C130.738 26.7551 132.062 25.3327 132.062 23.4107C132.062 21.4886 130.701 20.2201 129.188 20.2201C127.674 20.2201 126.426 21.5271 126.426 23.4107C126.426 25.2559 127.637 26.7551 129.188 26.7551ZM132.895 28.3696L132.819 27.9467C132.138 29.2922 129.982 29.9072 128.62 29.9072C125.367 29.9072 122.946 26.9088 122.946 23.3338C122.946 19.7972 125.405 16.8757 128.809 16.8757C129.377 16.8757 131.344 17.0294 132.857 18.8362L132.932 18.4133C132.932 17.6445 133.5 17.0295 134.256 17.0295C135.013 17.0295 135.618 17.6829 135.618 18.4133V28.3312C135.618 29.1 135.013 29.715 134.256 29.715C133.462 29.7535 132.895 29.1 132.895 28.3696ZM145.188 20.1816H144.81C142.616 20.2969 142.2 21.5655 142.2 23.0263V27.9467C142.2 28.9462 141.406 29.7535 140.46 29.7535C139.514 29.7535 138.72 28.9462 138.72 27.9467V18.4518C138.72 17.6829 139.325 17.0679 140.082 17.0679C140.838 17.0679 141.406 17.7214 141.406 18.4518C142.692 17.2217 143.751 16.9526 144.81 16.9141H145.151C145.983 16.9141 146.739 17.6445 146.739 18.5671C146.777 19.4128 146.021 20.1816 145.188 20.1816ZM158.617 27.101C158.768 27.3701 158.882 27.6392 158.882 27.9467C158.882 28.8693 158.05 29.715 157.142 29.715C156.536 29.715 156.007 29.2537 155.591 28.7156L151.581 23.9873V27.9083C151.581 28.9078 150.787 29.715 149.841 29.715C148.895 29.715 148.101 28.9078 148.101 27.9083V13.4929C148.101 12.4934 148.858 11.6861 149.841 11.6861C150.825 11.6861 151.581 12.4934 151.581 13.4929V22.4881L155.591 17.9905C156.007 17.5292 156.499 17.0295 157.104 17.0295C157.974 17.0295 158.768 17.8367 158.768 18.7593C158.768 19.0284 158.693 19.3359 158.541 19.5666L155.364 23.1032L158.617 27.101ZM165.426 20.2201C164.48 20.2201 162.929 20.7198 162.929 22.219H167.96C167.922 20.7198 166.334 20.2201 165.426 20.2201ZM169.965 24.487H162.929C162.929 26.6013 164.934 26.9473 165.804 26.9473C166.447 26.9473 167.355 26.8319 168.074 26.486C168.301 26.3322 168.641 26.2169 168.982 26.2169C169.738 26.2169 170.381 26.8704 170.381 27.6777C170.381 28.2158 170.041 28.6771 169.625 28.9462C168.565 29.7535 167.166 29.9457 165.842 29.9457C162.324 29.9457 159.411 28.0236 159.411 23.526C159.411 19.9894 161.189 16.9141 165.35 16.9141C168.717 16.9141 171.251 19.1437 171.327 23.1032C171.327 23.8335 170.722 24.487 169.965 24.487ZM179.649 29.9072H178.703C176.055 29.9072 174.504 28.7156 174.504 24.5255V20.1816H173.596C172.764 20.1816 172.046 19.4128 172.046 18.5671C172.046 17.6445 172.802 16.9141 173.596 16.9141H174.504V13.5697C174.504 12.5703 175.261 11.763 176.244 11.763C177.19 11.763 177.984 12.5703 177.984 13.5697V16.9141H179.422C180.254 16.9141 180.973 17.6445 180.973 18.5671C180.973 19.4128 180.216 20.1816 179.422 20.1816H177.984V23.8335C177.984 26.2553 178.098 26.7551 179.157 26.7551H179.649C180.481 26.7551 181.2 27.447 181.2 28.3312C181.2 29.1769 180.481 29.9072 179.649 29.9072ZM196.482 13.07C196.936 13.3391 197.352 13.9926 197.352 14.5692C197.352 15.4918 196.595 16.2606 195.725 16.2606C195.498 16.2606 195.309 16.1837 195.12 16.1453C194.099 15.3765 192.813 14.8767 191.451 14.8767C188.236 14.8767 186.042 17.5292 186.042 20.8351C186.042 24.1411 188.273 26.7551 191.451 26.7551C193.04 26.7551 194.477 26.1016 195.536 25.0637C195.801 24.8714 196.141 24.7561 196.482 24.7561C197.352 24.7561 198.033 25.4481 198.033 26.3322C198.033 26.9088 197.692 27.4086 197.276 27.6777C195.725 29.0231 193.645 29.9072 191.489 29.9072C186.571 29.9072 182.561 25.794 182.561 20.7198C182.561 15.6456 186.571 11.5324 191.489 11.5324C193.304 11.4939 195.082 12.0705 196.482 13.07ZM205.296 26.7551C206.846 26.7551 208.17 25.3327 208.17 23.4107C208.17 21.4886 206.809 20.2201 205.296 20.2201C203.745 20.2201 202.534 21.5271 202.534 23.4107C202.534 25.2559 203.782 26.7551 205.296 26.7551ZM209.003 28.3696L208.927 27.9467C208.246 29.2922 206.09 29.9072 204.728 29.9072C201.475 29.9072 199.054 26.9088 199.054 23.3338C199.054 19.7972 201.513 16.8757 204.917 16.8757C205.485 16.8757 207.452 17.0294 208.965 18.8362L209.04 18.4133C209.04 17.6445 209.608 17.0295 210.364 17.0295C211.121 17.0295 211.726 17.6829 211.726 18.4133V28.3312C211.726 29.1 211.121 29.715 210.364 29.715C209.57 29.7535 209.003 29.1 209.003 28.3696ZM221.221 26.7551C222.772 26.7551 223.982 25.2559 223.982 23.4107C223.982 21.4886 222.734 20.2201 221.221 20.2201C219.67 20.2201 218.346 21.4886 218.346 23.4107C218.346 25.3327 219.67 26.7551 221.221 26.7551ZM218.346 28.8693V33.367C218.346 34.3664 217.551 35.1737 216.606 35.1737C215.66 35.1737 214.866 34.3664 214.866 33.367V18.4518C214.866 17.6829 215.471 17.0679 216.228 17.0679C216.984 17.0679 217.551 17.7214 217.551 18.6055C218.838 17.2601 220.426 16.9141 221.637 16.9141C225.003 16.9141 227.5 19.7972 227.5 23.3722C227.5 26.9088 225.117 29.9457 221.826 29.9457C220.805 29.9072 219.292 29.5997 218.346 28.8693Z" fill="white"/>
</svg>
