<svg width="227" height="36" viewBox="0 0 227 36" fill="none" xmlns="http://www.w3.org/2000/svg">
<g clip-path="url(#clip0_1287_435)">
<path d="M142.5 28.1132C144.824 28.7098 146.461 28.2935 147.834 27.2252C148.695 26.5314 149.271 26.2748 150.131 27.1073C151.269 28.2103 153.516 29.3411 153.426 30.2707C153.246 32.0467 151.171 33.0457 149.451 33.7395C144.595 35.6334 139.926 35.3698 135.895 31.7762C132.426 28.7098 131.039 24.8387 132.26 20.2391C133.509 15.4315 136.644 12.4969 141.48 11.4841C146.315 10.4712 151.491 13.0311 153.863 17.1797C154.696 18.6505 154.612 19.5385 153.128 20.5375C149.652 22.8823 146.28 25.4145 142.5 28.1132ZM138.337 24.7138L146.53 18.8031C141.73 16.2432 138.413 18.5256 138.337 24.7138Z" fill="#FCFCFD"/>
<path d="M49.3154 34.898C47.1585 34.9438 45.0265 34.4299 43.1272 33.4065C41.378 32.4373 39.923 31.0135 38.9162 29.2856C37.8681 27.4421 37.3383 25.3494 37.383 23.2292C37.3387 21.1118 37.8609 19.0209 38.8953 17.1728C39.8791 15.4438 41.319 14.0183 43.0578 13.052C44.9437 12.0329 47.0612 11.5191 49.2045 11.5604C51.3541 11.5208 53.4779 12.0344 55.3719 13.052C57.1166 14.0104 58.5584 15.4378 59.5343 17.1728C60.5557 19.0253 61.0702 21.1144 61.0259 23.2292C61.0708 25.3442 60.5563 27.4334 59.5343 29.2856C58.5569 31.0195 57.1155 32.4466 55.3719 33.4065C53.5143 34.4146 51.4287 34.9282 49.3154 34.898ZM49.3154 28.4809C50.1666 28.4923 51.002 28.2508 51.7158 27.7871C52.4139 27.3282 52.9767 26.6911 53.3461 25.9418C53.7574 25.0879 53.9618 24.1491 53.9427 23.2015C53.9618 22.2539 53.7574 21.3151 53.3461 20.4612C52.9697 19.7036 52.391 19.0649 51.6742 18.6158C50.9409 18.1553 50.0911 17.9145 49.2252 17.9221C48.3594 17.9145 47.5096 18.1553 46.7763 18.6158C46.0595 19.0649 45.4808 19.7036 45.1044 20.4612C44.6898 21.314 44.4853 22.2535 44.5078 23.2015C44.4853 24.1494 44.6898 25.089 45.1044 25.9418C45.4844 26.7035 46.0709 27.343 46.7971 27.7871C47.555 28.2498 48.4276 28.4902 49.3154 28.4809Z" fill="#FCFCFD"/>
<path d="M68.324 9.25055C67.8114 9.25072 67.3042 9.1455 66.834 8.94142C66.3638 8.73735 65.9406 8.43877 65.5906 8.06425C65.2167 7.71419 64.919 7.29079 64.716 6.82049C64.5131 6.35019 64.4094 5.84309 64.4112 5.33089C64.4019 4.81144 64.502 4.29585 64.7052 3.81772C64.9084 3.33958 65.2101 2.90964 65.5906 2.5559C65.947 2.19308 66.3725 1.90544 66.842 1.71001C67.3115 1.51459 67.8154 1.41533 68.324 1.41814C68.8397 1.40848 69.3519 1.50444 69.8291 1.70011C70.3063 1.89577 70.7385 2.18701 71.099 2.5559C71.4743 2.91254 71.7712 3.3435 71.9707 3.8213C72.1701 4.29909 72.2678 4.81322 72.2575 5.33089C72.2604 5.84133 72.1592 6.34702 71.96 6.817C71.7608 7.28697 71.4678 7.71137 71.099 8.06425C70.7448 8.44462 70.3149 8.74667 69.837 8.95097C69.3591 9.15528 68.8437 9.25733 68.324 9.25055ZM64.8552 34.3642V12.0949H71.7927V34.3642H64.8552Z" fill="#FCFCFD"/>
<path d="M76.7393 34.3641V12.0948H83.2882L83.6906 16.1949V34.3641H76.7393ZM91.079 22.9658C91.1158 22.0058 90.9795 21.047 90.6766 20.1353C90.4712 19.5176 90.0753 18.9809 89.5458 18.6022C89.006 18.2589 88.3817 18.0716 87.7421 18.061C87.1872 18.0085 86.6275 18.0796 86.1033 18.2691C85.5791 18.4586 85.1034 18.7619 84.7104 19.1571C83.9523 20.147 83.5889 21.3832 83.6906 22.6259H81.6094C81.5529 20.5782 81.9165 18.5406 82.6777 16.6388C83.279 15.1342 84.291 13.8289 85.5984 12.8718C86.8592 12.0021 88.3614 11.5508 89.8927 11.5814C91.4632 11.529 93.018 11.9081 94.3882 12.6776C95.6454 13.4469 96.6098 14.614 97.1285 15.9937C97.7963 17.8159 98.1073 19.7496 98.0442 21.6893V22.9866L91.079 22.9658ZM91.079 34.3641V22.9658H98.0165V34.3641H91.079Z" fill="#FCFCFD"/>
<path d="M166.24 34.8983C164.354 34.9553 162.492 34.474 160.87 33.5108C159.342 32.5411 158.135 31.1411 157.401 29.4871C156.544 27.5196 156.128 25.3887 156.18 23.2433C156.127 21.0979 156.543 18.9667 157.401 16.9996C158.141 15.3531 159.347 13.9592 160.87 12.9898C162.493 12.0294 164.355 11.5483 166.24 11.6023C167.899 11.5469 169.531 12.0341 170.888 12.9898C172.213 14.0116 173.199 15.4089 173.718 16.9996C174.385 19.0122 174.701 21.1239 174.655 23.2433C174.701 25.3627 174.384 27.4743 173.718 29.4871C173.202 31.0828 172.215 32.4853 170.888 33.5108C169.532 34.4698 167.899 34.9572 166.24 34.8983ZM168.064 28.4811C168.888 28.4843 169.695 28.2429 170.381 27.7874C171.073 27.3288 171.627 26.691 171.984 25.942C172.381 25.084 172.578 24.147 172.56 23.2017C172.578 22.2565 172.381 21.3195 171.984 20.4614C171.627 19.7125 171.073 19.0746 170.381 18.616C169.679 18.1563 168.855 17.9149 168.016 17.9223C167.178 17.9159 166.358 18.1572 165.657 18.616C164.949 19.0813 164.379 19.7282 164.006 20.4892C163.588 21.3426 163.367 22.2792 163.361 23.2295C163.367 24.1798 163.588 25.1164 164.006 25.9698C164.378 26.7214 164.946 27.3589 165.65 27.8151C166.372 28.269 167.212 28.5006 168.064 28.4811ZM172.872 34.3641L172.56 30.2016V3.14551H179.497V34.3641H172.872Z" fill="#FCFCFD"/>
<path d="M187.919 9.25055C187.407 9.25072 186.899 9.1455 186.429 8.94142C185.959 8.73735 185.536 8.43877 185.186 8.06425C184.812 7.71419 184.514 7.29079 184.311 6.82049C184.108 6.35019 184.005 5.84309 184.006 5.33089C183.997 4.81144 184.097 4.29585 184.3 3.81772C184.504 3.33958 184.805 2.90964 185.186 2.5559C185.542 2.19308 185.968 1.90544 186.437 1.71001C186.907 1.51459 187.411 1.41533 187.919 1.41814C188.435 1.40848 188.947 1.50444 189.424 1.70011C189.902 1.89577 190.334 2.18701 190.694 2.5559C191.07 2.91254 191.366 3.3435 191.566 3.8213C191.765 4.29909 191.863 4.81322 191.853 5.33089C191.856 5.84133 191.754 6.34702 191.555 6.817C191.356 7.28697 191.063 7.71137 190.694 8.06425C190.34 8.44462 189.91 8.74667 189.432 8.95097C188.954 9.15528 188.439 9.25733 187.919 9.25055ZM184.45 34.3642V12.0949H191.388V34.3642H184.45Z" fill="#FCFCFD"/>
<path d="M18.7004 35.5991C13.9907 35.5954 9.47483 33.7233 6.14389 30.3937C2.81296 27.064 0.939105 22.5489 0.933594 17.8392C0.939102 13.1288 2.81273 8.61293 6.14347 5.2822C9.47421 1.95146 13.9901 0.0778286 18.7004 0.0723204C21.7029 0.0648457 24.6579 0.821988 27.2868 2.2724C29.9158 3.7228 32.1321 5.8187 33.727 8.36258L28.4476 11.6995C27.4139 10.0481 25.9767 8.68723 24.2713 7.74533C22.5659 6.80342 20.6486 6.31153 18.7004 6.31604C15.6454 6.31971 12.7166 7.53492 10.5564 9.69513C8.39619 11.8553 7.18098 14.7842 7.17731 17.8392C7.18282 20.893 8.39885 23.82 10.5589 25.9787C12.7189 28.1374 15.6466 29.3517 18.7004 29.3554C21.5131 29.35 24.2266 28.3155 26.3289 26.4471C28.4312 24.5786 29.7771 22.0054 30.1126 19.2128C30.1627 18.752 30.1882 18.2888 30.1889 17.8253H36.4326C36.4314 18.5209 36.3897 19.2158 36.3077 19.9065C35.8032 24.2243 33.732 28.2069 30.4867 31.0993C27.2414 33.9917 23.0476 35.5928 18.7004 35.5991Z" fill="#FCFCFD"/>
<path d="M115.86 0.522949H103.81V34.3639H111.163V28.5087H115.86C119.57 28.5087 123.128 27.0354 125.752 24.4127C128.376 21.7901 129.851 18.2327 129.853 14.5227C129.854 12.6846 129.492 10.8643 128.79 9.16578C128.087 7.46728 127.056 5.92391 125.757 4.62382C124.457 3.32373 122.915 2.29238 121.216 1.58874C119.518 0.885101 117.698 0.522949 115.86 0.522949ZM114.75 22.3968H110.851V6.62791H114.75C115.786 6.62882 116.811 6.83376 117.768 7.231C118.725 7.62825 119.594 8.21003 120.325 8.94314C121.057 9.67624 121.638 10.5463 122.033 11.5037C122.429 12.461 122.632 13.4869 122.631 14.5227C122.627 16.6111 121.796 18.6128 120.318 20.0889C118.841 21.565 116.838 22.3949 114.75 22.3968Z" fill="#FCFCFD"/>
<path d="M217.466 11.5464H210.958V34.6204H217.466V11.5464Z" fill="#FCFCFD"/>
<path d="M205.02 34.7454C201.939 34.7436 198.984 33.5187 196.805 31.3399C194.627 29.1611 193.402 26.2065 193.4 23.1252C193.404 20.0444 194.629 17.0909 196.807 14.9124C198.986 12.734 201.939 11.5086 205.02 11.5049C206.92 11.5018 208.791 11.9652 210.47 12.8542C212.149 13.7433 213.584 15.0309 214.649 16.6039C215.951 18.5214 216.645 20.7867 216.64 23.1043C216.642 26.1887 215.419 29.1476 213.24 31.3305C211.061 33.5134 208.105 34.7417 205.02 34.7454ZM205.02 17.4017C203.495 17.4036 202.034 18.0101 200.956 19.0882C199.877 20.1664 199.271 21.6282 199.269 23.1529C199.271 24.6776 199.877 26.1394 200.956 27.2176C202.034 28.2957 203.495 28.9022 205.02 28.9041C206.545 28.9022 208.007 28.2957 209.085 27.2176C210.163 26.1394 210.769 24.6776 210.771 23.1529C210.773 22.0075 210.43 20.8881 209.786 19.9409C209.264 19.1538 208.556 18.5078 207.725 18.06C206.894 17.6122 205.964 17.3766 205.02 17.374V17.4017Z" fill="#FCFCFD"/>
<path d="M205.159 34.4265C202.145 34.4228 199.255 33.2236 197.123 31.0921C194.991 28.9605 193.792 26.0705 193.789 23.0559C193.792 20.0421 194.992 17.1528 197.123 15.0223C199.255 12.8918 202.145 11.6942 205.159 11.6924C208.172 11.6961 211.06 12.8945 213.19 15.0248C215.321 17.155 216.519 20.0433 216.523 23.0559C216.521 26.0698 215.323 28.9598 213.193 31.0916C211.062 33.2234 208.173 34.4228 205.159 34.4265ZM205.159 19.1016C204.11 19.1016 203.103 19.518 202.36 20.2594C201.618 21.0008 201.2 22.0065 201.198 23.0559C201.198 24.1065 201.615 25.1141 202.358 25.857C203.101 26.5999 204.108 27.0172 205.159 27.0172C206.208 27.0154 207.214 26.5972 207.956 25.8545C208.697 25.1119 209.113 24.1053 209.113 23.0559C209.112 22.0077 208.694 21.003 207.953 20.2618C207.212 19.5206 206.207 19.1034 205.159 19.1016Z" fill="#FCFCFD"/>
<path d="M226.54 26.9546H219.013V34.4817H226.54V26.9546Z" fill="#FCFCFD"/>
</g>
<defs>
<clipPath id="clip0_1287_435">
<rect width="225.613" height="35.5268" fill="white" transform="translate(0.933594 0.0722656)"/>
</clipPath>
</defs>
</svg>
