<svg width="214" height="40" viewBox="0 0 214 40" fill="none" xmlns="http://www.w3.org/2000/svg">
<path d="M38.57 20.3107C38.57 26.5169 38.57 32.6814 38.57 38.8876C38.57 39.4707 38.3618 39.6373 37.8203 39.6373C29.6981 39.6373 21.5759 39.6373 13.4537 39.6373C12.9955 39.6373 12.6623 39.5124 12.3291 39.1792C8.33046 35.1805 4.41515 31.1819 0.416523 27.1833C0.166609 26.9334 0 26.6418 0 26.2669C0 18.0198 0 9.77263 0 1.48382C0 0.942336 0.208261 0.817383 0.666436 0.817383C13.0372 0.817383 25.4496 0.817383 37.9036 0.817383C38.4867 0.817383 38.57 1.02565 38.57 1.56713C38.57 7.69002 38.57 14.0212 38.57 20.3107Z" fill="white"/>
<path d="M157.471 23.2427C157.471 16.1184 157.471 9.19957 157.471 2.21224C157.471 1.45871 157.608 1.11619 158.43 1.25319C159.663 1.3902 160.759 1.3902 161.924 1.25319C162.677 1.25319 162.814 1.45871 162.814 2.14374C162.814 5.22638 162.814 8.30902 162.814 11.3232C162.814 20.1601 162.814 29.0655 162.814 38.0394C162.814 38.9299 162.609 39.1354 161.718 39.1354C160.417 38.9984 158.978 39.1354 157.54 39.1354C156.855 39.1354 156.581 38.9984 156.444 38.2449C154.252 29.956 151.922 21.5986 149.73 13.3783C149.593 13.0357 149.593 12.6932 149.319 12.4192C149.319 20.9821 149.319 29.4765 149.319 38.0394C149.319 38.9299 149.114 39.2725 148.223 39.1354C147.127 38.9984 146.031 38.9984 144.935 39.1354C144.045 39.2725 143.976 38.9299 143.976 38.1764C143.976 31.7371 143.976 25.2293 143.976 18.927C143.976 13.4468 143.976 7.898 143.976 2.41775C143.976 1.66421 144.113 1.45871 144.935 1.45871C146.785 1.59571 148.634 1.59571 150.552 1.45871C151.237 1.45871 151.511 1.66422 151.648 2.34925C153.43 9.13106 155.279 15.8444 156.992 22.6262C157.197 22.6947 157.197 23.0372 157.471 23.2427Z" fill="white"/>
<path d="M56.0851 18.9961C59.3733 20.4347 60.2638 23.1748 60.3323 26.2575C60.4693 28.4496 60.5378 30.7787 60.1268 32.8338C59.3733 36.5329 56.8387 38.8621 53.0025 38.9991C49.5773 39.1361 46.2207 38.9991 42.7955 39.1361C42.042 39.1361 42.1105 38.725 42.1105 38.2455C42.1105 34.2723 42.1105 30.4362 42.1105 26.5315C42.1105 18.4481 42.1105 10.2962 42.1105 2.21287C42.1105 1.45933 42.2475 1.25382 43.0695 1.25382C46.2207 1.39082 49.4403 1.0483 52.5915 1.39082C57.3182 1.93885 59.1678 3.78844 59.7158 8.51515C59.9213 10.3647 59.9213 12.1458 59.5788 13.9954C59.1678 16.119 58.1402 17.9001 56.0851 18.9961Z" fill="white"/>
<path d="M130.685 20.297C130.685 23.7222 130.685 27.2159 130.685 30.5725C130.685 32.0796 130.343 33.6552 129.726 35.0937C128.836 36.9433 127.534 38.2449 125.547 38.9299C123.013 39.8204 120.41 39.8889 117.738 38.9299C114.244 37.6283 112.806 34.6827 112.669 31.2576C112.532 23.9277 112.463 16.5979 112.669 9.26803C112.874 2.55472 117.601 0.499625 122.876 1.04765C127.671 1.59568 130.343 4.67832 130.411 9.81606C130.754 13.3097 130.685 16.8034 130.685 20.297Z" fill="white"/>
<path d="M92.4616 18.7903C92.5986 16.4612 92.2561 12.625 92.5986 8.92587C93.1467 2.55508 97.5309 0.499984 102.532 1.04801C107.258 1.59603 109.656 4.33616 109.998 9.4739C110.135 10.7755 109.998 12.077 109.998 13.5156C109.998 14.0636 109.793 14.2006 109.313 14.2006C107.875 14.2006 106.436 14.2006 105.066 14.2006C104.518 14.2006 104.381 13.9951 104.381 13.5156C104.381 12.077 104.381 10.7755 104.381 9.33689C104.244 7.14479 102.874 5.91174 100.545 6.39126C99.449 6.59677 98.6954 7.3503 98.4899 8.58336C98.3529 9.13138 98.3529 9.81642 98.3529 10.3644C98.3529 16.9407 98.3529 23.5171 98.3529 30.0934C98.3529 30.5044 98.3529 30.9839 98.4899 31.3949C98.6954 33.2445 99.7915 34.135 101.641 33.998C103.422 33.861 104.381 32.902 104.518 31.1209C104.655 29.3398 104.655 27.6272 104.518 25.8462C104.518 25.1611 104.655 24.8871 105.409 24.9556C106.71 25.0926 108.149 24.9556 109.587 24.9556C109.93 24.9556 110.272 24.9556 110.272 25.5036C110.135 28.1068 110.478 30.7784 109.93 33.313C109.039 37.0122 106.505 39.2043 102.669 39.5468C101.573 39.6838 100.339 39.6838 99.2434 39.4098C95.4073 38.6562 93.0782 35.9846 92.8042 32.1485C92.8042 31.6004 92.6671 31.0524 92.6671 30.6414C92.3246 27.0792 92.4616 23.7226 92.4616 18.7903Z" fill="white"/>
<path d="M190.352 11.5287C189.461 11.5287 188.365 11.8712 187.748 11.3917C187.063 10.9807 187.543 9.74761 187.406 8.85707C187.2 7.07599 186.173 6.11695 184.529 6.11695C182.748 6.11695 181.926 7.00749 181.652 8.72007C181.309 10.9122 181.994 12.8988 183.433 14.6113C184.392 15.8444 185.625 16.9404 186.721 18.0365C188.228 19.4751 189.666 20.7766 190.9 22.5577C193.297 26.0514 193.777 30.0246 192.544 34.0662C191.653 36.9434 189.803 38.5874 186.926 39.1355C185.077 39.5465 183.296 39.478 181.446 38.9985C178.158 38.2449 176.103 35.5733 175.623 31.6686C175.486 30.4356 175.623 29.271 175.486 28.038C175.486 27.4899 175.692 27.3529 176.171 27.3529C177.61 27.3529 179.049 27.3529 180.419 27.3529C180.967 27.3529 181.104 27.5584 181.104 28.1065C181.104 29.3395 180.967 30.4356 181.309 31.6001C181.652 33.0387 182.542 33.7922 184.186 33.7922C185.693 33.7922 186.721 33.1072 187.132 31.7371C187.68 29.7505 187.269 27.7639 186.173 26.0514C185.214 24.5443 183.844 23.1742 182.474 22.0097C181.035 20.7081 179.734 19.4751 178.5 17.968C175.76 14.4743 175.075 10.5011 176.171 6.39095C176.925 3.1028 179.117 1.25322 182.542 0.70519C184.049 0.49968 185.488 0.499689 186.926 0.842204C190.215 1.59574 192.407 3.99334 192.818 7.55551C192.955 8.51455 193.023 9.5421 193.023 10.6381C193.023 11.1862 192.886 11.3917 192.338 11.3917C191.79 11.5287 191.105 11.6657 190.352 11.5287C190.352 11.6657 190.352 11.6657 190.352 11.5287Z" fill="white"/>
<path d="M201.38 23.0364C201.38 18.1042 201.38 13.172 201.38 8.17127C201.38 6.7327 201.38 6.73269 200.079 6.73269C198.777 6.73269 197.476 6.73269 196.037 6.73269C195.352 6.73269 195.146 6.59569 195.146 5.97917C195.146 4.67761 195.146 3.37604 195.146 1.93747C195.146 1.38945 195.283 1.25244 195.832 1.25244C201.517 1.25244 207.135 1.25244 212.82 1.25244C213.368 1.25244 213.505 1.38945 213.505 1.93747C213.505 3.37604 213.505 4.6776 213.505 6.11617C213.505 6.6642 213.368 6.8697 212.82 6.8697C211.313 6.8697 209.738 6.8697 208.299 6.8697C207.409 6.8697 207.34 7.07521 207.34 7.82875C207.34 17.8987 207.34 27.9687 207.34 38.0386C207.34 38.9292 207.135 39.2717 206.244 39.2717C204.942 39.1347 203.641 39.1347 202.271 39.2717C201.517 39.2717 201.38 39.0662 201.38 38.3127C201.38 33.1064 201.38 28.1057 201.38 23.0364Z" fill="white"/>
<path d="M78.5549 22.9679C78.5549 17.8302 78.5549 12.761 78.5549 7.62324C78.5549 6.8697 78.3494 6.66419 77.6644 6.73269C76.2258 6.8697 74.7188 6.73269 73.2802 6.73269C72.5267 6.73269 72.3896 6.52718 72.3896 5.84215C72.3896 4.54059 72.3896 3.30754 72.3896 2.00598C72.3896 1.45796 72.5266 1.25244 73.1432 1.25244C78.7604 1.25244 84.4462 1.25244 89.995 1.25244C90.406 1.25244 90.68 1.38945 90.68 1.93747C90.68 3.37604 90.68 4.81461 90.68 6.11617C90.68 6.6642 90.4745 6.8012 89.995 6.8012C88.4879 6.8012 86.9123 6.8012 85.4737 6.8012C84.7202 6.8012 84.5147 7.00671 84.5147 7.76024C84.5147 17.8302 84.5147 27.9002 84.5147 37.9701C84.5147 38.9292 84.1722 39.2032 83.2816 39.2032C82.0486 39.0662 80.884 39.0662 79.5825 39.2032C78.8289 39.2032 78.4864 38.9977 78.4864 38.2442C78.6234 33.1064 78.5549 27.9687 78.5549 22.9679Z" fill="white"/>
<path d="M172.473 20.2969C172.473 26.1882 172.473 32.1479 172.473 38.0392C172.473 38.9297 172.336 39.2723 171.377 39.1352C170.075 38.9982 168.637 39.1352 167.198 39.1352C166.65 39.1352 166.445 38.9297 166.445 38.3817C166.445 35.8471 166.445 33.244 166.445 30.7094C166.445 21.3244 166.445 11.871 166.445 2.48606C166.445 1.59552 166.65 1.253 167.541 1.39C168.842 1.52701 170.144 1.52701 171.583 1.39C172.268 1.39 172.473 1.59551 172.473 2.28054C172.473 8.24032 172.473 14.2686 172.473 20.2969Z" fill="white"/>
<path d="M140.071 20.2974C140.071 26.1887 140.071 32.217 140.071 38.1768C140.071 39.0673 139.866 39.2728 138.975 39.1358C137.742 38.9988 136.578 38.9988 135.345 39.1358C134.386 39.2728 134.043 38.9303 134.043 37.8342C134.043 28.3123 134.043 18.8589 134.043 9.33692C134.043 6.93931 134.043 4.61021 134.043 2.2126C134.043 1.32206 134.248 1.11654 135.139 1.25355C136.441 1.39056 137.674 1.39056 138.975 1.25355C139.866 1.25355 140.071 1.45906 140.071 2.3496C140.071 8.37788 140.071 14.2692 140.071 20.2974Z" fill="white"/>
<path d="M69.5805 20.2297C69.5805 26.2579 69.5805 32.2862 69.5805 38.3145C69.5805 39.0681 69.4435 39.2736 68.69 39.2736C67.3884 39.1365 66.0868 39.1365 64.6483 39.2736C63.8947 39.2736 63.5522 39.0681 63.6892 38.3145C63.6892 29.7516 63.6892 21.2572 63.6892 12.6943C63.6892 9.26917 63.6892 5.77551 63.6892 2.41885C63.6892 1.73382 63.8262 1.52832 64.5798 1.52832C65.8813 1.66533 67.1829 1.66533 68.6215 1.52832C69.512 1.52832 69.7175 1.73382 69.7175 2.62436C69.4435 8.24162 69.5805 14.2699 69.5805 20.2297Z" fill="white"/>
<path d="M26.2826 20.9767C28.4901 22.2262 28.9483 23.8923 28.3652 25.975C27.6987 28.3908 26.1159 29.6404 23.7001 29.7653C22.7838 29.8486 21.9091 29.7653 21.0344 29.5571C20.4929 29.4321 20.243 29.4738 20.1597 30.0985C20.0347 30.9732 19.7431 31.7646 19.5765 32.6393C19.4932 33.0558 19.3683 33.1808 18.9101 33.0558C18.3686 32.8476 17.5772 32.9725 17.3273 32.5144C17.0774 32.0978 17.5356 31.4314 17.5772 30.8483C17.7022 30.3068 17.8271 29.7653 17.9937 29.3071C18.077 28.9739 17.9937 28.849 17.6605 28.7657C16.3277 28.3491 16.3277 28.3491 15.9944 29.682C15.7862 30.3485 15.6612 31.0149 15.5363 31.7646C15.453 32.0978 15.328 32.1812 15.0781 32.0145H14.9948C14.4116 31.8896 13.5786 31.8896 13.3287 31.4731C12.9955 31.1398 13.4536 30.3901 13.5786 29.807C13.7036 29.2655 13.7869 28.8073 13.9951 28.3491C14.1201 27.9326 13.9951 27.8077 13.6619 27.766C12.454 27.5161 11.2461 27.1829 10.0798 26.8913C9.74658 26.808 9.66328 26.683 9.82989 26.3498C10.0798 25.7667 10.3714 25.1419 10.6213 24.5588C10.7462 24.2256 10.9545 24.2256 11.2044 24.3089C11.6209 24.4338 11.9958 24.5171 12.454 24.5588C12.9955 24.6837 13.3287 24.4338 13.4536 23.8923C14.245 20.6435 15.1197 17.3529 15.9111 14.104C16.0361 13.4376 15.7862 12.8961 15.1197 12.6879C14.6616 12.5629 14.2034 12.438 13.7869 12.3546C13.3703 12.2713 13.3287 12.1047 13.4536 11.7715C13.6619 11.1884 13.5786 10.3137 13.9951 9.98047C14.4116 9.64725 15.203 10.1887 15.7862 10.3137C16.5359 10.4386 17.2023 10.6469 17.9104 10.8552C18.327 10.9385 18.4519 10.9385 18.5769 10.4386C18.7851 9.52229 19.035 8.56428 19.2433 7.64793C19.3266 7.31472 19.4516 7.23141 19.7848 7.31471C20.3679 7.52298 21.201 7.43967 21.5342 7.8562C21.7841 8.27272 21.3259 8.98081 21.201 9.52229C21.076 9.98046 20.9927 10.5219 20.7844 10.9801C20.7011 11.23 20.7844 11.3133 21.0344 11.4383C22.4505 11.8965 22.4505 11.8965 22.7838 10.5219C22.9087 9.85551 23.117 9.27238 23.2419 8.60594C23.3252 8.27272 23.4502 8.18941 23.7001 8.35602C24.2832 8.56428 25.1163 8.48098 25.4495 8.8975C25.7827 9.31403 25.2412 10.0221 25.1996 10.5636C25.0746 11.1467 24.6581 11.8965 24.7831 12.438C24.908 12.8961 25.866 12.9794 26.3659 13.2293C26.6991 13.4376 27.0323 13.5626 27.2822 13.7708C28.6984 14.6872 29.3648 15.9784 29.1566 17.6445C28.9483 19.2273 28.1569 20.4352 26.5741 20.9767C26.3659 20.8934 26.2826 20.9767 26.2826 20.9767Z" fill="#1F3C71"/>
<path d="M54.5781 28.3129C54.5781 29.272 54.5781 30.2995 54.4411 31.2586C54.2356 32.9027 53.4821 33.6562 51.838 33.7932C50.8789 33.9302 49.7829 33.7932 48.7553 33.7932C48.3443 33.7932 48.0703 33.6562 48.0703 33.2452C48.0703 29.7515 48.0703 26.3264 48.0703 22.8327C48.0703 22.4217 48.2073 22.1477 48.6183 22.2847C49.5089 22.2847 50.3994 22.2847 51.2215 22.2847C53.071 22.4217 54.0986 23.2437 54.3041 25.1618C54.4411 26.1208 54.4411 27.2169 54.5781 28.3129Z" fill="#1F3C71"/>
<path d="M48.0031 11.6651C48.0031 10.2265 48.0031 8.92495 48.0031 7.48639C48.0031 6.93836 48.1401 6.59584 48.7566 6.73285C49.5101 6.86985 50.2637 6.73285 51.0857 6.73285C52.5928 6.73285 53.4833 7.48638 53.6888 8.92495C54.0313 10.706 54.0313 12.4186 53.6888 14.1997C53.3463 15.7068 52.4558 16.5973 50.8117 16.7343C47.9346 16.9398 47.9346 16.9398 47.9346 14.1312C48.0031 13.3092 48.0031 12.4186 48.0031 11.6651Z" fill="#1F3C71"/>
<path d="M124.726 20.2982C124.726 23.5863 124.726 26.8745 124.726 30.1626C124.726 30.7107 124.726 31.2587 124.589 31.8067C124.246 33.3138 123.287 34.1358 121.712 34.1358C120.067 34.1358 119.177 33.3823 118.766 31.8067C118.629 31.2587 118.629 30.8477 118.629 30.2996C118.629 23.5178 118.629 16.8045 118.629 10.0227C118.629 9.47468 118.629 8.92666 118.834 8.37863C119.245 6.87156 120.136 6.18652 121.78 6.18652C123.287 6.18652 124.178 6.94007 124.657 8.37863C124.794 8.92666 124.863 9.61168 124.863 10.1597C124.726 13.6534 124.726 16.9415 124.726 20.2982Z" fill="#1F3C71"/>
<path d="M101.465 31.431C101.465 31.0978 101.548 30.7646 101.465 30.4314C101.382 29.8899 101.673 29.7649 102.131 29.8482C102.673 29.9315 103.256 29.7649 103.464 30.4314C103.714 31.1811 103.797 31.9725 103.381 32.6806C103.173 33.0138 101.84 33.2637 101.59 33.0971C101.465 33.0138 101.465 32.8889 101.465 32.7639C101.465 32.2641 101.465 31.8892 101.465 31.431Z" fill="#203B70"/>
<path d="M20.9097 26.4742C19.7018 26.3909 18.5771 26.141 17.3692 25.8078C17.1193 25.7245 16.9527 25.5995 17.1193 25.3496C17.4525 23.9334 17.7857 22.5589 18.2023 21.2261C18.2856 21.0178 18.2856 20.8095 18.6188 20.8928C20.035 21.226 21.4928 21.5593 22.7424 22.3507C23.4921 22.8088 24.0752 23.4753 23.9919 24.4333C23.9086 25.5579 23.2006 26.3076 22.0759 26.5159C21.6594 26.4742 21.3262 26.4742 20.9097 26.4742Z" fill="white"/>
<path d="M22.1589 19.1018C21.0343 19.1018 20.0763 18.8519 19.16 18.5603C18.8267 18.477 18.8267 18.3521 18.9101 18.0189C19.2433 16.7693 19.4932 15.5614 19.8264 14.2702C19.9097 14.0619 19.9514 13.9369 20.2429 14.0202C21.4925 14.3535 22.8254 14.5617 23.9083 15.4364C24.4915 15.8946 24.783 16.561 24.6581 17.3108C24.5331 18.0605 24.1166 18.5603 23.4085 18.8519C22.9087 19.1018 22.4921 19.1435 22.1589 19.1018Z" fill="white"/>
</svg>
