<svg width="37" height="32" viewBox="0 0 37 32" fill="none" xmlns="http://www.w3.org/2000/svg">
<mask id="mask0_673_85909" style="mask-type:luminance" maskUnits="userSpaceOnUse" x="1" y="2" width="35" height="29">
<path d="M35.2615 2.48047H1.58398V30.545H35.2615V2.48047Z" fill="white"/>
</mask>
<g mask="url(#mask0_673_85909)">
<path d="M31.5739 2.71992L2.96599 14.0805C2.03649 14.3903 2.13977 15.7329 3.06928 16.0427L10.2987 18.3149L13.1905 27.4034C13.397 28.1263 14.3265 28.3328 14.8429 27.8164L19.0773 23.8918L27.1331 29.7787C27.7527 30.1918 28.579 29.8819 28.7855 29.159L34.3624 5.19857C34.6723 3.44286 33.1232 2.10026 31.5739 2.71992ZM14.8429 20.0705L13.9134 25.441L11.8479 18.005L31.987 4.78547L14.8429 20.0705Z" fill="white"/>
</g>
</svg>
