<svg width="218" height="36" viewBox="0 0 218 36" fill="none" xmlns="http://www.w3.org/2000/svg">
<path d="M11.793 7.98431C10.2365 7.98431 9.00586 8.63584 8.17334 9.90272C7.30463 11.1696 6.87027 12.9432 6.87027 15.1874C6.87027 19.8567 8.64389 22.2095 12.1911 22.2095C13.277 22.2095 14.2905 22.0285 15.3402 21.7751C16.3175 21.4855 17.3672 21.1236 18.3807 20.6892V26.2635C16.3537 27.1322 14.0371 27.5665 11.5034 27.5665C7.81138 27.5665 5.02426 26.5168 3.10586 24.3812C1.18745 22.2457 0.101562 19.169 0.101562 15.1512C0.101562 12.6174 0.608311 10.4095 1.54942 8.49106C2.49052 6.57266 3.86598 5.12481 5.6034 4.07512C7.34083 3.02542 9.51261 2.51867 11.8654 2.51867C14.5077 2.51867 16.969 3.06162 19.3942 4.2199L17.3672 9.39597C16.4985 8.96161 15.5574 8.63585 14.6887 8.34628C13.7476 8.0929 12.7703 7.98431 11.793 7.98431ZM40.6414 17.7935C40.6414 20.8702 39.8089 23.2954 38.1801 24.9966C36.5151 26.6978 34.2347 27.5665 31.2666 27.5665C28.4071 27.5665 26.1629 26.6978 24.4617 24.9242C22.7605 23.1506 21.9279 20.7978 21.9279 17.7573C21.9279 14.6806 22.7605 12.3279 24.3893 10.5905C26.0543 8.88923 28.4071 8.02051 31.3752 8.02051C33.2574 8.02051 34.85 8.41867 36.2617 9.17879C37.7095 9.93891 38.7954 11.0972 39.5555 12.5813C40.2795 14.1015 40.6414 15.8027 40.6414 17.7935ZM28.4433 17.7935C28.4433 19.3862 28.6605 20.653 29.0948 21.4855C29.5292 22.3181 30.2531 22.7524 31.3028 22.7524C32.2801 22.7524 33.004 22.3181 33.4384 21.4855C33.8727 20.6168 34.0537 19.3862 34.0537 17.7935C34.0537 16.2009 33.8365 15.0064 33.4384 14.1739C33.004 13.3414 32.2801 12.9794 31.3028 12.9794C30.3255 12.9794 29.6016 13.3776 29.1672 14.1739C28.6605 14.934 28.4433 16.1285 28.4433 17.7935ZM50.885 27.2408H44.4059V8.41868H50.885V27.2408ZM44.2249 3.71315C44.2249 2.73585 44.5144 2.01192 45.0574 1.50518C45.6003 0.998428 46.5052 0.78125 47.6997 0.78125C48.8942 0.78125 49.7991 0.998428 50.3421 1.50518C50.885 2.01192 51.1746 2.69965 51.1746 3.64076C51.1746 5.55916 50.0163 6.50026 47.6997 6.50026C45.3832 6.57266 44.2249 5.63156 44.2249 3.71315ZM67.3181 27.2408V16.961C67.3181 15.6941 67.1371 14.753 66.7752 14.1739C66.4494 13.5224 65.8341 13.1966 65.074 13.1966C63.9881 13.1966 63.1917 13.6309 62.7212 14.4997C62.2144 15.3684 61.9973 16.8524 61.9973 19.0242V27.2769H55.5181V8.45486H60.4046L61.2371 10.7714H61.6353C62.1782 9.90272 62.9384 9.21499 63.9519 8.78064C64.9292 8.34628 66.0513 8.1291 67.3543 8.1291C69.4537 8.1291 71.0463 8.74444 72.2046 9.93891C73.3629 11.1334 73.9782 12.8708 73.9782 15.0426V27.3131H67.3905L67.3181 27.2408ZM92.8003 21.4855C92.8003 23.5125 92.1488 24.9966 90.7733 26.0463C89.3979 27.096 87.4071 27.6027 84.8371 27.6027C83.4617 27.6027 82.2672 27.5303 81.2175 27.3855C80.1678 27.2046 79.1181 26.9512 78.0684 26.553V21.3408C79.0457 21.7751 80.1678 22.1733 81.3623 22.4266C82.5568 22.7162 83.6065 22.861 84.62 22.861C86.0678 22.861 86.7193 22.5352 86.7193 21.8837C86.7193 21.5579 86.5022 21.2684 86.104 21.015C85.7059 20.7616 84.5476 20.2549 82.7016 19.4586C81.0003 18.7346 79.7697 17.9745 79.0819 17.0334C78.4304 16.0923 78.0322 15.0064 78.0322 13.5585C78.0322 11.7849 78.6838 10.4095 80.0592 9.50457C81.4347 8.52726 83.3169 8.02051 85.7783 8.02051C87.0451 8.02051 88.2034 8.20149 89.2531 8.45486C90.339 8.74443 91.4973 9.1064 92.6556 9.61315L90.8819 13.7757C90.0132 13.3776 89.1083 13.0518 88.131 12.7984C87.1537 12.5089 86.3574 12.3641 85.7783 12.3641C84.7286 12.3641 84.1856 12.6536 84.1856 13.1242C84.1856 13.45 84.3666 13.7395 84.7286 13.9567C85.0905 14.1739 86.1764 14.6082 87.9862 15.3322C89.2893 15.8751 90.3028 16.4181 90.9181 16.9248C91.5697 17.4316 92.0764 18.0831 92.366 18.807C92.6193 19.6033 92.8003 20.4358 92.8003 21.4855ZM107.677 27.5665C106.736 27.5665 105.867 27.3855 105.107 27.1322C104.347 26.8064 103.623 26.2635 102.863 25.4309H102.573C102.791 26.734 102.863 27.5665 102.863 27.8923V35.4211H96.3838V8.41868H101.668L102.61 10.8438H102.899C104.094 9.03401 105.759 8.0929 107.894 8.0929C109.994 8.0929 111.622 8.96161 112.781 10.6628C113.975 12.3641 114.554 14.7892 114.554 17.7573C114.554 20.7978 113.939 23.1868 112.672 24.9604C111.441 26.6978 109.776 27.5665 107.677 27.5665ZM105.505 13.1604C104.564 13.1604 103.84 13.4862 103.478 14.2101C103.08 14.8616 102.863 15.9113 102.863 17.2506V17.7573C102.863 19.35 103.08 20.5444 103.514 21.2684C103.949 21.9923 104.6 22.3543 105.541 22.3543C106.374 22.3543 106.989 22.0285 107.351 21.3046C107.749 20.5806 107.894 19.3862 107.894 17.7211C107.894 16.1285 107.713 14.9702 107.351 14.2463C106.989 13.5223 106.374 13.1604 105.505 13.1604ZM127.368 27.5665C124.219 27.5665 121.83 26.734 120.056 25.1052C118.355 23.4401 117.486 21.0512 117.486 17.9383C117.486 14.753 118.319 12.3279 119.911 10.6266C121.504 8.92542 123.821 8.05671 126.789 8.05671C129.648 8.05671 131.784 8.78063 133.34 10.2647C134.897 11.7487 135.657 13.8481 135.657 16.6352V19.5671H124.038C124.11 20.6168 124.472 21.4493 125.196 22.0285C125.92 22.6438 126.897 22.8972 128.164 22.8972C129.322 22.8972 130.372 22.7886 131.313 22.5714C132.291 22.3542 133.304 21.9561 134.462 21.4855V26.1549C133.413 26.6616 132.363 27.0236 131.313 27.2408C130.191 27.4579 128.852 27.5665 127.368 27.5665ZM127.006 12.5089C126.246 12.5089 125.558 12.726 125.087 13.2328C124.581 13.7395 124.255 14.4273 124.219 15.477H129.829C129.829 14.5359 129.54 13.8119 129.069 13.269C128.49 12.7984 127.802 12.5089 127.006 12.5089ZM151.583 27.2408L150.316 24.7794H150.208C149.339 25.8653 148.434 26.5892 147.529 26.9874C146.588 27.3855 145.43 27.6027 144.018 27.6027C142.245 27.6027 140.833 27.0598 139.856 26.0101C138.806 24.9604 138.299 23.4401 138.299 21.4855C138.299 19.4947 139.023 17.9745 140.398 17.0334C141.774 16.0561 143.801 15.477 146.443 15.3684L149.592 15.2598V14.9702C149.592 13.4138 148.832 12.6536 147.276 12.6536C145.9 12.6536 144.127 13.088 142.064 14.0291L140.181 9.72173C142.389 8.56345 145.14 8.02051 148.47 8.02051C150.895 8.02051 152.778 8.63585 154.081 9.83033C155.384 11.0248 156.072 12.6898 156.072 14.8254V27.1322H151.619L151.583 27.2408ZM146.805 22.9696C147.565 22.9696 148.253 22.68 148.832 22.2095C149.375 21.7027 149.665 21.0512 149.665 20.2911V18.807L148.181 18.8794C146.045 18.9518 144.995 19.7481 144.995 21.2322C144.923 22.4266 145.538 22.9696 146.805 22.9696ZM166.822 16.6352C167.582 15.3684 168.27 14.4273 168.849 13.7033L173.084 8.38248H180.359L173.808 16.4181L180.721 27.2408H173.301L169.175 20.472L167.075 22.0647V27.1684H160.524V1.32419H167.075V11.4954C167.075 13.269 166.967 14.9702 166.677 16.599H166.822V16.6352ZM192.051 27.5665C188.902 27.5665 186.513 26.734 184.739 25.1052C183.038 23.4401 182.169 21.0512 182.169 17.9383C182.169 14.753 183.002 12.3279 184.594 10.6266C186.187 8.92542 188.503 8.05671 191.471 8.05671C194.331 8.05671 196.467 8.78063 198.023 10.2647C199.579 11.7487 200.34 13.8481 200.34 16.6352V19.5671H188.684C188.757 20.6168 189.119 21.4493 189.843 22.0285C190.567 22.6438 191.544 22.8972 192.811 22.8972C193.969 22.8972 195.019 22.7886 195.96 22.5714C196.937 22.3542 197.951 21.9561 199.109 21.4855V26.1549C198.059 26.6616 197.01 27.0236 195.96 27.2408C194.874 27.4579 193.535 27.5665 192.051 27.5665ZM191.652 12.5089C190.892 12.5089 190.205 12.726 189.734 13.2328C189.227 13.7395 188.902 14.4273 188.865 15.477H194.476C194.476 14.5359 194.186 13.8119 193.716 13.269C193.137 12.7984 192.485 12.5089 191.652 12.5089ZM215.325 8.05671C215.868 8.05671 216.411 8.1291 216.918 8.1653L217.316 8.23769L216.7 14.3549C216.157 14.2463 215.433 14.1377 214.492 14.1377C213.044 14.1377 212.031 14.4635 211.416 15.115C210.764 15.7665 210.438 16.7076 210.438 17.9021V27.1322H203.959V8.31008H208.81L209.787 11.3506H210.113C210.656 10.3733 211.416 9.54076 212.357 8.92542C213.406 8.38248 214.384 8.05671 215.325 8.05671Z" fill="white"/>
</svg>
