<svg width="193" height="46" viewBox="0 0 193 46" fill="none" xmlns="http://www.w3.org/2000/svg">
<path d="M34.1765 22.8159L22.9512 34.2235H45.4019L34.1765 22.8159Z" fill="white"/>
<path d="M11.7254 22.8144L0.5 11.4067V34.222L11.7254 22.8144Z" fill="white"/>
<path d="M34.1765 22.8144L45.4019 11.4067H22.9512L34.1765 22.8144Z" fill="white"/>
<path d="M22.951 11.4076L34.1763 0H11.7256L22.951 11.4076Z" fill="white"/>
<path d="M34.1765 45.6303L45.4019 34.2227H22.9512L34.1765 45.6303Z" fill="white"/>
<path d="M11.7254 45.6303L22.9507 34.2227H0.5L11.7254 45.6303Z" fill="white"/>
<path d="M34.1765 0L22.9512 11.4076H45.4019L34.1765 0Z" fill="white"/>
<path d="M0.5 11.4076H22.9507L11.7254 0L0.5 11.4076Z" fill="white"/>
<path d="M22.951 34.2227L11.7256 45.6303H34.1763L22.951 34.2227Z" fill="white"/>
<path d="M11.7254 22.8159L0.5 34.2235H22.9507L11.7254 22.8159Z" fill="white"/>
<path d="M22.9507 11.4067H0.5L11.7254 22.8144L22.9507 11.4067Z" fill="white"/>
<path fill-rule="evenodd" clip-rule="evenodd" d="M58.4379 27.0107C59.0318 27.0107 59.4773 26.8296 59.7743 26.4977C60.0712 26.1657 60.2197 25.6828 60.2197 25.0189H64.3179L64.3476 25.1095C64.4367 26.5882 63.813 28.0368 62.7142 29.0025C61.5264 30.0286 60.0118 30.5718 58.4379 30.5115C56.2404 30.5115 54.5773 29.8174 53.3895 28.4593C52.1719 26.9504 51.5186 25.0491 51.6077 23.1176V22.8159C51.6077 20.643 52.2016 18.8624 53.3895 17.4742C54.5476 16.086 56.2404 15.422 58.4082 15.422C60.2197 15.422 61.6749 15.9351 62.7736 16.9612C63.9021 18.0476 64.4664 19.6169 64.3773 21.1862L64.3476 21.2767H60.2494C60.2791 20.6732 60.1009 20.0696 59.804 19.5867C59.507 19.1642 59.0615 18.953 58.4379 18.953C57.5767 18.953 56.9828 19.3151 56.6561 20.0092C56.2701 20.9146 56.0919 21.8803 56.1513 22.846V23.1478C56.1513 24.355 56.3294 25.3207 56.6561 26.0148C56.9531 26.6486 57.5767 27.0107 58.4379 27.0107ZM74.3257 19.6773H72.6923C72.1875 19.6773 71.7717 19.7678 71.4451 19.9187C71.1184 20.0998 70.8808 20.3412 70.7324 20.6732V30.2399H66.2481V15.6635H70.4651L70.6136 17.8062C70.8511 17.112 71.2669 16.5085 71.8311 16.0256C72.3063 15.6031 72.9299 15.3918 73.5535 15.3918C73.9693 15.3918 74.3851 15.4522 74.8008 15.5427L74.3257 19.6773ZM82.8486 23.8118V23.9325H82.9377L85.3135 15.6635H90.0946L84.3632 32.3826C83.9177 33.469 83.3535 34.3442 82.6407 35.0383C81.928 35.7324 80.8293 36.0946 79.285 36.0946C78.899 36.0946 78.5723 36.0644 78.3347 36.004C78.0971 35.9739 77.7111 35.8833 77.1766 35.7324L77.7111 32.5033L77.9784 32.5636L78.2159 32.5938C78.9287 32.5938 79.4335 32.4731 79.7602 32.2618C80.0868 32.0506 80.3244 31.7186 80.5026 31.2961L80.8589 30.3606L75.8699 15.6333H80.6511L82.8486 23.8118ZM100.102 22.9667C100.102 21.7596 99.9242 20.7335 99.5679 20.0092C99.2115 19.2548 98.6473 18.8926 97.8752 18.8926C97.3703 18.8926 96.9249 18.9831 96.5982 19.1642C96.2419 19.3453 95.9746 19.6169 95.7667 19.979V26.0752C95.9746 26.377 96.2715 26.6184 96.5982 26.7693C97.014 26.9202 97.4594 27.0107 97.9049 26.9805C98.7067 26.9805 99.2412 26.6486 99.5976 25.9846C99.9836 25.1095 100.162 24.1739 100.102 23.2082V22.9667ZM104.587 23.2384C104.587 25.4414 104.082 27.1918 103.131 28.5197C102.181 29.8475 100.637 30.5718 99.0333 30.5115C97.7564 30.5416 96.5685 29.9682 95.7964 28.9422V35.823H91.3122V15.6635H95.4994L95.6776 17.2629C96.3903 16.086 97.6673 15.3617 99.0333 15.3918C100.815 15.3918 102.181 16.086 103.161 17.4742C104.201 19.1038 104.705 21.0353 104.616 22.9667V23.2384H104.587ZM111.862 12.042V15.6635H114.297V18.8021H111.862V25.5018C111.862 26.0148 111.981 26.377 112.159 26.6184C112.367 26.8598 112.694 26.9805 112.991 26.9805C113.436 26.9805 113.882 26.9504 114.297 26.8598L114.594 30.2399C113.704 30.4511 112.783 30.5718 111.833 30.5718C110.348 30.5718 109.249 30.1493 108.477 29.3647C107.705 28.58 107.319 27.3125 107.319 25.5923V18.8624H105.299V15.7238H107.319V12.1024H111.862V12.042ZM119.91 23.0875C119.91 24.2946 120.088 25.2603 120.474 25.9545C120.86 26.6486 121.484 26.9805 122.405 26.9805C123.296 26.9805 123.919 26.6486 124.276 25.9243C124.662 25.2302 124.84 24.2644 124.84 23.0573V22.7555C124.869 21.7596 124.691 20.7939 124.276 19.9187C123.89 19.1944 123.266 18.8624 122.345 18.8624C121.454 18.8624 120.831 19.2246 120.474 19.9489C120.088 20.6732 119.91 21.6087 119.91 22.7857V23.0875ZM115.426 22.8159C115.337 20.8542 115.99 18.953 117.267 17.4742C118.485 16.086 120.207 15.3918 122.375 15.3918C124.573 15.3918 126.265 16.086 127.483 17.4742C128.73 18.953 129.413 20.8542 129.324 22.8159V23.1176C129.324 25.3207 128.7 27.1013 127.483 28.4593C126.265 29.8475 124.573 30.5115 122.375 30.5115C120.177 30.5115 118.455 29.8174 117.237 28.4593C115.99 26.9805 115.337 25.0491 115.426 23.1176V22.8159ZM135.442 15.6635L135.62 17.7156C136.095 16.9913 136.659 16.4179 137.372 16.0256C138.085 15.6031 138.857 15.3919 139.658 15.422C141.084 15.422 142.183 15.8747 142.955 16.8103C143.757 17.7458 144.143 19.2246 144.143 21.2465V30.27H139.658V21.2164C139.658 20.3714 139.48 19.798 139.154 19.4358C138.827 19.1038 138.322 18.9228 137.639 18.9228C136.897 18.8926 136.184 19.2246 135.709 19.798V30.27H131.254V15.6936H135.442V15.6635ZM152.844 18.8926C152.19 18.8926 151.715 19.1038 151.389 19.5867C151.062 20.0394 150.884 20.6732 150.795 21.4578L150.824 21.5182H154.685V21.1862C154.685 20.4317 154.537 19.8885 154.24 19.4962C153.943 19.0737 153.497 18.8926 152.844 18.8926ZM153.17 30.5115C151.032 30.5115 149.369 29.8475 148.092 28.4895C146.815 27.1314 146.132 25.2905 146.192 23.4194V22.9064C146.192 20.6732 146.756 18.8624 147.914 17.4742C149.072 16.086 150.706 15.3617 152.844 15.3918C154.804 15.3918 156.318 15.9954 157.417 17.1724C158.575 18.5003 159.169 20.2205 159.08 21.9708V24.355H150.854L150.824 24.4455C150.943 25.2 151.211 25.8036 151.745 26.2864C152.25 26.7693 152.903 27.0107 153.764 27.0107C155.13 27.0409 156.497 26.7391 157.744 26.1054L158.813 28.8818C158.07 29.3949 157.239 29.7872 156.378 30.0588C155.368 30.3606 154.299 30.5115 153.17 30.5115ZM173.335 24.1135H173.424L174.968 15.6635H179.096L175.71 30.2399H171.909L169.563 22.5141H169.474L167.128 30.2399H163.327L159.941 15.6635H164.069L165.643 24.1739H165.732L168.078 15.6635H170.899L173.335 24.1135ZM188.183 26.1355C188.183 25.7734 187.975 25.4716 187.589 25.1698C186.906 24.7775 186.164 24.536 185.391 24.4153C184.025 24.2041 182.719 23.691 181.59 22.846C180.729 22.1519 180.284 21.0957 180.313 19.979C180.313 18.7115 180.907 17.5044 181.917 16.7197C182.986 15.8445 184.441 15.3918 186.223 15.3918C188.153 15.3918 189.668 15.8144 190.796 16.6895C191.865 17.444 192.489 18.7115 192.43 20.0394L192.4 20.1299H188.064C188.064 19.5565 187.916 19.134 187.619 18.8322C187.322 18.5305 186.876 18.3796 186.253 18.3796C185.777 18.3796 185.391 18.5003 185.065 18.7719C184.768 19.0133 184.59 19.3755 184.59 19.7678C184.619 20.1601 184.797 20.5223 185.124 20.7335C185.807 21.1258 186.579 21.3673 187.351 21.4578C188.747 21.6691 190.084 22.2123 191.242 23.0271C192.103 23.7514 192.578 24.8378 192.489 25.9846C192.489 27.2823 191.925 28.3688 190.767 29.2138C189.43 30.1191 187.827 30.5718 186.223 30.4813C184.263 30.4813 182.719 29.9682 181.59 28.9723C180.462 27.9764 179.898 26.8296 179.957 25.5923L179.987 25.5018H184.055C184.085 26.1959 184.263 26.6787 184.679 26.9805C185.065 27.2823 185.629 27.4332 186.342 27.4332C186.936 27.4332 187.411 27.3125 187.708 27.0711C188.034 26.9202 188.183 26.558 188.183 26.1355Z" fill="white"/>
</svg>
