<svg width="37" height="39" viewBox="0 0 37 39" fill="none" xmlns="http://www.w3.org/2000/svg">
<path d="M19.2494 16.4069C17.9202 15.0083 16.1178 14.2227 14.2384 14.2227C12.359 14.2227 10.5565 15.0083 9.22733 16.4069L4.21466 21.6817C2.88542 23.0809 2.13867 24.9786 2.13867 26.9573C2.13867 28.9361 2.88542 30.8338 4.21466 32.233C5.54389 33.632 7.3467 34.4183 9.22652 34.4183C11.1063 34.4183 12.9092 33.632 14.2384 32.233L16.7439 29.5956" stroke="white" stroke-width="2.53333" stroke-linecap="round" stroke-linejoin="round"/>
<path d="M14.2305 21.6832C15.5597 23.0818 17.3621 23.8675 19.2415 23.8675C21.1209 23.8675 22.9234 23.0818 24.2526 21.6832L29.2653 16.4084C30.5947 15.0092 31.3413 13.1115 31.3413 11.1328C31.3413 9.15404 30.5947 7.25632 29.2653 5.85713C27.936 4.45794 26.1332 3.67188 24.2534 3.67188C22.3736 3.67188 20.5708 4.45794 19.2415 5.85713L16.736 8.49452" stroke="white" stroke-width="2.53333" stroke-linecap="round" stroke-linejoin="round"/>
</svg>
