<svg width="35" height="36" viewBox="0 0 35 36" fill="none" xmlns="http://www.w3.org/2000/svg">
<g clip-path="url(#clip0_673_85915)">
<path d="M16.4092 9.27332C11.8339 9.27332 8.14148 13.1919 8.14148 18.0473C8.14148 22.9026 11.8339 26.8213 16.4092 26.8213C20.9845 26.8213 24.6769 22.9026 24.6769 18.0473C24.6769 13.1919 20.9845 9.27332 16.4092 9.27332ZM16.4092 23.7497C13.4504 23.7497 11.0358 21.1872 11.0358 18.0473C11.0358 14.9073 13.4504 12.3448 16.4092 12.3448C19.3681 12.3448 21.7827 14.9073 21.7827 18.0473C21.7827 21.1872 19.3681 23.7497 16.4092 23.7497ZM25.0157 6.86915C23.9474 6.86915 23.0847 7.78462 23.0847 8.91824C23.0847 10.0519 23.9474 10.9674 25.0157 10.9674C26.0838 10.9674 26.9465 10.0562 26.9465 8.91824C26.9467 8.64906 26.8971 8.38245 26.8001 8.13369C26.7033 7.88493 26.5611 7.65891 26.3816 7.46856C26.2022 7.27822 25.9893 7.12729 25.7549 7.02444C25.5206 6.92158 25.2692 6.8688 25.0157 6.86915ZM32.5256 18.0473C32.5256 15.6859 32.5457 13.3459 32.4207 10.9887C32.2958 8.25089 31.7072 5.82106 29.8206 3.819C27.93 1.81267 25.6444 1.19238 23.0646 1.05976C20.8394 0.927149 18.6344 0.948538 16.4133 0.948538C14.1881 0.948538 11.9831 0.927149 9.76196 1.05976C7.18206 1.19238 4.89242 1.81695 3.00586 3.819C1.11528 5.82534 0.530777 8.25089 0.405812 10.9887C0.280848 13.3502 0.301004 15.6901 0.301004 18.0473C0.301004 20.4044 0.280848 22.7487 0.405812 25.1057C0.530777 27.8436 1.11932 30.2736 3.00586 32.2755C4.89646 34.2818 7.18206 34.9021 9.76196 35.0348C11.9871 35.1674 14.1921 35.146 16.4133 35.146C18.6384 35.146 20.8434 35.1674 23.0646 35.0348C25.6444 34.9021 27.934 34.2775 29.8206 32.2755C31.7112 30.2693 32.2958 27.8436 32.4207 25.1057C32.5498 22.7487 32.5256 20.4087 32.5256 18.0473ZM28.9782 28.1346C28.6839 28.913 28.3293 29.4949 27.7607 30.0938C27.1923 30.697 26.6481 31.0734 25.9145 31.3857C23.7941 32.2798 18.7594 32.0787 16.4092 32.0787C14.0591 32.0787 9.02025 32.2798 6.89989 31.39C6.16624 31.0777 5.61801 30.7013 5.05365 30.0981C4.48526 29.4949 4.13055 28.9173 3.83628 28.1388C2.9978 25.8844 3.18727 20.5413 3.18727 18.0473C3.18727 15.5533 2.9978 10.2059 3.83628 7.95572C4.13055 7.17714 4.48526 6.59535 5.05365 5.99645C5.62205 5.39754 6.16624 5.01681 6.89989 4.70452C9.02025 3.81472 14.0591 4.01578 16.4092 4.01578C18.7594 4.01578 23.7982 3.81472 25.9186 4.70452C26.6522 5.01681 27.2005 5.39327 27.7648 5.99645C28.3331 6.59963 28.6879 7.17714 28.9823 7.95572C29.8206 10.2059 29.6312 15.5533 29.6312 18.0473C29.6312 20.5413 29.8206 25.8844 28.9782 28.1346Z" fill="white"/>
</g>
<defs>
<clipPath id="clip0_673_85915">
<rect width="34.2" height="34.2" fill="white" transform="translate(0.299805 0.947266)"/>
</clipPath>
</defs>
</svg>
