<svg width="39" height="32" viewBox="0 0 39 32" fill="none" xmlns="http://www.w3.org/2000/svg">
<path d="M37.9213 4.69865C36.5736 5.28 35.1071 5.69839 33.5964 5.86134C35.1648 4.92958 36.3393 3.45756 36.8995 1.72146C35.4278 2.59695 33.8155 3.21086 32.1342 3.53596C31.4315 2.78473 30.5817 2.18626 29.6375 1.77785C28.6934 1.36946 27.6754 1.15985 26.6467 1.16213C22.4848 1.16213 19.1376 4.53569 19.1376 8.67559C19.1376 9.25693 19.208 9.83829 19.3226 10.3976C13.0907 10.0717 7.5327 7.0945 3.83763 2.53622C3.16434 3.6862 2.81152 4.9956 2.81587 6.32818C2.81587 8.93544 4.1415 11.2344 6.16302 12.5864C4.97171 12.5395 3.8083 12.2121 2.76741 11.6308V11.7233C2.76741 15.3743 5.34824 18.4 8.78788 19.0958C8.14205 19.2636 7.47768 19.3494 6.81042 19.3512C6.32156 19.3512 5.85913 19.3028 5.39229 19.2367C6.34358 22.214 9.11379 24.3764 12.4125 24.4468C9.83166 26.4683 6.59902 27.6574 3.08892 27.6574C2.45913 27.6574 1.87778 27.6355 1.27441 27.565C4.60395 29.7009 8.55446 30.9341 12.8089 30.9341C26.6202 30.9341 34.1778 19.4921 34.1778 9.56082C34.1778 9.23491 34.1778 8.90901 34.1557 8.5831C35.6178 7.5129 36.8995 6.18725 37.9213 4.69865Z" fill="white"/>
</svg>
