<svg width="224" height="45" viewBox="0 0 224 45" fill="none" xmlns="http://www.w3.org/2000/svg">
<g clip-path="url(#clip0_858_79367)">
<path d="M6.37155 5.80673H11.2507C15.6744 5.80673 17.626 7.20541 17.626 10.0516C17.626 12.4911 15.6744 14.1988 11.7548 14.1988H6.37155V5.80673ZM0.516602 33.7722H12.3891C18.6344 33.7722 24.8797 31.5359 24.8797 24.3636C24.9191 22.3802 24.2065 20.4553 22.8851 18.9755C21.5637 17.4957 19.7314 16.5707 17.7562 16.3863V16.2887C21.1471 15.2722 23.4891 12.8083 23.4891 9.07576C23.4891 3.06631 18.3579 0.78125 13.3731 0.78125H0.516602V33.7722ZM6.3878 19.2324H12.0232C16.7722 19.2324 19.0166 20.4441 19.0166 23.9001C19.0166 28.2263 14.8124 28.7386 11.7873 28.7386H6.37155L6.3878 19.2324Z" fill="white"/>
<path d="M31.499 33.7635V0" stroke="white" stroke-width="6.0989" stroke-miterlimit="10"/>
<path d="M43.6152 22.5823C43.6424 21.289 44.0508 20.0325 44.7891 18.9703C45.5275 17.9081 46.5629 17.0875 47.7656 16.6113C48.9684 16.1351 50.2849 16.0246 51.5502 16.2935C52.8156 16.5624 53.9734 17.1989 54.8785 18.123C55.7837 19.0472 56.3958 20.218 56.6384 21.4886C56.8809 22.7593 56.7429 24.0733 56.2418 25.2658C55.7407 26.4584 54.8987 27.4765 53.8214 28.1926C52.7441 28.9086 51.4794 29.2907 50.1858 29.291C49.3086 29.3002 48.4387 29.132 47.6283 28.7963C46.8178 28.4606 46.0836 27.9646 45.4698 27.3379C44.856 26.7112 44.3753 25.9668 44.0566 25.1495C43.7379 24.3323 43.5878 23.459 43.6152 22.5823ZM38.0205 22.5823C38.0205 29.6163 43.4201 34.3165 50.2183 34.3165C57.0165 34.3165 62.4161 29.6163 62.4161 22.5823C62.4161 15.5482 57.0003 10.8398 50.2183 10.8398C43.4363 10.8398 38.0205 15.5482 38.0205 22.5823Z" fill="white"/>
<path d="M70.4502 22.5823C70.4774 21.289 70.8858 20.0325 71.6241 18.9703C72.3624 17.9081 73.3978 17.0875 74.6006 16.6113C75.8033 16.1351 77.1199 16.0246 78.3852 16.2935C79.6505 16.5624 80.8084 17.1989 81.7135 18.123C82.6186 19.0472 83.2308 20.218 83.4733 21.4886C83.7158 22.7593 83.5779 24.0733 83.0768 25.2658C82.5756 26.4584 81.7337 27.4765 80.6564 28.1926C79.579 28.9086 78.3143 29.2907 77.0207 29.291C76.1436 29.3002 75.2737 29.132 74.4632 28.7963C73.6528 28.4606 72.9186 27.9646 72.3048 27.3379C71.691 26.7112 71.2103 25.9668 70.8916 25.1495C70.5729 24.3323 70.4227 23.459 70.4502 22.5823ZM64.8555 22.5823C64.8555 29.6163 70.2632 34.3165 77.0533 34.3165C83.8434 34.3165 89.251 29.6163 89.251 22.5823C89.251 15.5482 83.8434 10.8398 77.0533 10.8398C70.2632 10.8398 64.8555 15.5482 64.8555 22.5823Z" fill="white"/>
<path d="M92.6094 11.3931H97.9195V14.898H98.0089C98.9929 12.8 101.132 10.832 104.856 10.832C108.312 10.832 110.695 12.1819 111.857 14.9874C112.551 13.666 113.609 12.5718 114.907 11.8351C116.204 11.0983 117.686 10.7502 119.176 10.832C125.145 10.832 127.243 15.085 127.243 20.4358V33.772H121.681V21.0863C121.681 18.2971 120.868 15.8738 117.534 15.8738C114.045 15.8738 112.736 18.7606 112.736 21.6474V33.772H107.149V20.4358C107.149 17.6791 106.027 15.8738 103.327 15.8738C99.6516 15.8738 98.2041 18.5654 98.2041 21.5661V33.7639H92.6094V11.3931Z" fill="white"/>
<path d="M150.354 22.5822C150.327 23.8774 149.918 25.1358 149.179 26.1995C148.439 27.2632 147.402 28.0848 146.197 28.5614C144.992 29.0379 143.674 29.1481 142.407 28.8783C141.14 28.6084 139.98 27.9704 139.074 27.0442C138.168 26.1181 137.556 24.9451 137.314 23.6724C137.072 22.3996 137.212 21.0838 137.715 19.8899C138.218 18.6959 139.062 17.6771 140.142 16.9611C141.221 16.2452 142.488 15.864 143.784 15.8653C144.662 15.856 145.532 16.0245 146.343 16.3607C147.154 16.6969 147.889 17.1937 148.503 17.8213C149.117 18.4488 149.597 19.1942 149.915 20.0124C150.234 20.8306 150.383 21.7047 150.354 22.5822ZM131.806 33.7716H137.132V30.4132H137.213C138.84 33.1129 141.783 34.3246 144.914 34.3246C151.802 34.3246 155.949 29.2015 155.949 22.5903C155.949 15.9791 151.517 10.8479 145.142 10.8479C143.696 10.7753 142.253 11.0462 140.931 11.6385C139.61 12.2307 138.447 13.1273 137.539 14.2551H137.4V0H131.806V33.7716Z" fill="white"/>
<path d="M164.065 20.3453C164.48 17.0926 166.504 15.0271 169.838 15.0271C173.335 15.0271 175.474 17.0844 175.531 20.3453H164.065ZM181.142 24.5332V23.0044C181.142 15.2141 176.905 10.8066 170.66 10.8066C163.894 10.8066 158.462 15.515 158.462 22.549C158.462 29.5831 163.861 34.2833 170.66 34.2833C172.474 34.3281 174.273 33.9476 175.914 33.1724C177.555 32.3972 178.991 31.2488 180.109 29.8189L176.108 26.7939C175.418 27.7381 174.513 28.5047 173.468 29.0306C172.423 29.5565 171.268 29.8267 170.099 29.8189C168.604 29.8805 167.143 29.3612 166.023 28.3698C164.903 27.3784 164.21 25.9918 164.089 24.5007L181.142 24.5332Z" fill="white"/>
<path d="M184.76 11.393H190.354V14.9384H190.444C191.178 13.3704 192.457 12.1228 194.043 11.4286C195.629 10.7343 197.414 10.6407 199.064 11.1653V16.573C198.185 16.3211 197.278 16.179 196.364 16.1501C195.591 16.0964 194.816 16.2027 194.087 16.4623C193.357 16.722 192.689 17.1295 192.124 17.6592C191.559 18.1889 191.11 18.8295 190.804 19.5409C190.498 20.2523 190.342 21.0192 190.346 21.7936V33.7718H184.76V11.393Z" fill="white"/>
<path d="M211.57 15.8809C215.636 15.8809 218.189 18.5725 218.189 22.4514C218.189 26.1758 215.669 29.0139 211.529 29.0139C210.668 29.0302 209.811 28.8736 209.011 28.5533C208.211 28.2329 207.483 27.7554 206.87 27.1489C206.258 26.5424 205.773 25.8193 205.445 25.0222C205.116 24.2251 204.951 23.3704 204.959 22.5084C204.909 21.6248 205.045 20.7406 205.359 19.9131C205.673 19.0857 206.157 18.3335 206.781 17.7054C207.404 17.0773 208.153 16.5874 208.978 16.2675C209.803 15.9476 210.686 15.8048 211.57 15.8484M218.189 11.3677V14.7262H218.1C216.474 12.0264 213.522 10.8066 210.399 10.8066C203.511 10.8066 199.364 15.9378 199.364 22.5572C199.364 28.8838 203.788 34.015 210.497 34.015C213.294 34.015 216.189 32.9497 217.815 30.7622H217.889V32.3886C217.889 36.8123 216.262 39.8943 210.814 39.8943C209.381 39.8926 207.962 39.6039 206.643 39.0452C205.323 38.4866 204.128 37.6693 203.129 36.6416L199.779 41.2198C202.934 44.0253 206.715 44.9035 210.871 44.9035C219.58 44.9035 223.491 39.7723 223.491 31.7136V11.384L218.189 11.3677Z" fill="white"/>
</g>
<defs>
<clipPath id="clip0_858_79367">
<rect width="223" height="44.9529" fill="white" transform="translate(0.5)"/>
</clipPath>
</defs>
</svg>
