<svg width="225" height="83" viewBox="0 0 225 83" fill="none" xmlns="http://www.w3.org/2000/svg">
<path fill-rule="evenodd" clip-rule="evenodd" d="M80.8001 25.5905V50.2747H92.9524V40.8757C92.9524 34.6477 92.9524 31.2109 92.9524 30.7552C93.0703 29.8368 93.3878 28.9554 93.8828 28.1728C94.2696 27.565 94.8214 27.0799 95.4736 26.7739C96.1259 26.468 96.8517 26.3539 97.5664 26.445C99.693 26.5589 100.927 27.8121 101.364 30.2425C101.364 30.6033 101.459 34.3439 101.459 40.572V50.3127H113.611V38.92C113.611 29.3311 113.611 27.3564 113.478 26.407C113.264 23.4057 112.024 20.5696 109.965 18.3751C108.252 16.6686 106.009 15.597 103.605 15.337C102.129 15.218 100.646 15.2625 99.1803 15.47C97.0952 15.8953 95.1845 16.9333 93.6928 18.451L92.8384 19.3055V0.90625H80.7621L80.8001 25.5905ZM209.918 1.26702C209.595 2.00755 197.253 31.8755 197.253 31.9324C197.253 31.9894 200.481 31.9324 204.43 31.9324H211.627L218.045 16.4763C221.557 7.96976 224.443 0.982181 224.443 0.944205C224.443 0.906229 221.215 0.944205 217.266 0.944205H210.089L209.918 1.26702ZM54.1221 15.299C51.7068 15.5939 49.3928 16.4454 47.3624 17.7865C45.2887 19.2306 43.5411 21.0939 42.2328 23.2559C40.9245 25.4179 40.0846 27.8304 39.7673 30.3375C39.4148 32.96 39.5499 35.6251 40.166 38.1985C40.7762 40.9644 42.0765 43.5309 43.9457 45.659C45.8149 47.7871 48.1921 49.4076 50.8562 50.3697C52.4314 50.9609 54.1137 51.2133 55.7931 51.1102C56.7389 51.1641 57.6877 51.1132 58.6222 50.9583C60.7762 50.5675 62.7617 49.535 64.3186 47.9962L65.0971 47.2177V50.2747H76.8127V16.0966H65.0971V19.2485L64.5465 18.6599C62.9891 17.1 61.0087 16.0306 58.8501 15.5839C57.9667 15.3798 57.0596 15.2968 56.1538 15.337C55.2234 15.2611 54.3119 15.28 54.179 15.299H54.1221ZM131.688 15.394C128.353 15.8213 125.193 17.1324 122.535 19.1916C120.115 21.2097 118.265 23.8261 117.169 26.7808C116.073 29.7354 115.77 32.9255 116.288 36.0338C116.781 39.519 118.313 42.7746 120.684 45.376C123.055 47.9774 126.155 49.8037 129.58 50.6165C131.187 51.0202 132.841 51.2117 134.498 51.1862C137.485 51.2809 140.448 50.6283 143.118 49.2874C145.668 48.0185 147.867 46.1429 149.523 43.8254C151.178 41.5079 152.239 38.8193 152.612 35.9959C152.812 34.2102 152.812 32.4079 152.612 30.6223C152.204 27.7497 151.117 25.0158 149.441 22.6474C148.478 21.4122 147.39 20.2796 146.194 19.2676C143.552 17.2073 140.404 15.8957 137.08 15.47C135.309 15.2643 133.521 15.2389 131.745 15.394H131.688ZM170.347 15.394C167.068 15.8354 163.967 17.1467 161.366 19.1916C160.165 20.1986 159.077 21.3317 158.119 22.5714C156.437 24.9387 155.344 27.6724 154.929 30.5463C154.72 32.3314 154.72 34.1348 154.929 35.9199C155.575 40.2409 157.775 44.1776 161.117 46.9918C164.459 49.8059 168.713 51.304 173.081 51.2051C176.135 51.2657 179.155 50.5676 181.873 49.1735C185.356 47.3503 188.141 44.4288 189.796 40.862C191.451 37.2952 191.882 33.2822 191.025 29.445C190.292 25.7718 188.405 22.429 185.638 19.9046C182.871 17.3801 179.369 15.8064 175.645 15.413C173.903 15.2302 172.147 15.2238 170.404 15.394H170.347ZM0.443359 16.0775C0.443359 16.0775 3.72831 23.8626 7.73476 33.2996C11.7412 42.7365 15.007 50.5406 15.007 50.5785C15.007 50.6165 13.8299 53.4457 12.3868 56.8256L9.78536 63.0156C9.78536 63.0156 12.6905 63.0156 16.2223 63.0156H22.6782L32.381 39.6415C37.7166 26.7867 42.0838 16.2295 42.0838 16.1535C39.9589 16.0319 37.8288 16.0319 35.7039 16.1535H29.305L25.3745 26.1222C23.2098 31.5907 21.425 36.0528 21.4061 36.0338C21.3871 36.0148 19.6212 31.5337 17.4755 26.0652L13.678 16.1535H7.10812C3.46245 16.0396 0.462366 16.0586 0.462366 16.0775H0.443359ZM60.0653 26.426C61.2772 26.7191 62.3862 27.3373 63.2728 28.2139C64.1594 29.0905 64.7901 30.1923 65.0971 31.4008C65.3437 32.5907 65.3437 33.8185 65.0971 35.0085C64.7857 36.2086 64.1582 37.3032 63.2799 38.1782C62.4015 39.0532 61.3045 39.6765 60.1032 39.9833C58.9154 40.2491 57.6835 40.2491 56.4956 39.9833C55.4498 39.7115 54.48 39.2041 53.6605 38.4998C52.841 37.7955 52.1935 36.913 51.7677 35.9199C51.3397 34.8405 51.1751 33.6747 51.2874 32.519C51.3997 31.3633 51.7855 30.251 52.4132 29.2741C53.2424 28.0567 54.4307 27.128 55.8124 26.6175C57.1942 26.107 58.7006 26.0401 60.1222 26.426H60.0653ZM135.694 26.426C136.991 26.6554 138.191 27.2653 139.141 28.1781C140.091 29.0909 140.749 30.2655 141.03 31.5527C141.257 32.6806 141.257 33.8426 141.03 34.9705C140.737 36.1282 140.141 37.1869 139.303 38.0379C138.466 38.8889 137.417 39.5014 136.264 39.8124C135.071 40.0305 133.849 40.0305 132.656 39.8124C131.713 39.5605 130.837 39.1054 130.09 38.4788C129.342 37.8523 128.74 37.0696 128.327 36.1857C127.858 35.2441 127.635 34.1987 127.681 33.1477C127.643 32.2031 127.819 31.2621 128.194 30.3944C128.713 29.1737 129.569 28.1263 130.662 27.3754C132.197 26.4778 134.01 26.1802 135.751 26.5399L135.694 26.426ZM174.353 26.426C175.454 26.6119 176.488 27.0758 177.359 27.7736C178.229 28.4715 178.907 29.3801 179.328 30.4134C179.703 31.2811 179.879 32.2221 179.841 33.1666C179.886 34.2177 179.664 35.2631 179.195 36.2047C178.786 37.088 178.188 37.8706 177.443 38.4973C176.699 39.124 175.825 39.5794 174.885 39.8314C173.686 40.0498 172.457 40.0498 171.258 39.8314C170.108 39.5193 169.062 38.9061 168.227 38.055C167.393 37.2039 166.801 36.1457 166.511 34.9895C166.246 33.8016 166.246 32.5696 166.511 31.3818C166.87 29.9298 167.708 28.6414 168.89 27.7249C170.072 26.8083 171.529 26.3173 173.024 26.331C173.492 26.3593 173.955 26.4291 174.41 26.5399L174.353 26.426ZM200.101 34.8945C198.404 35.0926 196.811 35.8157 195.545 36.9629C194.278 38.1101 193.402 39.624 193.037 41.2934C192.81 42.4852 192.81 43.7094 193.037 44.9012C193.38 46.3456 194.129 47.6619 195.196 48.6947C196.262 49.7275 197.602 50.4338 199.057 50.7304C199.603 50.8195 200.155 50.8639 200.709 50.8634C202.458 50.8756 204.165 50.3187 205.571 49.2767C206.976 48.2347 208.005 46.764 208.502 45.0863C208.999 43.4085 208.938 41.6146 208.327 39.975C207.715 38.3354 206.588 36.9388 205.114 35.9959C203.613 35.1332 201.88 34.7614 200.158 34.9326L200.101 34.8945ZM100.016 53.4837C99.4576 53.6621 98.9461 53.9626 98.5185 54.3632C98.0908 54.7638 97.7576 55.2546 97.5431 55.7999C97.3286 56.3453 97.2382 56.9315 97.2783 57.5161C97.3184 58.1008 97.4882 58.6692 97.7752 59.1801C98.2455 59.8797 98.9037 60.4326 99.674 60.775C100.181 61.0406 100.759 61.1402 101.326 61.0598C101.893 61.1376 102.47 61.0382 102.978 60.775C103.789 60.3501 104.452 59.6877 104.877 58.8762C105.11 58.4129 105.247 57.9065 105.277 57.3884C105.308 56.8702 105.231 56.3514 105.054 55.8639C104.876 55.3764 104.6 54.9305 104.243 54.5537C103.886 54.177 103.455 53.8775 102.978 53.6736C102.513 53.4188 101.988 53.2941 101.459 53.3128C100.988 53.2958 100.518 53.3666 100.073 53.5216L100.016 53.4837ZM89.8573 53.6736C88.3356 53.925 86.9263 54.6337 85.8172 55.7055C84.7081 56.7774 83.9515 58.1615 83.6483 59.6738C83.5212 60.2995 83.445 60.9345 83.4204 61.5725V62.8257H80.8001V65.7119V68.598H83.4014V82.2503H90.446V68.598H95.2308V65.8448V62.9586H90.3699V62.3321C90.3511 61.7555 90.5288 61.1897 90.8738 60.7274C91.2188 60.2651 91.7107 59.9337 92.2687 59.7877C93.1455 59.5632 94.0685 59.5961 94.9271 59.8826L95.4777 60.0535C95.4777 60.0535 95.4777 58.7243 95.4777 57.1104V54.1672L94.9841 53.9774C93.9897 53.6357 92.9391 53.4874 91.889 53.5407C91.2276 53.5515 90.5677 53.6086 89.9142 53.7115L89.8573 53.6736ZM118.757 62.6169C117.382 62.8634 116.145 63.6067 115.282 64.7055L114.883 65.2372V63.0156H107.744V82.4782H114.883V77.1806C114.883 74.1235 114.883 71.6361 114.883 71.3323C114.978 70.6149 115.305 69.9482 115.814 69.4335C116.311 69.0594 116.933 68.8903 117.551 68.9609C118.169 69.0316 118.737 69.3367 119.137 69.8133C119.668 70.5918 119.668 70.4778 119.706 76.7248V82.4212H126.827V76.0413C126.827 69.2626 126.827 68.4462 126.428 67.2119C126.139 66.0928 125.548 65.0746 124.719 64.2688C124.005 63.506 123.09 62.9599 122.08 62.6928C120.985 62.4723 119.86 62.4466 118.757 62.6169ZM136.757 62.6169C135.403 62.8448 134.111 63.3489 132.96 64.0979C130.831 65.7013 129.398 68.0591 128.953 70.6867C128.754 72.1165 128.754 73.5671 128.953 74.9969C129.218 76.6618 129.868 78.2419 130.852 79.611C132.114 81.3009 133.951 82.4696 136.017 82.8959C137.326 83.1322 138.67 83.0999 139.966 82.801C140.997 82.5132 141.942 81.9788 142.72 81.244L143.441 80.5794V82.4782H150.486V62.9586H143.441V64.9713L142.966 64.4777C141.94 63.45 140.607 62.7836 139.169 62.5789C138.37 62.4671 137.562 62.4417 136.757 62.5029V62.6169ZM164.404 62.6169C163.057 62.9333 161.851 63.6798 160.967 64.7435L160.663 65.1422V62.9966H153.486V82.4212H160.701V76.8957C160.701 71.0475 160.701 70.9335 161.119 70.136C161.303 69.7896 161.576 69.4981 161.909 69.2914C162.243 69.0846 162.625 68.9698 163.018 68.9588C163.322 68.9192 163.63 68.9538 163.918 69.0596C164.206 69.1654 164.464 69.3393 164.67 69.5664C165.429 70.3259 165.41 70.0411 165.429 76.6299V82.4212H172.55V75.3577C172.55 68.3702 172.55 68.2752 172.322 67.5347C172.145 66.9697 171.929 66.4177 171.676 65.8828C171.417 65.2851 171.035 64.7482 170.556 64.3068C169.955 63.6561 169.206 63.1609 168.372 62.8637C167.092 62.4452 165.726 62.3603 164.404 62.6169ZM183.221 62.6169C181.229 62.8585 179.36 63.7083 177.868 65.0504C176.377 66.3925 175.335 68.1617 174.885 70.1171C174.657 70.9577 174.574 71.8309 174.638 72.6994C174.556 73.9278 174.717 75.1603 175.113 76.3261C175.655 77.966 176.625 79.431 177.924 80.5695C179.223 81.708 180.802 82.4784 182.499 82.801C183.302 82.9347 184.116 82.9856 184.93 82.9529C186.288 83.0459 187.649 82.8115 188.898 82.2693L189.601 81.9845V75.4527L189.012 75.7944C188.204 76.2843 187.279 76.5467 186.335 76.5539C185.464 76.6549 184.584 76.4894 183.809 76.0793C183.044 75.711 182.433 75.0861 182.081 74.3134C181.847 73.8437 181.754 73.3158 181.816 72.7943C181.772 72.3098 181.843 71.8217 182.024 71.3702C182.34 70.6308 182.872 70.0036 183.549 69.5701C184.226 69.1367 185.018 68.917 185.822 68.9398C187.167 68.851 188.502 69.2117 189.62 69.9652C189.62 69.9652 189.62 68.5221 189.62 66.7373V63.4713L189.05 63.2434C187.19 62.5519 185.186 62.3365 183.221 62.6169ZM199.417 62.6169C196.824 63.0434 194.496 64.4545 192.918 66.5559C191.341 68.6573 190.635 71.2867 190.949 73.8957C191.068 75.6555 191.637 77.3553 192.601 78.8325C193.31 79.8607 194.215 80.7387 195.264 81.4165C196.313 82.0942 197.486 82.5582 198.715 82.782C200.522 83.038 202.357 83.038 204.164 82.782C206.029 82.4009 207.747 81.4989 209.12 80.1806C209.702 79.6268 210.195 78.9863 210.582 78.2819C210.582 78.2819 209.196 77.7122 207.563 77.0856L204.563 75.9274L204.126 76.3831C203.683 76.8749 203.1 77.2194 202.455 77.3704C202.002 77.5253 201.522 77.5864 201.044 77.5498C200.567 77.5133 200.101 77.38 199.677 77.1579C199.252 76.9359 198.877 76.6298 198.575 76.2583C198.273 75.8868 198.049 75.4576 197.917 74.9969V74.6172H204.62H211.323V73.0032C211.355 72.2089 211.304 71.4134 211.171 70.6297C210.807 68.6422 209.855 66.8097 208.437 65.3701C207.108 64.0536 205.414 63.1671 203.576 62.8257C202.206 62.5588 200.806 62.4885 199.417 62.6169ZM97.7182 72.7374V82.4592H104.896V62.9586H97.7752L97.7182 72.7374ZM202.284 68.0284C202.757 68.145 203.185 68.3956 203.519 68.75C203.929 69.1074 204.215 69.5863 204.335 70.1171V70.4779H201.164C197.5 70.4779 197.784 70.4778 198.107 69.7183C198.474 68.9711 199.1 68.3832 199.869 68.0651C200.638 67.747 201.497 67.7204 202.284 67.9904V68.0284ZM140.897 68.9968C141.42 69.1542 141.907 69.4151 142.328 69.7641C142.748 70.1131 143.095 70.5431 143.346 71.0285C143.602 71.5187 143.748 72.059 143.774 72.6116C143.799 73.1641 143.704 73.7155 143.494 74.2273C143.284 74.7391 142.965 75.199 142.559 75.5746C142.153 75.9502 141.67 76.2326 141.144 76.4021C140.298 76.6303 139.407 76.6303 138.561 76.4021C137.964 76.2037 137.421 75.8687 136.976 75.4236C136.531 74.9786 136.196 74.4359 135.998 73.8387C135.861 73.3902 135.816 72.9188 135.865 72.4526C135.844 71.9528 135.969 71.4578 136.226 71.0285C136.641 70.1749 137.347 69.4976 138.217 69.1182C139.088 68.7388 140.065 68.6823 140.973 68.9588L140.897 68.9968Z" fill="white"/>
</svg>
