<svg width="36" height="35" viewBox="0 0 36 35" fill="none" xmlns="http://www.w3.org/2000/svg">
<circle cx="17.9907" cy="17.8552" r="17.0503" fill="#043798"/>
<path d="M28.342 17.7904C28.342 19.2558 28.0978 20.6014 27.6093 21.8271C27.1209 23.0529 26.4343 24.1081 25.5495 24.9929C24.6647 25.8776 23.6003 26.5643 22.3561 27.0527C21.1119 27.5412 19.7341 27.7854 18.2226 27.7854H10.5916V7.79548H18.2226C19.7341 7.79548 21.1119 8.04432 22.3561 8.54199C23.6003 9.03045 24.6647 9.71706 25.5495 10.6018C26.4343 11.4774 27.1209 12.528 27.6093 13.7537C28.0978 14.9795 28.342 16.3251 28.342 17.7904ZM24.5403 17.7904C24.5403 16.6937 24.3929 15.7122 24.098 14.8459C23.803 13.9703 23.3837 13.233 22.8399 12.634C22.2962 12.0257 21.6326 11.5603 20.8492 11.2377C20.0751 10.9152 19.1995 10.7539 18.2226 10.7539H14.338V24.827H18.2226C19.1995 24.827 20.0751 24.6657 20.8492 24.3432C21.6326 24.0206 22.2962 23.5598 22.8399 22.9607C23.3837 22.3525 23.803 21.6152 24.098 20.7488C24.3929 19.8733 24.5403 18.8872 24.5403 17.7904Z" fill="white"/>
<g clip-path="url(#clip0_1081_4)">
<path d="M9.77318 27.6864C9.78905 27.5728 9.81814 27.3971 9.84301 27.2513C9.85552 27.1779 9.86706 27.1115 9.87546 27.0635L9.88546 27.0066L9.88552 27.0063C9.8849 27.0007 9.88426 26.9942 9.88362 26.9869C9.88136 26.961 9.87921 26.9247 9.8794 26.8811C9.87976 26.7947 9.88927 26.6758 9.9276 26.5511C9.96609 26.4259 10.0347 26.2914 10.1553 26.1799C10.2723 26.0717 10.4308 25.9919 10.6399 25.9588C10.6446 25.9564 10.6501 25.9537 10.6562 25.9508C10.6815 25.9386 10.7188 25.9219 10.7698 25.9018C10.8717 25.8617 11.0284 25.8082 11.2537 25.7507C11.7043 25.6359 12.4304 25.5054 13.5442 25.4362L13.5566 25.4355L13.5565 25.436L13.5572 25.436L13.5611 25.4361L13.578 25.4362C13.5932 25.4361 13.616 25.4358 13.6449 25.4346C13.7029 25.4322 13.7853 25.4265 13.8816 25.4131C14.0758 25.3862 14.3181 25.3293 14.5294 25.2124C15.006 24.9487 16.3434 24.2945 18.4056 24.1821C19.4444 24.1255 20.5589 24.337 21.4082 24.5599C21.8341 24.6716 22.1957 24.7869 22.451 24.8742C22.5787 24.9179 22.68 24.9547 22.7495 24.9806C22.7842 24.9935 22.8111 25.0038 22.8293 25.0108L22.8502 25.019L22.8556 25.0211L22.8566 25.0215L22.862 25.0235L22.8831 25.0312C22.9015 25.0379 22.9284 25.0475 22.9617 25.059C23.0284 25.0821 23.1205 25.1128 23.2221 25.1432C23.4321 25.2061 23.6597 25.2605 23.7938 25.2575C24.1446 25.2499 24.3548 25.3704 24.4517 25.4828C24.4769 25.512 24.491 25.5462 24.4994 25.5704C24.5086 25.5972 24.5158 25.6265 24.5216 25.6553C24.5333 25.7129 24.542 25.7809 24.5494 25.8467C24.5532 25.881 24.5567 25.9142 24.56 25.9457C24.5705 26.0445 24.5792 26.1272 24.5916 26.1764C24.6069 26.2368 24.6527 26.3382 24.7025 26.4386C24.7226 26.4792 24.742 26.5169 24.7584 26.5488C24.7615 26.5548 24.7645 26.5606 24.7673 26.5661C24.7762 26.5834 24.7842 26.5992 24.7904 26.6117C24.7935 26.6181 24.8043 26.6394 24.8095 26.6584C24.8143 26.676 24.8153 26.6952 24.8155 26.699L24.8155 26.6995C24.816 26.7084 24.8164 26.7191 24.8167 26.7308C24.8172 26.7545 24.8174 26.786 24.8171 26.8228C24.8165 26.8967 24.8139 26.9947 24.8077 27.0995C24.8015 27.2041 24.7918 27.3172 24.7767 27.4209C24.762 27.5218 24.7408 27.6242 24.708 27.7015L24.7078 27.7018C24.702 27.7155 24.6955 27.7299 24.6879 27.745L24.6879 27.7452C24.6229 27.874 24.5277 27.9857 24.4105 28.0714C24.2936 28.1571 24.1578 28.2145 24.0143 28.2394C24.014 28.2394 24.0138 28.2395 24.0135 28.2395L23.6833 28.3003C23.6712 28.3265 23.6554 28.3584 23.6357 28.3945C23.5822 28.4922 23.4983 28.622 23.3763 28.7507C23.1299 29.0105 22.7298 29.2632 22.1259 29.2417C21.5397 29.2208 21.1929 29.0364 20.9917 28.8397C20.8923 28.7426 20.8318 28.6457 20.7958 28.5712C20.7917 28.5628 20.788 28.5547 20.7846 28.5469L13.7466 28.5959C13.7438 28.6016 13.7408 28.6074 13.7377 28.6134C13.7012 28.6825 13.6396 28.7694 13.5371 28.8534C13.3309 29.0225 12.9752 29.1673 12.3666 29.1545C11.7515 29.1416 11.385 28.9503 11.1712 28.7451C11.0655 28.6438 11.0006 28.5422 10.9616 28.4642C10.949 28.4388 10.9391 28.416 10.9315 28.3964L9.94854 27.9888C9.9483 27.9887 9.94806 27.9886 9.94782 27.9885C9.88972 27.9648 9.84051 27.9228 9.80856 27.8682C9.77654 27.8134 9.76395 27.7494 9.77318 27.6864ZM9.77318 27.6864C9.77321 27.6862 9.77324 27.686 9.77327 27.6858L9.91001 27.7061L9.77309 27.687C9.77312 27.6868 9.77315 27.6866 9.77318 27.6864Z" fill="white" stroke="white" stroke-width="0.276486"/>
<path d="M24.4301 26.9354C24.4641 26.8131 24.4845 26.6999 24.3432 26.6198C24.2992 26.5931 24.2675 26.5503 24.2547 26.5006C24.2213 26.3112 24.0711 26.2317 23.9334 26.1397C23.7293 26.0044 23.5267 25.8676 23.3223 25.7329C23.2863 25.7044 23.2444 25.684 23.1997 25.6734C22.7122 25.6184 22.225 25.5821 21.737 25.6796C20.9906 25.8289 20.3141 26.1429 19.6798 26.5516C19.1076 26.9169 18.482 27.1914 17.8253 27.3652C16.5839 27.7029 15.3181 27.807 14.0362 27.7627C13.9561 27.7601 13.8761 27.7624 13.7855 27.7622C13.7942 27.9238 13.8019 28.0741 13.8114 28.261C14.16 28.2463 14.4944 28.2622 14.8185 28.2128C15.6794 28.0805 16.5324 27.8946 17.3966 27.7779C18.2425 27.661 19.1042 27.8024 19.868 28.1834C20.1602 28.3271 20.4398 28.2562 20.7159 28.2888C20.7312 27.9789 20.7258 27.6882 20.7637 27.4034C20.8258 26.928 21.0275 26.5269 21.4856 26.303C21.7313 26.1829 21.9946 26.1689 22.2624 26.1792C22.9825 26.206 23.4733 26.6263 23.5866 27.3364C23.6225 27.5598 23.619 27.789 23.6337 28.016C23.773 28.0352 23.9921 27.9695 24.0113 27.8909C24.0697 27.6462 24.1327 27.4015 24.1693 27.1541C24.2028 26.9289 24.2077 26.9099 24.4301 26.9354Z" fill="url(#paint0_linear_1081_4)"/>
<path d="M14.0894 26.135C13.9693 26.2171 13.9357 26.3244 13.9968 26.4665C14.1454 26.818 14.2878 27.1707 14.4283 27.5265C14.4589 27.6021 14.4938 27.6398 14.5816 27.6357C14.7445 27.628 14.908 27.6341 15.1283 27.6344C15.5092 27.5986 15.9474 27.5691 16.3822 27.5141C17.3394 27.3932 18.2615 27.1533 19.1309 26.7206C19.4229 26.5754 19.5021 26.3335 19.5308 26.0542C19.5495 25.8761 19.5005 25.8445 19.3241 25.8473C17.7884 25.8732 16.2525 25.8981 14.7163 25.9221C14.4837 25.926 14.278 26.0065 14.0894 26.135Z" fill="url(#paint1_linear_1081_4)"/>
<path d="M13.8582 27.6111C14.0043 27.6241 14.1522 27.6167 14.3099 27.617C14.2955 27.5717 14.2833 27.5236 14.2647 27.478C14.1461 27.1861 14.0266 26.8945 13.9062 26.6032C13.7659 26.2664 13.8211 26.101 14.1528 25.9384C14.4079 25.814 14.6677 25.6979 14.9314 25.5927C15.6726 25.298 16.4458 25.1148 17.223 24.9453C17.8249 24.8138 18.431 24.7493 19.0454 24.8115C20.0139 24.9095 20.9503 25.1482 21.8672 25.4651C21.9189 25.4857 21.9736 25.4982 22.0291 25.5021C22.2746 25.5065 22.5234 25.5047 22.7704 25.5051C22.5904 25.4201 22.4043 25.3717 22.2227 25.3106C21.3334 25.012 20.4395 24.7312 19.493 24.6709C18.3962 24.6006 17.3072 24.6389 16.2549 24.9835C15.6793 25.172 15.1253 25.4248 14.5546 25.6285C14.2916 25.7227 14.0197 25.7897 13.743 25.8285C13.3698 25.8802 12.9903 25.8815 12.6156 25.9234C12.0094 25.9944 11.4159 26.1479 10.8515 26.3795C11.0554 26.4774 11.0633 26.5359 10.9023 26.6507C10.7115 26.7868 10.515 26.9147 10.3242 27.0512C10.2824 27.0817 10.2339 27.1278 10.2252 27.1734C10.1865 27.378 10.1561 27.5848 10.134 27.7919C10.1293 27.8366 10.1592 27.9171 10.1921 27.9288C10.442 28.0176 10.6962 28.0933 10.9483 28.173C10.93 27.8905 10.8982 27.6485 10.902 27.408C10.9105 26.8878 11.2103 26.4881 11.6991 26.3077C11.9818 26.2026 12.2755 26.1863 12.5728 26.1938C12.944 26.2018 13.2251 26.3693 13.4311 26.6716C13.6029 26.9249 13.6862 27.2115 13.7501 27.5065C13.7595 27.5469 13.8184 27.6076 13.8582 27.6111Z" fill="url(#paint2_linear_1081_4)"/>
<path d="M22.1305 26.639C21.8418 26.638 21.5646 26.7512 21.3596 26.9538C21.1547 27.1565 21.0387 27.432 21.0373 27.7198C21.0367 27.8637 21.0647 28.0062 21.1197 28.1392C21.1747 28.2723 21.2555 28.3931 21.3576 28.4949C21.4596 28.5966 21.5808 28.6771 21.7142 28.7319C21.8476 28.7867 21.9906 28.8145 22.1349 28.8139C22.2778 28.8136 22.4193 28.785 22.5512 28.7299C22.683 28.6748 22.8026 28.5942 22.9031 28.4928C23.0036 28.3914 23.083 28.2712 23.1367 28.1391C23.1904 28.007 23.2174 27.8656 23.2161 27.723C23.2171 27.5805 23.1897 27.4392 23.1355 27.3073C23.0813 27.1755 23.0014 27.0556 22.9004 26.9548C22.7994 26.8539 22.6794 26.7741 22.5472 26.7199C22.415 26.6657 22.2734 26.6382 22.1305 26.639Z" fill="url(#paint3_linear_1081_4)"/>
<path d="M12.3761 26.6232C12.2317 26.6219 12.0884 26.6491 11.9546 26.7032C11.8207 26.7573 11.6989 26.8372 11.5961 26.9384C11.4934 27.0395 11.4116 27.1599 11.3556 27.2927C11.2996 27.4254 11.2704 27.5679 11.2697 27.7119C11.2729 27.9998 11.3893 28.275 11.594 28.4782C11.7986 28.6814 12.0751 28.7962 12.3639 28.798C12.6527 28.7976 12.9296 28.6837 13.1345 28.4808C13.3395 28.278 13.456 28.0028 13.4586 27.7148C13.4593 27.4272 13.3459 27.1509 13.1431 26.9464C12.9402 26.7419 12.6645 26.6257 12.3761 26.6232Z" fill="url(#paint4_linear_1081_4)"/>
<path d="M16.0969 25.7809C17.061 25.7639 18.0252 25.7443 18.9894 25.722C19.0358 25.7221 19.1091 25.7097 19.1233 25.6806C19.228 25.4635 19.321 25.2409 19.4257 25.0018C17.8144 24.7498 16.3647 25.2722 14.9049 25.7349L14.9086 25.7769C14.9475 25.7803 14.9865 25.7874 15.0254 25.7871C15.3826 25.7862 15.7397 25.7874 16.0969 25.7809Z" fill="url(#paint5_linear_1081_4)"/>
<path d="M17.7204 27.8882C17.3343 27.9127 16.9492 27.961 16.5662 28.017C16.201 28.0705 15.8394 28.1483 15.476 28.2153L15.4842 28.2609L19.7212 28.2678C19.6678 28.2396 19.651 28.2285 19.6326 28.2215C19.0169 27.9858 18.382 27.8461 17.7204 27.8882Z" fill="url(#paint6_linear_1081_4)"/>
<path d="M20.6457 25.2555C20.4289 25.1921 20.2075 25.1431 19.9762 25.0852C19.9302 25.2962 19.8906 25.4779 19.8467 25.6786C20.1639 25.6791 20.4396 25.6339 20.6682 25.4351C20.7496 25.363 20.762 25.2896 20.6457 25.2555Z" fill="url(#paint7_linear_1081_4)"/>
<path d="M19.7217 25.6179C19.7652 25.4423 19.8011 25.2646 19.8487 25.0456C19.734 25.054 19.5861 25.0284 19.5609 25.0727C19.4492 25.268 19.3731 25.4833 19.2723 25.7187C19.4181 25.7095 19.5335 25.7069 19.647 25.6918C19.6644 25.6862 19.6803 25.6766 19.6932 25.6638C19.7062 25.6509 19.716 25.6352 19.7217 25.6179Z" fill="url(#paint8_linear_1081_4)"/>
<path d="M21.6339 25.5287L20.9323 25.321L20.6694 25.6434C20.9773 25.7253 21.3849 25.6806 21.6339 25.5287Z" fill="url(#paint9_linear_1081_4)"/>
<path d="M20.0797 26.1492L20.735 25.8324L20.725 25.7791L19.6464 25.8284L19.6769 25.9668C20.0292 25.9068 20.0445 25.9123 20.0797 26.1492Z" fill="url(#paint10_linear_1081_4)"/>
<path d="M23.964 25.6779C23.7901 25.6433 23.6128 25.6265 23.437 25.6021L23.4287 25.6385L24.1538 26.1206C24.1684 25.8447 24.1112 25.7072 23.964 25.6779Z" fill="url(#paint11_linear_1081_4)"/>
<path d="M24.3513 27.1026C24.2855 27.3626 24.2212 27.6161 24.1579 27.8672C24.2723 27.909 24.3175 27.877 24.344 27.7819C24.3728 27.6847 24.4112 27.5907 24.4586 27.5012C24.563 27.2979 24.5437 27.2229 24.3513 27.1026Z" fill="url(#paint12_linear_1081_4)"/>
<path d="M10.8055 26.5505C10.3455 26.458 10.1919 26.5755 10.2434 26.9379L10.8055 26.5505Z" fill="url(#paint13_linear_1081_4)"/>
<path d="M19.9052 26.0718C19.6698 26.1038 19.6642 26.1105 19.6088 26.4268C19.7663 26.3426 19.9079 26.2694 19.9052 26.0718Z" fill="url(#paint14_linear_1081_4)"/>
</g>
<defs>
<linearGradient id="paint0_linear_1081_4" x1="19.1187" y1="28.2862" x2="19.1261" y2="23.7349" gradientUnits="userSpaceOnUse">
<stop stop-color="#030404"/>
<stop offset="0.45" stop-color="#043798"/>
</linearGradient>
<linearGradient id="paint1_linear_1081_4" x1="16.7484" y1="27.6395" x2="16.7534" y2="24.5802" gradientUnits="userSpaceOnUse">
<stop stop-color="#030404"/>
<stop offset="0.45" stop-color="#043798"/>
</linearGradient>
<linearGradient id="paint2_linear_1081_4" x1="16.4496" y1="28.182" x2="16.4594" y2="22.1471" gradientUnits="userSpaceOnUse">
<stop stop-color="#030404"/>
<stop offset="0.45" stop-color="#043798"/>
</linearGradient>
<linearGradient id="paint3_linear_1081_4" x1="22.125" y1="28.8139" x2="22.131" y2="25.1103" gradientUnits="userSpaceOnUse">
<stop stop-color="#030404"/>
<stop offset="0.45" stop-color="#043798"/>
</linearGradient>
<linearGradient id="paint4_linear_1081_4" x1="12.3624" y1="28.798" x2="12.3684" y2="25.0945" gradientUnits="userSpaceOnUse">
<stop stop-color="#030404"/>
<stop offset="0.45" stop-color="#043798"/>
</linearGradient>
<linearGradient id="paint5_linear_1081_4" x1="17.1647" y1="25.7906" x2="17.167" y2="24.3317" gradientUnits="userSpaceOnUse">
<stop stop-color="#030404"/>
<stop offset="0.45" stop-color="#043798"/>
</linearGradient>
<linearGradient id="paint6_linear_1081_4" x1="17.5986" y1="28.2644" x2="17.5997" y2="27.6101" gradientUnits="userSpaceOnUse">
<stop stop-color="#030404"/>
<stop offset="0.45" stop-color="#043798"/>
</linearGradient>
<linearGradient id="paint7_linear_1081_4" x1="20.2886" y1="25.6793" x2="20.2903" y2="24.6685" gradientUnits="userSpaceOnUse">
<stop stop-color="#030404"/>
<stop offset="0.45" stop-color="#043798"/>
</linearGradient>
<linearGradient id="paint8_linear_1081_4" x1="19.56" y1="25.7192" x2="19.5619" y2="24.5714" gradientUnits="userSpaceOnUse">
<stop stop-color="#030404"/>
<stop offset="0.45" stop-color="#043798"/>
</linearGradient>
<linearGradient id="paint9_linear_1081_4" x1="21.1515" y1="25.684" x2="21.1525" y2="25.0664" gradientUnits="userSpaceOnUse">
<stop stop-color="#030404"/>
<stop offset="0.45" stop-color="#043798"/>
</linearGradient>
<linearGradient id="paint10_linear_1081_4" x1="20.1902" y1="26.1494" x2="20.1912" y2="25.5174" gradientUnits="userSpaceOnUse">
<stop stop-color="#030404"/>
<stop offset="0.45" stop-color="#043798"/>
</linearGradient>
<linearGradient id="paint11_linear_1081_4" x1="23.7919" y1="26.1201" x2="23.7933" y2="25.239" gradientUnits="userSpaceOnUse">
<stop stop-color="#030404"/>
<stop offset="0.45" stop-color="#043798"/>
</linearGradient>
<linearGradient id="paint12_linear_1081_4" x1="24.3392" y1="27.8854" x2="24.3413" y2="26.5524" gradientUnits="userSpaceOnUse">
<stop stop-color="#030404"/>
<stop offset="0.45" stop-color="#043798"/>
</linearGradient>
<linearGradient id="paint13_linear_1081_4" x1="10.5193" y1="26.9383" x2="10.5205" y2="26.2264" gradientUnits="userSpaceOnUse">
<stop stop-color="#030404"/>
<stop offset="0.45" stop-color="#043798"/>
</linearGradient>
<linearGradient id="paint14_linear_1081_4" x1="19.7567" y1="26.4271" x2="19.7577" y2="25.8216" gradientUnits="userSpaceOnUse">
<stop stop-color="#030404"/>
<stop offset="0.45" stop-color="#043798"/>
</linearGradient>
<clipPath id="clip0_1081_4">
<rect width="16.5891" height="5.89924" fill="white" transform="translate(9.31641 23.6326) rotate(0.0933951)"/>
</clipPath>
</defs>
</svg>
