<svg width="31" height="32" viewBox="0 0 31 32" fill="none" xmlns="http://www.w3.org/2000/svg">
<circle cx="15.4639" cy="16.2605" r="15.3252" fill="#2D2D2D"/>
<g clip-path="url(#clip0_1020_199)">
<path d="M21.8456 19.9008L17.9017 16.2603L21.8456 12.6198C21.9211 12.5492 21.9635 12.4539 21.9635 12.3547C21.9635 12.2554 21.9211 12.1602 21.8456 12.0896L19.9825 10.3698C19.9063 10.2995 19.803 10.26 19.6953 10.26C19.5876 10.26 19.4842 10.2995 19.4081 10.3698L15.4642 14.0103L11.5203 10.3698C11.4441 10.2995 11.3408 10.26 11.2331 10.26C11.1254 10.26 11.0221 10.2995 10.9459 10.3698L9.08281 12.0896C9.00665 12.1599 8.96387 12.2552 8.96387 12.3547C8.96387 12.4541 9.00665 12.5495 9.08281 12.6198L13.0267 16.2603L9.08281 19.9008C9.00665 19.9711 8.96387 20.0665 8.96387 20.1659C8.96387 20.2654 9.00665 20.3607 9.08281 20.4311L10.9459 22.1508C11.0221 22.2211 11.1254 22.2606 11.2331 22.2606C11.3408 22.2606 11.4441 22.2211 11.5203 22.1508L15.4642 18.5103L19.4081 22.1508C19.4842 22.2211 19.5876 22.2606 19.6953 22.2606C19.803 22.2606 19.9063 22.2211 19.9825 22.1508L21.8456 20.4311C21.9217 20.3607 21.9645 20.2654 21.9645 20.1659C21.9645 20.0665 21.9217 19.9711 21.8456 19.9008Z" fill="white"/>
</g>
<defs>
<clipPath id="clip0_1020_199">
<rect width="13" height="12" fill="white" transform="translate(8.96387 10.2605)"/>
</clipPath>
</defs>
</svg>
