<svg width="144" height="28" viewBox="0 0 144 28" fill="none" xmlns="http://www.w3.org/2000/svg">
<g id="Group" opacity="0.5">
<g id="Group_2">
<path id="Vector" d="M25.8757 14.205C25.8757 18.4338 25.8757 22.6341 25.8757 26.8629C25.8757 27.2602 25.7362 27.3737 25.3733 27.3737C19.9303 27.3737 14.4873 27.3737 9.04435 27.3737C8.73731 27.3737 8.514 27.2886 8.2907 27.0615C5.61108 24.337 2.98728 21.6124 0.307654 18.8879C0.140177 18.7176 0.0285263 18.5189 0.0285263 18.2635C0.0285263 12.6441 0.0285263 7.02468 0.0285263 1.3769C0.0285263 1.00795 0.16809 0.922813 0.47513 0.922813C8.76522 0.922813 17.0832 0.922813 25.4291 0.922813C25.8199 0.922813 25.8757 1.06472 25.8757 1.43367C25.8757 5.60565 25.8757 9.91953 25.8757 14.205Z" fill="white"/>
<path id="Vector_2" d="M105.555 16.2031C105.555 11.3487 105.555 6.63442 105.555 1.87344C105.555 1.36 105.647 1.12662 106.198 1.21997C107.024 1.31332 107.759 1.31332 108.539 1.21997C109.044 1.21997 109.136 1.36 109.136 1.82676C109.136 3.9272 109.136 6.02763 109.136 8.08138C109.136 14.1026 109.136 20.1705 109.136 26.2851C109.136 26.8919 108.998 27.032 108.402 27.032C107.529 26.9386 106.565 27.032 105.601 27.032C105.142 27.032 104.959 26.9386 104.867 26.4252C103.398 20.7773 101.837 15.0828 100.368 9.48167C100.276 9.24829 100.276 9.01491 100.093 8.82821C100.093 14.6627 100.093 20.4506 100.093 26.2851C100.093 26.8919 99.9549 27.1253 99.3581 27.032C98.6236 26.9386 97.8891 26.9386 97.1546 27.032C96.5578 27.1253 96.5119 26.8919 96.5119 26.3785C96.5119 21.9909 96.5119 17.5567 96.5119 13.2625C96.5119 9.52835 96.5119 5.74757 96.5119 2.01347C96.5119 1.50003 96.6037 1.36 97.1546 1.36C98.394 1.45335 99.6335 1.45335 100.919 1.36C101.378 1.36 101.562 1.50003 101.653 1.96679C102.847 6.58775 104.086 11.162 105.234 15.783C105.372 15.8296 105.372 16.063 105.555 16.2031Z" fill="white"/>
<path id="Vector_3" d="M37.613 13.3098C39.8166 14.29 40.4133 16.157 40.4593 18.2574C40.5511 19.7511 40.597 21.3381 40.3215 22.7384C39.8166 25.2589 38.118 26.8459 35.5473 26.9392C33.2519 27.0326 31.0025 26.9392 28.7072 27.0326C28.2022 27.0326 28.2481 26.7525 28.2481 26.4258C28.2481 23.7186 28.2481 21.1047 28.2481 18.4442C28.2481 12.9364 28.2481 7.38188 28.2481 1.87408C28.2481 1.36064 28.3399 1.2206 28.8908 1.2206C31.0025 1.31396 33.1601 1.08057 35.2718 1.31396C38.4394 1.68737 39.6788 2.94763 40.0461 6.16829C40.1838 7.42855 40.1838 8.64214 39.9543 9.90239C39.6788 11.3494 38.9902 12.5629 37.613 13.3098Z" fill="white"/>
<path id="Vector_4" d="M87.6056 14.1961C87.6056 16.5299 87.6056 18.9104 87.6056 21.1976C87.6056 22.2245 87.3761 23.298 86.9629 24.2782C86.3661 25.5385 85.4939 26.4253 84.1626 26.8921C82.4641 27.4989 80.7196 27.5455 78.9293 26.8921C76.588 26.0052 75.624 23.9981 75.5322 21.6643C75.4404 16.67 75.3945 11.6756 75.5322 6.68125C75.6699 2.10697 78.8375 0.706685 82.3723 1.08009C85.5857 1.45351 87.3761 3.55394 87.422 7.05466C87.6515 9.43515 87.6056 11.8156 87.6056 14.1961Z" fill="white"/>
<path id="Vector_5" d="M61.9902 13.1695C62.082 11.5825 61.8524 8.96863 62.082 6.44811C62.4492 2.10722 65.3872 0.706929 68.7384 1.08034C71.906 1.45375 73.5127 3.3208 73.7422 6.82152C73.834 7.70837 73.7422 8.59522 73.7422 9.57543C73.7422 9.94884 73.6045 10.0422 73.2832 10.0422C72.3191 10.0422 71.3551 10.0422 70.4369 10.0422C70.0697 10.0422 69.9779 9.90216 69.9779 9.57543C69.9779 8.59522 69.9779 7.70837 69.9779 6.72817C69.8861 5.23453 68.9679 4.39436 67.4071 4.72109C66.6726 4.86112 66.1676 5.37456 66.0299 6.21473C65.9381 6.58814 65.9381 7.05491 65.9381 7.42832C65.9381 11.9092 65.9381 16.3902 65.9381 20.8711C65.9381 21.1511 65.9381 21.4779 66.0299 21.7579C66.1676 23.0182 66.9021 23.625 68.1416 23.5316C69.3352 23.4383 69.9779 22.7848 70.0697 21.5712C70.1615 20.3576 70.1615 19.1907 70.0697 17.9772C70.0697 17.5104 70.1615 17.3237 70.6665 17.3704C71.5387 17.4637 72.5027 17.3704 73.4668 17.3704C73.6963 17.3704 73.9258 17.3704 73.9258 17.7438C73.834 19.5175 74.0636 21.3378 73.6963 23.0649C73.0995 25.5854 71.401 27.079 68.8302 27.3124C68.0957 27.4058 67.2694 27.4058 66.5349 27.2191C63.9641 26.7056 62.4033 24.8852 62.2197 22.2714C62.2197 21.898 62.1279 21.5246 62.1279 21.2445C61.8983 18.8173 61.9902 16.5302 61.9902 13.1695Z" fill="white"/>
<path id="Vector_6" d="M127.591 8.22141C126.994 8.22141 126.259 8.45479 125.846 8.12806C125.387 7.848 125.708 7.00783 125.617 6.40103C125.479 5.18745 124.79 4.53398 123.689 4.53398C122.495 4.53398 121.944 5.14078 121.76 6.30768C121.531 7.80132 121.99 9.15493 122.954 10.3218C123.597 11.162 124.423 11.9088 125.158 12.6557C126.168 13.6359 127.132 14.5227 127.958 15.7363C129.565 18.1168 129.886 20.824 129.06 23.5779C128.463 25.5383 127.223 26.6585 125.295 27.0319C124.056 27.312 122.862 27.2653 121.623 26.9386C119.419 26.4252 118.042 24.6048 117.721 21.9442C117.629 21.1041 117.721 20.3106 117.629 19.4704C117.629 19.097 117.767 19.0036 118.088 19.0036C119.052 19.0036 120.016 19.0036 120.934 19.0036C121.301 19.0036 121.393 19.1437 121.393 19.5171C121.393 20.3572 121.301 21.1041 121.531 21.8976C121.76 22.8778 122.357 23.3912 123.459 23.3912C124.469 23.3912 125.158 22.9244 125.433 21.9909C125.8 20.6373 125.525 19.2837 124.79 18.1168C124.148 17.0899 123.23 16.1564 122.311 15.3629C121.347 14.476 120.475 13.6359 119.649 12.609C117.813 10.2285 117.353 7.52126 118.088 4.72069C118.593 2.48022 120.062 1.21996 122.357 0.846553C123.367 0.706525 124.331 0.70653 125.295 0.939912C127.499 1.45335 128.968 3.08701 129.243 5.51418C129.335 6.16765 129.381 6.86779 129.381 7.61461C129.381 7.98802 129.289 8.12806 128.922 8.12806C128.555 8.22141 128.096 8.31476 127.591 8.22141C127.591 8.31476 127.591 8.31476 127.591 8.22141Z" fill="white"/>
<path id="Vector_7" d="M134.982 16.0624C134.982 12.7018 134.982 9.34107 134.982 5.9337C134.982 4.9535 134.982 4.95349 134.109 4.95349C133.237 4.95349 132.365 4.95349 131.401 4.95349C130.942 4.95349 130.804 4.86014 130.804 4.44006C130.804 3.55321 130.804 2.66636 130.804 1.68615C130.804 1.31274 130.896 1.21939 131.263 1.21939C135.073 1.21939 138.838 1.21939 142.648 1.21939C143.015 1.21939 143.107 1.31274 143.107 1.68615C143.107 2.66636 143.107 3.55321 143.107 4.53341C143.107 4.90682 143.015 5.04684 142.648 5.04684C141.638 5.04684 140.582 5.04684 139.618 5.04684C139.021 5.04684 138.975 5.18688 138.975 5.70032C138.975 12.5617 138.975 19.4231 138.975 26.2845C138.975 26.8913 138.838 27.1247 138.241 27.1247C137.369 27.0314 136.496 27.0314 135.578 27.1247C135.073 27.1247 134.982 26.9847 134.982 26.4713C134.982 22.9239 134.982 19.5165 134.982 16.0624Z" fill="white"/>
<path id="Vector_8" d="M52.6715 16.0158C52.6715 12.515 52.6715 9.06101 52.6715 5.56029C52.6715 5.04685 52.5338 4.90682 52.0747 4.95349C51.1106 5.04685 50.1007 4.95349 49.1367 4.95349C48.6317 4.95349 48.5399 4.81346 48.5399 4.3467C48.5399 3.45985 48.5399 2.61968 48.5399 1.73283C48.5399 1.35942 48.6317 1.21939 49.0449 1.21939C52.8092 1.21939 56.6194 1.21939 60.3379 1.21939C60.6133 1.21939 60.7969 1.31274 60.7969 1.68615C60.7969 2.66636 60.7969 3.64656 60.7969 4.53341C60.7969 4.90682 60.6592 5.00017 60.3379 5.00017C59.3279 5.00017 58.2721 5.00017 57.308 5.00017C56.8031 5.00017 56.6653 5.1402 56.6653 5.65364C56.6653 12.5151 56.6653 19.3765 56.6653 26.2379C56.6653 26.8913 56.4358 27.0781 55.839 27.0781C55.0127 26.9847 54.2323 26.9847 53.3601 27.0781C52.8551 27.0781 52.6256 26.938 52.6256 26.4246C52.7174 22.9239 52.6715 19.4231 52.6715 16.0158Z" fill="white"/>
<path id="Vector_9" d="M115.609 14.1961C115.609 18.2103 115.609 22.2711 115.609 26.2853C115.609 26.8921 115.517 27.1255 114.874 27.0321C114.002 26.9388 113.038 27.0321 112.074 27.0321C111.707 27.0321 111.569 26.8921 111.569 26.5187C111.569 24.7916 111.569 23.018 111.569 21.2909C111.569 14.8963 111.569 8.45495 111.569 2.0603C111.569 1.45351 111.707 1.22013 112.304 1.31348C113.176 1.40683 114.048 1.40683 115.012 1.31348C115.471 1.31348 115.609 1.45351 115.609 1.92027C115.609 5.98111 115.609 10.0886 115.609 14.1961Z" fill="white"/>
<path id="Vector_10" d="M93.8951 14.1961C93.8951 18.2103 93.8951 22.3178 93.8951 26.3786C93.8951 26.9854 93.7574 27.1255 93.1606 27.0321C92.3343 26.9388 91.5539 26.9388 90.7276 27.0321C90.0849 27.1255 89.8553 26.8921 89.8553 26.1453C89.8553 19.6573 89.8553 13.2159 89.8553 6.72792C89.8553 5.09425 89.8553 3.50726 89.8553 1.87359C89.8553 1.2668 89.9931 1.12677 90.5898 1.22012C91.4621 1.31347 92.2884 1.31347 93.1606 1.22012C93.7574 1.22012 93.8951 1.36015 93.8951 1.96694C93.8951 6.07446 93.8951 10.0886 93.8951 14.1961Z" fill="white"/>
<path id="Vector_11" d="M46.6567 14.15C46.6567 18.2575 46.6567 22.365 46.6567 26.4725C46.6567 26.986 46.5649 27.126 46.0599 27.126C45.1877 27.0326 44.3155 27.0326 43.3514 27.126C42.8465 27.126 42.6169 26.986 42.7087 26.4725C42.7087 20.638 42.7087 14.8501 42.7087 9.01559C42.7087 6.68178 42.7087 4.30129 42.7087 2.01415C42.7087 1.54739 42.8006 1.40736 43.3055 1.40736C44.1777 1.50072 45.05 1.50072 46.014 1.40736C46.6108 1.40736 46.7485 1.54739 46.7485 2.15418C46.5649 5.98163 46.6567 10.0891 46.6567 14.15Z" fill="white"/>
<path id="Vector_12" d="M17.6414 14.659C19.1208 15.5105 19.4278 16.6457 19.037 18.0647C18.5904 19.7108 17.5297 20.5623 15.9108 20.6474C15.2967 20.7042 14.7105 20.6474 14.1244 20.5055C13.7615 20.4203 13.594 20.4487 13.5382 20.8744C13.4545 21.4704 13.2591 22.0097 13.1474 22.6057C13.0916 22.8895 13.0079 22.9746 12.7008 22.8895C12.338 22.7476 11.8076 22.8327 11.6401 22.5205C11.4727 22.2367 11.7797 21.7826 11.8076 21.3853C11.8914 21.0163 11.9751 20.6474 12.0867 20.3352C12.1426 20.1082 12.0867 20.023 11.8634 19.9663C10.9702 19.6824 10.9702 19.6824 10.7469 20.5906C10.6074 21.0447 10.5236 21.4988 10.4399 22.0097C10.3841 22.2367 10.3003 22.2935 10.1329 22.18H10.077C9.68625 22.0948 9.128 22.0948 8.96052 21.811C8.73722 21.584 9.04426 21.0731 9.12799 20.6758C9.21173 20.3068 9.26756 19.9946 9.40712 19.6824C9.49086 19.3986 9.40712 19.3135 9.18382 19.2851C8.37435 19.1148 7.56488 18.8878 6.78332 18.6891C6.56002 18.6324 6.5042 18.5472 6.61585 18.3202C6.78332 17.9228 6.97871 17.4971 7.14619 17.0998C7.22993 16.8727 7.36949 16.8727 7.53697 16.9295C7.8161 17.0147 8.06731 17.0714 8.37435 17.0998C8.73722 17.1849 8.96052 17.0147 9.04426 16.6457C9.5746 14.432 10.1608 12.1899 10.6911 9.97621C10.7748 9.52212 10.6074 9.15317 10.1608 9.01127C9.85373 8.92612 9.54669 8.84098 9.26756 8.78422C8.98843 8.72746 8.96052 8.61393 9.04426 8.38689C9.18382 7.98956 9.12799 7.39356 9.40712 7.16651C9.68625 6.93947 10.2166 7.30842 10.6074 7.39356C11.1098 7.4787 11.5564 7.6206 12.0309 7.76251C12.31 7.81927 12.3938 7.81927 12.4775 7.4787C12.6171 6.85432 12.7846 6.20156 12.9241 5.57719C12.98 5.35014 13.0637 5.29338 13.287 5.35014C13.6778 5.49204 14.236 5.43528 14.4593 5.71909C14.6268 6.0029 14.3198 6.48537 14.236 6.85432C14.1523 7.16651 14.0965 7.53546 13.9569 7.84765C13.9011 8.01794 13.9569 8.0747 14.1244 8.15984C15.0734 8.47203 15.0734 8.47203 15.2967 7.53546C15.3805 7.08137 15.52 6.68404 15.6038 6.22995C15.6596 6.0029 15.7433 5.94614 15.9108 6.05966C16.3016 6.20156 16.8598 6.1448 17.0831 6.42861C17.3064 6.71242 16.9436 7.19489 16.9157 7.56384C16.8319 7.96117 16.5528 8.47203 16.6365 8.84098C16.7203 9.15317 17.3623 9.20993 17.6972 9.38022C17.9205 9.52212 18.1438 9.60726 18.3113 9.74916C19.2603 10.3735 19.7069 11.2533 19.5674 12.3886C19.4278 13.467 18.8975 14.2901 17.8368 14.659C17.6972 14.6023 17.6414 14.659 17.6414 14.659Z" fill="#1F3C71"/>
<path id="Vector_13" d="M36.6038 19.6574C36.6038 20.3109 36.6038 21.011 36.512 21.6645C36.3743 22.7847 35.8693 23.2982 34.7675 23.3915C34.1248 23.4849 33.3903 23.3915 32.7017 23.3915C32.4263 23.3915 32.2427 23.2981 32.2427 23.0181C32.2427 20.6376 32.2427 18.3038 32.2427 15.9233C32.2427 15.6432 32.3345 15.4565 32.6099 15.5499C33.2067 15.5499 33.8035 15.5499 34.3544 15.5499C35.5938 15.6432 36.2824 16.2034 36.4202 17.5103C36.512 18.1638 36.512 18.9106 36.6038 19.6574Z" fill="#1F3C71"/>
<path id="Vector_14" d="M32.1973 8.31495C32.1973 7.33474 32.1973 6.4479 32.1973 5.4677C32.1973 5.09429 32.2892 4.8609 32.7023 4.95425C33.2073 5.04761 33.7123 4.95425 34.2631 4.95425C35.2731 4.95425 35.8699 5.46769 36.0076 6.44789C36.2371 7.66148 36.2371 8.82839 36.0076 10.042C35.7781 11.0689 35.1813 11.6756 34.0795 11.769C32.1514 11.909 32.1514 11.909 32.1514 9.99529C32.1973 9.43518 32.1973 8.82838 32.1973 8.31495Z" fill="#1F3C71"/>
<path id="Vector_15" d="M83.6117 14.1966C83.6117 16.4371 83.6117 18.6775 83.6117 20.918C83.6117 21.2914 83.6117 21.6648 83.5198 22.0382C83.2903 23.0651 82.6476 23.6252 81.5918 23.6252C80.49 23.6252 79.8932 23.1118 79.6178 22.0382C79.526 21.6648 79.526 21.3848 79.526 21.0114C79.526 16.3904 79.526 11.8161 79.526 7.19517C79.526 6.82176 79.526 6.44836 79.6637 6.07495C79.9391 5.04807 80.5359 4.5813 81.6377 4.5813C82.6476 4.5813 83.2444 5.09474 83.5658 6.07495C83.6576 6.44836 83.7035 6.91511 83.7035 7.28852C83.6117 9.66901 83.6117 11.9095 83.6117 14.1966Z" fill="#1F3C71"/>
<path id="Vector_16" d="M68.0241 21.7822C68.0241 21.5552 68.0799 21.3281 68.0241 21.1011C67.9682 20.7321 68.1636 20.647 68.4707 20.7037C68.8335 20.7605 69.2243 20.647 69.3639 21.1011C69.5313 21.6119 69.5872 22.1512 69.3081 22.6336C69.1685 22.8607 68.2753 23.031 68.1078 22.9175C68.0241 22.8607 68.0241 22.7755 68.0241 22.6904C68.0241 22.3498 68.0241 22.0944 68.0241 21.7822Z" fill="#203B70"/>
<path id="Vector_17" d="M14.0408 18.4047C13.2313 18.3479 12.4776 18.1776 11.6682 17.9506C11.5007 17.8938 11.389 17.8087 11.5007 17.6384C11.724 16.6734 11.9473 15.7369 12.2264 14.8287C12.2822 14.6868 12.2822 14.5449 12.5056 14.6016C13.4546 14.8287 14.4315 15.0557 15.2689 15.595C15.7713 15.9072 16.1621 16.3612 16.1063 17.014C16.0505 17.7803 15.576 18.2911 14.8223 18.433C14.5432 18.4047 14.3199 18.4047 14.0408 18.4047Z" fill="white"/>
<path id="Vector_18" d="M14.8785 13.3816C14.1249 13.3816 13.4829 13.2113 12.8688 13.0126C12.6455 12.9558 12.6455 12.8707 12.7013 12.6437C12.9247 11.7922 13.0921 10.9692 13.3154 10.0894C13.3713 9.94748 13.3992 9.86234 13.5946 9.9191C14.4319 10.1461 15.3251 10.288 16.0509 10.884C16.4417 11.1962 16.637 11.6503 16.5533 12.1612C16.4696 12.672 16.1904 13.0126 15.7159 13.2113C15.381 13.3816 15.1018 13.4099 14.8785 13.3816Z" fill="white"/>
</g>
</g>
</svg>
