<svg width="164" height="40" viewBox="0 0 164 40" fill="none" xmlns="http://www.w3.org/2000/svg">
<g id="New" opacity="0.5">
<g id="press">
<g id="logo-_x28_6_x29_">
<path id="Path" d="M28.765 19.6874L19.1766 29.5316H38.3534L28.765 19.6874Z" fill="#B9B9B9"/>
<path id="Path_1_" d="M9.58836 19.6887L0 9.84453V29.533L9.58836 19.6887Z" fill="#E7E7E7"/>
<path id="Path_2_" d="M28.765 19.6887L38.3534 9.84453H19.1766L28.765 19.6887Z" fill="#B9B9B9"/>
<path id="Path_3_" d="M19.1761 9.84426L28.7645 4.57764e-05H9.58777L19.1761 9.84426Z" fill="#CCCCCC"/>
<path id="Path_4_" d="M28.765 39.3767L38.3534 29.5324H19.1766L28.765 39.3767Z" fill="#C3C3C3"/>
<path id="Path_5_" d="M9.58836 39.3767L19.1767 29.5324H0L9.58836 39.3767Z" fill="#D3D3D3"/>
<path id="Path_6_" d="M28.765 4.57764e-05L19.1766 9.84426H38.3534L28.765 4.57764e-05Z" fill="#C3C3C3"/>
<path id="Path_7_" d="M0 9.84422H19.1767L9.58836 0L0 9.84422Z" fill="#D3D3D3"/>
<path id="Path_8_" d="M19.1761 29.5324L9.58777 39.3767H28.7645L19.1761 29.5324Z" fill="#CCCCCC"/>
<path id="Path_9_" d="M9.58836 19.6874L0 29.5316H19.1767L9.58836 19.6874Z" fill="#DDDDDD"/>
<path id="Path_10_" d="M19.1767 9.84453H0L9.58836 19.6887L19.1767 9.84453Z" fill="#DDDDDD"/>
<path id="Shape" fill-rule="evenodd" clip-rule="evenodd" d="M49.4888 23.308C49.9961 23.308 50.3766 23.1518 50.6302 22.8653C50.8839 22.5788 51.0107 22.1622 51.0107 21.5892H54.5112L54.5366 21.6673C54.6127 22.9434 54.08 24.1935 53.1415 25.0269C52.1268 25.9123 50.8332 26.3811 49.4888 26.329C47.6117 26.329 46.1912 25.73 45.1765 24.5581C44.1365 23.256 43.5785 21.6153 43.6546 19.9485V19.6881C43.6546 17.813 44.1619 16.2765 45.1765 15.0785C46.1658 13.8805 47.6117 13.3076 49.4634 13.3076C51.0107 13.3076 52.2537 13.7503 53.1922 14.6358C54.1561 15.5733 54.6381 16.9275 54.562 18.2818L54.5366 18.3599H51.0361C51.0615 17.839 50.9093 17.3182 50.6556 16.9015C50.402 16.5369 50.0215 16.3546 49.4888 16.3546C48.7532 16.3546 48.2458 16.6671 47.9668 17.2661C47.6371 18.0474 47.4849 18.8808 47.5356 19.7141V19.9746C47.5356 21.0163 47.6878 21.8496 47.9668 22.4486C48.2205 22.9955 48.7532 23.308 49.4888 23.308ZM63.0596 16.9796H61.6645C61.2332 16.9796 60.8781 17.0577 60.5991 17.188C60.3201 17.3442 60.1171 17.5526 59.9903 17.839V26.0946H56.16V13.5159H59.762L59.8888 15.365C60.0918 14.766 60.4469 14.2451 60.9289 13.8284C61.3347 13.4638 61.8674 13.2815 62.4001 13.2815C62.7552 13.2815 63.1103 13.3336 63.4655 13.4117L63.0596 16.9796ZM70.3396 20.5475V20.6517H70.4157L72.445 13.5159H76.529L71.6333 27.9437C71.2528 28.8812 70.7709 29.6365 70.1621 30.2355C69.5533 30.8344 68.6148 31.147 67.2957 31.147C66.966 31.147 66.6869 31.1209 66.484 31.0688C66.2811 31.0428 65.9513 30.9647 65.4947 30.8344L65.9513 28.0479L66.1796 28.0999L66.3825 28.126C66.9913 28.126 67.4226 28.0218 67.7016 27.8395C67.9806 27.6572 68.1835 27.3707 68.3357 27.0061L68.6401 26.1988L64.3786 13.4899H68.4626L70.3396 20.5475ZM85.0773 19.8183C85.0773 18.7766 84.9251 17.8911 84.6207 17.2661C84.3163 16.615 83.8344 16.3025 83.1749 16.3025C82.7436 16.3025 82.3631 16.3806 82.0841 16.5369C81.7797 16.6931 81.5514 16.9275 81.3739 17.24V22.5007C81.5514 22.7611 81.8051 22.9695 82.0841 23.0997C82.4392 23.2299 82.8197 23.308 83.2002 23.282C83.8851 23.282 84.3417 22.9955 84.6461 22.4226C84.9758 21.6673 85.128 20.86 85.0773 20.0266V19.8183ZM88.9076 20.0527C88.9076 21.9538 88.4764 23.4643 87.6646 24.6102C86.8529 25.7561 85.5339 26.3811 84.1641 26.329C83.0734 26.3551 82.0587 25.8602 81.3992 24.9748V30.9126H77.569V13.5159H81.1456L81.2978 14.8962C81.9066 13.8805 82.9973 13.2555 84.1641 13.2815C85.6861 13.2815 86.8529 13.8805 87.69 15.0785C88.5778 16.4848 89.009 18.1515 88.9329 19.8183V20.0527H88.9076ZM95.1223 10.3908V13.5159H97.2023V16.2244H95.1223V22.0059C95.1223 22.4486 95.2237 22.7611 95.3759 22.9695C95.5535 23.1778 95.8325 23.282 96.0862 23.282C96.4667 23.282 96.8471 23.256 97.2023 23.1778L97.4559 26.0946C96.695 26.2769 95.9086 26.3811 95.0969 26.3811C93.8286 26.3811 92.89 26.0165 92.2305 25.3394C91.571 24.6623 91.2413 23.5685 91.2413 22.084V16.2765H89.5164V13.568H91.2413V10.4429H95.1223V10.3908ZM101.996 19.9225C101.996 20.9642 102.149 21.7976 102.478 22.3965C102.808 22.9955 103.341 23.282 104.127 23.282C104.888 23.282 105.421 22.9955 105.725 22.3705C106.055 21.7715 106.207 20.9381 106.207 19.8964V19.636C106.233 18.7766 106.08 17.9432 105.725 17.188C105.395 16.5629 104.863 16.2765 104.076 16.2765C103.315 16.2765 102.783 16.589 102.478 17.214C102.149 17.839 101.996 18.6464 101.996 19.662V19.9225ZM98.1662 19.6881C98.0901 17.9953 98.6481 16.3546 99.7389 15.0785C100.779 13.8805 102.25 13.2815 104.102 13.2815C105.979 13.2815 107.425 13.8805 108.465 15.0785C109.53 16.3546 110.114 17.9953 110.037 19.6881V19.9485C110.037 21.8496 109.505 23.3862 108.465 24.5581C107.425 25.7561 105.979 26.329 104.102 26.329C102.225 26.329 100.754 25.73 99.7135 24.5581C98.6481 23.282 98.0901 21.6153 98.1662 19.9485V19.6881ZM115.263 13.5159L115.415 15.2868C115.821 14.6618 116.303 14.167 116.912 13.8284C117.52 13.4638 118.18 13.2815 118.865 13.3076C120.082 13.3076 121.021 13.6982 121.68 14.5055C122.365 15.3129 122.695 16.589 122.695 18.3338V26.1207H118.865V18.3078C118.865 17.5786 118.713 17.0838 118.434 16.7713C118.155 16.4848 117.723 16.3285 117.14 16.3285C116.506 16.3025 115.897 16.589 115.491 17.0838V26.1207H111.686V13.542H115.263V13.5159ZM130.127 16.3025C129.569 16.3025 129.163 16.4848 128.884 16.9015C128.605 17.2921 128.453 17.839 128.377 18.5161L128.402 18.5682H131.7V18.2818C131.7 17.6307 131.573 17.1619 131.32 16.8234C131.066 16.4588 130.685 16.3025 130.127 16.3025ZM130.406 26.329C128.58 26.329 127.16 25.7561 126.069 24.5841C124.978 23.4122 124.395 21.8236 124.445 20.2089V19.7662C124.445 17.839 124.927 16.2765 125.917 15.0785C126.906 13.8805 128.301 13.2555 130.127 13.2815C131.802 13.2815 133.095 13.8024 134.034 14.8181C135.023 15.9639 135.53 17.4484 135.454 18.9589V21.0163H128.428L128.402 21.0944C128.504 21.7455 128.732 22.2663 129.189 22.683C129.62 23.0997 130.178 23.308 130.914 23.308C132.081 23.3341 133.247 23.0737 134.313 22.5268L135.226 24.9227C134.592 25.3654 133.882 25.704 133.146 25.9384C132.283 26.1988 131.37 26.329 130.406 26.329ZM147.63 20.8079H147.706L149.025 13.5159H152.551L149.659 26.0946H146.412L144.408 19.4277H144.332L142.328 26.0946H139.082L136.19 13.5159H139.716L141.06 20.86H141.136L143.14 13.5159H145.55L147.63 20.8079ZM160.313 22.5528C160.313 22.2403 160.135 21.9799 159.806 21.7194C159.222 21.3809 158.588 21.1725 157.929 21.0683C156.762 20.886 155.646 20.4433 154.682 19.7141C153.946 19.1151 153.566 18.2036 153.591 17.24C153.591 16.1462 154.098 15.1045 154.961 14.4274C155.874 13.6722 157.117 13.2815 158.639 13.2815C160.288 13.2815 161.581 13.6461 162.545 14.4014C163.458 15.0524 163.991 16.1462 163.94 17.2921L163.915 17.3703H160.211C160.211 16.8754 160.085 16.5108 159.831 16.2504C159.577 15.99 159.197 15.8598 158.664 15.8598C158.258 15.8598 157.929 15.9639 157.65 16.1983C157.396 16.4067 157.244 16.7192 157.244 17.0577C157.269 17.3963 157.421 17.7088 157.7 17.8911C158.284 18.2297 158.943 18.438 159.603 18.5161C160.795 18.6984 161.936 19.1672 162.926 19.8704C163.661 20.4954 164.067 21.433 163.991 22.4226C163.991 23.5424 163.509 24.48 162.52 25.2092C161.378 25.9905 160.009 26.3811 158.639 26.303C156.965 26.303 155.646 25.8602 154.682 25.0008C153.718 24.1414 153.236 23.1518 153.287 22.084L153.312 22.0059H156.787C156.812 22.6049 156.965 23.0216 157.32 23.282C157.65 23.5424 158.131 23.6726 158.74 23.6726C159.248 23.6726 159.653 23.5685 159.907 23.3601C160.186 23.2299 160.313 22.9174 160.313 22.5528Z" fill="white"/>
</g>
</g>
</g>
</svg>
