<svg width="165" height="29" viewBox="0 0 165 29" fill="none" xmlns="http://www.w3.org/2000/svg">
<g id="99bitcoins-logo-new 1" opacity="0.5" clip-path="url(#clip0_2004_33)">
<g id="Group">
<path id="Vector" d="M19.063 23.3276C22.242 22.8948 25.135 21.8188 27.434 20.2111C30.118 18.3436 31.713 14.8436 31.317 10.7253C30.877 6.07512 26.389 -0.00964499 15.983 0.0150898C11.77 0.0150898 7.678 0.955013 4.763 3.16878C1.903 5.34544 0 8.6228 0 11.9373C0 17.3418 4.686 21.8559 11.913 23.1545L19.844 28.1015L19.063 23.3276Z" fill="white"/>
<path id="Vector_2" d="M9.81221 4.73785C9.10821 4.73785 8.52521 5.03467 8.08521 5.64067C7.64521 6.24667 7.42521 7.02582 7.42521 7.97811C7.42521 9.32615 7.72221 10.4269 8.30521 11.2678C8.89921 12.1212 9.65821 12.5417 10.5932 12.5417C11.3522 12.5417 11.9902 12.2572 12.4962 11.6636C13.0022 11.0823 13.2662 10.3526 13.2662 9.48693C13.2662 8.21309 12.9252 7.10002 12.2322 6.14773C11.5392 5.20781 10.7472 4.73785 9.81221 4.73785ZM10.4612 4.02054C12.0012 4.02054 13.2662 4.58944 14.2562 5.72724C15.2462 6.86504 15.7412 8.32439 15.7412 10.1053C15.7412 12.3191 14.9712 14.2979 13.4422 16.0417C11.9132 17.7855 9.98821 18.8738 7.66721 19.2943L6.73221 19.4674C6.62221 19.4798 6.54521 19.4922 6.45721 19.4922C6.24821 19.4922 6.14921 19.3809 6.16021 19.1459C6.17121 19.0222 6.20421 18.948 6.27021 18.9233C6.33621 18.8985 6.53421 18.8367 6.88621 18.7625C7.99721 18.5151 9.07521 17.9462 10.1312 17.0434C11.1872 16.1406 11.8912 15.2007 12.2322 14.1989L12.4522 13.5558C12.5292 13.3332 12.5732 13.1601 12.5732 13.024C12.5732 12.789 12.4962 12.6777 12.3202 12.6901C12.2432 12.7025 12.1442 12.7396 12.0122 12.8261C11.6052 13.1106 11.0882 13.3703 10.4942 13.5805C9.88921 13.7908 9.39421 13.9021 8.98721 13.9021C7.89821 13.9021 6.98521 13.4816 6.23721 12.6283C5.50021 11.7873 5.13721 10.736 5.13721 9.4993C5.13721 7.89154 5.64321 6.58059 6.63321 5.5541C7.63421 4.5276 8.91021 4.02054 10.4612 4.02054Z" fill="#184292"/>
<path id="Vector_3" d="M21.3617 4.73785C20.6577 4.73785 20.0747 5.03467 19.6347 5.64067C19.1947 6.24667 18.9747 7.02582 18.9747 7.97811C18.9747 9.32615 19.2717 10.4269 19.8547 11.2678C20.4487 12.1212 21.2077 12.5417 22.1427 12.5417C22.9017 12.5417 23.5397 12.2572 24.0457 11.6636C24.5517 11.0823 24.8157 10.3526 24.8157 9.48693C24.8157 8.21309 24.4747 7.10002 23.7817 6.14773C23.0887 5.20781 22.2857 4.73785 21.3617 4.73785ZM21.9997 4.02054C23.5397 4.02054 24.8047 4.58944 25.7947 5.72724C26.7847 6.86504 27.2797 8.32439 27.2797 10.1053C27.2797 12.3191 26.5097 14.2979 24.9807 16.0417C23.4517 17.7855 21.5267 18.8738 19.2057 19.2943L18.2707 19.4674C18.1607 19.4798 18.0837 19.4922 17.9957 19.4922C17.7867 19.4922 17.6877 19.3809 17.6987 19.1459C17.7097 19.0222 17.7427 18.948 17.8087 18.9233C17.8747 18.8985 18.0727 18.8367 18.4247 18.7625C19.5357 18.5151 20.6137 17.9462 21.6697 17.0434C22.7147 16.1406 23.4297 15.2007 23.7707 14.1989L23.9907 13.5558C24.0677 13.3332 24.1117 13.1601 24.1117 13.024C24.1117 12.789 24.0347 12.6777 23.8587 12.6901C23.7817 12.7025 23.6827 12.7396 23.5507 12.8261C23.1437 13.1106 22.6267 13.3703 22.0327 13.5805C21.4387 13.7908 20.9327 13.9021 20.5257 13.9021C19.4367 13.9021 18.5237 13.4816 17.7757 12.6283C17.0387 11.7873 16.6647 10.736 16.6647 9.4993C16.6647 7.89154 17.1707 6.58059 18.1607 5.5541C19.1727 4.5276 20.4487 4.02054 21.9997 4.02054Z" fill="#184292"/>
<path id="Vector_4" d="M60.8731 2.77348C60.4991 2.77348 60.2901 2.94662 60.2461 3.28054L60.1361 4.07206L59.9601 5.23459L59.8061 6.36003C59.7181 6.79289 59.6631 7.12681 59.6521 7.37416C59.6301 7.64624 59.7951 7.76991 60.1141 7.76991C60.3341 7.76991 60.5101 7.59677 60.6201 7.23811L60.7411 6.87946C61.0491 5.93954 61.2691 5.3459 61.4451 5.11092C61.6211 4.87594 61.9621 4.65333 62.4901 4.46782C63.2161 4.22047 64.5581 4.08443 66.5491 4.08443C67.3961 4.08443 67.8141 4.43071 67.8141 5.11092V16.625L67.8251 17.231C67.8251 17.9978 67.6161 18.6038 67.1871 19.0614C66.7691 19.5066 66.1751 19.7539 65.3941 19.791C65.0971 19.8158 64.8991 19.8405 64.8221 19.9023C64.7341 19.9642 64.6791 20.0878 64.6681 20.2857C64.6571 20.5207 64.8111 20.632 65.1191 20.632C65.2511 20.632 65.4931 20.6196 65.8341 20.5825L74.2381 20.5331C74.4141 20.5454 74.5461 20.5454 74.6121 20.5454C74.9201 20.5454 75.0741 20.4465 75.0741 20.2363C75.0741 19.9518 74.8981 19.8034 74.5351 19.7787C73.3031 19.7168 72.4451 19.3705 71.9501 18.7645C71.4661 18.1585 71.2241 17.1197 71.2241 15.6603V5.89007C71.2241 5.08619 71.4111 4.57912 71.7741 4.38124C72.1481 4.171 73.0831 4.07206 74.5901 4.07206C75.7121 4.07206 76.5701 4.2452 77.1531 4.60386C77.7471 4.96251 78.1431 5.54378 78.3521 6.34766C78.4401 6.68158 78.5941 6.84236 78.8251 6.84236C79.1001 6.84236 79.2211 6.70632 79.2211 6.4095C79.2211 6.13742 79.1881 5.76639 79.1111 5.3088C79.0231 4.75227 78.9681 4.40598 78.9681 4.25757L78.8911 3.31765C78.8691 2.92189 78.5721 2.72401 78.0221 2.72401C77.9451 2.69928 60.9831 2.77348 60.8731 2.77348Z" fill="white"/>
<path id="Vector_5" d="M50.3689 3.05712C50.3689 3.2179 50.4459 3.32921 50.5779 3.39104C50.7209 3.45288 51.0509 3.52709 51.5569 3.58892C52.4039 3.70023 52.9869 3.92284 53.3059 4.26913C53.6249 4.61542 53.7789 5.17195 53.7789 5.96346V16.2902L53.7679 17.4404C53.7679 18.1948 53.6469 18.7266 53.4159 19.0482C53.1849 19.3697 52.7119 19.6418 51.9969 19.8768L51.5569 20.186L51.5789 20.2849C51.6339 20.4704 51.7769 20.557 51.9969 20.557H59.7409C60.3899 20.557 60.7089 20.4333 60.7089 20.1736C60.7089 19.9015 60.4669 19.7779 59.9829 19.7779C59.2459 19.7779 58.6409 19.6047 58.1789 19.2461C57.7169 18.8874 57.4309 18.3803 57.3099 17.7125L57.1889 16.4139V5.40693C57.1889 4.66489 57.2989 4.17019 57.4969 3.93521C57.7059 3.68786 58.1679 3.51472 58.8719 3.41578C59.0699 3.39104 59.1909 3.35394 59.2459 3.29211C59.2899 3.24264 59.3229 3.13133 59.3229 2.97055C59.3229 2.76031 59.1029 2.76031 58.7729 2.76031C58.2229 2.76031 50.9079 2.7232 50.7319 2.71084C50.7209 2.71084 50.7209 2.71084 50.7099 2.71084C50.4899 2.69847 50.3689 2.82214 50.3689 3.05712Z" fill="white"/>
<path id="Vector_6" d="M82.6548 4.50273C81.5108 5.35608 80.5978 6.46915 79.9268 7.82956C79.2448 9.18997 78.9038 10.5875 78.9038 12.0221C78.9038 14.6316 79.8058 16.7465 81.6318 18.3666C83.4578 19.9867 85.8118 20.803 88.7378 20.803C91.7518 20.803 94.2928 19.7888 96.3388 17.773C97.1198 16.9938 97.5158 16.4249 97.5158 16.0786C97.5158 15.8807 97.4168 15.7942 97.2298 15.7942C97.0978 15.8065 96.9658 15.8807 96.8338 16.0044L95.8658 16.9196C95.2168 17.538 94.3368 18.0574 93.2148 18.4779C92.0928 18.8984 91.0258 19.1086 90.0248 19.1086C88.3308 19.1086 86.7578 18.4903 85.3168 17.2412C83.3918 15.5716 82.4458 13.3454 82.4458 10.5504C82.4458 8.41083 83.0288 6.66702 84.2058 5.33134C85.3828 3.9833 86.9008 3.31546 88.7818 3.31546C90.9048 3.31546 92.8188 4.11934 94.5458 5.75184C94.9748 6.14759 95.4148 6.69176 95.8878 7.3596C96.3608 8.03981 96.6358 8.5345 96.7128 8.86842C96.7568 9.07867 96.8668 9.17761 97.0208 9.17761C97.2958 9.17761 97.4278 9.01683 97.4278 8.68291C97.4278 8.4603 97.4058 8.20058 97.3508 7.91613L97.0758 4.21828C97.0758 3.64938 96.9218 3.37729 96.6138 3.37729C96.4818 3.37729 96.3938 3.40203 96.3388 3.47623L96.0308 3.88436C95.9318 4.0204 95.7888 4.0946 95.5798 4.0946C95.4258 4.0946 95.2388 4.04513 95.0408 3.93383L94.0618 3.43913C92.6868 2.74656 91.0698 2.40027 89.2108 2.40027C86.7248 2.40027 84.5358 3.10521 82.6548 4.50273Z" fill="white"/>
<path id="Vector_7" d="M103.928 17.2929C102.531 15.5985 101.816 13.3848 101.816 10.6639C101.816 8.36359 102.366 6.57032 103.499 5.28411C104.621 3.9979 106.183 3.34243 108.174 3.34243C110.033 3.34243 111.661 3.91133 113.025 5.02439C113.971 5.77881 114.719 6.81767 115.291 8.10388C115.852 9.39009 116.138 10.7258 116.138 12.0862C116.138 14.436 115.522 16.3158 114.312 17.7134C113.091 19.1109 111.463 19.8158 109.439 19.8158C107.173 19.8405 105.336 18.9872 103.928 17.2929ZM104.522 3.16928C103.037 3.70108 101.816 4.41839 100.848 5.34595C100.012 6.13746 99.3518 7.10212 98.8678 8.26465C98.3838 9.42719 98.1418 10.5897 98.1418 11.777C98.1418 14.5226 99.1098 16.7116 101.024 18.3565C102.949 20.0013 105.523 20.8176 108.724 20.8176C112.079 20.8176 114.719 19.8776 116.644 17.9854C118.613 16.0561 119.592 13.7063 119.592 10.9236C119.592 8.37596 118.635 6.3106 116.732 4.73994C114.829 3.16928 112.332 2.39014 109.23 2.39014C107.58 2.39014 106.007 2.64985 104.522 3.16928Z" fill="white"/>
<path id="Vector_8" d="M130.416 2.76084C130.075 2.76084 129.91 2.88452 129.91 3.13187C129.91 3.32974 130.064 3.44105 130.372 3.46579C132.627 3.60183 133.749 4.99934 133.749 7.65834V13.2731L133.639 16.3526C133.639 17.4162 133.474 18.2201 133.144 18.789C132.803 19.3579 132.275 19.7289 131.549 19.9144C131.263 19.9886 131.109 20.1123 131.109 20.2855C131.109 20.4957 131.252 20.607 131.516 20.607C131.67 20.607 138.193 20.5823 138.314 20.5823C138.622 20.5823 138.776 20.4462 138.776 20.1865C138.776 19.9886 138.622 19.8773 138.325 19.8526C136.719 19.7166 135.74 19.1724 135.432 18.2077C135.124 17.3049 134.97 15.5116 134.97 12.8155V7.78201L134.981 7.39862C134.981 7.01523 135.102 6.81735 135.333 6.81735C135.421 6.81735 135.586 6.92866 135.828 7.16364L149.358 20.2731C149.545 20.4586 149.732 20.5452 149.908 20.5575C150.106 20.5699 150.315 20.4462 150.315 20.1989L150.425 6.94103V6.31029C150.425 4.54175 151.063 3.55236 152.35 3.34211C152.669 3.29264 152.823 3.26791 152.823 3.04529C152.823 2.79795 152.614 2.76084 152.295 2.76084H145.684C145.398 2.76084 145.211 2.76084 145.211 2.99582C145.211 3.18134 145.376 3.28027 145.695 3.30501C147.07 3.39158 147.994 3.79971 148.478 4.51701C148.951 5.23432 149.182 6.60711 149.182 8.63536C149.182 10.3668 149.138 12.1848 149.039 14.0894C149.017 14.6212 148.907 14.8809 148.698 14.8809C148.478 14.8809 148.027 14.5593 147.345 13.8915C147.345 13.8915 136.411 3.07003 136.235 2.94635C136.059 2.82268 135.817 2.77321 135.509 2.77321C135.289 2.74848 130.416 2.76084 130.416 2.76084Z" fill="white"/>
<path id="Vector_9" d="M153.934 3.84725C152.867 4.79955 152.328 5.99918 152.328 7.4338C152.328 8.67054 152.713 9.64757 153.472 10.3896C154.242 11.1317 155.683 11.9108 157.817 12.7518L160.083 13.6299C161.095 14.0133 161.81 14.4338 162.217 14.8666C162.624 15.2995 162.833 15.8684 162.833 16.5486C162.833 17.4143 162.448 18.1687 161.656 18.8365C160.864 19.5044 159.962 19.8383 158.961 19.8383C157.663 19.8383 156.431 19.3312 155.221 18.3295C154.011 17.3154 153.175 16.0786 152.691 14.5945C152.636 14.3843 152.537 14.2853 152.394 14.2853C152.086 14.2853 151.932 14.4956 151.932 14.9037C151.932 15.2253 153.065 19.5168 153.131 19.591C153.208 19.6652 153.472 19.7394 153.934 19.8259C154.264 19.8878 154.77 20.0238 155.463 20.2093C156.959 20.6175 158.026 20.8153 158.719 20.8153C160.391 20.8153 161.865 20.2588 163.108 19.1334C164.362 18.0203 164.978 16.7094 164.978 15.2005C164.978 13.8401 164.527 12.6652 163.625 11.7006C162.855 10.8967 161.304 10.0804 158.95 9.23944C156.97 8.54687 155.793 8.02744 155.419 7.73062C154.836 7.24829 154.539 6.67939 154.539 6.01155C154.539 5.29424 154.869 4.67587 155.54 4.14407C156.211 3.61227 156.981 3.35256 157.872 3.35256C159.17 3.35256 160.402 3.78542 161.568 4.67587C162.734 5.55396 163.46 6.59282 163.735 7.80482C163.812 8.12638 163.944 8.29952 164.12 8.29952C164.362 8.29952 164.494 8.11401 164.494 7.74299C164.494 7.68115 164.12 3.51333 164.12 3.51333C164.12 3.22888 164.01 3.08048 163.801 3.08048C163.724 3.08048 163.647 3.09284 163.57 3.12995L163.009 3.37729C162.855 3.43913 162.723 3.46387 162.569 3.46387C162.382 3.46387 162.063 3.38966 161.623 3.22888L160.622 2.87023C159.731 2.56104 158.818 2.40027 157.894 2.40027C156.332 2.40027 155.012 2.8826 153.934 3.84725Z" fill="white"/>
<path id="Vector_10" d="M118.866 3.05671C118.866 3.21749 118.943 3.3288 119.075 3.39063C119.218 3.45247 119.548 3.52668 120.054 3.58851C120.901 3.69982 121.484 3.9348 121.792 4.26872C122.111 4.61501 122.276 5.17154 122.276 5.96305V16.2898L122.265 17.44C122.265 18.1944 122.144 18.7262 121.913 19.0478C121.682 19.3693 121.209 19.6538 120.483 19.8764L120.043 20.1856L120.065 20.2845C120.12 20.47 120.263 20.569 120.472 20.569H128.227C128.876 20.569 129.195 20.4453 129.195 20.1856C129.195 19.9135 128.953 19.7898 128.469 19.7898C127.732 19.7898 127.127 19.6167 126.665 19.258C126.203 18.8994 125.917 18.3923 125.796 17.7245L125.675 16.4259V5.39415C125.675 4.65211 125.785 4.15741 125.983 3.92243C126.192 3.67508 126.654 3.50194 127.358 3.403C127.556 3.37827 127.677 3.34116 127.732 3.27933C127.776 3.22986 127.809 3.11855 127.809 2.95777C127.809 2.74753 127.556 2.74753 127.226 2.74753C126.687 2.74753 119.394 2.71043 119.218 2.69806C119.207 2.69806 119.196 2.69806 119.196 2.69806C118.976 2.69806 118.866 2.82173 118.866 3.05671Z" fill="white"/>
<path id="Vector_11" d="M38.9516 17.9837C38.8746 16.5614 38.8416 15.5226 38.8416 14.595C38.8416 13.6675 38.8306 12.5668 39.2046 12.0844C39.6556 11.5155 40.6676 11.5155 41.3826 11.5155C42.9006 11.5155 43.3516 11.565 44.5506 11.8371C46.6186 12.307 47.6746 13.5561 47.6746 15.572C47.6746 16.6109 47.3556 17.5013 46.7176 18.2434C45.9366 19.1338 44.4956 19.5791 42.3836 19.5791C40.2386 19.5914 39.0176 19.2452 38.9516 17.9837ZM39.2486 10.1427C38.9736 9.94486 38.8306 9.58621 38.8306 9.07915V5.83889C38.8306 5.10921 38.8856 4.36717 39.2706 4.08271C39.6226 3.81063 40.2166 3.83537 41.0966 3.83537C42.6366 3.83537 43.8796 3.88484 44.8146 4.66398C45.7606 5.4555 46.2336 6.49436 46.2336 7.79294C46.2336 9.37596 45.3866 10.2664 43.6926 10.4519H40.7116C40.0186 10.4519 39.5346 10.3406 39.2486 10.1427ZM32.7476 2.7965L32.3736 2.78414C32.0876 2.78414 31.9556 2.90781 31.9556 3.16753C31.9556 3.40251 32.0656 3.51381 32.2746 3.53855L32.9566 3.62512C33.2756 3.64986 34.4856 3.98378 35.0246 4.82476C35.2996 5.25762 35.3766 5.86362 35.3876 6.34595C35.4206 9.4007 35.4536 15.2505 35.4536 17.86C35.4536 18.6763 35.2666 19.1709 35.1016 19.3936C34.7276 19.8883 33.8036 19.9006 33.6276 19.9254C33.3526 19.9748 33.2316 20.0861 33.2316 20.284C33.2316 20.519 33.3746 20.6303 33.6826 20.6303C35.0466 20.6303 35.0466 20.6179 43.8466 20.5437C46.0796 20.5437 47.8616 20.049 49.1816 19.0473C50.4906 18.0579 51.1506 16.6975 51.1506 14.9908C51.1506 13.8653 50.7986 12.9254 50.0726 12.171C49.3576 11.4166 48.3786 10.9343 47.1356 10.7487C46.7396 10.6993 46.5416 10.588 46.5636 10.4396C46.5746 10.3406 46.7616 10.2293 47.1246 10.0933C48.7196 9.49964 49.5006 8.43604 49.5006 6.92722C49.5006 5.60391 48.8626 4.55268 47.5976 3.76116C46.3216 2.96965 44.6056 2.78414 42.5046 2.78414C41.6906 2.7594 32.7476 2.7965 32.7476 2.7965Z" fill="white"/>
</g>
</g>
<defs>
<clipPath id="clip0_2004_33">
<rect width="165" height="28.1111" fill="white"/>
</clipPath>
</defs>
</svg>
