<svg width="173" height="43" viewBox="0 0 173 43" fill="none" xmlns="http://www.w3.org/2000/svg">
<g id="coinspeaker-logo-vector 1" opacity="0.5">
<path id="Vector" d="M14.1423 16.5194C13.0014 16.5194 12.0992 17.0277 11.489 18.016C10.8522 19.0044 10.5338 20.3881 10.5338 22.1389C10.5338 25.7817 11.8339 27.6173 14.4342 27.6173C15.2302 27.6173 15.9732 27.4761 16.7427 27.2784C17.4591 27.0525 18.2285 26.7701 18.9715 26.4312V30.78C17.4856 31.4578 15.7874 31.7966 13.9301 31.7966C11.2236 31.7966 9.18053 30.9777 7.77425 29.3116C6.36796 27.6455 5.57195 25.2452 5.57195 22.1107C5.57195 20.1339 5.94342 18.4114 6.63329 16.9147C7.32317 15.418 8.33145 14.2885 9.60507 13.4696C10.8787 12.6506 12.4707 12.2553 14.1954 12.2553C16.1324 12.2553 17.9367 12.6789 19.7144 13.5825L18.2285 17.6207C17.5917 17.2818 16.9019 17.0277 16.265 16.8018C15.5752 16.6041 14.8588 16.5194 14.1423 16.5194ZM35.2897 24.1721C35.2897 26.5724 34.6795 28.4644 33.4854 29.7917C32.2649 31.1189 30.5933 31.7966 28.4175 31.7966C26.3213 31.7966 24.6762 31.1189 23.4292 29.7352C22.1821 28.3515 21.5718 26.516 21.5718 24.1439C21.5718 21.7436 22.1821 19.908 23.3761 18.5526C24.5966 17.2253 26.3213 16.5476 28.4971 16.5476C29.8769 16.5476 31.0443 16.8582 32.0792 17.4512C33.1405 18.0443 33.9365 18.9479 34.4937 20.1057C35.0244 21.2918 35.2897 22.619 35.2897 24.1721ZM26.3479 24.1721C26.3479 25.4146 26.5071 26.403 26.8255 27.0525C27.1439 27.702 27.6746 28.0409 28.444 28.0409C29.1604 28.0409 29.6911 27.702 30.0095 27.0525C30.3279 26.3748 30.4606 25.4146 30.4606 24.1721C30.4606 22.9296 30.3014 21.9977 30.0095 21.3482C29.6911 20.6987 29.1604 20.4163 28.444 20.4163C27.7276 20.4163 27.1969 20.727 26.8785 21.3482C26.5071 21.9412 26.3479 22.8731 26.3479 24.1721ZM42.7988 31.5425H38.0492V16.8582H42.7988V31.5425ZM37.9166 13.1872C37.9166 12.4247 38.1288 11.8599 38.5269 11.4646C38.9249 11.0692 39.5882 10.8998 40.4638 10.8998C41.3394 10.8998 42.0028 11.0692 42.4008 11.4646C42.7988 11.8599 43.0111 12.3965 43.0111 13.1307C43.0111 14.6274 42.162 15.3616 40.4638 15.3616C38.7657 15.418 37.9166 14.6838 37.9166 13.1872ZM54.8451 31.5425V23.5226C54.8451 22.5343 54.7124 21.8001 54.4471 21.3482C54.2083 20.8399 53.7572 20.5858 53.2 20.5858C52.404 20.5858 51.8203 20.9246 51.4753 21.6024C51.1039 22.2801 50.9446 23.4379 50.9446 25.1322V31.5707H46.1951V16.8865H49.7772L50.3874 18.6938H50.6793C51.0773 18.016 51.6345 17.4795 52.3775 17.1406C53.0939 16.8018 53.9164 16.6323 54.8716 16.6323C56.4106 16.6323 57.5781 17.1124 58.4272 18.0443C59.2762 18.9762 59.7273 20.3316 59.7273 22.026V31.599H54.8982L54.8451 31.5425ZM73.5249 27.0525C73.5249 28.6339 73.0473 29.7917 72.039 30.6106C71.0307 31.4295 69.5713 31.8249 67.6874 31.8249C66.6792 31.8249 65.8035 31.7684 65.0341 31.6555C64.2646 31.5143 63.4951 31.3166 62.7256 31.006V26.9395C63.442 27.2784 64.2646 27.589 65.1402 27.7867C66.0158 28.0126 66.7853 28.1256 67.5282 28.1256C68.5896 28.1256 69.0672 27.8714 69.0672 27.3631C69.0672 27.109 68.908 26.8831 68.6161 26.6854C68.3242 26.4877 67.4752 26.0924 66.1219 25.4711C64.8749 24.9063 63.9727 24.3133 63.4686 23.5791C62.991 22.8449 62.6991 21.9977 62.6991 20.8682C62.6991 19.4845 63.1767 18.4114 64.185 17.7054C65.1933 16.943 66.573 16.5476 68.3773 16.5476C69.306 16.5476 70.1551 16.6888 70.9246 16.8865C71.7206 17.1124 72.5696 17.3948 73.4187 17.7901L72.1186 21.0376C71.4818 20.727 70.8184 20.4728 70.102 20.2751C69.3856 20.0492 68.8019 19.9363 68.3773 19.9363C67.6078 19.9363 67.2098 20.1622 67.2098 20.5293C67.2098 20.7835 67.3425 21.0094 67.6078 21.1788C67.8732 21.3482 68.6692 21.6871 69.9959 22.2519C70.9511 22.6755 71.694 23.099 72.1451 23.4944C72.6227 23.8897 72.9942 24.398 73.2065 24.9628C73.3922 25.5841 73.5249 26.2336 73.5249 27.0525ZM84.4302 31.7966C83.7404 31.7966 83.1035 31.6555 82.5463 31.4578C81.9891 31.2036 81.4585 30.78 80.9012 30.1306H80.689C80.8482 31.1472 80.9012 31.7966 80.9012 32.0508V37.9245H76.1517V16.8582H80.0256L80.7155 18.7502H80.9278C81.8034 17.3383 83.0239 16.6041 84.5894 16.6041C86.1284 16.6041 87.3224 17.2818 88.1715 18.609C89.0471 19.9363 89.4716 21.8283 89.4716 24.1439C89.4716 26.516 89.0206 28.3797 88.0919 29.7634C87.1897 31.1189 85.9692 31.7966 84.4302 31.7966ZM82.8382 20.5575C82.1483 20.5575 81.6177 20.8117 81.3523 21.3765C81.0604 21.8848 80.9012 22.7037 80.9012 23.7485V24.1439C80.9012 25.3864 81.0604 26.3183 81.3789 26.8831C81.6973 27.4478 82.1749 27.7302 82.8647 27.7302C83.475 27.7302 83.9261 27.4761 84.1914 26.9113C84.4833 26.3465 84.5894 25.4146 84.5894 24.1156C84.5894 22.8731 84.4568 21.9695 84.1914 21.4047C83.9261 20.8399 83.475 20.5575 82.8382 20.5575ZM98.8646 31.7966C96.5562 31.7966 94.8049 31.1471 93.5048 29.8764C92.2577 28.5774 91.6209 26.7136 91.6209 24.2851C91.6209 21.8001 92.2312 19.908 93.3986 18.5808C94.5661 17.2536 96.2643 16.5758 98.44 16.5758C100.536 16.5758 102.102 17.1406 103.243 18.2984C104.384 19.4562 104.941 21.0941 104.941 23.2685V25.5558H96.4235C96.4765 26.3748 96.7419 27.0243 97.2726 27.4761C97.8032 27.9561 98.5196 28.1538 99.4483 28.1538C100.297 28.1538 101.067 28.0691 101.757 27.8997C102.473 27.7302 103.216 27.4196 104.065 27.0525V30.6953C103.296 31.0907 102.526 31.3731 101.757 31.5425C100.934 31.7119 99.9525 31.7966 98.8646 31.7966ZM98.5993 20.0492C98.042 20.0492 97.5379 20.2187 97.193 20.614C96.8215 21.0094 96.5827 21.5459 96.5562 22.3648H100.669C100.669 21.6306 100.457 21.0658 100.112 20.6423C99.6871 20.2751 99.183 20.0492 98.5993 20.0492ZM116.616 31.5425L115.687 29.6222H115.607C114.971 30.4694 114.307 31.0342 113.644 31.3448C112.954 31.6555 112.105 31.8249 111.07 31.8249C109.77 31.8249 108.735 31.4013 108.019 30.5824C107.249 29.7634 106.878 28.5774 106.878 27.0525C106.878 25.4994 107.408 24.3133 108.417 23.5791C109.425 22.8167 110.911 22.3648 112.848 22.2801L115.156 22.1954V21.9695C115.156 20.7552 114.599 20.1622 113.458 20.1622C112.45 20.1622 111.15 20.5011 109.637 21.2353L108.258 17.8748C109.876 16.9712 111.893 16.5476 114.334 16.5476C116.112 16.5476 117.491 17.0277 118.446 17.9596C119.402 18.8914 119.906 20.1904 119.906 21.8565V31.4578H116.642L116.616 31.5425ZM113.113 28.2103C113.67 28.2103 114.175 27.9844 114.599 27.6173C114.997 27.2219 115.209 26.7136 115.209 26.1206V24.9628L114.121 25.0193C112.556 25.0758 111.787 25.697 111.787 26.8548C111.733 27.7867 112.185 28.2103 113.113 28.2103ZM127.786 23.2685C128.344 22.2801 128.848 21.5459 129.272 20.9811L132.377 16.83H137.71L132.907 23.099L137.975 31.5425H132.536L129.511 26.2618L127.972 27.5043V31.486H123.17V11.3234H127.972V19.2585C127.972 20.6423 127.893 21.9695 127.68 23.2402H127.786V23.2685ZM146.28 31.7966C143.972 31.7966 142.221 31.1471 140.921 29.8764C139.673 28.5774 139.037 26.7136 139.037 24.2851C139.037 21.8001 139.647 19.908 140.814 18.5808C141.982 17.2536 143.68 16.5758 145.856 16.5758C147.952 16.5758 149.518 17.1406 150.658 18.2984C151.799 19.4562 152.357 21.0941 152.357 23.2685V25.5558H143.813C143.866 26.3748 144.131 27.0243 144.662 27.4761C145.193 27.9561 145.909 28.1538 146.838 28.1538C147.687 28.1538 148.456 28.0691 149.146 27.8997C149.862 27.7302 150.605 27.4196 151.454 27.0525V30.6953C150.685 31.0907 149.916 31.3731 149.146 31.5425C148.35 31.7119 147.368 31.7966 146.28 31.7966ZM145.989 20.0492C145.431 20.0492 144.927 20.2187 144.582 20.614C144.211 21.0094 143.972 21.5459 143.945 22.3648H148.058C148.058 21.6306 147.846 21.0658 147.501 20.6423C147.076 20.2751 146.599 20.0492 145.989 20.0492ZM163.342 16.5758C163.74 16.5758 164.138 16.6323 164.509 16.6606L164.801 16.717L164.35 21.4894C163.952 21.4047 163.421 21.32 162.731 21.32C161.67 21.32 160.927 21.5741 160.476 22.0824C159.998 22.5907 159.76 23.325 159.76 24.2568V31.4578H155.01V16.7735H158.566L159.282 19.1456H159.521C159.919 18.3831 160.476 17.7336 161.166 17.2536C161.935 16.83 162.652 16.5758 163.342 16.5758Z" fill="white"/>
</g>
</svg>
