<svg width="340" height="296" viewBox="0 0 340 296" fill="none" xmlns="http://www.w3.org/2000/svg">
<g clip-path="url(#clip0_1300_114)">
<path fill-rule="evenodd" clip-rule="evenodd" d="M62.1503 1.45019L0.260303 131.45C0.0247938 131.934 -0.0498376 132.48 0.047323 133.009C0.144484 133.538 0.408339 134.022 0.800303 134.39L167.95 294.56C168.425 295.016 169.057 295.27 169.715 295.27C170.373 295.27 171.006 295.016 171.48 294.56L338.63 134.4C339.022 134.032 339.286 133.548 339.383 133.019C339.48 132.49 339.406 131.944 339.17 131.46L277.28 1.46019C277.081 1.0236 276.759 0.653747 276.355 0.394842C275.951 0.135937 275.48 -0.00107099 275 0.000193524H64.4503C63.9679 -0.0058081 63.4941 0.127899 63.0859 0.385186C62.6778 0.642473 62.3529 1.01235 62.1503 1.45019Z" fill="#50AF95"/>
<path fill-rule="evenodd" clip-rule="evenodd" d="M191.189 144.8C189.989 144.89 183.789 145.26 169.959 145.26C158.959 145.26 151.149 144.93 148.409 144.8C105.899 142.93 74.1694 135.53 74.1694 126.67C74.1694 117.81 105.899 110.42 148.409 108.52V137.43C151.189 137.63 159.149 138.1 170.149 138.1C183.349 138.1 189.959 137.55 191.149 137.44V108.54C233.569 110.43 265.229 117.83 265.229 126.67C265.229 135.51 233.579 142.91 191.149 144.79L191.189 144.8ZM191.189 105.55V79.6805H250.389V40.2305H89.2094V79.6805H148.399V105.54C100.289 107.75 64.1094 117.28 64.1094 128.7C64.1094 140.12 100.289 149.64 148.399 151.86V234.76H191.179V151.83C239.179 149.62 275.299 140.1 275.299 128.69C275.299 117.28 239.209 107.76 191.179 105.54L191.189 105.55Z" fill="white"/>
</g>
<defs>
<clipPath id="clip0_1300_114">
<rect width="339.43" height="295.27" fill="white"/>
</clipPath>
</defs>
</svg>
