<svg width="341" height="342" viewBox="0 0 341 342" fill="none" xmlns="http://www.w3.org/2000/svg">
<path d="M104.244 143.435L170.444 77.2365L236.677 143.469L275.197 104.949L170.444 0.191406L65.7255 104.915L104.244 143.435ZM0.00390625 170.629L38.5251 132.107L77.0437 170.626L38.5229 209.147L0.00390625 170.629ZM104.244 197.833L170.444 264.031L236.676 197.801L275.216 236.3L275.197 236.321L170.444 341.076L65.7221 236.356L65.6675 236.302L104.244 197.833ZM263.85 170.65L302.371 132.129L340.89 170.647L302.369 209.168L263.85 170.65Z" fill="#F3BA2F"/>
<path d="M209.515 170.613H209.532L170.444 131.525L141.558 160.412H141.556L138.237 163.732L131.392 170.579L131.338 170.632L131.392 170.688L170.444 209.741L209.532 170.654L209.551 170.632L209.515 170.613Z" fill="#F3BA2F"/>
</svg>
