<svg width="23" height="24" viewBox="0 0 23 24" fill="none" xmlns="http://www.w3.org/2000/svg">
<g id="link.ce6e2b1e73b0dff509915a565115dcad.svg" clip-path="url(#clip0_2004_242)">
<path id="Vector" d="M11.8485 9.96967C11.0385 9.11734 9.94003 8.63855 8.79469 8.63855C7.64936 8.63855 6.5509 9.11734 5.74086 9.96967L2.68605 13.1842C1.87598 14.0369 1.4209 15.1934 1.4209 16.3993C1.4209 17.6052 1.87598 18.7617 2.68605 19.6144C3.4961 20.467 4.59477 20.9462 5.74036 20.9462C6.88596 20.9462 7.98464 20.467 8.79469 19.6144L10.3216 18.0071" stroke="#1BEDAC" stroke-width="1.54386" stroke-linecap="round" stroke-linejoin="round"/>
<path id="Vector_2" d="M8.79004 13.1853C9.6001 14.0376 10.6985 14.5164 11.8439 14.5164C12.9892 14.5164 14.0877 14.0376 14.8977 13.1853L17.9525 9.97075C18.7627 9.11806 19.2177 7.96155 19.2177 6.75566C19.2177 5.54979 18.7627 4.39329 17.9525 3.5406C17.1425 2.6879 16.0438 2.20886 14.8982 2.20886C13.7526 2.20886 12.6539 2.6879 11.8439 3.5406L10.317 5.14787" stroke="#1BEDAC" stroke-width="1.54386" stroke-linecap="round" stroke-linejoin="round"/>
</g>
<defs>
<clipPath id="clip0_2004_242">
<rect width="22" height="23.1579" fill="white" transform="translate(0.117188 -0.00012207)"/>
</clipPath>
</defs>
</svg>
