<svg width="22" height="23" viewBox="0 0 22 23" fill="none" xmlns="http://www.w3.org/2000/svg">
<g id="insta.b2ad3b2d9b7a69e36b1540a44c68a15c.svg" clip-path="url(#clip0_2004_258)">
<path id="Vector" d="M10.6148 6.0175C7.63344 6.0175 5.22737 8.4493 5.22737 11.4625C5.22737 14.4756 7.63344 16.9075 10.6148 16.9075C13.5961 16.9075 16.0021 14.4756 16.0021 11.4625C16.0021 8.4493 13.5961 6.0175 10.6148 6.0175ZM10.6148 15.0013C8.68675 15.0013 7.11336 13.4111 7.11336 11.4625C7.11336 9.51387 8.68675 7.92364 10.6148 7.92364C12.5428 7.92364 14.1162 9.51387 14.1162 11.4625C14.1162 13.4111 12.5428 15.0013 10.6148 15.0013ZM16.2229 4.5255C15.5267 4.5255 14.9646 5.09363 14.9646 5.79714C14.9646 6.50066 15.5267 7.06879 16.2229 7.06879C16.9189 7.06879 17.481 6.50332 17.481 5.79714C17.4812 5.63009 17.4489 5.46464 17.3856 5.31026C17.3225 5.15588 17.2299 5.01562 17.1129 4.89749C16.996 4.77937 16.8573 4.6857 16.7045 4.62187C16.5519 4.55804 16.3881 4.52529 16.2229 4.5255ZM21.1164 11.4625C21.1164 9.99703 21.1295 8.54486 21.0481 7.08207C20.9667 5.38299 20.5831 3.87508 19.3538 2.63262C18.1219 1.38752 16.6325 1.00258 14.9515 0.920278C13.5015 0.837979 12.0647 0.851254 10.6174 0.851254C9.16744 0.851254 7.73063 0.837979 6.2833 0.920278C4.6022 1.00258 3.11023 1.39018 1.88092 2.63262C0.648994 3.87773 0.26812 5.38299 0.186691 7.08207C0.105262 8.54752 0.118396 9.99969 0.118396 11.4625C0.118396 12.9253 0.105262 14.3801 0.186691 15.8429C0.26812 17.542 0.651621 19.0499 1.88092 20.2924C3.11286 21.5374 4.6022 21.9224 6.2833 22.0047C7.73325 22.087 9.17008 22.0737 10.6174 22.0737C12.0673 22.0737 13.5042 22.087 14.9515 22.0047C16.6325 21.9224 18.1245 21.5348 19.3538 20.2924C20.5858 19.0473 20.9667 17.542 21.0481 15.8429C21.1322 14.3801 21.1164 12.9279 21.1164 11.4625ZM18.8049 17.7225C18.6131 18.2056 18.382 18.5667 18.0116 18.9384C17.6412 19.3127 17.2866 19.5463 16.8086 19.7401C15.4269 20.295 12.1461 20.1702 10.6148 20.1702C9.08339 20.1702 5.79999 20.295 4.41833 19.7428C3.94027 19.549 3.58304 19.3154 3.21529 18.941C2.84493 18.5667 2.61379 18.2083 2.42203 17.7252C1.87567 16.3261 1.99913 13.0102 1.99913 11.4625C1.99913 9.91474 1.87567 6.59624 2.42203 5.19981C2.61379 4.71664 2.84493 4.35559 3.21529 3.98392C3.58567 3.61224 3.94027 3.37597 4.41833 3.18216C5.79999 2.62997 9.08339 2.75474 10.6148 2.75474C12.1461 2.75474 15.4295 2.62997 16.8112 3.18216C17.2892 3.37597 17.6465 3.60959 18.0142 3.98392C18.3846 4.35824 18.6158 4.71664 18.8076 5.19981C19.3538 6.59624 19.2304 9.91474 19.2304 11.4625C19.2304 13.0102 19.3538 16.3261 18.8049 17.7225Z" fill="#F767FF"/>
</g>
<defs>
<clipPath id="clip0_2004_258">
<rect width="21" height="23" fill="white" transform="translate(0.117615 -0.00012207)"/>
</clipPath>
</defs>
</svg>
