<svg width="24" height="20" viewBox="0 0 24 20" fill="none" xmlns="http://www.w3.org/2000/svg">
<g id="tle.c1602aac360a24278be4d474f838ae95.svg">
<g id="Clip path group">
<mask id="mask0_2004_251" style="mask-type:luminance" maskUnits="userSpaceOnUse" x="0" y="1" width="23" height="18">
<g id="clip0_0_1217">
<path id="Vector" d="M22.3223 1.03992H0.865723V18.9204H22.3223V1.03992Z" fill="white"/>
</g>
</mask>
<g mask="url(#mask0_2004_251)">
<g id="Group">
<path id="Vector_2" d="M19.9738 1.19241L1.74709 8.43043C1.15489 8.62783 1.22069 9.48323 1.8129 9.68063L6.41891 11.1282L8.26131 16.9187C8.39292 17.3793 8.98511 17.5109 9.31412 17.1819L12.0119 14.6814L17.1444 18.4321C17.5391 18.6953 18.0656 18.4978 18.1972 18.0372L21.7503 2.77161C21.9478 1.65301 20.9608 0.797611 19.9738 1.19241ZM9.31412 12.2468L8.72191 15.6685L7.40591 10.9308L20.2369 2.50841L9.31412 12.2468Z" fill="#5C94FF"/>
</g>
</g>
</g>
</g>
</svg>
