<svg width="335" height="92" viewBox="0 0 335 92" fill="none" xmlns="http://www.w3.org/2000/svg">
<g clip-path="url(#clip0_1256_196)">
<path d="M104.403 44.0571C104.403 58.8446 113.9 69.1552 127.06 69.1552C140.219 69.1552 149.716 58.8446 149.716 44.0571C149.716 29.2695 140.219 18.959 127.06 18.959C113.9 18.959 104.403 29.2695 104.403 44.0571ZM141.033 44.0571C141.033 54.639 135.267 61.4901 127.06 61.4901C118.852 61.4901 113.086 54.639 113.086 44.0571C113.086 33.4752 118.852 26.6241 127.06 26.6241C135.267 26.6241 141.033 33.4752 141.033 44.0571Z" fill="white"/>
<path d="M174.167 69.1558C184.138 69.1558 189.836 60.7445 189.836 50.6375C189.836 40.5304 184.138 32.1191 174.167 32.1191C169.554 32.1191 166.162 33.9506 163.924 36.5961V32.7975H155.784V80.6195H163.924V64.6788C166.162 67.3243 169.554 69.1558 174.167 69.1558ZM163.72 49.62C163.72 42.9045 167.519 39.2416 172.539 39.2416C178.44 39.2416 181.628 43.8542 181.628 50.6375C181.628 57.4207 178.44 62.0333 172.539 62.0333C167.519 62.0333 163.72 58.3026 163.72 51.7228V49.62Z" fill="white"/>
<path d="M211.865 69.1558C218.987 69.1558 224.617 65.425 227.127 59.1844L220.14 56.5389C219.055 60.2019 215.867 62.2368 211.865 62.2368C206.641 62.2368 202.979 58.5061 202.368 52.4011H227.33V49.6878C227.33 39.9199 221.836 32.1191 211.525 32.1191C201.215 32.1191 194.567 40.1912 194.567 50.6375C194.567 61.6264 201.69 69.1558 211.865 69.1558ZM211.458 38.9702C216.613 38.9702 219.055 42.3619 219.123 46.2962H202.775C203.996 41.48 207.252 38.9702 211.458 38.9702Z" fill="white"/>
<path d="M233.438 68.4096H241.578V47.5172C241.578 42.4297 245.309 39.7164 248.972 39.7164C253.449 39.7164 255.212 42.9045 255.212 47.3137V68.4096H263.352V44.9395C263.352 37.2744 258.875 32.1191 251.414 32.1191C246.801 32.1191 243.613 34.222 241.578 36.5961V32.7975H233.438V68.4096Z" fill="white"/>
<path d="M287.193 19.7051L268.742 68.4089H277.357L281.495 57.2844H302.523L306.729 68.4089H315.479L297.029 19.7051H287.193ZM291.941 29.3373L299.674 49.6871H284.344L291.941 29.3373Z" fill="white"/>
<path d="M329.452 19.8477H320.77V68.5515H329.452V19.8477Z" fill="white"/>
<path d="M84.5115 37.5934C86.5634 31.4348 85.8568 24.6883 82.5754 19.0864C77.6406 10.4943 67.7201 6.07386 58.0313 8.15407C53.7211 3.29838 47.5286 0.537022 41.0364 0.576591C31.1328 0.55398 22.3457 6.93025 19.2989 16.3533C12.9367 17.6563 7.4451 21.6386 4.23153 27.2829C-0.74004 35.8524 0.39333 46.6548 7.03528 54.0033C4.98334 60.1619 5.68993 66.9085 8.97134 72.5103C13.9062 81.1024 23.8267 85.5229 33.5155 83.4427C37.8228 88.2984 44.0182 91.0597 50.5104 91.0173C60.4196 91.0428 69.2096 84.6608 72.2564 75.2293C78.6185 73.9263 84.1102 69.944 87.3237 64.2997C92.2896 55.7302 91.1535 44.9363 84.5143 37.5878L84.5115 37.5934ZM50.516 85.1074C46.5506 85.1131 42.7096 83.7253 39.6656 81.1844C39.8041 81.1109 40.0444 80.9781 40.1998 80.882L58.2094 70.481C59.1308 69.9581 59.696 68.9774 59.6904 67.9175V42.5283L67.3018 46.9233C67.3838 46.9628 67.4375 47.042 67.4488 47.1324V68.1577C67.4375 77.5073 59.8656 85.0876 50.516 85.1074ZM14.1012 69.5539C12.1143 66.1227 11.3992 62.1008 12.0803 58.1976C12.2132 58.2768 12.4478 58.4209 12.6145 58.517L30.6241 68.918C31.537 69.4522 32.6676 69.4522 33.5833 68.918L55.5696 56.222V65.012C55.5752 65.1024 55.5328 65.19 55.4622 65.2466L37.2576 75.7578C29.1487 80.427 18.7929 77.6515 14.104 69.5539H14.1012ZM9.36137 30.2421C11.3398 26.8052 14.463 24.1767 18.1824 22.8116C18.1824 22.967 18.174 23.2412 18.174 23.4334V44.2382C18.1683 45.2953 18.7336 46.276 19.6522 46.7989L41.6384 59.4921L34.027 63.8871C33.9507 63.938 33.8546 63.9464 33.7698 63.9097L15.5624 53.39C7.47054 48.7039 4.69505 38.3509 9.35855 30.2449L9.36137 30.2421ZM71.8974 44.795L49.9112 32.099L57.5226 27.7068C57.5989 27.656 57.695 27.6475 57.7798 27.6842L75.9872 38.1955C84.0932 42.8787 86.8715 53.2487 82.1882 61.3547C80.2069 64.7859 77.0867 67.4144 73.37 68.7823V47.3557C73.3785 46.2986 72.816 45.3207 71.9003 44.795H71.8974ZM79.4721 33.3935C79.3393 33.3115 79.1047 33.1702 78.9379 33.0741L60.9283 22.6731C60.0154 22.1389 58.8849 22.1389 57.9691 22.6731L35.9829 35.3691V26.5791C35.9772 26.4887 36.0196 26.4011 36.0903 26.3445L54.2949 15.8418C62.4037 11.1641 72.7708 13.9481 77.4456 22.0598C79.4212 25.4853 80.1363 29.4959 79.4664 33.3935H79.4721ZM31.8451 49.06L24.2309 44.665C24.1489 44.6254 24.0952 44.5463 24.0839 44.4558V23.4305C24.0895 14.0696 31.684 6.48369 41.0449 6.48934C45.0046 6.48934 48.8372 7.87991 51.8812 10.4123C51.7427 10.4858 51.5053 10.6187 51.347 10.7147L33.3374 21.1158C32.416 21.6386 31.8507 22.6166 31.8564 23.6764L31.8451 49.0543V49.06ZM35.98 40.1456L45.7734 34.4901L55.5667 40.1428V51.4511L45.7734 57.1038L35.98 51.4511V40.1456Z" fill="white"/>
</g>
<defs>
<clipPath id="clip0_1256_196">
<rect width="333.511" height="90.4436" fill="white" transform="translate(0.551636 0.576172)"/>
</clipPath>
</defs>
</svg>
