<svg width="476" height="127" viewBox="0 0 476 127" fill="none" xmlns="http://www.w3.org/2000/svg">
<path d="M142.933 48.1827V38.7656H187.301V48.1827H170.762V92.7884H159.472V48.1827H142.933Z" fill="white"/>
<path d="M206.986 93.5797C202.818 93.5797 199.231 92.7356 196.224 91.0474C193.234 89.3416 190.93 86.9324 189.312 83.8198C187.695 80.6895 186.886 76.9878 186.886 72.7145C186.886 68.5467 187.695 64.8889 189.312 61.7411C190.93 58.5933 193.208 56.1401 196.144 54.3816C199.099 52.623 202.563 51.7438 206.537 51.7438C209.21 51.7438 211.699 52.1746 214.003 53.0363C216.324 53.8804 218.346 55.1553 220.07 56.8611C221.811 58.5669 223.165 60.7124 224.132 63.2974C225.099 65.8649 225.583 68.8721 225.583 72.3188V75.4051H191.37V68.4412H215.005C215.005 66.8233 214.653 65.3901 213.95 64.1416C213.246 62.893 212.27 61.917 211.022 61.2136C209.791 60.4926 208.358 60.1321 206.722 60.1321C205.016 60.1321 203.504 60.5277 202.185 61.3191C200.884 62.0928 199.864 63.1392 199.125 64.4581C198.387 65.7594 198.008 67.2102 197.991 68.8105V75.4315C197.991 77.4362 198.36 79.1684 199.099 80.628C199.855 82.0876 200.919 83.2131 202.291 84.0044C203.662 84.7958 205.289 85.1914 207.171 85.1914C208.419 85.1914 209.562 85.0156 210.6 84.6639C211.637 84.3122 212.525 83.7846 213.264 83.0812C214.003 82.3778 214.565 81.5161 214.952 80.4961L225.345 81.1819C224.818 83.6791 223.736 85.8597 222.101 87.7238C220.483 89.5702 218.39 91.0123 215.823 92.0498C213.273 93.0698 210.327 93.5797 206.986 93.5797Z" fill="white"/>
<path d="M244.153 38.7656V92.7884H232.916V38.7656H244.153Z" fill="white"/>
<path d="M271.619 93.5797C267.452 93.5797 263.864 92.7356 260.857 91.0474C257.867 89.3416 255.564 86.9324 253.946 83.8198C252.328 80.6895 251.519 76.9878 251.519 72.7145C251.519 68.5467 252.328 64.8889 253.946 61.7411C255.564 58.5933 257.841 56.1401 260.778 54.3816C263.732 52.623 267.197 51.7438 271.171 51.7438C273.844 51.7438 276.332 52.1746 278.636 53.0363C280.957 53.8804 282.98 55.1553 284.703 56.8611C286.444 58.5669 287.798 60.7124 288.765 63.2974C289.732 65.8649 290.216 68.8721 290.216 72.3188V75.4051H256.003V68.4412H279.638C279.638 66.8233 279.287 65.3901 278.583 64.1416C277.88 62.893 276.904 61.917 275.655 61.2136C274.424 60.4926 272.991 60.1321 271.356 60.1321C269.65 60.1321 268.137 60.5277 266.819 61.3191C265.517 62.0928 264.497 63.1392 263.759 64.4581C263.02 65.7594 262.642 67.2102 262.624 68.8105V75.4315C262.624 77.4362 262.994 79.1684 263.732 80.628C264.488 82.0876 265.552 83.2131 266.924 84.0044C268.296 84.7958 269.922 85.1914 271.804 85.1914C273.053 85.1914 274.196 85.0156 275.233 84.6639C276.271 84.3122 277.159 83.7846 277.897 83.0812C278.636 82.3778 279.199 81.5161 279.586 80.4961L289.979 81.1819C289.451 83.6791 288.37 85.8597 286.734 87.7238C285.116 89.5702 283.024 91.0123 280.456 92.0498C277.906 93.0698 274.961 93.5797 271.619 93.5797Z" fill="white"/>
<path d="M315.803 108.826C312.163 108.826 309.041 108.325 306.439 107.323C303.854 106.338 301.796 104.993 300.266 103.287C298.736 101.581 297.743 99.6643 297.285 97.5365L307.678 96.1384C307.995 96.9474 308.496 97.7035 309.182 98.407C309.868 99.1104 310.774 99.6731 311.899 100.095C313.042 100.535 314.431 100.755 316.067 100.755C318.511 100.755 320.525 100.157 322.107 98.9609C323.708 97.7827 324.508 95.8043 324.508 93.0258V85.6135H324.033C323.541 86.739 322.802 87.8029 321.817 88.8053C320.832 89.8076 319.566 90.6254 318.019 91.2584C316.471 91.8915 314.625 92.2081 312.479 92.2081C309.437 92.2081 306.667 91.5046 304.17 90.0978C301.691 88.6734 299.712 86.5016 298.235 83.5824C296.775 80.6456 296.046 76.935 296.046 72.4507C296.046 67.8609 296.793 64.0272 298.288 60.9498C299.783 57.8723 301.77 55.5686 304.249 54.0387C306.746 52.5087 309.481 51.7438 312.453 51.7438C314.722 51.7438 316.621 52.1306 318.151 52.9044C319.681 53.6606 320.912 54.6102 321.844 55.7533C322.793 56.8787 323.523 57.9866 324.033 59.0769H324.455V52.2713H335.613V93.1841C335.613 96.6308 334.769 99.5149 333.081 101.836C331.393 104.157 329.054 105.898 326.064 107.059C323.092 108.237 319.672 108.826 315.803 108.826ZM316.04 83.767C317.852 83.767 319.382 83.3186 320.63 82.4217C321.896 81.5073 322.864 80.2059 323.532 78.5177C324.218 76.8119 324.561 74.772 324.561 72.398C324.561 70.0239 324.226 67.9664 323.558 66.2254C322.89 64.4669 321.923 63.104 320.657 62.1368C319.39 61.1696 317.852 60.686 316.04 60.686C314.194 60.686 312.638 61.1872 311.371 62.1896C310.105 63.1743 309.147 64.546 308.496 66.3046C307.846 68.0631 307.52 70.0943 307.52 72.398C307.52 74.7368 307.846 76.7592 308.496 78.465C309.164 80.1532 310.123 81.4633 311.371 82.3953C312.638 83.3098 314.194 83.767 316.04 83.767Z" fill="white"/>
<path d="M344.555 92.7884V52.2713H355.45V59.3407H355.872C356.61 56.826 357.85 54.9267 359.591 53.643C361.332 52.3417 363.337 51.691 365.605 51.691C366.168 51.691 366.775 51.7262 367.425 51.7965C368.076 51.8668 368.648 51.9636 369.14 52.0867V62.0577C368.612 61.8994 367.883 61.7587 366.951 61.6356C366.019 61.5125 365.166 61.451 364.392 61.451C362.739 61.451 361.262 61.8115 359.96 62.5325C358.677 63.2359 357.657 64.2207 356.9 65.4868C356.162 66.753 355.793 68.2126 355.793 69.8656V92.7884H344.555Z" fill="white"/>
<path d="M385.343 93.5534C382.758 93.5534 380.454 93.1049 378.432 92.2081C376.409 91.2936 374.809 89.9483 373.631 88.1722C372.47 86.3785 371.89 84.1451 371.89 81.4721C371.89 79.2211 372.303 77.3307 373.13 75.8008C373.956 74.2708 375.082 73.0398 376.506 72.1078C377.931 71.1758 379.548 70.4723 381.36 69.9975C383.189 69.5227 385.105 69.1886 387.11 68.9952C389.467 68.749 391.366 68.5204 392.808 68.3093C394.25 68.0807 395.296 67.7466 395.947 67.307C396.598 66.8673 396.923 66.2166 396.923 65.355V65.1967C396.923 63.5261 396.395 62.2335 395.34 61.3191C394.303 60.4046 392.825 59.9474 390.909 59.9474C388.886 59.9474 387.277 60.3958 386.081 61.2927C384.886 62.172 384.094 63.2799 383.707 64.6164L373.314 63.7723C373.842 61.3103 374.879 59.1824 376.427 57.3887C377.974 55.5774 379.97 54.1881 382.415 53.2209C384.877 52.2361 387.726 51.7438 390.961 51.7438C393.212 51.7438 395.367 52.0075 397.424 52.5351C399.499 53.0627 401.337 53.8804 402.937 54.9883C404.555 56.0962 405.83 57.5206 406.762 59.2616C407.694 60.985 408.16 63.0513 408.16 65.4605V92.7884H397.503V87.1698H397.187C396.536 88.436 395.666 89.5527 394.575 90.5199C393.485 91.4695 392.175 92.2169 390.645 92.762C389.115 93.2896 387.348 93.5534 385.343 93.5534ZM388.561 85.7981C390.214 85.7981 391.674 85.4728 392.94 84.8221C394.206 84.1539 395.2 83.257 395.921 82.1316C396.642 81.0061 397.002 79.7311 397.002 78.3067V74.007C396.65 74.2357 396.167 74.4467 395.551 74.6401C394.953 74.816 394.276 74.983 393.52 75.1413C392.764 75.282 392.008 75.4139 391.252 75.537C390.495 75.6425 389.81 75.7392 389.194 75.8271C387.875 76.0206 386.723 76.3283 385.738 76.7504C384.754 77.1724 383.989 77.744 383.444 78.465C382.898 79.1684 382.626 80.0477 382.626 81.1028C382.626 82.6327 383.18 83.8022 384.288 84.6111C385.413 85.4025 386.838 85.7981 388.561 85.7981Z" fill="white"/>
<path d="M416.878 92.7884V52.2713H427.588V59.4198H428.062C428.907 57.0458 430.313 55.1729 432.283 53.8013C434.253 52.4296 436.609 51.7438 439.352 51.7438C442.131 51.7438 444.496 52.4384 446.448 53.8276C448.4 55.1993 449.701 57.0634 450.352 59.4198H450.774C451.601 57.0985 453.095 55.2433 455.258 53.854C457.439 52.4472 460.015 51.7438 462.987 51.7438C466.768 51.7438 469.837 52.9484 472.193 55.3576C474.567 57.7492 475.754 61.1432 475.754 65.5396V92.7884H464.544V67.7554C464.544 65.5044 463.946 63.8162 462.75 62.6907C461.554 61.5653 460.059 61.0025 458.266 61.0025C456.226 61.0025 454.634 61.6532 453.491 62.9545C452.348 64.2383 451.777 65.9353 451.777 68.0455V92.7884H440.882V67.518C440.882 65.5308 440.311 63.9481 439.168 62.7699C438.042 61.5917 436.556 61.0025 434.71 61.0025C433.461 61.0025 432.336 61.3191 431.333 61.9522C430.349 62.5676 429.566 63.4381 428.986 64.5636C428.405 65.6715 428.115 66.9728 428.115 68.4676V92.7884H416.878Z" fill="white"/>
<path d="M62.9138 0.882812C50.4707 0.882812 38.3069 4.57264 27.9608 11.4857C17.6147 18.3988 9.55085 28.2246 4.78906 39.7205C0.0272597 51.2165 -1.21864 63.8664 1.2089 76.0705C3.63644 88.2746 9.6284 99.4847 18.4271 108.283C27.2257 117.082 38.4359 123.074 50.64 125.502C62.844 127.929 75.4939 126.683 86.9899 121.921C98.4859 117.16 108.312 109.096 115.225 98.7497C122.138 88.4035 125.828 76.2398 125.828 63.7966C125.828 55.5347 124.2 47.3536 121.039 39.7205C117.877 32.0875 113.243 25.1519 107.401 19.3098C101.559 13.4678 94.623 8.83356 86.9899 5.67184C79.3568 2.51013 71.1758 0.882812 62.9138 0.882812ZM93.8976 40.3409C93.5324 46.1509 82.6761 89.8751 82.6761 89.8751C82.6761 89.8751 82.0287 92.4315 79.7047 92.5228C79.1326 92.5439 78.5622 92.4481 78.0285 92.2411C77.4948 92.0342 77.0088 91.7205 76.6005 91.3193C74.1105 89.2111 68.4665 85.1774 63.1877 81.5337C61.5941 82.8783 58.4069 85.6339 55.1202 88.9206C50.4473 93.5852 51.0532 88.9206 51.0532 88.9206L52.4808 73.6902C52.5255 73.5885 52.5841 73.4935 52.6551 73.408C52.6551 73.408 80.1446 48.9729 80.875 46.4082C80.9331 46.209 80.7173 46.1094 80.4268 46.2007C78.6008 46.873 46.9613 66.8593 43.467 69.0588C43.2139 69.1331 42.9473 69.1502 42.6868 69.1086L27.3318 64.1286C27.3318 64.1286 25.4975 63.3899 26.0951 61.6967C26.2113 61.3481 26.4603 61.0576 27.1907 60.543C30.5937 58.1775 90.1627 36.7636 90.1627 36.7636C91.0205 36.4627 91.9433 36.3968 92.8352 36.5727C93.0805 36.6494 93.301 36.7897 93.4743 36.9794C93.6463 37.1698 93.7664 37.4014 93.8229 37.6517C93.9295 38.0944 93.9742 38.5497 93.9557 39.0046C93.9806 39.403 93.9391 39.7682 93.8976 40.3409Z" fill="white"/>
</svg>
