<svg width="283" height="77" viewBox="0 0 283 77" fill="none" xmlns="http://www.w3.org/2000/svg">
<path d="M79.0841 9.41797H92.0737C95.3762 9.41797 97.7978 10.2995 99.3393 11.8413C100.88 13.1632 101.541 14.9255 101.541 16.6879C101.541 17.3488 101.541 18.2304 101.322 18.8913C100.881 19.9935 100.22 21.0948 99.34 21.9764C98.8992 22.4168 98.4591 22.6374 98.019 22.8572C99.5605 23.2975 100.881 24.1791 101.982 25.2805C102.862 26.3818 103.303 27.7038 103.303 29.6867C103.303 30.788 103.083 32.11 102.643 32.9915C102.202 33.8731 101.322 34.7538 100.441 35.4148C99.3408 36.0758 98.2395 36.5169 97.1389 36.9573C95.8179 37.3977 94.2772 37.3977 92.7358 37.3977H79.3061V9.41797H79.0841ZM90.9732 20.8743C92.0737 20.8743 93.1751 20.6537 94.2757 20.2133C95.1566 19.7729 95.5967 18.8913 95.5967 18.0098C95.5967 17.1282 95.1566 16.2475 94.4961 15.8063C93.6152 15.1453 92.5146 14.9255 91.4132 15.1453H85.2491V21.0941H90.9732V20.8743ZM92.5138 32.1107C93.6144 32.1107 94.7157 31.8902 95.8163 31.4498C96.6972 31.0086 97.1373 30.1278 96.9177 29.0265C96.9177 28.1449 96.4776 27.2642 95.8163 26.8238C95.1558 26.3826 93.8348 25.9422 92.2942 25.9422H85.0286V32.1115H92.5138V32.1107Z" fill="white"/>
<path d="M117.173 9.41797H111.008V37.6183H117.173V9.41797Z" fill="white"/>
<path d="M126.639 9.41797H132.364L145.573 26.823V9.41797H151.737V37.6183H146.454L132.583 19.7729V37.6183H126.639V9.41797Z" fill="white"/>
<path d="M170.451 9.19727H176.176L188.284 37.6182H181.9L179.258 31.2291H167.369L164.727 37.6182H158.343L170.451 9.19727ZM177.056 25.9413L173.314 16.6877L169.571 25.9413H177.056Z" fill="white"/>
<path d="M194.889 9.41797H200.613L213.823 26.823V9.41797H219.988V37.6183H214.704L201.053 19.7729V37.6183H194.889V9.41797Z" fill="white"/>
<path d="M242.444 38.0592C240.462 38.0592 238.481 37.6189 236.72 36.9571C233.197 35.4154 230.556 32.7715 229.014 29.246C228.354 27.4837 227.914 25.5008 227.914 23.5179C227.914 19.7727 229.455 16.0266 232.097 13.163C233.417 11.841 234.959 10.7397 236.721 10.0787C238.702 9.19794 240.684 8.97656 242.665 8.97656C243.766 8.97656 245.087 8.97656 246.188 9.19715C247.289 9.41773 248.169 9.63753 249.05 10.0779C249.931 10.5183 250.811 10.9595 251.472 11.3999C252.132 11.8402 253.013 12.502 253.674 13.163L249.931 17.7898C248.831 16.909 247.729 16.0274 246.629 15.3665C245.528 14.7055 244.207 14.4857 242.886 14.4857C241.786 14.4857 240.685 14.7063 239.584 15.1467C238.483 15.5871 237.602 16.248 236.942 17.1296C236.281 18.0103 235.621 18.8919 235.181 19.9933C234.741 21.0946 234.52 22.1967 234.52 23.2981C234.52 24.3995 234.741 25.7214 235.181 26.8228C235.621 27.9249 236.062 28.8057 236.942 29.6864C238.483 31.4488 240.684 32.3303 242.886 32.3303C244.207 32.3303 245.749 32.1097 247.07 31.4495C248.17 30.7886 249.491 29.907 250.372 29.0263L254.335 32.9921C253.675 33.653 252.795 34.5346 252.133 35.1948C251.252 35.8558 250.372 36.2969 249.491 36.7373C248.61 37.1785 247.51 37.6189 246.409 37.8394C244.866 38.0592 243.545 38.0592 242.444 38.0592Z" fill="white"/>
<path d="M261.378 9.41797H282.513V14.9255H267.322V20.6545H280.752V26.162H267.322V32.1107H282.734V37.6183H261.378V9.41797Z" fill="white"/>
<path d="M87.0101 65.3773C85.4687 65.3773 83.9273 65.1567 82.6071 64.4965C81.2861 64.0554 79.965 63.1746 78.644 62.0724L80.8452 59.6492C81.7261 60.5307 82.6063 60.9711 83.7069 61.6321C84.8082 62.0724 85.9088 62.293 87.0094 62.293C87.8895 62.293 88.7704 62.0724 89.6514 61.6321C90.3119 61.1917 90.5315 60.5307 90.5315 59.8697C90.5315 59.6491 90.5315 59.2088 90.3111 58.989C90.0914 58.7684 89.871 58.328 89.6506 58.1074C89.2105 57.8868 88.7696 57.667 88.3296 57.4464C87.6691 57.2259 86.7881 57.006 86.1276 56.7855C85.2467 56.5649 84.1461 56.3451 83.2652 55.9039C82.6047 55.6833 81.7246 55.2429 81.2837 54.8026C80.8436 54.3622 80.4036 53.921 79.9627 53.2608C79.5226 52.3793 79.5226 51.4977 79.5226 50.8367C79.5226 49.956 79.7431 49.295 79.9627 48.4134C80.1831 47.7525 80.8436 47.0915 81.2837 46.6511C81.9442 46.2107 82.6047 45.7696 83.4856 45.5498C84.3666 45.3292 85.2467 45.1094 86.1276 45.1094C87.4486 45.1094 88.7689 45.33 90.0907 45.7703C91.1912 46.2107 92.2918 46.8717 93.3932 47.5327L91.6321 50.1766C90.7519 49.5164 89.871 49.0752 88.9901 48.6348C88.1092 48.1944 87.229 48.1944 86.3481 48.1944C85.4671 48.1944 84.587 48.415 83.9257 48.8554C83.4856 49.2958 83.0456 49.9568 83.0456 50.6177C83.0456 51.0581 83.0456 51.2787 83.266 51.7191C83.4864 51.9397 83.7061 52.38 83.9265 52.6006C84.3674 52.8212 84.8074 53.041 85.4679 53.2616C86.1284 53.4814 86.7889 53.702 87.8895 53.9226C88.7697 54.1432 89.6506 54.363 90.7519 54.8041C91.4124 55.0247 92.0729 55.4651 92.7334 55.9055C93.1735 56.3459 93.6144 57.0068 93.8348 57.448C94.0545 58.109 94.2749 58.7699 94.2749 59.6507C94.2749 60.5323 94.0545 61.413 93.8348 62.074C93.394 62.735 92.9539 63.3959 92.2934 64.0569C91.6329 64.4981 90.9732 64.9385 90.0922 65.1583C88.9917 65.1575 87.8903 65.3773 87.0101 65.3773Z" fill="white"/>
<path d="M98.0182 45.3281H101.761L107.705 54.5817L113.869 45.3281H117.612V65.1572H114.09V50.8365L107.925 60.0893H107.705L101.54 50.8365V65.1572H98.0182V45.3281Z" fill="white"/>
<path d="M129.501 45.1094H132.804L141.39 64.9377H137.648L135.666 60.0903H126.419L124.437 64.9377H120.915L129.501 45.1094ZM134.565 57.2266L131.043 49.295L127.74 57.2266H134.565Z" fill="white"/>
<path d="M144.912 45.3281H153.719C154.819 45.3281 155.92 45.5487 157.021 45.7685C157.902 45.9891 158.782 46.6501 159.443 47.311C159.883 47.7514 160.324 48.4124 160.764 49.2939C160.984 49.9549 161.204 50.8357 161.204 51.7172C161.204 52.3782 160.983 53.2598 160.764 53.9207C160.543 54.5817 160.103 55.0221 159.883 55.6831C159.443 56.1234 159.002 56.5646 158.342 57.005C157.682 57.4454 157.021 57.666 156.361 57.8866L161.645 65.377H157.462L152.618 58.5467H148.215V65.377H144.692L144.912 45.3281ZM153.499 55.0221C154.599 55.0221 155.701 54.8015 156.361 54.1413C157.022 53.4804 157.462 52.5988 157.462 51.7172C157.462 50.8357 157.022 49.9549 156.361 49.2939C155.48 48.633 154.379 48.4124 153.279 48.4124H148.216V55.0221H153.499Z" fill="white"/>
<path d="M170.231 48.4132H163.846V45.3281H179.918V48.4132H173.534V65.1572H170.011L170.231 48.4132Z" fill="white"/>
<path d="M201.274 65.378C199.953 65.378 198.632 65.1574 197.311 64.4972C194.889 63.3951 192.908 61.6327 192.027 59.2094C191.587 57.8875 191.146 56.5655 191.366 55.2436C191.366 53.9217 191.587 52.5997 192.027 51.2778C192.908 48.8545 194.889 46.8716 197.311 45.7702C198.632 45.3298 199.953 44.8887 201.494 44.8887C202.375 44.8887 203.255 44.8887 203.916 45.1093C204.576 45.3298 205.236 45.5496 205.897 45.7702C206.557 45.9908 206.998 46.4312 207.658 46.6518C208.098 47.0922 208.759 47.5333 209.2 47.9737L206.998 50.6176C206.337 49.9566 205.456 49.2957 204.576 48.8553C203.695 48.4149 202.595 48.1943 201.494 48.1943C200.613 48.1943 199.733 48.4149 198.852 48.6347C197.971 49.0751 197.311 49.5162 196.65 50.1772C195.99 50.8382 195.55 51.4992 195.329 52.3799C195.109 53.2615 194.889 54.1423 194.889 55.0238C194.889 55.9054 195.11 56.7861 195.329 57.6677C195.55 58.5492 195.99 59.2102 196.65 59.8704C197.311 60.5314 197.971 60.9718 198.852 61.4129C199.733 61.8533 200.613 62.0739 201.494 61.8533C202.595 61.8533 203.696 61.6327 204.576 61.1923C205.456 60.7519 206.337 60.091 207.218 59.2094L209.42 61.4121L207.879 62.9547C207.218 63.395 206.778 63.8362 206.118 64.056C205.457 64.2758 204.797 64.717 203.917 64.717C203.035 65.378 202.154 65.378 201.274 65.378Z" fill="white"/>
<path d="M212.943 45.3281H216.245V53.4803H225.712V45.3281H229.235V65.1572H225.712V56.7852H216.245V65.1572H212.943V45.3281Z" fill="white"/>
<path d="M241.343 45.1094H244.646L253.232 64.9377H249.49L247.508 60.0903H238.261L236.28 64.9377H232.757L241.343 45.1094ZM246.187 57.2266L242.885 49.295L239.582 57.2266H246.187Z" fill="white"/>
<path d="M260.277 45.3281H256.755V65.1572H260.277V45.3281Z" fill="white"/>
<path d="M265.561 45.3281H268.643L279.211 58.9879V45.3281H282.734V65.1572H279.871L269.084 51.0563V65.1572H265.561V45.3281Z" fill="white"/>
<path d="M40.3357 63.8362V72.4288L32.8505 76.835L25.585 72.4288V63.8362L32.8505 68.2424L40.3357 63.8362ZM0.266235 34.0933L7.53176 38.4995V53.2607L20.0813 60.7511V69.3438L0.267018 57.6669V34.0933H0.266235ZM65.4339 34.0933V57.6677L45.3992 69.3445V60.7519L57.9488 53.2615V38.4995L65.4339 34.0933ZM45.3992 22.4165L52.8844 26.8227V35.4153L40.3357 42.9057V57.8875L33.0701 62.2937L25.8046 57.8875V42.9057L12.815 35.4153V26.8227L20.3002 22.4165L32.8497 29.9069L45.3992 22.4165ZM12.815 41.5838L20.0805 45.99V54.5826L12.815 50.1764V41.5838ZM52.8844 41.5838V50.1764L45.6189 54.5826V45.99L52.8844 41.5838ZM7.53176 14.9252L15.0169 19.3314L7.53176 23.7376V32.3302L0.266235 27.924V19.3314L7.53176 14.9252ZM58.1684 14.9252L65.6536 19.3314V27.924L58.1684 32.3302V23.7384L50.9029 19.3322L58.1684 14.9252ZM32.8497 14.9252L40.3349 19.3314L32.8497 23.7376L25.5842 19.3314L32.8497 14.9252ZM32.8497 0.164062L52.8844 11.8409L45.6189 16.2471L33.0701 8.75667L20.3002 16.2471L13.0346 11.8409L32.8497 0.164062Z" fill="white"/>
</svg>
