<svg width="203" height="102" viewBox="0 0 203 102" fill="none" xmlns="http://www.w3.org/2000/svg">
<path d="M81.5395 61.1873L85.5592 71.7415H77.7706L81.5395 61.1873ZM80.0313 57.6523L71.2377 80.764H74.5033L76.764 74.4853H86.5608L88.8214 80.764H92.087L83.2935 57.6523H80.0279H80.0313ZM127.5 80.7842H130.53V57.6692H127.5V80.7808V80.7842ZM96.6117 67.2C97.6167 65.6918 99.6417 64.436 101.636 64.436C105.656 64.436 107.666 67.2 107.666 71.2197V81.0165H104.636V71.7213C104.636 68.4557 102.877 67.1983 100.616 67.1983C98.1031 67.1983 96.3458 69.7115 96.3458 71.9721V80.7657H93.3158V64.7087H96.3458L96.5983 67.2219L96.6117 67.2ZM110.179 76.0104C110.179 72.4755 113.445 70.4824 117.215 70.4824C119.476 70.4824 120.986 70.9874 121.486 71.4874V70.9824C121.486 68.4692 119.476 67.2118 117.466 67.2118C115.707 67.2118 114.201 67.9659 113.696 69.4724L110.932 68.2167C111.437 66.7085 113.445 64.4461 117.463 64.4461C121.233 64.4461 124.499 66.7068 124.499 71.2298V80.7775H121.735V78.5168H121.482C120.728 79.7725 118.969 81.2808 116.207 81.2808C112.941 81.2808 110.177 79.2709 110.177 76.0053M121.482 73.9955C121.482 73.9955 120.227 72.9905 117.712 72.9905C114.682 72.9905 113.441 74.7496 113.441 76.0205C113.441 77.7795 115.2 78.5336 116.707 78.5336C118.968 78.5336 121.481 76.5238 121.481 74.0106" fill="white"/>
<path fill-rule="evenodd" clip-rule="evenodd" d="M134.802 87.8218L138.337 79.5316L132.059 64.9593H135.089L139.862 76.0135L144.636 64.9593H147.666L137.869 87.8218H134.839H134.802ZM179.023 70.2313C178.269 68.2215 176.509 66.9657 174.752 66.9657C172.239 66.9657 169.978 69.2264 169.978 72.4937C169.978 75.761 172.239 78.0216 174.752 78.0216C176.511 78.0216 178.287 76.7659 179.023 74.9917L181.536 76.4999C180.28 79.2639 177.765 81.023 174.752 81.023C170.482 81.023 166.963 77.2524 166.963 72.4802C166.963 67.4556 170.498 63.9375 174.752 63.9375C177.782 63.9375 180.28 65.6965 181.536 68.4605L179.023 70.2196V70.2313Z" fill="white"/>
<path d="M189.824 81.2864C193.844 81.2864 195.854 79.0258 195.854 76.2618C195.854 70.2322 187.06 72.4912 187.06 68.9765C187.06 67.7207 188.065 66.9666 189.824 66.9666C191.583 66.9666 193.359 67.7207 194.095 68.9765L195.854 67.2174C194.849 65.9617 192.083 64.1875 189.575 64.1875C185.805 64.1875 183.796 66.4482 183.796 69.2121C183.796 74.9909 192.841 72.9827 192.841 75.9958C192.841 77.5041 191.836 78.509 189.811 78.509C187.786 78.509 186.781 77.2532 185.791 75.9958L183.559 77.7717C185.067 79.2799 187.33 81.3066 189.838 81.3066L189.824 81.2864ZM161.183 80.7848H164.213V64.706H161.183V80.7848Z" fill="white"/>
<path fill-rule="evenodd" clip-rule="evenodd" d="M162.439 56.9316C163.694 56.9316 164.449 57.9366 164.449 58.9415C164.449 60.1972 163.444 60.9514 162.439 60.9514C161.434 60.9514 160.429 59.9464 160.429 58.9415C160.429 57.9366 161.434 56.9316 162.439 56.9316ZM158.168 78.2876L158.673 80.5483H155.643C152.879 80.5483 151.624 78.5384 151.624 75.5236V67.7047H148.594V64.6748H151.624V59.9313H154.653V64.7051H158.188V67.735H154.653V76.0253C154.653 78.2859 156.413 78.2859 158.188 78.2859L158.168 78.2876Z" fill="white"/>
<path d="M86.5137 32.1171V35.8877H95.3072C95.0547 37.8976 94.3023 39.4226 93.2973 40.4107C92.0416 41.6665 90.0317 43.1747 86.5137 43.1747C81.2382 43.1747 76.966 38.9042 76.966 33.3779C76.966 28.1025 81.2365 23.5811 86.5137 23.5811C89.5436 23.5811 91.5383 24.8369 93.0448 26.0943L95.558 23.5811C93.2973 21.5713 90.5334 19.8105 86.5137 19.8105C79.2283 19.8105 72.9463 25.8401 72.9463 33.1086C72.9463 40.3771 79.225 46.4066 86.5137 46.4066C90.5334 46.4066 93.5498 45.1509 95.8088 42.636C98.322 40.1229 99.0744 36.8573 99.0744 34.0933C99.0744 33.3392 99.0744 32.3343 98.8219 31.8326H86.512L86.5137 32.1171ZM108.871 29.0872C104.097 29.0872 100.328 32.6221 100.328 37.6299C100.328 42.6377 104.099 46.1726 108.871 46.1726C109.996 46.1828 111.111 45.9687 112.152 45.543C113.193 45.1172 114.139 44.4884 114.934 43.6931C115.73 42.8978 116.359 41.952 116.784 40.911C117.21 39.87 117.424 38.7546 117.414 37.6299C117.414 32.6053 113.643 29.0872 108.871 29.0872ZM108.871 42.8902C106.358 42.8902 104.097 40.6296 104.097 37.6148C104.097 34.6 106.358 32.3562 108.871 32.3562C111.384 32.3562 113.647 34.3761 113.647 37.6249C113.647 40.8736 111.386 42.9003 108.873 42.9003L108.871 42.8902ZM150.061 30.8446C149.057 29.8396 147.548 28.8347 145.288 28.8347C141.017 28.8347 137.248 32.6053 137.248 37.3774C137.248 42.1496 141.019 45.9202 145.288 45.9202C147.297 45.9202 149.058 44.9152 149.811 43.9103H150.063V45.166C150.063 48.4316 148.304 50.1907 145.54 50.1907C143.279 50.1907 141.77 48.4316 141.27 47.1607L138.004 48.4165C139.009 50.6771 141.539 53.4411 145.542 53.4411C150.065 53.4411 153.832 50.928 153.832 44.3968V28.8212H150.297V30.8311L150.061 30.8446ZM145.791 42.9037C143.278 42.9037 141.268 40.643 141.268 37.6282C141.268 34.6135 143.278 32.3528 145.791 32.3528C148.304 32.3528 150.314 34.6135 150.314 37.6282C150.314 40.643 148.304 42.9037 145.791 42.9037ZM127.448 29.1007C122.674 29.1007 118.905 32.6356 118.905 37.6434C118.905 42.6512 122.676 46.1861 127.448 46.1861C128.573 46.1962 129.688 45.9822 130.729 45.5564C131.77 45.1307 132.716 44.5018 133.511 43.7065C134.306 42.9112 134.935 41.9655 135.361 40.9245C135.787 39.8835 136.001 38.768 135.991 37.6434C136.243 32.6187 132.22 29.1007 127.448 29.1007ZM127.448 42.9037C124.935 42.9037 122.674 40.643 122.674 37.6282C122.674 34.6135 124.935 32.3528 127.448 32.3528C129.961 32.3528 132.222 34.3626 132.222 37.6282C132.222 40.8938 129.961 42.9037 127.448 42.9037ZM156.626 20.058H160.397V46.1861H156.626V20.058ZM170.695 42.9205C168.685 42.9205 167.43 41.9156 166.425 40.4074L177.982 35.6335L177.477 34.6286C176.723 32.6187 174.447 29.1007 170.192 29.1007C165.669 29.1007 162.153 32.6356 162.153 37.6434C162.142 38.768 162.357 39.8835 162.782 40.9245C163.208 41.9655 163.837 42.9112 164.632 43.7065C165.427 44.5018 166.373 45.1307 167.414 45.5564C168.455 45.9822 169.571 46.1962 170.695 46.1861C174.715 46.1861 176.974 43.673 177.981 42.4155L174.951 40.4057C173.946 41.9139 172.69 42.9188 170.68 42.9188L170.695 42.9205ZM170.443 32.3663C171.951 32.3663 173.207 33.1204 173.708 34.3761L165.92 37.6417C165.92 33.8711 168.433 32.3663 170.443 32.3663Z" fill="white"/>
<path d="M49.3138 28.2729V72.4044C49.3138 77.3424 52.724 80.094 56.3347 80.094C59.6781 80.094 63.3557 77.7537 63.3557 72.4044V28.6072C63.3557 24.0804 60.0124 21.252 56.3347 21.252C52.6571 21.252 49.3138 24.3712 49.3138 28.2729Z" fill="white"/>
<path d="M30.9257 50.6713V72.4027C30.9257 77.3408 34.3358 80.0923 37.9466 80.0923C41.2899 80.0923 44.9676 77.752 44.9676 72.4027V51.0056C44.9676 46.4788 41.6243 43.6504 37.9466 43.6504C34.269 43.6504 30.9257 46.7697 30.9257 50.6713Z" fill="white"/>
<path d="M19.5584 80.0907C23.4359 80.0907 26.5793 76.9473 26.5793 73.0697C26.5793 69.1922 23.4359 66.0488 19.5584 66.0488C15.6808 66.0488 12.5374 69.1922 12.5374 73.0697C12.5374 76.9473 15.6808 80.0907 19.5584 80.0907Z" fill="white"/>
</svg>
