<svg width="512" height="143" viewBox="0 0 512 143" fill="none" xmlns="http://www.w3.org/2000/svg">
<path fill-rule="evenodd" clip-rule="evenodd" d="M178.918 84.2526L173.758 75.2951H166.216V84.2526H161.773V57.3443H175.156C176.786 57.3264 178.398 57.7742 179.796 58.6162C181.193 59.4582 182.34 60.6586 183.11 62.1097C183.88 63.5608 184.221 65.191 184.131 66.8213C184.042 68.4516 183.504 70.046 182.573 71.3896C181.605 72.8228 180.244 73.9336 178.649 74.5964L184.131 84.2526H178.918ZM175.138 61.9126H166.216V70.8522H175.156C175.747 70.8522 176.32 70.7268 176.858 70.4939C177.395 70.261 177.879 69.9206 178.273 69.4906C178.882 68.8636 179.312 68.0754 179.473 67.1975C179.635 66.3376 179.545 65.4419 179.223 64.6178C178.882 63.8116 178.327 63.1129 177.592 62.6113C176.858 62.1097 176.016 61.8409 175.138 61.8409V61.9126ZM222.72 57.3443L209.302 84.2526H214.282L222.702 67.3946L231.104 84.2526H236.085L222.72 57.3443ZM279.188 57.3443H273.509L265.877 67.2692L258.281 57.3443H252.584L263.763 71.6942V84.2526H268.206V71.4792L279.188 57.3443ZM301.958 57.3443H310.862C314.409 57.3622 317.795 58.7954 320.285 61.3214C322.793 63.8295 324.209 67.2513 324.227 70.7984C324.209 74.3635 322.793 77.7674 320.285 80.2934C317.777 82.8194 314.391 84.2347 310.844 84.2526H301.94V57.3443H301.958ZM310.862 79.6843C313.227 79.6843 315.484 78.7348 317.15 77.0508C318.816 75.3668 319.766 73.0916 319.766 70.7268C319.73 68.362 318.798 66.0868 317.132 64.4207C315.466 62.7546 313.209 61.7872 310.862 61.7693H306.365V79.6843H310.862ZM353.948 57.3443H349.505V84.2526H353.948V57.3443ZM401.494 73.0199C401.512 74.5068 401.243 75.9759 400.67 77.3374C400.115 78.699 399.273 79.9351 398.198 80.9562C396.639 82.5328 394.651 83.5898 392.483 84.0197C390.315 84.4497 388.076 84.2347 386.033 83.3748C383.991 82.5328 382.253 81.0817 381.035 79.2364C379.817 77.3912 379.172 75.2234 379.172 73.002V57.3443H383.615V73.002C383.615 74.7935 384.314 76.4954 385.586 77.7495C386.84 79.0035 388.541 79.7201 390.315 79.7201C392.089 79.7201 393.791 79.0035 395.045 77.7495C396.299 76.4954 396.997 74.7756 396.997 73.002V57.3443H401.476V73.0199H401.494ZM431.179 84.2526V68.1649L440.137 77.1404L449.058 68.1649V84.2526H453.573V57.3443L440.137 70.7984L426.754 57.3443V84.2526H431.179Z" fill="white"/>
<path d="M128.756 56.5029V96.5071L84.488 122.197L40.2021 96.5071V45.1269L84.5059 19.4009L118.526 39.1612L123.668 36.1873L84.5059 13.4531L35.0784 42.1351V99.481L84.5059 128.163L133.933 99.481V53.529L128.756 56.5029Z" fill="white"/>
<path d="M72.1087 96.542H64.7098V71.5685H89.3967C91.7256 71.5506 93.965 70.6011 95.6132 68.9171C97.2614 67.251 98.175 64.9937 98.193 62.6468C98.2109 61.4823 97.978 60.3358 97.5301 59.2609C97.0822 58.186 96.4194 57.2186 95.5953 56.4124C94.7891 55.5883 93.8217 54.9254 92.7647 54.4776C91.7077 54.0297 90.5612 53.7968 89.3967 53.8147H64.7098V46.2188H89.4146C93.7321 46.2367 97.8884 47.9923 100.934 51.0558C103.997 54.1372 105.717 58.2935 105.753 62.6468C105.771 65.979 104.768 69.2216 102.869 71.9447C101.113 74.5424 98.6408 76.5847 95.7565 77.8029C92.8901 78.7166 89.9162 79.1644 86.9244 79.1465H72.1087V96.542Z" fill="white"/>
<path d="M105.574 95.9156H96.9389L90.2745 84.2351C92.908 84.0738 95.5057 83.5364 97.9959 82.6406L105.574 95.9156Z" fill="white"/>
<path d="M123.596 48.189L128.702 51.0375L133.808 48.189V42.1516L128.702 39.1777L123.596 42.1516V48.189Z" fill="white"/>
</svg>
