<svg width="310" height="162" viewBox="0 0 310 162" fill="none" xmlns="http://www.w3.org/2000/svg">
<path fill-rule="evenodd" clip-rule="evenodd" d="M0.30262 147.084H10.5029V106.675L26.433 141.907C28.2374 146.142 30.8297 147.71 35.849 147.71C40.8682 147.71 43.3057 146.14 45.1699 141.907L61.0209 106.675V147.084H71.3003V106.675C71.3003 102.753 69.7298 100.866 66.4341 99.8462C58.666 97.4931 53.4867 99.5332 51.1336 104.788L35.5201 139.627L20.4535 104.788C18.1778 99.5332 12.9194 97.4931 5.07391 99.8462C1.85553 100.866 0.286792 102.752 0.286792 106.675L0.285034 147.084H0.30262ZM79.7912 114.208H90.0707V136.414C89.9933 137.668 90.4629 140.494 96.0502 140.57C98.952 140.649 118.178 140.57 118.333 140.57V114.049H128.612V150.38C128.612 159.325 117.532 161.284 112.369 161.365H80.0445V154.541H112.452C119.043 153.834 118.259 150.54 118.259 149.441V146.771H96.5215C86.3986 146.692 79.8844 142.22 79.8088 137.12V114.204L79.7912 114.208ZM300.283 88.4694C294.008 88.3111 289.14 88.9407 285.06 90.6677C283.885 91.1426 282 91.1426 281.845 92.6304C282.473 93.2547 282.549 94.2765 283.099 95.1418C284.04 96.7123 285.69 98.828 287.179 99.9254C288.829 101.183 290.477 102.437 292.2 103.536C295.261 105.418 298.713 106.517 301.694 108.4C303.421 109.5 305.146 110.912 306.873 112.09C307.752 112.718 308.285 113.74 309.384 114.13V113.893C308.836 113.189 308.677 112.169 308.131 111.381C307.344 110.599 306.56 109.89 305.774 109.107C303.5 106.047 300.674 103.378 297.614 101.183C295.102 99.4558 289.612 97.1027 288.592 94.2009L288.437 94.0426C290.16 93.8843 292.2 93.2565 293.85 92.7851C296.52 92.0817 298.95 92.2365 301.694 91.5312C302.951 91.2147 304.205 90.8242 305.463 90.432V89.7286C304.05 88.3164 303.03 86.4328 301.541 85.0997C297.54 81.6475 293.143 78.2726 288.592 75.4481C286.159 73.8794 283.02 72.8576 280.431 71.5263C279.487 71.055 277.92 70.8193 277.371 70.0349C275.956 68.3114 275.173 66.034 274.153 63.9921C271.879 59.6763 269.681 54.891 267.72 50.3395C266.307 47.2794 265.442 44.2193 263.719 41.3949C255.636 28.0554 246.846 19.9742 233.35 12.0479C230.448 10.4 226.996 9.69128 223.325 8.82953L217.441 8.51297C216.183 7.96426 214.93 6.4729 213.83 5.76591C209.358 2.94148 197.823 -3.17871 194.525 4.90416C192.406 10.0043 197.665 15.0253 199.45 17.6159C200.786 19.4203 202.51 21.4603 203.454 23.5004C203.982 24.8335 204.158 26.2474 204.708 27.6597C205.962 31.1119 207.14 34.9582 208.788 38.1765C209.668 39.8244 210.591 41.5532 211.69 43.0428C212.318 43.9045 213.417 44.2985 213.651 45.7107C212.552 47.2812 212.476 49.6325 211.848 51.597C209.022 60.4642 210.121 71.4489 214.122 77.9595C215.38 79.9205 218.343 84.238 222.363 82.5884C225.895 81.1761 225.107 76.7038 226.127 72.7802C226.364 71.8393 226.206 71.2115 226.676 70.5819V70.7402L229.894 77.2525C232.326 81.097 236.565 85.0997 240.094 87.7694C241.976 89.1816 243.468 91.6156 245.821 92.4774V92.24H245.666C245.195 91.5365 244.488 91.2199 243.86 90.6712C242.448 89.259 240.879 87.532 239.78 85.9633C236.486 81.5701 233.584 76.7038 230.993 71.6828C229.736 69.2506 228.637 66.5827 227.62 64.1504C227.145 63.2078 227.145 61.7938 226.363 61.326C225.184 63.0495 223.461 64.5444 222.594 66.6618C221.103 70.0349 220.948 74.1942 220.399 78.51C220.082 78.5891 220.223 78.51 220.082 78.6683C217.575 78.0422 216.709 75.4499 215.768 73.2551C213.415 67.6836 213.021 58.739 215.061 52.304C215.61 50.6561 217.967 45.4768 217.026 43.9081C216.551 42.4167 214.986 41.555 214.121 40.3766C213.101 38.8853 212.005 37.0035 211.298 35.3556C209.416 30.9589 208.475 26.0962 206.433 21.7013C205.489 19.6612 203.843 17.542 202.508 15.6602C201.017 13.541 199.372 12.0497 198.194 9.54003C197.802 8.67828 197.253 7.2643 197.881 6.32165C198.036 5.69381 198.352 5.45991 198.977 5.30162C199.997 4.43987 202.902 5.53728 203.922 6.00509C206.824 7.1834 209.256 8.28082 211.688 9.92694C212.787 10.7113 213.966 12.2027 215.378 12.5966H217.028C219.539 13.1453 222.362 12.7549 224.713 13.4584C228.872 14.795 232.638 16.7541 236.014 18.8751C246.292 25.3874 254.769 34.6469 260.495 45.7125C261.436 47.5169 261.828 49.1647 262.693 51.0483C264.343 54.8945 266.383 58.8163 268.027 62.5852C269.677 66.2731 271.246 70.042 273.599 73.1021C274.777 74.7499 279.483 75.6117 281.601 76.4752C283.171 77.1787 285.602 77.8118 287.018 78.6736C289.684 80.3214 292.352 82.205 294.861 84.0094C296.115 84.9485 300.041 86.9112 300.275 88.4764L300.283 88.4694ZM220.264 20.282C219.18 20.2724 218.099 20.4043 217.049 20.6742V20.8325H217.204C217.831 22.0882 218.931 22.9517 219.715 24.0509L221.521 27.8179L221.676 27.6597C222.775 26.8753 223.325 25.6196 223.325 23.7378C222.854 23.1891 222.777 22.6386 222.385 22.0899C221.913 21.3056 220.893 20.9116 220.264 20.2855V20.282Z" fill="white"/>
<path fill-rule="evenodd" clip-rule="evenodd" d="M136.445 147.084H165.948C169.4 147.084 172.698 146.381 175.364 145.123C179.836 143.083 181.956 140.34 181.956 136.729V129.197C181.956 126.295 179.523 123.546 174.661 121.664C172.149 120.723 169.01 120.173 165.95 120.173H153.551C149.392 120.173 147.431 118.915 146.881 116.172C146.803 115.859 146.803 115.544 146.803 115.231V110.6C146.803 110.363 146.803 110.052 146.881 109.739C147.429 107.619 148.528 107.069 152.157 106.679H182.365V99.8496H153.646C149.487 99.8496 147.29 100.087 145.328 100.715C139.285 102.597 136.617 105.579 136.617 110.834V116.801C136.617 121.427 141.796 125.354 150.584 126.295C151.525 126.374 152.545 126.374 153.565 126.374H164.16C164.552 126.374 164.942 126.374 165.255 126.453C168.474 126.766 169.886 127.315 170.827 128.49C171.455 129.117 171.613 129.668 171.613 130.375V136.337C171.613 137.04 171.141 137.986 170.201 138.769C169.26 139.552 167.765 140.102 165.804 140.181C165.412 140.181 165.18 140.26 164.784 140.26H136.445V147.084ZM245.825 135.238C245.825 142.22 251.101 146.141 261.601 146.929C262.621 147.008 263.562 147.084 264.582 147.084H291.261V140.26H264.348C258.381 140.26 256.107 138.769 256.107 135.16V99.8496H245.806V135.239L245.825 135.238ZM188.466 135.549V111.226C188.466 105.027 192.859 101.258 201.415 100.084C202.356 100.004 203.297 99.9252 204.159 99.9252H223.617C224.637 99.9252 225.502 100.004 226.522 100.084C235.075 101.258 239.389 105.025 239.389 111.226V135.549C239.389 140.57 237.586 143.24 233.346 145.046L243.388 154.145H231.541L223.381 146.771L215.14 147.242H204.155C202.143 147.232 200.139 146.969 198.192 146.46C191.685 144.652 188.466 141.201 188.466 135.549ZM199.528 135.004C199.528 135.317 199.704 135.628 199.766 136.024C200.314 138.846 202.981 140.417 207.061 140.417H216.322L207.849 132.726H219.695L227.148 139.476C228.564 138.69 229.426 137.591 229.739 136.179C229.818 135.866 229.818 135.475 229.818 135.159V111.853C229.818 111.54 229.818 111.228 229.739 110.912C229.19 108.246 226.524 106.756 222.521 106.756H207.062C202.511 106.756 199.53 108.717 199.53 111.853L199.528 135.004Z" fill="white"/>
</svg>
