<svg width="470" height="265" viewBox="0 0 470 265" fill="none" xmlns="http://www.w3.org/2000/svg">
<path d="M88.1997 104.307L123.45 92.8496V172.165C98.2709 161.589 88.1997 141.319 88.1997 129.864V104.307Z" fill="white"/>
<path d="M158.703 104.307L123.453 92.8496V172.165C148.632 161.589 158.703 141.319 158.703 129.864V104.307Z" fill="white"/>
<path d="M220.607 111.561H234.587V119.392C239.168 112.354 244.439 111.561 252.155 111.561V125.4H248.641C239.395 125.4 234.968 129.751 234.968 138.37V153.08H220.607V111.561Z" fill="white"/>
<path d="M298.802 153.076H284.443V149.118C281.307 152.757 277.034 154.338 271.766 154.338C261.76 154.338 256.104 148.405 256.104 137.495V111.557H270.463V134.256C270.463 139.393 272.983 142.397 277.259 142.397C281.534 142.397 284.441 139.469 284.441 134.491V111.557H298.799V153.076H298.802Z" fill="white"/>
<path d="M302.311 140.262H315.76C316.372 143.266 318.434 144.53 323.395 144.53C327.446 144.53 329.813 143.583 329.813 141.843C329.813 140.496 328.666 139.625 325.387 138.915L314.539 136.463C307.282 134.806 303.614 130.613 303.614 123.888C303.614 115.027 310.105 110.441 322.71 110.441C335.314 110.441 341.5 114.91 342.574 124.483H329.208C328.981 121.955 326.38 120.408 322.104 120.408C318.668 120.408 316.458 121.513 316.458 123.177C316.458 124.6 317.905 125.706 320.814 126.423L332.193 129.193C339.677 131.008 343.272 134.808 343.272 140.975C343.272 149.518 335.861 154.579 323.264 154.579C310.667 154.579 302.333 149.123 302.333 140.262H302.318H302.311Z" fill="white"/>
<path d="M381.507 124.471V111.557H346.063V124.478H356.64V153.076H370.925V124.471H381.507Z" fill="white"/>
<path d="M216.609 124.471V111.557H181.169V124.478H191.745V153.076H206.033V124.471H216.609Z" fill="white"/>
</svg>
