<svg width="318" height="62" viewBox="0 0 318 62" fill="none" xmlns="http://www.w3.org/2000/svg">
<path d="M278.991 31.0549C277.36 29.9794 275.564 29.2146 273.863 28.2586C272.76 27.6372 271.585 27.0874 270.628 26.2987C268.998 24.9603 269.333 22.3313 271.036 21.1841C273.48 19.5589 277.528 20.4669 277.96 23.7892C277.96 23.8608 278.032 23.9088 278.104 23.9088H281.795C281.891 23.9088 281.962 23.837 281.938 23.7415C281.747 21.4469 280.859 19.5349 279.231 18.316C277.672 17.1448 275.9 16.5234 274.005 16.5234C264.253 16.5234 263.366 26.8245 268.614 30.0751C269.213 30.4575 274.365 33.0386 276.187 34.1619C278.008 35.2852 278.583 37.3407 277.792 38.9659C277.073 40.4478 275.204 41.4755 273.336 41.356C271.298 41.2365 269.717 40.1372 269.165 38.4163C269.069 38.1057 269.021 37.508 269.021 37.2452C269.021 37.1734 268.95 37.1017 268.878 37.1017H264.877C264.805 37.1017 264.733 37.1734 264.733 37.2452C264.733 40.1372 265.452 41.7384 267.417 43.1965C269.261 44.5826 271.274 45.1562 273.36 45.1562C278.823 45.1562 281.651 42.073 282.224 38.8704C282.728 35.7393 281.795 32.9191 278.991 31.0549Z" fill="white"/>
<path d="M105.241 17.0488H103.468H101.527C101.455 17.0488 101.407 17.0966 101.383 17.1444L98.1006 27.9474C98.0526 28.0909 97.861 28.0909 97.813 27.9474L94.5302 17.1444C94.5062 17.0727 94.4582 17.0488 94.3863 17.0488H92.4455H90.6722H88.276C88.2041 17.0488 88.1322 17.1205 88.1322 17.1922V44.7735C88.1322 44.845 88.2041 44.9168 88.276 44.9168H92.2777C92.3496 44.9168 92.4215 44.845 92.4215 44.7735V23.8126C92.4215 23.6453 92.6611 23.6215 92.7091 23.7649L96.0157 34.6396L96.2553 35.4044C96.2793 35.4761 96.3273 35.5001 96.3992 35.5001H99.4664C99.5382 35.5001 99.5861 35.4521 99.6101 35.4044L99.8497 34.6396L103.157 23.7649C103.204 23.5976 103.444 23.6453 103.444 23.8126V44.7735C103.444 44.845 103.516 44.9168 103.588 44.9168H107.59C107.661 44.9168 107.733 44.845 107.733 44.7735V17.1922C107.733 17.1205 107.661 17.0488 107.59 17.0488H105.241Z" fill="white"/>
<path d="M217.719 17.0488C217.647 17.0488 217.599 17.0966 217.575 17.1444L214.293 27.9474C214.245 28.0909 214.054 28.0909 214.006 27.9474L210.722 17.1444C210.698 17.0727 210.651 17.0488 210.579 17.0488H204.492C204.42 17.0488 204.348 17.1205 204.348 17.1922V44.7735C204.348 44.845 204.42 44.9168 204.492 44.9168H208.494C208.566 44.9168 208.638 44.845 208.638 44.7735V23.8126C208.638 23.6453 208.878 23.6215 208.926 23.7649L212.231 34.6396L212.471 35.4044C212.495 35.4761 212.543 35.5001 212.615 35.5001H215.682C215.754 35.5001 215.802 35.4521 215.826 35.4044L216.066 34.6396L219.373 23.7649C219.421 23.5976 219.661 23.6453 219.661 23.8126V44.7735C219.661 44.845 219.733 44.9168 219.805 44.9168H223.805C223.877 44.9168 223.949 44.845 223.949 44.7735V17.1922C223.949 17.1205 223.877 17.0488 223.805 17.0488H217.719Z" fill="white"/>
<path d="M166.105 17.0488H158.652H154.651H147.199C147.127 17.0488 147.055 17.1205 147.055 17.1922V20.6338C147.055 20.7056 147.127 20.7773 147.199 20.7773H154.507V44.7735C154.507 44.845 154.579 44.9168 154.651 44.9168H158.652C158.724 44.9168 158.796 44.845 158.796 44.7735V20.7773H166.105C166.177 20.7773 166.248 20.7056 166.248 20.6338V17.1922C166.248 17.1205 166.201 17.0488 166.105 17.0488Z" fill="white"/>
<path d="M189.708 44.9147H193.349C193.445 44.9147 193.517 44.8191 193.493 44.7236L185.969 17.0468C185.945 16.9751 185.897 16.9512 185.826 16.9512H184.436H181.992H180.602C180.53 16.9512 180.482 16.999 180.458 17.0468L172.934 44.7236C172.91 44.8191 172.982 44.9147 173.078 44.9147H176.72C176.792 44.9147 176.84 44.8669 176.864 44.8191L179.045 36.7646C179.068 36.693 179.116 36.6691 179.188 36.6691H187.24C187.312 36.6691 187.36 36.7168 187.384 36.7646L189.564 44.8191C189.588 44.8669 189.66 44.9147 189.708 44.9147ZM180.147 32.7255L183.07 21.9463C183.118 21.803 183.31 21.803 183.358 21.9463L186.281 32.7255C186.305 32.8211 186.233 32.9166 186.137 32.9166H180.291C180.195 32.9166 180.123 32.8211 180.147 32.7255Z" fill="white"/>
<path d="M251.818 44.9147H255.459C255.555 44.9147 255.627 44.8191 255.603 44.7236L248.079 17.0468C248.055 16.9751 248.007 16.9512 247.935 16.9512H246.546H244.102H242.712C242.64 16.9512 242.592 16.999 242.568 17.0468L235.044 44.7236C235.02 44.8191 235.092 44.9147 235.188 44.9147H238.831C238.903 44.9147 238.951 44.8669 238.975 44.8191L241.155 36.7646C241.179 36.693 241.227 36.6691 241.299 36.6691H249.35C249.422 36.6691 249.47 36.7168 249.494 36.7646L251.674 44.8191C251.698 44.8669 251.746 44.9147 251.818 44.9147ZM242.256 32.7255L245.18 21.9463C245.227 21.803 245.419 21.803 245.467 21.9463L248.391 32.7255C248.415 32.8211 248.343 32.9166 248.247 32.9166H242.4C242.304 32.9166 242.232 32.8211 242.256 32.7255Z" fill="white"/>
<path d="M123.98 40.8313V32.2749C123.98 32.2033 124.051 32.1315 124.123 32.1315H134.786C134.858 32.1315 134.93 32.0598 134.93 31.988V28.5464C134.93 28.4748 134.858 28.4031 134.786 28.4031H124.123C124.051 28.4031 123.98 28.3313 123.98 28.2596V20.9462C123.98 20.8744 124.051 20.8027 124.123 20.8027H136.248C136.32 20.8027 136.392 20.7309 136.392 20.6593V17.2176C136.392 17.1459 136.32 17.0742 136.248 17.0742H123.98H119.834C119.762 17.0742 119.69 17.1459 119.69 17.2176V20.8027V28.4269V32.1555V40.9986V44.7748C119.69 44.8466 119.762 44.9183 119.834 44.9183H123.98H136.751C136.823 44.9183 136.895 44.8466 136.895 44.7748V41.1421C136.895 41.0703 136.823 40.9986 136.751 40.9986H124.099C124.028 40.9748 123.98 40.9268 123.98 40.8313Z" fill="white"/>
<path d="M315.556 44.6793L301.706 30.4106C301.658 30.3629 301.658 30.2673 301.706 30.2195L314.167 17.3132C314.263 17.2176 314.191 17.0742 314.071 17.0742H308.968C308.92 17.0742 308.896 17.0981 308.872 17.122L298.305 28.0685C298.209 28.164 298.065 28.0923 298.065 27.9728V17.2176C298.065 17.1459 297.993 17.0742 297.921 17.0742H293.918C293.846 17.0742 293.775 17.1459 293.775 17.2176V44.7988C293.775 44.8706 293.846 44.9423 293.918 44.9423H297.921C297.993 44.9423 298.065 44.8706 298.065 44.7988V32.6574C298.065 32.5379 298.233 32.4661 298.305 32.5617L310.285 44.8943C310.309 44.9183 310.357 44.9423 310.381 44.9423H315.484C315.58 44.9183 315.652 44.751 315.556 44.6793Z" fill="white"/>
<path d="M60.7914 2.20703L36.5656 20.1324L41.0706 9.56839L60.7914 2.20703Z" fill="#E17726" stroke="#E17726" stroke-width="0.461124" stroke-linecap="round" stroke-linejoin="round"/>
<path d="M4.91159 2.20703L28.9217 20.2997L24.6325 9.56837L4.91159 2.20703Z" fill="#E27625" stroke="#E27625" stroke-width="0.461124" stroke-linecap="round" stroke-linejoin="round"/>
<path d="M52.0686 43.7715L45.6228 53.6185L59.425 57.4187L63.3789 43.9867L52.0686 43.7715Z" fill="#E27625" stroke="#E27625" stroke-width="0.461124" stroke-linecap="round" stroke-linejoin="round"/>
<path d="M2.3475 43.9867L6.27727 57.4187L20.0556 53.6185L13.6337 43.7715L2.3475 43.9867Z" fill="#E27625" stroke="#E27625" stroke-width="0.461124" stroke-linecap="round" stroke-linejoin="round"/>
<path d="M19.3126 27.1391L15.4787 32.9231L29.1371 33.5445L28.6819 18.8457L19.3126 27.1391Z" fill="#E27625" stroke="#E27625" stroke-width="0.461124" stroke-linecap="round" stroke-linejoin="round"/>
<path d="M46.3896 27.1346L36.8768 18.6738L36.5653 33.5399L50.2236 32.9185L46.3896 27.1346Z" fill="#E27625" stroke="#E27625" stroke-width="0.461124" stroke-linecap="round" stroke-linejoin="round"/>
<path d="M20.0557 53.6143L28.3226 49.623L21.206 44.0781L20.0557 53.6143Z" fill="#E27625" stroke="#E27625" stroke-width="0.461124" stroke-linecap="round" stroke-linejoin="round"/>
<path d="M37.3804 49.623L45.6232 53.6143L44.497 44.0781L37.3804 49.623Z" fill="#E27625" stroke="#E27625" stroke-width="0.461124" stroke-linecap="round" stroke-linejoin="round"/>
<path d="M45.6232 53.6183L37.3804 49.627L38.0512 54.9806L37.9793 57.2512L45.6232 53.6183Z" fill="#D5BFB2" stroke="#D5BFB2" stroke-width="0.461124" stroke-linecap="round" stroke-linejoin="round"/>
<path d="M20.0557 53.6183L27.7237 57.2512L27.6757 54.9806L28.3226 49.627L20.0557 53.6183Z" fill="#D5BFB2" stroke="#D5BFB2" stroke-width="0.461124" stroke-linecap="round" stroke-linejoin="round"/>
<path d="M27.8672 40.5429L21.0139 38.5353L25.8543 36.3125L27.8672 40.5429Z" fill="#233447" stroke="#233447" stroke-width="0.461124" stroke-linecap="round" stroke-linejoin="round"/>
<path d="M37.8356 40.5429L39.8485 36.3125L44.7128 38.5353L37.8356 40.5429Z" fill="#233447" stroke="#233447" stroke-width="0.461124" stroke-linecap="round" stroke-linejoin="round"/>
<path d="M20.0556 53.6185L21.2537 43.7715L13.6338 43.9867L20.0556 53.6185Z" fill="#CC6228" stroke="#CC6228" stroke-width="0.461124" stroke-linecap="round" stroke-linejoin="round"/>
<path d="M44.4489 43.7715L45.6231 53.6185L52.0688 43.9867L44.4489 43.7715Z" fill="#CC6228" stroke="#CC6228" stroke-width="0.461124" stroke-linecap="round" stroke-linejoin="round"/>
<path d="M50.2236 32.918L36.5653 33.5394L37.8352 40.5424L39.8481 36.3118L44.7124 38.5346L50.2236 32.918Z" fill="#CC6228" stroke="#CC6228" stroke-width="0.461124" stroke-linecap="round" stroke-linejoin="round"/>
<path d="M21.014 38.5346L25.8543 36.3118L27.8672 40.5424L29.1371 33.5394L15.4787 32.918L21.014 38.5346Z" fill="#CC6228" stroke="#CC6228" stroke-width="0.461124" stroke-linecap="round" stroke-linejoin="round"/>
<path d="M15.4792 32.918L21.2061 44.0796L21.0143 38.5346L15.4792 32.918Z" fill="#E27525" stroke="#E27525" stroke-width="0.461124" stroke-linecap="round" stroke-linejoin="round"/>
<path d="M44.7128 38.5346L44.4971 44.0796L50.2241 32.918L44.7128 38.5346Z" fill="#E27525" stroke="#E27525" stroke-width="0.461124" stroke-linecap="round" stroke-linejoin="round"/>
<path d="M29.1379 33.543L27.8678 40.546L29.4732 48.8154L29.8327 37.9168L29.1379 33.543Z" fill="#E27525" stroke="#E27525" stroke-width="0.461124" stroke-linecap="round" stroke-linejoin="round"/>
<path d="M36.5656 33.543L35.8946 37.893L36.2301 48.8154L37.8356 40.546L36.5656 33.543Z" fill="#E27525" stroke="#E27525" stroke-width="0.461124" stroke-linecap="round" stroke-linejoin="round"/>
<path d="M37.8356 40.5429L36.2301 48.8123L37.3804 49.625L44.4972 44.0801L44.7128 38.5352L37.8356 40.5429Z" fill="#F5841F" stroke="#F5841F" stroke-width="0.461124" stroke-linecap="round" stroke-linejoin="round"/>
<path d="M21.0139 38.5352L21.2058 44.0801L28.3224 49.625L29.4726 48.8123L27.8672 40.5429L21.0139 38.5352Z" fill="#F5841F" stroke="#F5841F" stroke-width="0.461124" stroke-linecap="round" stroke-linejoin="round"/>
<path d="M37.9794 57.2521L38.0512 54.9815L37.4283 54.4556H28.2748L27.6757 54.9815L27.7237 57.2521L20.0557 53.6191L22.7395 55.818L28.1789 59.5704H37.5L42.9634 55.818L45.6232 53.6191L37.9794 57.2521Z" fill="#C0AC9D" stroke="#C0AC9D" stroke-width="0.461124" stroke-linecap="round" stroke-linejoin="round"/>
<path d="M37.3802 49.625L36.2299 48.8125H29.4726L28.3226 49.625L27.6755 54.9788L28.2746 54.453H37.4281L38.0512 54.9788L37.3802 49.625Z" fill="#161616" stroke="#161616" stroke-width="0.461124" stroke-linecap="round" stroke-linejoin="round"/>
<path d="M61.8216 21.3035L63.8585 11.4087L60.7913 2.20703L37.3804 19.535L46.39 27.1352L59.1139 30.8399L61.9175 27.5655L60.6955 26.6811L62.6363 24.9126L61.1507 23.7653L63.0917 22.2834L61.8216 21.3035Z" fill="#763E1A" stroke="#763E1A" stroke-width="0.461124" stroke-linecap="round" stroke-linejoin="round"/>
<path d="M1.84448 11.4087L3.90523 21.3035L2.58732 22.2834L4.5522 23.7653L3.06655 24.9126L5.00748 26.6811L3.78541 27.5655L6.58898 30.8399L19.313 27.1352L28.3226 19.535L4.91164 2.20703L1.84448 11.4087Z" fill="#763E1A" stroke="#763E1A" stroke-width="0.461124" stroke-linecap="round" stroke-linejoin="round"/>
<path d="M59.114 30.8412L46.3901 27.1367L50.2241 32.9207L44.4971 44.0821L52.0692 43.9865H63.3792L59.114 30.8412Z" fill="#F5841F" stroke="#F5841F" stroke-width="0.461124" stroke-linecap="round" stroke-linejoin="round"/>
<path d="M19.3126 27.1367L6.58879 30.8412L2.3475 43.9865H13.6337L21.2056 44.0821L15.4787 32.9207L19.3126 27.1367Z" fill="#F5841F" stroke="#F5841F" stroke-width="0.461124" stroke-linecap="round" stroke-linejoin="round"/>
<path d="M36.5654 33.5386L37.3802 19.5328L41.0702 9.56641H24.6323L28.3224 19.5328L29.1371 33.5386L29.4486 37.9363L29.4726 48.811H36.2299L36.2539 37.9363L36.5654 33.5386Z" fill="#F5841F" stroke="#F5841F" stroke-width="0.461124" stroke-linecap="round" stroke-linejoin="round"/>
</svg>
