<svg width="287" height="37" viewBox="0 0 287 37" fill="none" xmlns="http://www.w3.org/2000/svg">
<mask id="mask0_1256_251" style="mask-type:luminance" maskUnits="userSpaceOnUse" x="0" y="0" width="287" height="37">
<path d="M286.173 0.205078H0V36.2051H286.173V0.205078Z" fill="white"/>
</mask>
<g mask="url(#mask0_1256_251)">
<path d="M69.4945 13.0409C71.0738 13.0409 72.3419 13.5443 73.2968 14.553C74.2517 15.5617 74.7282 16.9047 74.7282 18.5821V26.7996H70.5954V18.9298C70.5954 18.2516 70.4244 17.7156 70.0863 17.3236C69.7462 16.9316 69.2543 16.7338 68.6126 16.7338C67.9324 16.7338 67.4041 16.9566 67.0294 17.4024C66.6528 17.8481 66.4645 18.4649 66.4645 19.2488V26.7977H62.3318V18.9279C62.3318 18.2497 62.1608 17.7136 61.8226 17.3217C61.4845 16.9297 60.9907 16.7318 60.349 16.7318C59.6688 16.7318 59.1404 16.9547 58.7658 17.4005C58.3892 17.8462 58.2009 18.4629 58.2009 19.2469V26.7958H54.0681V13.4118H58.2009V14.6433C58.9541 13.5712 60.1837 13.0371 61.8918 13.0371C63.4903 13.0371 64.6912 13.627 65.5 14.8047C66.3454 13.627 67.6769 13.0371 69.4945 13.0371" fill="white"/>
<path d="M88.9942 25.1282C90.4083 23.7641 91.1154 22.0906 91.1154 20.1097C91.1154 18.1288 90.4083 16.4553 88.9942 15.0912C87.5801 13.727 85.8528 13.0449 83.8162 13.0449C81.7796 13.0449 80.0523 13.727 78.6382 15.0912C77.2241 16.4553 76.5171 18.1288 76.5171 20.1097C76.5171 22.0906 77.2241 23.7641 78.6382 25.1282C80.0523 26.4943 81.7796 27.1763 83.8162 27.1763C85.8528 27.1763 87.5801 26.4923 88.9942 25.1282ZM81.5567 22.3826C80.9515 21.7928 80.648 21.0338 80.648 20.1058C80.648 19.1778 80.9515 18.4189 81.5567 17.831C82.162 17.2431 82.9151 16.9472 83.8162 16.9472C84.7173 16.9472 85.4705 17.2411 86.0757 17.831C86.6809 18.4208 86.9845 19.1778 86.9845 20.1058C86.9845 21.0338 86.6809 21.7928 86.0757 22.3826C85.4686 22.9705 84.7173 23.2645 83.8162 23.2645C82.9151 23.2645 82.162 22.9705 81.5567 22.3826Z" fill="white"/>
<path d="M97.2386 26.8029H92.8484V13.3439H97.0196V16.5871C97.6825 14.1048 99.4232 13.0039 101.079 13.0039C101.767 13.0039 102.515 13.0673 103.262 13.5168L102.065 17.6612C101.018 17.2577 100.42 17.2615 99.9189 17.2615C98.2627 17.2615 97.2406 18.2203 97.2406 22.1705V26.8009L97.2386 26.8029Z" fill="white"/>
<path d="M113.787 15.3418C113.864 14.5944 112.817 13.0977 109.683 13.0439C107.866 13.0131 106.313 13.7259 105.028 15.0901C103.743 16.4542 103.099 18.1277 103.099 20.1086C103.099 22.0895 103.743 23.763 105.028 25.1271C106.313 26.4932 107.921 27.1753 109.683 27.1753C111.445 27.1753 113.265 26.5624 113.787 25.2174V26.8025H117.92V13.4185H113.787V15.3418ZM108.14 22.4911C107.535 21.9031 107.232 21.1077 107.232 20.1086C107.232 19.1095 107.535 18.316 108.14 17.7262C108.748 17.1382 109.537 16.8443 110.509 16.8443C111.482 16.8443 112.273 17.1382 112.878 17.7262C113.484 18.3141 113.787 19.1095 113.787 20.1086C113.787 21.1077 113.486 21.9031 112.878 22.4911C112.271 23.079 111.484 23.3729 110.509 23.3729C109.535 23.3729 108.746 23.079 108.14 22.4911Z" fill="white"/>
<path d="M125.106 7.25977H120.973V26.7997H125.106V7.25977Z" fill="white"/>
<path d="M132.026 11.5297C132.512 11.057 132.756 10.4903 132.756 9.82927C132.756 9.16833 132.512 8.60154 132.026 8.12889C131.538 7.65624 130.958 7.41992 130.278 7.41992C129.598 7.41992 129.014 7.65624 128.529 8.12889C128.043 8.60154 127.799 9.16833 127.799 9.82927C127.799 10.4903 128.041 11.057 128.529 11.5297C129.016 12.0023 129.6 12.2387 130.278 12.2387C130.956 12.2387 131.54 12.0023 132.026 11.5297ZM128.212 26.8004H132.345V13.4164H128.212V26.8004Z" fill="white"/>
<path d="M139.291 17.3255C139.291 17.5925 139.525 17.8116 139.994 17.9806C140.461 18.1497 141.028 18.3207 141.687 18.4898C142.346 18.6589 143.008 18.8779 143.671 19.145C144.332 19.412 144.897 19.8539 145.366 20.4688C145.835 21.0836 146.069 21.856 146.069 22.784C146.069 24.2288 145.518 25.324 144.415 26.0618C143.314 26.8015 141.954 27.1723 140.338 27.1723C137.437 27.1723 135.463 26.1117 134.416 23.9867L137.998 22.0058C138.365 23.0587 139.145 23.5852 140.34 23.5852C141.331 23.5852 141.827 23.3085 141.827 22.7552C141.827 22.4881 141.592 22.2652 141.124 22.0865C140.655 21.9078 140.09 21.7349 139.429 21.5639C138.768 21.3949 138.107 21.172 137.444 20.8953C136.783 20.6186 136.218 20.1863 135.75 19.5965C135.281 19.0066 135.046 18.2842 135.046 17.4273C135.046 16.0363 135.565 14.9545 136.603 14.1879C137.64 13.4213 138.922 13.0371 140.445 13.0371C141.585 13.0371 142.622 13.283 143.558 13.7729C144.494 14.2648 145.247 14.9738 145.817 15.8998L142.292 17.7462C141.85 16.9604 141.235 16.5685 140.445 16.5685C139.656 16.5685 139.289 16.8182 139.289 17.3178V17.3235L139.291 17.3255Z" fill="white"/>
<path d="M41.8235 4.62829C40.5996 3.2334 39.1106 2.10942 37.5178 1.38316C32.5588 -0.908993 26.5182 0.23612 22.6716 4.0615C18.8271 0.247648 12.746 -0.893623 7.82935 1.37932C5.11643 2.61857 2.81083 4.91841 1.50048 7.68705L1.49088 7.70818C0.418772 10.131 -0.0923027 12.7863 0.0133706 15.3858H0.0172133C-0.0173707 16.8422 0.232403 18.2851 0.781904 19.6224C2.51302 24.8407 6.64005 29.4039 12.4098 32.4819C12.7441 32.6548 13.0957 32.7393 13.4435 32.7393C14.0737 32.7393 14.6827 32.4607 15.1227 31.9362C15.8298 31.0927 15.8624 29.9034 15.1977 29.0427L14.7154 28.4221C12.9997 26.03 11.0841 23.223 10.012 20.1661L9.99277 20.1162C8.94757 17.628 9.12241 14.7364 10.4404 12.7536C11.232 11.5643 12.3214 10.9072 13.5088 10.9072C15.7798 10.9072 16.7559 12.3309 18.2852 14.846C18.4985 15.1956 18.7156 15.553 18.9423 15.9123L19.0019 16.0084C19.0077 16.0199 19.0153 16.0333 19.0211 16.0449H19.023C19.5764 17.3956 20.7657 18.2947 22.2989 18.435C24.2222 18.6118 25.9341 17.4897 26.4874 15.699L26.5278 15.6087L26.5316 15.5799C27.9668 11.6008 30.2993 10.9937 31.2408 10.9187C32.651 10.8054 33.9748 11.5489 34.6915 12.8593C35.9039 15.0727 35.1949 18.2813 32.7913 21.4476C31.4502 23.2479 29.8978 24.81 28.3011 25.9666C27.6652 26.4277 27.1426 26.9792 26.7468 27.6055C25.2808 29.9265 25.7266 32.8642 27.8323 34.7471C28.7431 35.5618 30.0572 36.1996 31.5367 36.1996C32.6914 36.1996 33.9479 35.8115 35.191 34.8182C39.9579 31.0159 43.3356 26.5027 44.9553 21.78C45.1339 21.2824 45.28 20.7713 45.3952 20.2545V20.2507C45.3972 20.2411 45.3991 20.2314 45.401 20.2199C45.4567 20.022 45.522 19.7338 45.6239 19.2919L45.6469 19.1882C45.8218 18.312 45.9371 17.4205 45.9928 16.5329C46.2291 12.1599 44.669 7.70818 41.8177 4.6206L41.8235 4.62829ZM8.55177 2.95097C12.8556 0.960462 18.1796 1.98261 21.5188 5.35263C20.3891 6.71485 19.5821 8.24424 19.1191 9.8985C17.655 6.59765 14.7634 4.55143 11.3166 4.30166C10.8093 4.26516 10.2925 4.26708 9.76413 4.30935H9.76029C9.58353 4.3228 9.41061 4.34393 9.23577 4.36891C9.19158 4.37467 9.14931 4.38236 9.10512 4.38812C8.93604 4.41502 8.76696 4.44384 8.60173 4.48035C8.59596 4.48035 8.5902 4.48227 8.58443 4.48419C8.40383 4.52261 8.22322 4.56873 8.04454 4.61868C8.01764 4.62637 7.99074 4.63405 7.96384 4.64174C7.60263 4.74549 7.24719 4.8723 6.89943 5.01832C6.88213 5.026 6.86484 5.03369 6.84755 5.03945C6.49402 5.19124 6.14818 5.36224 5.81195 5.55437C5.79466 5.56398 5.77929 5.57358 5.762 5.58319C5.59676 5.67734 5.43537 5.77724 5.2759 5.881C5.2759 5.881 5.27014 5.88484 5.26821 5.88676C5.1049 5.99436 4.94351 6.10579 4.78404 6.22299C4.76675 6.23452 4.75138 6.24797 4.73408 6.26142C4.45357 6.46892 4.18074 6.68988 3.91944 6.9262C5.08569 5.19892 6.71114 3.79059 8.55369 2.94904L8.55177 2.95097ZM13.5088 9.18185C11.722 9.18185 10.1215 10.1118 8.99944 11.7987C7.374 14.2446 7.13575 17.7606 8.38654 20.7637C9.53742 24.0338 11.5337 26.958 13.3186 29.4442L13.8297 30.1013C14.0967 30.4472 13.8278 30.7892 13.7951 30.8257C13.6817 30.9621 13.4858 31.0927 13.2148 30.9525C7.83511 28.0839 3.99821 23.857 2.41311 19.0517L2.39006 18.9922C1.90973 17.8336 1.69838 16.5771 1.74449 15.3071C1.74449 15.2629 1.74833 15.2187 1.75218 15.1764C1.75794 15.0458 1.76755 14.9132 1.77908 14.7825C1.78292 14.7422 1.78676 14.6999 1.7906 14.6596C1.94431 13.2109 2.42849 11.7622 3.23737 10.4403C4.59191 8.22502 6.6535 6.6918 8.888 6.19225C8.91106 6.18649 8.93412 6.18072 8.95909 6.17688C9.08398 6.14998 9.21079 6.12693 9.33568 6.10771C9.37026 6.10195 9.40484 6.09619 9.43943 6.09042C9.58929 6.06929 9.74108 6.05007 9.89094 6.03855C9.89094 6.03855 9.89478 6.03855 9.89863 6.03855C12.504 5.8272 14.8326 6.83013 16.3908 8.73225C16.8923 9.34516 17.315 10.0522 17.6397 10.8419C17.6647 10.9034 17.6915 10.9706 17.7165 11.0379C17.7184 11.0436 17.7204 11.0494 17.7223 11.0552C16.6982 9.95998 15.4032 9.18569 13.5069 9.18569L13.5088 9.18185ZM22.4584 16.7173C21.686 16.6462 20.8252 16.1813 20.5255 15.1149C20.5236 15.1034 20.5198 15.09 20.5178 15.0804C20.4929 14.9459 20.466 14.8114 20.441 14.6807C20.4391 14.6596 20.4333 14.6384 20.4314 14.6173C20.2911 13.0553 20.3929 11.7103 20.7445 10.4903C21.1749 8.88212 21.9761 7.41422 23.1232 6.13077L23.1462 6.10387C25.3365 3.43898 28.7623 1.96148 32.1688 1.96148C33.7577 1.96148 35.3428 2.28234 36.7973 2.95481C38.1749 3.585 39.466 4.56104 40.5304 5.77724L40.5458 5.79454C41.1914 6.4939 41.7639 7.27012 42.2539 8.1059C42.2212 8.06747 42.1866 8.03097 42.152 7.99254C42.056 7.88302 41.9599 7.77351 41.8638 7.66784C41.8408 7.64478 41.8196 7.6198 41.7966 7.59675C40.1289 5.82336 38.1461 4.71283 36.096 4.39773C36.096 4.39773 36.0941 4.39773 36.0921 4.39773C35.9269 4.37275 35.7617 4.35162 35.5964 4.33625C35.5503 4.3324 35.5023 4.33048 35.4562 4.32664C35.3313 4.31703 35.2064 4.30743 35.0815 4.3055C34.9124 4.30166 34.7415 4.30166 34.5724 4.30935C34.5647 4.30935 34.557 4.30935 34.5512 4.30935C30.8066 4.31895 27.2944 7.0972 25.8053 11.2281C25.7784 11.2953 25.7515 11.3683 25.7266 11.4414C25.7246 11.449 25.7227 11.4548 25.7189 11.4606C25.6939 11.5317 25.6689 11.6066 25.6439 11.6854C25.6401 11.6969 25.6363 11.7065 25.6343 11.718C25.6094 11.7949 25.5863 11.8737 25.5613 11.9543C25.5575 11.9659 25.5556 11.9755 25.5517 11.987C25.5267 12.0696 25.5037 12.1561 25.4806 12.2425C25.4806 12.2483 25.4787 12.2522 25.4768 12.2579C25.4537 12.3463 25.4288 12.4347 25.4076 12.5231C25.4076 12.5288 25.4057 12.5346 25.4038 12.5384C25.3807 12.6268 25.3596 12.7171 25.3365 12.8055C25.3327 12.817 25.3308 12.8305 25.3269 12.842C25.3058 12.9285 25.2847 13.0168 25.2654 13.1033C25.2616 13.1168 25.2597 13.1302 25.2558 13.1437C25.2366 13.2301 25.2174 13.3166 25.1982 13.4011C25.1963 13.4126 25.1944 13.4222 25.1905 13.4338C25.1521 13.6125 25.1156 13.7854 25.081 13.9506C25.081 13.9583 25.0771 13.9679 25.0752 13.9756C25.0599 14.0563 25.0426 14.1331 25.0291 14.2081C25.0291 14.2177 25.0253 14.2254 25.0234 14.235C25.008 14.3099 24.9945 14.3829 24.9811 14.4521C24.9811 14.4578 24.9792 14.4636 24.9772 14.4694C24.9638 14.5405 24.9503 14.6077 24.9388 14.6692V14.673C24.9023 14.8709 24.8754 15.0246 24.8581 15.1188L24.8466 15.1572C24.4969 16.3523 23.3941 16.8019 22.4565 16.7154L22.4584 16.7173ZM34.117 33.4713C32.1227 35.0641 30.161 34.5127 28.989 33.4637C27.792 32.3935 27.0388 30.3934 28.2128 28.5335C28.4914 28.0935 28.8641 27.7016 29.3195 27.3711C31.0563 26.1146 32.7375 24.4238 34.1766 22.4909C36.999 18.7712 37.7599 14.8613 36.2113 12.0331C35.2333 10.2463 33.4676 9.18185 31.5309 9.18185C31.3906 9.18185 31.2485 9.18761 31.1044 9.19914C30.0092 9.28752 28.9871 9.68908 28.0725 10.3692C28.0763 10.3635 28.0783 10.3558 28.0821 10.35C28.1705 10.1886 28.2627 10.0311 28.3569 9.87929C28.3742 9.85047 28.3934 9.82165 28.4107 9.79283C28.5048 9.64489 28.6009 9.50079 28.7008 9.36053C28.7181 9.33555 28.7373 9.31057 28.7565 9.28368C28.8603 9.1415 28.964 9.00508 29.0735 8.87251C29.0831 8.85906 29.0947 8.84753 29.1062 8.83408C29.2138 8.70535 29.3233 8.58047 29.4347 8.46135C29.4463 8.4479 29.4578 8.43637 29.4693 8.42292C29.5827 8.30188 29.6999 8.18852 29.8171 8.07708C29.8382 8.05787 29.8593 8.03673 29.8786 8.01752C29.9938 7.90992 30.111 7.80809 30.2302 7.71011C30.2513 7.69281 30.2744 7.67552 30.2955 7.65631C30.4165 7.55832 30.5395 7.46417 30.6625 7.37579C30.6759 7.36619 30.6913 7.35658 30.7047 7.34505C30.8296 7.25667 30.9545 7.17405 31.0813 7.09528C31.0909 7.08951 31.1005 7.08375 31.1101 7.07799C31.2389 6.99921 31.3676 6.92428 31.4982 6.85511C31.5194 6.84358 31.5424 6.83206 31.5636 6.82053C31.6904 6.75328 31.8153 6.6918 31.944 6.63416C31.967 6.62263 31.992 6.61302 32.0151 6.60342C32.1438 6.5477 32.2706 6.4939 32.3993 6.44587C32.4166 6.4401 32.4339 6.43242 32.4512 6.42666C32.5819 6.37862 32.7125 6.33443 32.8413 6.296C32.847 6.296 32.8547 6.29216 32.8605 6.29024C32.993 6.25181 33.1237 6.21723 33.2543 6.18841C33.2755 6.18457 33.2966 6.1788 33.3177 6.17304C33.4426 6.14614 33.5675 6.12308 33.6924 6.10387C33.7155 6.10003 33.7404 6.09619 33.7635 6.09234C33.8884 6.07505 34.0113 6.05968 34.1324 6.05007C34.1516 6.05007 34.1708 6.04815 34.1881 6.04623C34.3149 6.03662 34.4417 6.03278 34.5647 6.03086H34.5666H34.607C34.607 6.03086 34.6146 6.03086 34.6204 6.03086C34.7626 6.0251 34.9067 6.02318 35.0489 6.02702C35.0854 6.02702 35.1219 6.03278 35.1584 6.03278C35.2717 6.03855 35.3851 6.04431 35.4985 6.05776C35.533 6.0616 35.5657 6.06737 35.6003 6.07121C35.7194 6.08658 35.8385 6.10195 35.9577 6.12308C35.9826 6.12693 36.0076 6.13269 36.0345 6.13845C36.1632 6.16343 36.2939 6.19225 36.4226 6.22492C36.438 6.22876 36.4534 6.2326 36.4687 6.23644C36.6109 6.27295 36.7531 6.31522 36.8933 6.36325C36.8972 6.36325 36.901 6.36517 36.903 6.36709C38.1115 6.77057 39.2892 7.52374 40.3306 8.5651C40.3498 8.58431 40.3671 8.60352 40.3863 8.62274C40.4901 8.72841 40.5919 8.83408 40.6918 8.94552C40.7341 8.99163 40.7744 9.03967 40.8167 9.0877C40.8897 9.17032 40.9608 9.25293 41.0319 9.33939C41.1337 9.46236 41.2317 9.58725 41.3297 9.71405C41.3681 9.76593 41.4085 9.81396 41.4469 9.86584C41.5603 10.0195 41.6698 10.1771 41.7774 10.3366C41.81 10.3865 41.8446 10.4346 41.8773 10.4845C41.9791 10.6402 42.0771 10.7977 42.1712 10.9572C42.2001 11.0052 42.227 11.0513 42.2558 11.0994C42.3557 11.2723 42.4518 11.4471 42.5421 11.6239C42.5574 11.6527 42.5709 11.6815 42.5862 11.7103C42.6862 11.9102 42.7841 12.11 42.8744 12.3136C43.5469 13.8334 43.9235 15.4723 43.9696 17.0978C43.9696 17.1112 43.9696 17.1227 43.9696 17.1362C43.9754 17.3437 43.9735 17.5493 43.9696 17.7568C43.9696 17.799 43.9677 17.8394 43.9658 17.8817C43.9581 18.0642 43.9466 18.2467 43.9312 18.4292C43.9254 18.4926 43.9197 18.5541 43.912 18.6175C43.8947 18.7847 43.8755 18.9499 43.8505 19.1152C43.8409 19.1843 43.8274 19.2535 43.8159 19.3246C43.789 19.4898 43.7583 19.6531 43.7237 19.8164C43.6219 20.2891 43.4912 20.7521 43.3279 21.2075C41.81 25.6304 38.6264 29.8708 34.117 33.4675V33.4713Z" fill="white"/>
<path d="M165.74 26.8178H163.713V24.8696C163.298 25.5363 162.702 26.0858 161.926 26.52C161.152 26.9523 160.335 27.1694 159.478 27.1694C157.928 27.1694 156.702 26.4797 155.803 25.0982C154.901 23.7168 154.452 21.9665 154.452 19.8434C154.452 17.8606 154.921 16.2178 155.86 14.9132C156.8 13.6106 158.045 12.9573 159.595 12.9573C161.301 12.9573 162.673 13.6509 163.713 15.0362V8.49023H165.74V26.8197V26.8178ZM163.713 22.6735V17.0498C162.742 15.4916 161.574 14.7115 160.206 14.7115C159.09 14.7115 158.206 15.2072 157.557 16.1986C156.907 17.19 156.583 18.4447 156.583 19.9587C156.583 21.4727 156.888 22.8061 157.499 23.8225C158.11 24.8408 158.948 25.348 160.012 25.348C160.523 25.348 161.038 25.2097 161.557 24.933C162.078 24.6563 162.566 24.2394 163.025 23.686C163.484 23.1327 163.713 22.7945 163.713 22.6735Z" fill="white"/>
<path d="M180.365 20.1159H171.077C171.077 21.6491 171.521 22.9133 172.409 23.9086C173.296 24.9038 174.386 25.4014 175.675 25.4014C176.964 25.4014 178.173 25.1805 179.481 24.7386L179.833 26.3621C178.637 26.8982 177.243 27.1671 175.65 27.1671C173.64 27.1671 172.02 26.5216 170.791 25.2324C169.561 23.9412 168.946 22.2024 168.946 20.0102C168.946 17.8179 169.498 16.1502 170.602 14.8725C171.707 13.5949 173.133 12.957 174.883 12.957C176.441 12.957 177.746 13.5507 178.793 14.7361C179.84 15.9235 180.365 17.5028 180.365 19.478V20.1139V20.1159ZM178.157 18.4674C178.157 17.4106 177.829 16.521 177.17 15.7986C176.511 15.0762 175.775 14.7131 174.962 14.7131C173.915 14.7131 173.046 15.0589 172.357 15.7525C171.669 16.4461 171.285 17.3511 171.208 18.4674H178.157Z" fill="white"/>
<path d="M194.108 13.2832L188.976 26.819H187.132L182.027 13.2832H184.234L188.066 24.0523L191.897 13.2832H194.104H194.108Z" fill="white"/>
<path d="M207.202 20.1159H197.914C197.914 21.6491 198.358 22.9133 199.246 23.9086C200.134 24.9038 201.223 25.4014 202.512 25.4014C203.801 25.4014 205.01 25.1805 206.318 24.7386L206.67 26.3621C205.475 26.8982 204.08 27.1671 202.487 27.1671C200.478 27.1671 198.858 26.5216 197.628 25.2324C196.399 23.9412 195.784 22.2024 195.784 20.0102C195.784 17.8179 196.335 16.1502 197.44 14.8725C198.545 13.5949 199.97 12.957 201.721 12.957C203.279 12.957 204.583 13.5507 205.631 14.7361C206.678 15.9235 207.202 17.5028 207.202 19.478V20.1139V20.1159ZM204.995 18.4674C204.995 17.4106 204.666 16.521 204.007 15.7986C203.348 15.0762 202.612 14.7131 201.799 14.7131C200.752 14.7131 199.884 15.0589 199.194 15.7525C198.506 16.4461 198.122 17.3511 198.045 18.4674H204.995Z" fill="white"/>
<path d="M217.574 26.8178H212.04V10.2425H208.507V8.48828H214.067V25.0636H217.574V26.8178Z" fill="white"/>
<path d="M226.147 12.957C228.008 12.957 229.49 13.6064 230.589 14.9053C231.688 16.2041 232.239 17.9141 232.239 20.0371C232.239 22.1602 231.69 23.899 230.589 25.2074C229.49 26.5159 228.008 27.1691 226.147 27.1691C224.285 27.1691 222.794 26.5178 221.697 25.2132C220.602 23.9105 220.054 22.1852 220.054 20.0371C220.054 17.8891 220.603 16.1945 221.704 14.8995C222.803 13.6045 224.285 12.957 226.147 12.957ZM226.147 25.4015C227.376 25.4015 228.346 24.8827 229.055 23.8433C229.766 22.8039 230.12 21.5435 230.12 20.064C230.12 18.5058 229.768 17.2243 229.067 16.2195C228.366 15.2146 227.392 14.7131 226.145 14.7131C224.898 14.7131 223.914 15.2088 223.222 16.2002C222.529 17.1916 222.183 18.4809 222.183 20.064C222.183 21.6472 222.534 22.8365 223.236 23.8644C223.937 24.8904 224.907 25.4034 226.145 25.4034L226.147 25.4015Z" fill="white"/>
<path d="M237.336 15.0378C237.786 14.4134 238.395 13.9119 239.162 13.5315C239.928 13.1511 240.735 12.9609 241.584 12.9609C243.143 12.9609 244.366 13.6045 245.254 14.8899C246.142 16.1752 246.586 17.8487 246.586 19.9103C246.586 21.9719 246.121 23.7184 245.189 25.0998C244.257 26.4813 243.004 27.171 241.429 27.171C240.589 27.171 239.803 26.9616 239.071 26.5408C238.339 26.1201 237.761 25.5648 237.336 24.8712V32.1723H235.309V13.2856H237.336V15.0397V15.0378ZM237.336 17.0514V22.6751C237.717 23.4379 238.234 24.0738 238.881 24.5849C239.531 25.096 240.201 25.3515 240.895 25.3515C241.986 25.3515 242.854 24.8405 243.5 23.8183C244.146 22.7962 244.468 21.5281 244.468 20.0121C244.468 18.4962 244.161 17.1801 243.546 16.1925C242.931 15.205 242.074 14.7112 240.973 14.7112C239.544 14.7112 238.332 15.4913 237.336 17.0495V17.0514Z" fill="white"/>
<path d="M260.483 20.1159H251.195C251.195 21.6491 251.639 22.9133 252.526 23.9086C253.414 24.9038 254.503 25.4014 255.793 25.4014C257.082 25.4014 258.29 25.1805 259.599 24.7386L259.95 26.3621C258.755 26.8982 257.361 27.1671 255.768 27.1671C253.758 27.1671 252.138 26.5216 250.909 25.2324C249.679 23.9412 249.064 22.2024 249.064 20.0102C249.064 17.8179 249.616 16.1502 250.72 14.8725C251.825 13.5949 253.251 12.957 255.001 12.957C256.559 12.957 257.864 13.5507 258.911 14.7361C259.958 15.9235 260.483 17.5028 260.483 19.478V20.1139V20.1159ZM258.275 18.4674C258.275 17.4106 257.947 16.521 257.287 15.7986C256.628 15.0762 255.893 14.7131 255.08 14.7131C254.033 14.7131 253.164 15.0589 252.475 15.7525C251.787 16.4461 251.402 17.3511 251.326 18.4674H258.275Z" fill="white"/>
<path d="M273.452 13.6449L272.633 15.5931C271.742 15.2031 270.971 15.009 270.322 15.009C269.724 15.009 269.14 15.18 268.568 15.522C267.997 15.864 267.47 16.3539 266.99 16.9899C266.51 17.6259 266.27 17.9832 266.27 18.062V26.8175H264.256V13.2817H266.27V16.0235C267.351 13.9792 268.754 12.957 270.477 12.957C271.5 12.957 272.491 13.1857 273.452 13.6449Z" fill="white"/>
<path d="M284.937 15.2204C283.802 14.8477 282.733 14.6613 281.729 14.6613C280.63 14.6613 279.759 14.8457 279.118 15.2127C278.476 15.5816 278.157 16.0716 278.157 16.6864C278.157 17.0764 278.305 17.4165 278.599 17.7066C278.893 17.9967 279.483 18.2676 280.366 18.5193L282.301 19.0784C283.193 19.3301 283.921 19.6299 284.484 19.9815C285.047 20.3331 285.469 20.7558 285.75 21.2553C286.031 21.7529 286.173 22.3313 286.173 22.9903C286.173 24.2814 285.631 25.2997 284.549 26.049C283.467 26.7984 282.09 27.173 280.418 27.173C278.747 27.173 277.383 26.9213 276.301 26.4199L276.691 24.6657C277.824 25.2037 279.043 25.4707 280.341 25.4707C281.467 25.4707 282.382 25.2613 283.089 24.8405C283.794 24.4197 284.148 23.8645 284.148 23.1709C284.148 22.704 283.973 22.2851 283.621 21.9182C283.27 21.5493 282.445 21.1669 281.146 20.7692C280.099 20.4484 279.329 20.2082 278.835 20.0487C278.341 19.8892 277.882 19.6529 277.458 19.3417C277.033 19.0304 276.71 18.6577 276.489 18.2254C276.268 17.7931 276.159 17.307 276.159 16.7709C276.159 15.6028 276.67 14.6748 277.692 13.9908C278.714 13.3068 280.069 12.9648 281.757 12.9648C282.849 12.9648 284.061 13.1511 285.395 13.5239L284.939 15.2262L284.937 15.2204Z" fill="white"/>
</g>
</svg>
