<svg width="306" height="129" viewBox="0 0 306 129" fill="none" xmlns="http://www.w3.org/2000/svg">
<path d="M131.559 63.1906H115.505C115.092 63.1906 114.758 63.5247 114.758 63.9436V71.7925C114.758 72.2062 115.092 72.5456 115.505 72.5456H121.769V82.2983C121.769 82.2983 120.363 82.7756 116.476 82.7756C111.889 82.7756 105.482 81.0998 105.482 67.0142C105.482 52.9234 112.154 51.0726 118.417 51.0726C123.837 51.0726 126.176 52.0272 127.661 52.4886C128.127 52.6317 128.557 52.1651 128.557 51.7514L130.349 44.1677C130.349 43.9715 130.286 43.7381 130.063 43.5843C129.458 43.1548 125.778 41.0918 116.476 41.0918C105.758 41.0918 94.7697 45.6526 94.7697 67.5658C94.7697 89.4843 107.354 92.7458 117.961 92.7458C126.743 92.7458 132.068 88.9911 132.068 88.9911C132.285 88.8691 132.312 88.5615 132.312 88.4236V63.9489C132.306 63.5247 131.972 63.1906 131.559 63.1906Z" fill="white"/>
<path d="M214.279 43.7062C214.279 43.2872 213.95 42.9531 213.537 42.9531H204.495C204.081 42.9531 203.747 43.2925 203.747 43.7062V61.1699H189.661V43.7062C189.661 43.2872 189.327 42.9531 188.913 42.9531H179.877C179.463 42.9531 179.129 43.2925 179.129 43.7062V91.0009C179.129 91.4198 179.463 91.7592 179.877 91.7592H188.913C189.327 91.7592 189.661 91.4198 189.661 91.0009V70.7688H203.747L203.72 90.9956C203.72 91.4145 204.054 91.7539 204.468 91.7539H213.526C213.94 91.7539 214.268 91.4145 214.274 90.9956V43.7062H214.279Z" fill="white"/>
<path d="M148.614 49.9101C148.614 46.6539 146.005 44.0234 142.786 44.0234C139.572 44.0234 136.957 46.6539 136.957 49.9101C136.957 53.161 139.566 55.7967 142.786 55.7967C146.005 55.7967 148.614 53.161 148.614 49.9101Z" fill="white"/>
<path d="M147.967 81.0189C147.967 79.8044 147.967 59.1906 147.967 59.1906C147.967 58.7769 147.633 58.4375 147.219 58.4375H138.209C137.795 58.4375 137.424 58.8618 137.424 59.2807C137.424 59.2807 137.424 85.5479 137.424 90.5595C137.424 91.477 137.997 91.7527 138.739 91.7527C138.739 91.7527 142.584 91.7527 146.858 91.7527C147.749 91.7527 147.967 91.3179 147.967 90.5436C147.967 88.8624 147.967 82.297 147.967 81.0189Z" fill="white"/>
<path d="M248.628 58.5078H239.661C239.247 58.5078 238.913 58.8472 238.913 59.2662V82.4574C238.913 82.4574 236.632 84.1227 233.403 84.1227C230.168 84.1227 229.309 82.6537 229.309 79.4876C229.309 76.3162 229.309 59.2662 229.309 59.2662C229.309 58.8472 228.975 58.5078 228.561 58.5078H219.46C219.052 58.5078 218.713 58.8472 218.713 59.2662C218.713 59.2662 218.713 71.6175 218.713 81.0202C218.713 90.423 223.952 92.7246 231.165 92.7246C237.078 92.7246 241.851 89.4578 241.851 89.4578C241.851 89.4578 242.079 91.1813 242.18 91.3829C242.28 91.5844 242.551 91.7912 242.837 91.7912L248.628 91.7647C249.037 91.7647 249.376 91.4253 249.376 91.0116L249.371 59.2662C249.376 58.8472 249.042 58.5078 248.628 58.5078Z" fill="white"/>
<path d="M273.14 57.447C268.044 57.447 264.581 59.7221 264.581 59.7221V43.7062C264.581 43.2872 264.247 42.9531 263.833 42.9531H254.77C254.356 42.9531 254.022 43.2925 254.022 43.7062V91.0009C254.022 91.4198 254.356 91.7592 254.77 91.7592C254.77 91.7592 261.054 91.7592 261.059 91.7592C261.341 91.7592 261.558 91.6108 261.717 91.3562C261.871 91.1016 262.099 89.1765 262.099 89.1765C262.099 89.1765 265.806 92.6873 272.822 92.6873C281.058 92.6873 285.783 88.5083 285.783 73.9296C285.783 59.3509 278.237 57.447 273.14 57.447ZM269.603 84.0907C266.49 83.9952 264.385 82.5846 264.385 82.5846V67.6081C264.385 67.6081 266.469 66.33 269.02 66.102C272.249 65.8103 275.362 66.7861 275.362 74.4918C275.357 82.6217 273.957 84.2233 269.603 84.0907Z" fill="white"/>
<path d="M173.942 58.4332H167.159C167.159 58.4332 167.149 49.4812 167.149 49.4759C167.149 49.1365 166.974 48.9668 166.581 48.9668H157.348C156.988 48.9668 156.797 49.1259 156.797 49.4706V58.7248C156.797 58.7248 152.167 59.8438 151.854 59.934C151.541 60.0241 151.313 60.3105 151.313 60.6552V66.4729C151.313 66.8919 151.647 67.226 152.061 67.226H156.797C156.797 67.226 156.797 73.3089 156.797 81.2161C156.797 91.6105 164.089 92.6287 169.005 92.6287C171.254 92.6287 173.942 91.9075 174.388 91.7431C174.658 91.6423 174.812 91.3666 174.812 91.0643L174.817 84.6685C174.817 84.2495 174.467 83.9154 174.07 83.9154C173.677 83.9154 172.664 84.0745 171.625 84.0745C168.294 84.0745 167.165 82.526 167.165 80.5213C167.165 78.5167 167.165 67.226 167.165 67.226H173.942C174.356 67.226 174.69 66.8866 174.69 66.4729V59.1862C174.69 58.7673 174.356 58.4332 173.942 58.4332Z" fill="white"/>
<path fill-rule="evenodd" clip-rule="evenodd" d="M56.4852 39.5117C41.0686 39.5117 28.6058 52.0699 28.6058 67.5979C28.6058 80.0129 36.5926 90.524 47.6711 94.2469C49.0553 94.528 49.5644 93.6423 49.5644 92.8999C49.5644 92.2476 49.5167 90.0149 49.5167 87.692C41.7633 89.3679 40.1458 84.3457 40.1458 84.3457C38.8995 81.0895 37.054 80.2515 37.054 80.2515C34.5137 78.5333 37.2396 78.5333 37.2396 78.5333C40.0556 78.7189 41.5352 81.4183 41.5352 81.4183C44.0278 85.698 48.0424 84.4889 49.6599 83.7411C49.8879 81.9274 50.6304 80.6705 51.4153 79.9758C45.221 79.3235 38.7139 76.9052 38.7139 66.113C38.7139 63.0424 39.8223 60.5339 41.5777 58.577C41.3019 57.877 40.3314 54.9973 41.8534 51.1365C41.8534 51.1365 44.2081 50.3941 49.5167 54.0215C51.7918 53.4063 54.1305 53.0934 56.4852 53.0934C58.8399 53.0934 61.2369 53.4169 63.4537 54.0215C68.7623 50.3941 71.117 51.1365 71.117 51.1365C72.639 54.9973 71.6685 57.8823 71.3927 58.577C73.1958 60.5286 74.2565 63.0424 74.2565 66.113C74.2565 76.8999 67.7494 79.2757 61.518 79.9705C62.5362 80.8561 63.4113 82.5266 63.4113 85.1783C63.4113 88.9436 63.3636 91.9665 63.3636 92.8999C63.3636 93.6423 63.8727 94.528 65.2568 94.2469C76.3354 90.524 84.3221 80.0182 84.3221 67.5979C84.3699 52.0699 71.8594 39.5117 56.4852 39.5117Z" fill="white"/>
</svg>
