<svg width="363" height="56" viewBox="0 0 363 56" fill="none" xmlns="http://www.w3.org/2000/svg">
<g clip-path="url(#clip0_1256_190)">
<path d="M196.264 10.8548V22.9287H196.379C198.381 20.2965 201.214 19.009 204.933 19.009C206.593 19.009 208.138 19.2664 209.625 19.8101C211.085 20.3537 212.401 21.1548 213.545 22.242C214.69 23.3292 215.577 24.6739 216.235 26.3047C216.893 27.9356 217.207 29.8239 217.207 31.9411C217.207 34.3444 216.778 36.5761 215.891 38.6361C215.004 40.696 213.631 42.3555 211.771 43.5858C209.912 44.816 207.594 45.4455 204.819 45.4455C200.813 45.4455 197.981 44.158 196.264 41.6116H196.15V44.7588H188.539V10.8548H196.264ZM167.11 18.2937C181.873 18.2937 180.614 34.1442 180.614 34.1442H160.386C161.216 37.2914 163.934 39.38 167.653 39.38C172.174 39.38 174.606 36.6619 174.606 36.6619L178.897 41.0394C176.694 43.2424 173.719 45.2452 167.596 45.2452C158.126 45.2452 153.09 38.9794 153.09 32.3417C153.09 25.7039 156.867 18.2937 167.11 18.2937ZM351.021 18.2651C357.372 18.2651 361.407 20.697 361.407 20.697L358.803 26.2761C350.334 21.8987 346.529 24.9886 346.529 26.5336C346.529 28.0786 348.045 28.1931 353.939 29.2803C359.833 30.3675 362.58 32.828 362.58 36.805C362.58 40.7819 359.175 45.1594 350.849 45.1594C342.523 45.1594 338.718 42.4985 338.718 42.4985L341.236 36.948C347.759 41.068 355.169 39.7519 355.169 37.2914C355.169 35.4316 352.709 35.0597 350.048 34.745L348.904 34.6019C348.389 34.5447 347.902 34.4875 347.416 34.4016C344.04 33.858 339.033 32.0555 339.033 26.877C339.033 21.6984 344.669 18.2651 351.021 18.2651ZM313.798 9.08095V29.5664L324.842 18.9517H333.854L322.896 29.452L334.913 45.1021H325.958L317.746 34.4016L313.769 38.2069V45.1021H306.388V9.08095H313.798ZM287.333 18.0934C292.569 18.0934 297.146 20.697 299.693 24.6167L293.456 28.2789C292.282 26.0473 289.994 24.5595 287.333 24.5595C283.499 24.5595 280.38 27.7353 280.38 31.6264C280.38 35.5461 283.499 38.6933 287.333 38.6933C289.851 38.6933 292.054 37.32 293.284 35.26L299.55 38.8363C296.975 42.613 292.483 45.1307 287.333 45.1307C279.35 45.1307 272.884 39.0652 272.884 31.5978C272.884 24.1589 279.35 18.0934 287.333 18.0934ZM253.028 18.0934C261.011 18.0934 267.477 24.1589 267.477 31.6264C267.477 39.0938 261.011 45.1594 253.028 45.1594C245.046 45.1594 238.58 39.0938 238.58 31.6264C238.551 24.1589 245.046 18.0934 253.028 18.0934ZM121.79 18.8659V44.9019H113.779V18.8659H121.79ZM106.569 10.9693V17.4926H88.6298V26.1331H104.48V32.5706H88.6298V44.9019H80.6187V10.9693H106.569ZM138.899 22.0989C138.899 22.0989 141.732 17.6642 147.597 18.3509V25.6181C147.597 25.6181 141.217 23.9873 138.899 30.5678V44.9019H131.26V18.8659H138.556L138.899 21.9273V22.0989ZM230.912 8.96652V44.7302H222.844V8.96652H230.912ZM202.587 24.7025C198.152 24.7025 195.949 27.392 195.949 32.7994C195.949 34.8308 196.522 36.5475 197.666 37.9494C198.811 39.3227 200.527 40.038 202.816 40.038C204.361 40.038 205.591 39.6374 206.564 38.8363C207.508 38.0352 208.195 37.0625 208.595 35.8894C208.996 34.745 209.196 33.5719 209.196 32.4275C209.196 30.2245 208.681 28.3647 207.623 26.9056C206.564 25.4464 204.876 24.7025 202.587 24.7025ZM253.028 24.5595C249.194 24.5595 246.076 27.7353 246.076 31.6264C246.076 35.5461 249.194 38.6933 253.028 38.6933C256.862 38.6933 259.981 35.5175 259.981 31.6264C259.952 27.7067 256.862 24.5595 253.028 24.5595ZM167.224 23.9586C163.304 23.9586 161.159 26.362 160.415 29.5092H173.518C173.461 28.6795 172.145 23.9586 167.224 23.9586ZM117.784 6.5918C120.388 6.5918 122.505 8.53735 122.505 10.9121C122.505 13.2868 120.388 15.2323 117.784 15.2323C115.181 15.2323 113.064 13.2868 113.064 10.9121C113.064 8.50874 115.181 6.5918 117.784 6.5918Z" fill="white"/>
<path d="M53.817 0.505859C55.0187 0.505859 55.9915 1.47863 55.9915 2.68029V52.9783C55.9915 54.18 55.0187 55.1528 53.817 55.1528H2.83233C1.63067 55.1528 0.657898 54.18 0.657898 52.9783V2.7089C0.657898 1.50724 1.63067 0.534472 2.83233 0.534472H53.817V0.505859ZM28.3247 15.6983L12.932 39.989H43.6888L28.3247 15.6983Z" fill="white"/>
</g>
<defs>
<clipPath id="clip0_1256_190">
<rect width="361.805" height="54.8585" fill="white" transform="translate(0.5 0.369141)"/>
</clipPath>
</defs>
</svg>
