<svg width="152" height="152" viewBox="0 0 152 152" fill="none" xmlns="http://www.w3.org/2000/svg">
<g clip-path="url(#clip0_1256_147)">
<path d="M75.9551 151.596C117.817 151.596 151.753 117.66 151.753 75.7979C151.753 33.9359 117.817 0 75.9551 0C34.0931 0 0.157288 33.9359 0.157288 75.7979C0.157288 117.66 34.0931 151.596 75.9551 151.596Z" fill="white"/>
<path d="M51.4655 81.3388L60.4583 106.23C60.4583 106.23 61.5826 108.558 62.7865 108.558C63.9905 108.558 81.8971 89.9298 81.8971 89.9298L101.81 51.4688L51.7864 74.9137L51.4655 81.3388Z" fill="white"/>
<path d="M63.3891 87.7227L61.6628 106.07C61.6628 106.07 60.9402 111.691 66.5606 106.07C72.181 100.448 77.5608 96.1128 77.5608 96.1128" fill="#182234"/>
<path d="M51.6278 82.2275L33.1294 76.2003C33.1294 76.2003 30.9186 75.3034 31.6305 73.2695C31.777 72.8501 32.0726 72.4932 32.9569 71.8799C37.0557 69.0229 108.822 43.2283 108.822 43.2283C108.822 43.2283 110.848 42.5455 112.043 42.9996C112.339 43.0911 112.605 43.2595 112.814 43.4876C113.023 43.7157 113.168 43.9952 113.234 44.2977C113.363 44.8318 113.417 45.3814 113.394 45.9305C113.389 46.4055 113.331 46.8457 113.287 47.5361C112.85 54.5885 99.7702 107.223 99.7702 107.223C99.7702 107.223 98.9876 110.302 96.1837 110.408C95.4946 110.43 94.8082 110.313 94.1652 110.065C93.5222 109.816 92.9359 109.44 92.4412 108.96C86.9389 104.227 67.9212 91.4464 63.7188 88.6356C63.6241 88.571 63.5442 88.4869 63.4847 88.3888C63.4252 88.2907 63.3875 88.181 63.374 88.0671C63.3152 87.7709 63.6374 87.4039 63.6374 87.4039C63.6374 87.4039 96.7522 57.9691 97.6333 54.879C97.7015 54.6396 97.4438 54.5215 97.0977 54.6264C94.8983 55.4355 56.7707 79.5133 52.5627 82.1707C52.2598 82.2623 51.9396 82.2818 51.6278 82.2275Z" fill="#182234"/>
</g>
<defs>
<clipPath id="clip0_1256_147">
<rect width="151.596" height="151.596" fill="white" transform="translate(0.157288)"/>
</clipPath>
</defs>
</svg>
