<svg width="240" height="121" viewBox="0 0 240 121" fill="none" xmlns="http://www.w3.org/2000/svg">
<path d="M38.9369 94.1146H47.4032V98.3617H34.0648V80.8421H38.9369V94.1146ZM52.4271 89.6518V89.5919C52.4271 84.564 56.4865 80.4727 61.8918 80.4727C67.297 80.4727 71.2926 84.5021 71.2926 89.53V89.5899C71.2926 94.6178 67.2331 98.7091 61.8279 98.7091C56.4226 98.7091 52.4271 94.6797 52.4271 89.6518ZM66.3565 89.6518V89.5919C66.3565 87.062 64.5455 84.8755 61.8598 84.8755C59.2041 84.8755 57.427 87.032 57.427 89.5599V89.6198C57.427 92.1497 59.2381 94.3362 61.8938 94.3362C64.5794 94.3362 66.3605 92.1797 66.3605 89.6518M77.2749 90.6801V80.8421H82.2069V90.5863C82.2069 93.1162 83.4848 94.3003 85.4017 94.3003C87.3186 94.3003 88.5965 93.1421 88.5965 90.7061V80.8381H93.5286V90.5503C93.5286 96.2012 90.3337 98.6712 85.3159 98.6712C80.3499 98.6712 77.2289 96.1752 77.2289 90.6761M100.951 80.8421H107.696C113.942 80.8421 117.596 84.4362 117.596 89.492V89.552C117.596 94.6118 113.91 98.3377 107.602 98.3377H100.953V80.8181L100.951 80.8421ZM107.789 94.0527C110.695 94.0527 112.63 92.4592 112.63 89.6198V89.5599C112.63 86.7485 110.693 85.1271 107.789 85.1271H105.823V94.0287H107.789V94.0527ZM124.694 80.8421H138.717V85.0892H129.536V88.0883H137.843V92.1178H129.536V98.3637H124.698L124.694 80.8421ZM150.303 94.1146H158.797V98.3617H145.458V80.8421H150.299L150.303 94.1146ZM171.476 80.7362H176.161L183.625 98.3817H178.433L177.155 95.2587H170.406L169.156 98.3817H164.064L171.496 80.7362H171.476ZM175.755 91.4788L173.819 86.5129L171.852 91.4788H175.755ZM189.893 80.862H198.169C200.855 80.862 202.698 81.5489 203.884 82.7669C204.914 83.7653 205.445 85.1091 205.445 86.8603V86.9202C205.445 89.6059 204.008 91.387 201.851 92.3115L206.036 98.4336H200.415L196.887 93.1222H194.745V98.4336H189.893V80.862ZM197.949 89.2624C199.607 89.2624 200.541 88.4497 200.541 87.2018V87.1419C200.541 85.7681 199.543 85.0812 197.918 85.0812H194.733V89.2664H197.928L197.949 89.2624ZM217.248 94.2404H226.649V98.3637H212.44V80.8461H226.525V84.9694H217.248V87.6251H225.649V91.4669H217.248V94.2404ZM23.442 91.7085C22.7551 93.238 21.3175 94.3322 19.4445 94.3322C16.7888 94.3322 14.9777 92.1358 14.9777 89.6158V89.5559C14.9777 87.026 16.7588 84.8715 19.4106 84.8715C21.4073 84.8715 22.9388 86.0696 23.5638 87.7768H28.6855C27.8729 83.5916 24.1888 80.5006 19.4405 80.5006C14.0373 80.5006 9.97583 84.594 9.97583 89.6198V89.6797C9.98382 94.7076 13.9813 98.7371 19.3846 98.7371C24.0071 98.7371 27.6312 95.7379 28.5657 91.7404L23.444 91.7085H23.442Z" fill="white"/>
<path d="M205.068 44.2227L150.257 44.598V72.425H220.775V52.8886L207.396 45.2051L205.068 44.2227Z" fill="white"/>
<path d="M196.368 69.8442C197.023 67.5958 196.773 65.5352 195.681 64.0036C194.683 62.5979 192.996 61.8072 190.965 61.6934L152.519 61.1942C152.269 61.1942 152.05 61.0684 151.926 60.8827C151.802 60.697 151.77 60.4434 151.832 60.1958C151.902 60.0069 152.025 59.8419 152.185 59.7202C152.346 59.5985 152.538 59.5252 152.739 59.5089L191.528 59.0097C196.12 58.8101 201.116 55.0761 202.866 50.5155L205.062 44.7368C205.16 44.4997 205.181 44.238 205.124 43.988C202.628 32.6823 192.538 24.25 180.484 24.25C175.205 24.2499 170.059 25.9037 165.768 28.9792C161.477 32.0546 158.258 36.397 156.563 41.3962C154.376 39.7729 151.597 38.9003 148.599 39.1998C145.999 39.4689 143.571 40.6246 141.723 42.4729C139.875 44.3212 138.719 46.7494 138.45 49.3494C138.32 50.6776 138.415 52.018 138.729 53.3149C134.528 53.4335 130.538 55.1872 127.61 58.2027C124.682 61.2182 123.046 65.2575 123.051 69.4608C123.056 70.2439 123.108 71.0261 123.207 71.803C123.266 72.1784 123.582 72.458 123.955 72.458H194.91C195.316 72.458 195.709 72.1784 195.817 71.7711L196.348 69.8661L196.368 69.8442Z" fill="#F38020"/>
<path d="M208.61 45.1407L207.548 45.1726C207.298 45.1726 207.079 45.3603 206.985 45.6119L205.487 50.8275C204.832 53.0758 205.082 55.1365 206.174 56.668C207.173 58.0737 208.86 58.8644 210.891 58.9783L219.073 59.4775C219.323 59.4775 219.543 59.6033 219.666 59.789C219.728 59.8911 219.768 60.0047 219.784 60.1227C219.8 60.2408 219.792 60.361 219.76 60.4758C219.69 60.6648 219.568 60.8297 219.407 60.9514C219.247 61.0731 219.055 61.1464 218.854 61.1627L210.328 61.6619C205.705 61.8616 200.739 65.5956 198.99 70.1562L198.365 71.7496C198.239 72.0611 198.459 72.3746 198.804 72.3746H228.097C228.44 72.3746 228.752 72.1749 228.846 71.8115C229.36 69.9603 229.623 68.0481 229.626 66.1267C229.611 60.5598 227.391 55.2258 223.452 51.2923C219.512 47.3587 214.175 45.146 208.608 45.1387" fill="#FAAE40"/>
</svg>
