<svg width="214" height="213" viewBox="0 0 214 213" fill="none" xmlns="http://www.w3.org/2000/svg">
<path fill-rule="evenodd" clip-rule="evenodd" d="M107.133 0.0136719C165.866 0.0136719 213.468 47.6152 213.468 106.349C213.468 165.082 165.866 212.684 107.133 212.684C48.3994 212.684 0.797852 165.082 0.797852 106.349C0.797852 47.6152 48.3994 0.0136719 107.133 0.0136719Z" fill="white"/>
<path d="M68.3787 82.1328C89.7703 61.2396 124.495 61.2396 145.887 82.1328L148.462 84.6665C149.542 85.7049 149.542 87.408 148.462 88.4464L139.656 97.0446C139.116 97.5846 138.244 97.5846 137.704 97.0446L134.173 93.597C119.22 79.0175 95.0455 79.0175 80.0922 93.597L76.3123 97.2938C75.7723 97.8338 74.9001 97.8338 74.3601 97.2938L65.5542 88.6956C64.4742 87.6572 64.4742 85.9542 65.5542 84.9157L68.3787 82.1328ZM164.122 99.9106L171.972 107.553C173.052 108.592 173.052 110.295 171.972 111.333L136.624 145.851C135.544 146.889 133.8 146.889 132.761 145.851L107.673 121.344C107.424 121.095 106.967 121.095 106.717 121.344L81.6291 145.851C80.5491 146.889 78.8045 146.889 77.7661 145.851L42.2934 111.333C41.2135 110.295 41.2135 108.592 42.2934 107.553L50.1439 99.9106C51.2239 98.8722 52.9685 98.8722 54.0069 99.9106L79.0953 124.418C79.3445 124.667 79.8014 124.667 80.0506 124.418L105.139 99.9106C106.219 98.8722 107.964 98.8722 109.002 99.9106L134.09 124.418C134.34 124.667 134.797 124.667 135.046 124.418L160.134 99.9106C161.297 98.8722 163.042 98.8722 164.122 99.9106Z" fill="#182234"/>
</svg>
