<svg width="493" height="97" viewBox="0 0 493 97" fill="none" xmlns="http://www.w3.org/2000/svg">
<g filter="url(#filter0_d_858_79451)">
<path d="M79.4059 50.0132C79.4059 54.7848 78.6106 59.1661 77.0201 63.1574C75.4296 67.1487 73.1939 70.5848 70.313 73.4657C67.4321 76.3466 63.966 78.5823 59.9147 80.1728C55.8634 81.7633 51.3769 82.5586 46.4554 82.5586H21.6075V17.4679H46.4554C51.3769 17.4679 55.8634 18.2781 59.9147 19.8986C63.966 21.4892 67.4321 23.7249 70.313 26.6058C73.1939 29.4567 75.4296 32.8778 77.0201 36.869C78.6106 40.8603 79.4059 45.2417 79.4059 50.0132ZM67.0269 50.0132C67.0269 46.4421 66.5468 43.2461 65.5865 40.4252C64.6262 37.5743 63.2607 35.1735 61.4902 33.2229C59.7196 31.2423 57.5589 29.7268 55.0081 28.6764C52.4873 27.6261 49.6364 27.1009 46.4554 27.1009H33.8063V72.9255H46.4554C49.6364 72.9255 52.4873 72.4004 55.0081 71.35C57.5589 70.2997 59.7196 68.7992 61.4902 66.8486C63.2607 64.868 64.6262 62.4672 65.5865 59.6463C66.5468 56.7954 67.0269 53.5844 67.0269 50.0132Z" fill="white"/>
<path d="M32.5357 73.5773L32.5356 73.5773L32.5355 73.5773L32.5354 73.5773L32.5157 73.5767L32.4956 73.578C28.8689 73.8033 26.5045 74.2282 25.0375 74.6021C24.3037 74.789 23.7936 74.9634 23.4618 75.094C23.2958 75.1593 23.1743 75.2138 23.0917 75.2534C23.0718 75.2629 23.0542 75.2716 23.0387 75.2794C22.358 75.3873 21.8417 75.647 21.4608 75.9994C21.0683 76.3624 20.8447 76.8005 20.7194 77.2082C20.5946 77.6143 20.5636 78.0014 20.5624 78.2828C20.5618 78.4247 20.5688 78.5428 20.5762 78.6271C20.5782 78.6509 20.5803 78.672 20.5823 78.6903L20.5822 78.6913L20.5496 78.8766C20.5222 79.033 20.4847 79.2491 20.4439 79.4881C20.363 79.963 20.2682 80.5349 20.2165 80.9049M20.2165 80.9049C20.2166 80.9042 20.2167 80.9036 20.2168 80.9029L20.6621 80.9691L20.2163 80.907C20.2164 80.9063 20.2164 80.9056 20.2165 80.9049Z" fill="white" stroke="white" stroke-width="0.900286"/>
<path d="M67.9436 78.4598C68.0542 78.0615 68.1207 77.6929 67.6606 77.4322C67.5174 77.3453 67.414 77.206 67.3725 77.0441C67.2636 76.4272 66.7745 76.1684 66.3264 75.8688C65.6617 75.4283 65.002 74.9829 64.3363 74.5444C64.2191 74.4513 64.0828 74.3851 63.937 74.3504C62.3498 74.1715 60.7634 74.0533 59.1743 74.3706C56.7438 74.8568 54.5411 75.8794 52.4758 77.2101C50.6125 78.3995 48.5753 79.2933 46.4371 79.8595C42.395 80.9588 38.2732 81.2978 34.0992 81.1535C33.8385 81.1451 33.5777 81.1527 33.283 81.1522C33.3111 81.6783 33.3363 82.1675 33.3673 82.7763C34.5023 82.7284 35.5912 82.78 36.6465 82.6193C39.4497 82.1885 42.2271 81.5832 45.0411 81.2032C47.7958 80.8225 50.6015 81.2828 53.0886 82.5235C54.04 82.9914 54.9505 82.7607 55.8495 82.8668C55.8991 81.8576 55.8817 80.9111 56.0051 79.9837C56.2074 78.4357 56.864 77.1296 58.3558 76.4007C59.1557 76.0095 60.013 75.9641 60.8851 75.9974C63.2298 76.0849 64.8281 77.4535 65.197 79.7655C65.3137 80.493 65.3025 81.2393 65.3503 81.9786C65.8038 82.0411 66.5175 81.8271 66.5798 81.5711C66.7699 80.7744 66.9751 79.9777 67.0943 79.1718C67.2034 78.4387 67.2194 78.377 67.9436 78.4598Z" fill="url(#paint0_linear_858_79451)"/>
<path d="M34.2716 75.8524C33.8805 76.1198 33.771 76.4693 33.9701 76.932C34.4538 78.0765 34.9175 79.2251 35.3752 80.3835C35.4747 80.6298 35.5884 80.7525 35.8741 80.739C36.4047 80.714 36.9372 80.7338 37.6545 80.735C38.8946 80.6184 40.3214 80.5221 41.7374 80.3431C44.8542 79.9496 47.8567 79.1684 50.6874 77.7593C51.6383 77.2866 51.8964 76.4989 51.9898 75.5894C52.0507 75.0096 51.891 74.9068 51.3165 74.9158C46.3163 75 41.3151 75.0811 36.3128 75.1593C35.5555 75.1721 34.8857 75.434 34.2716 75.8524Z" fill="url(#paint1_linear_858_79451)"/>
<path d="M33.5203 80.6597C33.9958 80.7023 34.4774 80.6782 34.9909 80.679C34.9442 80.5315 34.9045 80.375 34.8438 80.2265C34.4577 79.276 34.0686 78.3265 33.6765 77.3781C33.2197 76.2814 33.3994 75.7426 34.4793 75.2133C35.3102 74.8082 36.156 74.43 37.0148 74.0876C39.4282 73.1281 41.9458 72.5315 44.4764 71.9796C46.4363 71.5514 48.4099 71.3414 50.4107 71.544C53.5643 71.8629 56.6132 72.6401 59.5988 73.6721C59.7673 73.7393 59.9452 73.7799 60.1261 73.7926C60.9254 73.8068 61.7356 73.8011 62.5399 73.8025C61.9539 73.5255 61.3477 73.3681 60.7566 73.1689C57.8608 72.1967 54.95 71.2823 51.8681 71.086C48.2967 70.857 44.7508 70.9818 41.3241 72.104C39.4498 72.7177 37.6461 73.5407 35.7877 74.2042C34.9315 74.5108 34.046 74.729 33.1451 74.8555C31.9299 75.0239 30.6941 75.0278 29.474 75.1643C27.5003 75.3957 25.5676 75.8954 23.7298 76.6495C24.3937 76.9684 24.4193 77.1587 23.8952 77.5325C23.274 77.9758 22.6339 78.3922 22.0128 78.8366C21.8768 78.936 21.7187 79.0862 21.6904 79.2346C21.5645 79.9009 21.4655 80.5743 21.3934 81.2487C21.3782 81.3941 21.4757 81.6563 21.5825 81.6943C22.3963 81.9836 23.2241 82.2301 24.045 82.4894C23.9855 81.5697 23.8819 80.7815 23.8942 79.9984C23.9219 78.3047 24.8981 77.0031 26.4896 76.4158C27.4104 76.0736 28.3666 76.0204 29.3346 76.0449C30.5435 76.0707 31.4588 76.6162 32.1295 77.6007C32.6887 78.4256 32.9599 79.3586 33.1682 80.3194C33.1989 80.4509 33.3904 80.6485 33.5203 80.6597Z" fill="url(#paint2_linear_858_79451)"/>
<path d="M60.459 77.4942C59.5192 77.4908 58.6165 77.8595 57.9491 78.5193C57.2817 79.1792 56.9042 80.0762 56.8995 81.0134C56.8977 81.4818 56.9889 81.946 57.1679 82.3792C57.3469 82.8124 57.6101 83.2059 57.9423 83.5371C58.2746 83.8683 58.6693 84.1306 59.1037 84.309C59.5382 84.4873 60.0037 84.5781 60.4734 84.5761C60.9389 84.5749 61.3996 84.4819 61.8289 84.3024C62.2582 84.123 62.6477 83.8607 62.9749 83.5305C63.3021 83.2004 63.5606 82.8089 63.7355 82.3787C63.9104 81.9485 63.9983 81.4881 63.994 81.0239C63.9973 80.5599 63.9081 80.0998 63.7317 79.6703C63.5553 79.2409 63.2951 78.8507 62.9662 78.5223C62.6374 78.1939 62.2464 77.934 61.816 77.7575C61.3856 77.581 60.9244 77.4915 60.459 77.4942Z" fill="url(#paint3_linear_858_79451)"/>
<path d="M28.6953 77.4454C28.2251 77.4414 27.7587 77.5299 27.3229 77.7061C26.8871 77.8822 26.4905 78.1424 26.1558 78.4718C25.8211 78.8012 25.5549 79.1932 25.3725 79.6254C25.1901 80.0576 25.095 80.5215 25.0928 80.9904C25.1031 81.9281 25.4823 82.8242 26.1487 83.4858C26.8152 84.1473 27.7155 84.5213 28.6558 84.5272C29.596 84.5259 30.4977 84.1547 31.1651 83.4943C31.8325 82.8339 32.2117 81.9376 32.2203 81.0001C32.2226 80.0634 31.8533 79.1639 31.1928 78.4979C30.5324 77.8319 29.6345 77.4535 28.6953 77.4454Z" fill="url(#paint4_linear_858_79451)"/>
<path d="M40.8086 74.6999C43.9478 74.6446 47.0874 74.5806 50.2273 74.508C50.3781 74.5083 50.617 74.4678 50.6631 74.3732C51.0039 73.6664 51.3068 72.9416 51.6478 72.163C46.4009 71.3424 41.6805 73.0435 36.9274 74.5501L36.9391 74.6866C37.066 74.6978 37.1929 74.7209 37.3197 74.7201C38.4827 74.717 39.6456 74.7209 40.8086 74.6999Z" fill="url(#paint5_linear_858_79451)"/>
<path d="M46.0982 81.5628C44.8413 81.6424 43.5871 81.7998 42.34 81.9821C41.1508 82.1565 39.9735 82.4096 38.7902 82.6279L38.8169 82.7764L52.6133 82.7989C52.4396 82.707 52.3847 82.671 52.3248 82.648C50.3199 81.8805 48.2525 81.4258 46.0982 81.5628Z" fill="url(#paint6_linear_858_79451)"/>
<path d="M55.6212 72.9907C54.9152 72.7843 54.1941 72.6248 53.4411 72.4362C53.2911 73.1234 53.1622 73.715 53.0193 74.3684C54.0524 74.3701 54.9498 74.2231 55.6942 73.5757C55.9593 73.341 55.9997 73.1019 55.6212 72.9907Z" fill="url(#paint7_linear_858_79451)"/>
<path d="M52.611 74.1692C52.7528 73.5976 52.8696 73.0189 53.0246 72.3058C52.6509 72.3331 52.1695 72.2496 52.0874 72.3939C51.7237 73.03 51.4757 73.731 51.1478 74.4976C51.6224 74.4675 51.9981 74.4592 52.3678 74.41C52.4245 74.3918 52.4761 74.3605 52.5183 74.3187C52.5606 74.2768 52.5923 74.2256 52.611 74.1692Z" fill="url(#paint8_linear_858_79451)"/>
<path d="M58.8397 73.8788L56.5549 73.2026L55.699 74.2523C56.7016 74.5189 58.0286 74.3737 58.8397 73.8788Z" fill="url(#paint9_linear_858_79451)"/>
<path d="M53.7774 75.8983L55.9112 74.8666L55.8785 74.6932L52.3664 74.8539L52.4656 75.3044C53.6129 75.109 53.6628 75.127 53.7774 75.8983Z" fill="url(#paint10_linear_858_79451)"/>
<path d="M66.4276 74.3641C65.8613 74.2516 65.2839 74.1969 64.7115 74.1172L64.6844 74.2358L67.0457 75.8058C67.0931 74.9072 66.907 74.4596 66.4276 74.3641Z" fill="url(#paint11_linear_858_79451)"/>
<path d="M67.6855 79.0069C67.4713 79.8534 67.2621 80.679 67.056 81.4967C67.4284 81.6328 67.5755 81.5284 67.6619 81.2187C67.7556 80.9024 67.8806 80.5962 68.035 80.3047C68.3748 79.6427 68.3123 79.3985 67.6855 79.0069Z" fill="url(#paint12_linear_858_79451)"/>
<path d="M23.5801 77.2055C22.0819 76.9042 21.5818 77.2869 21.7497 78.4669L23.5801 77.2055Z" fill="url(#paint13_linear_858_79451)"/>
<path d="M53.2112 75.6461C52.4447 75.7505 52.4267 75.7724 52.2462 76.8023C52.7591 76.5281 53.2201 76.2897 53.2112 75.6461Z" fill="url(#paint14_linear_858_79451)"/>
<path d="M98.7382 85.5542H85.5596V37.5258H98.7382V42.2346C102.079 38.5613 106.976 36.5834 112.576 36.5834V49.3434C112.011 49.2486 111.305 49.1556 110.74 49.1556C104.198 49.1556 98.7382 53.7696 98.7382 60.2202V85.5524V85.5542ZM114.035 61.54C114.035 47.5085 124.672 36.5369 138.51 36.5369C152.348 36.5369 161.479 46.4248 161.479 60.551C161.479 62.5755 161.292 64.6947 161.009 66.8139H126.838C128.674 71.993 133.569 74.9599 139.688 74.9599C144.018 74.9599 148.16 73.4058 150.655 70.5337L158.703 78.5849C154.279 83.4815 147.736 86.4484 139.405 86.4484C125.097 86.5431 114.037 75.5715 114.037 61.54H114.035ZM138.227 48.0271C132.579 48.0271 127.45 51.7004 126.508 57.4446H149.477C148.725 51.5591 143.828 48.0271 138.227 48.0271ZM166.092 61.54C166.092 47.791 175.6 36.5369 189.344 36.5369C194.803 36.5369 199.698 39.0317 202.899 42.5172V37.5258H216.078V85.5542H202.899V80.3751C199.746 83.9071 194.851 86.5431 189.344 86.5431C175.6 86.5431 166.092 75.3837 166.092 61.54ZM191.037 49.7207C184.494 49.7207 179.222 54.9946 179.222 61.54C179.222 68.0854 184.494 73.3593 191.037 73.3593C197.579 73.3593 202.851 68.0854 202.851 61.54C202.851 54.9946 197.579 49.7207 191.037 49.7207ZM225.208 85.5542V37.5258H238.386V42.0468C241.917 38.5148 246.953 36.5851 252.224 36.5851C259.237 36.5851 264.792 39.7398 267.992 45.155C272.511 39.7863 277.028 36.5851 284.795 36.5851C295.856 36.5851 303.528 44.5433 303.528 56.3609V85.5542H290.35V59.8929C290.35 52.8771 286.49 49.3451 281.124 49.3451C275.382 49.3451 270.957 53.5835 270.957 60.1272V85.6007H257.779V59.9394C257.779 52.9236 253.919 49.3916 248.553 49.3916C242.811 49.3916 238.386 53.7231 238.386 60.2685V85.6472H225.208V85.5524V85.5542ZM334.828 86.5431C321.085 86.5431 309.835 75.289 309.835 61.5882C309.835 47.8875 321.085 36.5851 334.828 36.5851C341.936 36.5851 348.384 39.552 352.902 44.3538L343.582 53.6766C341.464 51.2748 338.311 49.7207 334.828 49.7207C328.286 49.7207 323.014 54.9946 323.014 61.54C323.014 68.0854 328.286 73.3593 334.828 73.3593C338.264 73.3593 341.464 71.8052 343.582 69.4034L352.902 78.7262C348.382 83.5763 341.934 86.5431 334.828 86.5431ZM354.503 61.54C354.503 47.791 364.012 36.5369 377.755 36.5369C383.215 36.5369 388.109 39.0317 391.311 42.5172V37.5258H404.49V85.5542H391.311V80.3751C388.158 83.9071 383.263 86.5431 377.755 86.5431C364.012 86.5431 354.503 75.3837 354.503 61.54ZM379.496 49.7207C372.954 49.7207 367.682 54.9946 367.682 61.54C367.682 68.0854 372.954 73.3593 379.496 73.3593C386.039 73.3593 391.311 68.0854 391.311 61.54C391.311 54.9946 385.993 49.7207 379.496 49.7207ZM426.8 85.5542H413.621V37.5258H426.8V42.2346C430.141 38.5613 435.037 36.5834 440.638 36.5834V49.3434C440.073 49.2486 439.367 49.1556 438.802 49.1556C432.259 49.1556 426.8 53.7696 426.8 60.2202V85.5524V85.5542ZM443.226 78.1611L450.616 69.2139C454.476 72.4634 460.123 74.9582 465.395 74.9582C469.442 74.9582 472.408 73.3093 472.408 71.1918C472.408 67.9424 467.606 67.0482 464.36 66.2005C456.122 63.9883 445.157 61.5865 445.157 50.944C445.157 42.7032 453.394 36.5352 464.737 36.5352C472.22 36.5352 478.951 39.1247 483.94 43.1736L477.304 52.026C474.056 49.5312 468.926 47.9771 464.832 47.9771C460.313 47.9771 458.289 49.4364 458.289 51.037C458.289 53.2493 462.336 54.0039 467.326 55.1807C477.587 57.2051 485.681 60.8319 485.681 71.1436C485.681 80.0908 476.927 86.4001 465.018 86.4001C456.734 86.4466 449.344 83.6693 443.226 78.1594V78.1611Z" fill="white"/>
</g>
<defs>
<filter id="filter0_d_858_79451" x="14.9229" y="16.9688" width="477.258" height="79.2695" filterUnits="userSpaceOnUse" color-interpolation-filters="sRGB">
<feFlood flood-opacity="0" result="BackgroundImageFix"/>
<feColorMatrix in="SourceAlpha" type="matrix" values="0 0 0 0 0 0 0 0 0 0 0 0 0 0 0 0 0 0 127 0" result="hardAlpha"/>
<feOffset dx="2" dy="4"/>
<feGaussianBlur stdDeviation="2.25"/>
<feComposite in2="hardAlpha" operator="out"/>
<feColorMatrix type="matrix" values="0 0 0 0 0 0 0 0 0 0 0 0 0 0 0 0 0 0 0.5 0"/>
<feBlend mode="normal" in2="BackgroundImageFix" result="effect1_dropShadow_858_79451"/>
<feBlend mode="normal" in="SourceGraphic" in2="effect1_dropShadow_858_79451" result="shape"/>
</filter>
<linearGradient id="paint0_linear_858_79451" x1="50.6486" y1="82.8583" x2="50.6727" y2="68.0383" gradientUnits="userSpaceOnUse">
<stop stop-color="#030404"/>
<stop offset="0.45" stop-color="#043798"/>
</linearGradient>
<linearGradient id="paint1_linear_858_79451" x1="42.9297" y1="80.7516" x2="42.9459" y2="70.7897" gradientUnits="userSpaceOnUse">
<stop stop-color="#030404"/>
<stop offset="0.45" stop-color="#043798"/>
</linearGradient>
<linearGradient id="paint2_linear_858_79451" x1="41.9581" y1="82.5186" x2="41.9901" y2="62.8681" gradientUnits="userSpaceOnUse">
<stop stop-color="#030404"/>
<stop offset="0.45" stop-color="#043798"/>
</linearGradient>
<linearGradient id="paint3_linear_858_79451" x1="60.4411" y1="84.5761" x2="60.4608" y2="72.5164" gradientUnits="userSpaceOnUse">
<stop stop-color="#030404"/>
<stop offset="0.45" stop-color="#043798"/>
</linearGradient>
<linearGradient id="paint4_linear_858_79451" x1="28.6509" y1="84.5272" x2="28.6705" y2="72.4677" gradientUnits="userSpaceOnUse">
<stop stop-color="#030404"/>
<stop offset="0.45" stop-color="#043798"/>
</linearGradient>
<linearGradient id="paint5_linear_858_79451" x1="44.2855" y1="74.7315" x2="44.2932" y2="69.9808" gradientUnits="userSpaceOnUse">
<stop stop-color="#030404"/>
<stop offset="0.45" stop-color="#043798"/>
</linearGradient>
<linearGradient id="paint6_linear_858_79451" x1="45.7017" y1="82.7876" x2="45.7052" y2="80.6574" gradientUnits="userSpaceOnUse">
<stop stop-color="#030404"/>
<stop offset="0.45" stop-color="#043798"/>
</linearGradient>
<linearGradient id="paint7_linear_858_79451" x1="54.4583" y1="74.3707" x2="54.4637" y2="71.0794" gradientUnits="userSpaceOnUse">
<stop stop-color="#030404"/>
<stop offset="0.45" stop-color="#043798"/>
</linearGradient>
<linearGradient id="paint8_linear_858_79451" x1="52.0844" y1="74.4992" x2="52.0905" y2="70.7616" gradientUnits="userSpaceOnUse">
<stop stop-color="#030404"/>
<stop offset="0.45" stop-color="#043798"/>
</linearGradient>
<linearGradient id="paint9_linear_858_79451" x1="57.2688" y1="74.3848" x2="57.2721" y2="72.3736" gradientUnits="userSpaceOnUse">
<stop stop-color="#030404"/>
<stop offset="0.45" stop-color="#043798"/>
</linearGradient>
<linearGradient id="paint10_linear_858_79451" x1="54.1371" y1="75.8989" x2="54.1405" y2="73.841" gradientUnits="userSpaceOnUse">
<stop stop-color="#030404"/>
<stop offset="0.45" stop-color="#043798"/>
</linearGradient>
<linearGradient id="paint11_linear_858_79451" x1="65.8671" y1="75.8039" x2="65.8718" y2="72.935" gradientUnits="userSpaceOnUse">
<stop stop-color="#030404"/>
<stop offset="0.45" stop-color="#043798"/>
</linearGradient>
<linearGradient id="paint12_linear_858_79451" x1="67.6461" y1="81.5558" x2="67.6532" y2="77.2153" gradientUnits="userSpaceOnUse">
<stop stop-color="#030404"/>
<stop offset="0.45" stop-color="#043798"/>
</linearGradient>
<linearGradient id="paint13_linear_858_79451" x1="22.648" y1="78.4683" x2="22.6518" y2="76.1502" gradientUnits="userSpaceOnUse">
<stop stop-color="#030404"/>
<stop offset="0.45" stop-color="#043798"/>
</linearGradient>
<linearGradient id="paint14_linear_858_79451" x1="52.7278" y1="76.803" x2="52.731" y2="74.8316" gradientUnits="userSpaceOnUse">
<stop stop-color="#030404"/>
<stop offset="0.45" stop-color="#043798"/>
</linearGradient>
</defs>
</svg>
