<svg width="50" height="51" viewBox="0 0 50 51" fill="none" xmlns="http://www.w3.org/2000/svg">
<path d="M24.9931 50.5897C20.048 50.5897 15.214 49.1233 11.1023 46.376C6.99056 43.6286 3.78589 39.7237 1.89348 35.155C0.00107198 30.5863 -0.494074 25.5591 0.470667 20.709C1.43541 15.8589 3.81669 11.4039 7.31341 7.90716C10.8101 4.41044 15.2652 2.02916 20.1153 1.06442C24.9654 0.0996764 29.9926 0.594822 34.5613 2.48723C39.1299 4.37964 43.0349 7.58431 45.7822 11.696C48.5296 15.8077 49.9959 20.6417 49.9959 25.5868C49.9884 32.2157 47.3517 38.5709 42.6644 43.2582C37.9771 47.9455 31.6219 50.5821 24.9931 50.5897Z" fill="#26A17B"/>
<path d="M28.3769 18.4386V19.4435C28.3769 20.3742 28.3769 21.3049 28.3769 22.2298C28.3769 22.4183 28.434 22.4868 28.6167 22.4982C29.2676 22.5324 29.9185 22.561 30.5694 22.6181C31.2203 22.6752 31.8598 22.7494 32.505 22.8294C33.1502 22.9093 33.647 22.9493 34.1723 23.0463C35.3142 23.2519 36.4562 23.446 37.5696 23.7087C38.5709 23.917 39.5339 24.279 40.4244 24.7821C40.6813 24.9271 40.9191 25.1036 41.1324 25.3074C41.2663 25.4028 41.3746 25.5298 41.4476 25.6772C41.5206 25.8245 41.5562 25.9875 41.5511 26.1519C41.546 26.3162 41.5005 26.4768 41.4185 26.6193C41.3365 26.7618 41.2206 26.8819 41.081 26.9689C40.4698 27.4741 39.7629 27.8508 39.0027 28.0766C37.4517 28.5905 35.8553 28.9557 34.2351 29.1671C32.3658 29.4485 30.4826 29.6277 28.5939 29.7039C28.3541 29.7039 28.3712 29.8466 28.3712 30.0065V42.682H21.6908V29.7381L20.6574 29.6639C19.7153 29.5897 18.7732 29.5326 17.8311 29.4298C15.3673 29.2327 12.9385 28.7243 10.6026 27.9167C9.93162 27.7012 9.32253 27.3271 8.82685 26.8262C8.71618 26.7275 8.62886 26.6054 8.57123 26.4687C8.5136 26.3321 8.48709 26.1844 8.49365 26.0362C8.50021 25.8881 8.53967 25.7433 8.60914 25.6123C8.67862 25.4812 8.7764 25.3674 8.89536 25.2788C9.4 24.846 9.98089 24.511 10.6083 24.291C11.8694 23.8154 13.1762 23.4711 14.508 23.2633C15.4901 23.1034 16.4779 22.955 17.4657 22.8351C18.2422 22.738 19.0244 22.6809 19.8066 22.6124C20.3586 22.5667 20.9124 22.5325 21.4682 22.5096C21.6394 22.5096 21.6794 22.4354 21.6794 22.2812C21.6794 21.185 21.6794 20.0944 21.6794 19.0038C21.6794 18.8268 21.6452 18.6498 21.6223 18.4329H12.3897V12.2949H37.6267V13.7966C37.6267 15.2411 37.6267 16.6857 37.6267 18.1246C37.6267 18.3758 37.5524 18.4443 37.3069 18.4443C34.4235 18.4443 31.5344 18.4443 28.651 18.4443L28.3769 18.4386ZM28.3769 22.9493V27.4771C26.1487 27.6226 23.9133 27.6226 21.6851 27.4771V22.9093L20.8287 22.9892C19.8866 23.0577 18.9445 23.1206 17.9738 23.2062C17.1916 23.2804 16.4093 23.3489 15.6385 23.486C14.5613 23.6839 13.4898 23.918 12.424 24.1883C11.6241 24.3609 10.8837 24.741 10.2771 25.2902C10.2025 25.352 10.142 25.4289 10.0995 25.5159C10.0571 25.6029 10.0337 25.698 10.031 25.7948C10.0283 25.8916 10.0463 25.9878 10.0839 26.0771C10.1214 26.1663 10.1775 26.2465 10.2486 26.3123C10.61 26.6901 11.0621 26.9692 11.5618 27.1231C13.3982 27.7362 15.2985 28.1385 17.2258 28.3221C17.9224 28.4077 18.6247 28.482 19.327 28.5334C20.2862 28.6076 21.2512 28.6704 22.2161 28.6932C23.3581 28.6932 24.46 28.6932 25.5792 28.6932C26.4813 28.6932 27.3777 28.6932 28.2741 28.6418C28.9079 28.6418 29.5474 28.5847 30.1812 28.5334C31.129 28.4534 32.0825 28.3792 33.036 28.2593C34.0638 28.1223 35.0972 27.9681 36.1136 27.7683C37.2333 27.5984 38.314 27.2311 39.3053 26.6834C40.0761 26.1981 40.3045 25.6499 39.4366 25.0504C39.0829 24.8104 38.6989 24.6184 38.2947 24.4795C36.9096 23.9825 35.47 23.6528 34.0067 23.4974C32.4822 23.3147 30.952 23.1719 29.4389 23.0178C29.0792 22.9664 28.7309 22.9664 28.3427 22.9493H28.3769Z" fill="white"/>
</svg>
