<svg width="59" height="58" viewBox="0 0 59 58" fill="none" xmlns="http://www.w3.org/2000/svg">
<rect width="57.6428" height="57.6428" rx="28.8214" transform="matrix(-1 0 0 1 58.1426 0)" fill="#043798"/>
<path d="M38.2264 41.6885C39.4829 39.5848 40.3355 37.3773 40.7842 35.0662C41.233 32.7255 41.2779 30.4144 40.9189 28.1329C40.5599 25.8514 39.8119 23.6736 38.6751 21.5995C37.5383 19.4958 36.0275 17.6143 34.1427 15.9551L31.7195 17.4662C31.2707 17.7625 31.0763 18.1329 31.1361 18.5773C31.166 18.9921 31.3006 19.318 31.54 19.5551C32.3178 20.5032 32.9909 21.6588 33.5593 23.0218C34.0978 24.3847 34.4419 25.8514 34.5915 27.4218C34.7411 28.9625 34.6663 30.5625 34.3671 32.2218C34.0679 33.881 33.4546 35.481 32.5272 37.0218C32.1383 37.644 32.0336 38.207 32.2131 38.7107C32.3627 39.1848 32.7217 39.5403 33.2901 39.7773L38.2264 41.6885ZM24.5843 41.6885C25.8408 39.5848 26.6935 37.3773 27.1422 35.0662C27.591 32.7255 27.6358 30.4144 27.2768 28.1329C26.9178 25.8514 26.1699 23.6736 25.0331 21.5995C23.8962 19.4958 22.3854 17.6143 20.5007 15.9551L18.0774 17.4662C17.6287 17.7625 17.4342 18.1329 17.4941 18.5773C17.524 18.9921 17.6586 19.318 17.8979 19.5551C18.6758 20.5032 19.3489 21.6588 19.9173 23.0218C20.4558 24.3847 20.7999 25.8514 20.9494 27.4218C21.099 28.9625 21.0242 30.5625 20.7251 32.2218C20.4259 33.881 19.8126 35.481 18.8852 37.0218C18.4963 37.644 18.3916 38.207 18.5711 38.7107C18.7206 39.1848 19.0796 39.5403 19.6481 39.7773L24.5843 41.6885Z" fill="white"/>
</svg>
