<svg width="110" height="110" viewBox="0 0 110 110" fill="none" xmlns="http://www.w3.org/2000/svg">
<rect x="0.792969" y="0.791016" width="108.949" height="108.949" rx="54.4747" fill="#043798"/>
<path d="M38.4355 79.5854C36.0606 75.6092 34.449 71.437 33.6009 67.0688C32.7527 62.6447 32.6679 58.2765 33.3464 53.9643C34.0249 49.6521 35.4386 45.5359 37.5873 41.6157C39.736 37.6396 42.5915 34.0834 46.1539 30.9473L50.734 33.8034C51.5822 34.3634 51.9497 35.0634 51.8366 35.9035C51.7801 36.6875 51.5256 37.3035 51.0733 37.7516C49.6031 39.5436 48.3308 41.7277 47.2565 44.3038C46.2387 46.88 45.5884 49.6521 45.3057 52.6202C45.023 55.5323 45.1643 58.5565 45.7298 61.6926C46.2952 64.8288 47.4544 67.8529 49.2073 70.765C49.9424 71.9411 50.1403 73.0051 49.801 73.9572C49.5183 74.8532 48.8397 75.5252 47.7654 75.9732L38.4355 79.5854ZM64.22 79.5854C61.8451 75.6092 60.2336 71.437 59.3854 67.0688C58.5372 62.6447 58.4524 58.2765 59.1309 53.9643C59.8095 49.6521 61.2231 45.5359 63.3718 41.6157C65.5205 37.6396 68.376 34.0834 71.9384 30.9473L76.5185 33.8034C77.3667 34.3634 77.7342 35.0634 77.6212 35.9035C77.5646 36.6875 77.3102 37.3035 76.8578 37.7516C75.3876 39.5436 74.1154 41.7277 73.041 44.3038C72.0232 46.88 71.3729 49.6521 71.0902 52.6202C70.8075 55.5323 70.9488 58.5565 71.5143 61.6926C72.0797 64.8288 73.2389 67.8529 74.9918 70.765C75.7269 71.9411 75.9248 73.0051 75.5855 73.9572C75.3028 74.8532 74.6243 75.5252 73.5499 75.9732L64.22 79.5854Z" fill="white"/>
</svg>
