<svg width="263" height="48" viewBox="0 0 263 48" fill="none" xmlns="http://www.w3.org/2000/svg">
<g opacity="0.5">
<path d="M47.3832 24.258C47.3832 31.8823 47.3832 39.4554 47.3832 47.0797C47.3832 47.796 47.1273 48.0007 46.4621 48.0007C36.484 48.0007 26.5059 48.0007 16.5278 48.0007C15.965 48.0007 15.5556 47.8472 15.1462 47.4379C10.2339 42.5256 5.42399 37.6133 0.511697 32.701C0.204679 32.394 0 32.0358 0 31.5752C0 21.4436 0 11.312 0 1.12926C0 0.464051 0.255848 0.310547 0.818715 0.310547C16.0161 0.310547 31.2647 0.310547 46.5644 0.310547C47.2808 0.310547 47.3832 0.566397 47.3832 1.2316C47.3832 8.75355 47.3832 16.5314 47.3832 24.258Z" fill="white"/>
<path d="M193.453 27.859C193.453 19.1067 193.453 10.607 193.453 2.0231C193.453 1.09738 193.621 0.676598 194.631 0.844909C196.146 1.01322 197.492 1.01322 198.923 0.844909C199.849 0.844909 200.017 1.09738 200.017 1.93894C200.017 5.72595 200.017 9.51296 200.017 13.2158C200.017 24.0719 200.017 35.0122 200.017 46.0366C200.017 47.1306 199.764 47.3831 198.67 47.3831C197.071 47.2148 195.304 47.3831 193.537 47.3831C192.695 47.3831 192.359 47.2148 192.19 46.2891C189.497 36.1062 186.636 25.8392 183.943 15.7405C183.775 15.3197 183.775 14.8989 183.438 14.5623C183.438 25.0818 183.438 35.5171 183.438 46.0366C183.438 47.1306 183.186 47.5514 182.092 47.3831C180.745 47.2148 179.399 47.2148 178.052 47.3831C176.958 47.5514 176.874 47.1307 176.874 46.2049C176.874 38.2943 176.874 30.2995 176.874 22.5571C176.874 15.8247 176.874 9.00803 176.874 2.27556C176.874 1.34984 177.042 1.09738 178.052 1.09738C180.324 1.26569 182.597 1.26569 184.953 1.09738C185.795 1.09738 186.131 1.34985 186.299 2.19141C188.488 10.5228 190.76 18.7701 192.864 27.1015C193.116 27.1857 193.116 27.6065 193.453 27.859Z" fill="white"/>
<path d="M68.9003 22.6424C72.9397 24.4096 74.0338 27.7759 74.1179 31.5629C74.2862 34.2559 74.3704 37.1172 73.8654 39.6419C72.9397 44.1863 69.826 47.0476 65.1132 47.2159C60.9054 47.3842 56.7818 47.2159 52.574 47.3842C51.6483 47.3842 51.7325 46.8793 51.7325 46.2902C51.7325 41.4091 51.7325 36.6964 51.7325 31.8995C51.7325 21.9691 51.7325 11.9546 51.7325 2.02418C51.7325 1.09847 51.9008 0.845995 52.9106 0.845995C56.7818 1.01431 60.7371 0.593525 64.6083 1.0143C70.4151 1.68755 72.6873 3.95977 73.3605 9.76652C73.613 12.0387 73.613 14.2268 73.1922 16.499C72.6873 19.1078 71.4249 21.2959 68.9003 22.6424Z" fill="white"/>
<path d="M160.546 24.2416C160.546 28.4494 160.546 32.7413 160.546 36.865C160.546 38.7164 160.125 40.652 159.368 42.4193C158.274 44.6915 156.675 46.2904 154.235 47.132C151.121 48.226 147.923 48.3102 144.641 47.132C140.349 45.533 138.582 41.9143 138.413 37.7065C138.245 28.7018 138.161 19.6971 138.413 10.6925C138.666 2.44519 144.472 -0.0794856 150.952 0.593762C156.843 1.26701 160.125 5.05403 160.21 11.3657C160.63 15.6577 160.546 19.9496 160.546 24.2416Z" fill="white"/>
<path d="M113.589 22.3906C113.757 19.5293 113.336 14.8165 113.757 10.2721C114.43 2.44563 119.816 -0.0790452 125.96 0.594202C131.767 1.26745 134.712 4.63369 135.133 10.9454C135.301 12.5443 135.133 14.1433 135.133 15.9106C135.133 16.5838 134.88 16.7521 134.291 16.7521C132.524 16.7521 130.757 16.7521 129.074 16.7521C128.4 16.7521 128.232 16.4997 128.232 15.9106C128.232 14.1433 128.232 12.5443 128.232 10.7771C128.064 8.08408 126.381 6.56927 123.519 7.15836C122.173 7.41083 121.247 8.33654 120.995 9.85135C120.826 10.5246 120.826 11.3662 120.826 12.0394C120.826 20.1184 120.826 28.1973 120.826 36.2763C120.826 36.7812 120.826 37.3703 120.995 37.8753C121.247 40.1475 122.594 41.2415 124.866 41.0732C127.054 40.9049 128.232 39.7267 128.4 37.5386C128.569 35.3506 128.569 33.2467 128.4 31.0586C128.4 30.2171 128.569 29.8805 129.494 29.9646C131.093 30.1329 132.861 29.9646 134.628 29.9646C135.049 29.9646 135.469 29.9646 135.469 30.6379C135.301 33.8358 135.722 37.1179 135.049 40.2316C133.955 44.7761 130.841 47.469 126.128 47.8898C124.782 48.0581 123.267 48.0581 121.92 47.7215C117.208 46.7958 114.346 43.5137 114.01 38.801C114.01 38.1277 113.841 37.4545 113.841 36.9496C113.421 32.5735 113.589 28.4498 113.589 22.3906Z" fill="white"/>
<path d="M233.846 13.4689C232.752 13.4689 231.405 13.8897 230.648 13.3006C229.806 12.7957 230.395 11.2809 230.227 10.1869C229.975 7.9988 228.712 6.82062 226.693 6.82062C224.505 6.82062 223.495 7.91465 223.158 10.0185C222.737 12.7115 223.579 15.152 225.346 17.2559C226.524 18.7707 228.039 20.1172 229.386 21.4637C231.237 23.231 233.004 24.83 234.519 27.018C237.465 31.31 238.054 36.191 236.539 41.1562C235.445 44.6908 233.173 46.7105 229.638 47.3838C227.366 47.8887 225.178 47.8045 222.906 47.2154C218.866 46.2897 216.341 43.0076 215.752 38.2108C215.584 36.696 215.752 35.2653 215.584 33.7505C215.584 33.0773 215.836 32.9089 216.426 32.9089C218.193 32.9089 219.96 32.9089 221.643 32.9089C222.316 32.9089 222.485 33.1614 222.485 33.8346C222.485 35.3495 222.316 36.696 222.737 38.1266C223.158 39.8939 224.252 40.8196 226.272 40.8196C228.123 40.8196 229.386 39.978 229.89 38.2949C230.564 35.8544 230.059 33.4139 228.712 31.31C227.534 29.4585 225.851 27.7754 224.168 26.3448C222.401 24.7458 220.802 23.231 219.287 21.3796C215.921 17.0876 215.079 12.2066 216.426 7.15724C217.351 3.11775 220.044 0.845542 224.252 0.172295C226.103 -0.0801732 227.871 -0.0801629 229.638 0.340617C233.678 1.26633 236.371 4.21178 236.875 8.58788C237.044 9.76607 237.128 11.0284 237.128 12.3749C237.128 13.0481 236.96 13.3006 236.286 13.3006C235.613 13.4689 234.772 13.6372 233.846 13.4689C233.846 13.6372 233.846 13.6372 233.846 13.4689Z" fill="white"/>
<path d="M247.395 27.6073C247.395 21.5481 247.395 15.4888 247.395 9.34545C247.395 7.57818 247.396 7.57817 245.797 7.57817C244.198 7.57817 242.599 7.57817 240.831 7.57817C239.99 7.57817 239.737 7.40987 239.737 6.65247C239.737 5.05351 239.737 3.45454 239.737 1.68726C239.737 1.01401 239.906 0.845703 240.579 0.845703C247.564 0.845703 254.465 0.845703 261.45 0.845703C262.123 0.845703 262.291 1.01401 262.291 1.68726C262.291 3.45454 262.291 5.0535 262.291 6.82078C262.291 7.49402 262.123 7.74648 261.45 7.74648C259.598 7.74648 257.663 7.74648 255.895 7.74648C254.801 7.74648 254.717 7.99896 254.717 8.92467C254.717 21.2956 254.717 33.6665 254.717 46.0374C254.717 47.1314 254.465 47.5522 253.371 47.5522C251.772 47.3839 250.173 47.3839 248.49 47.5522C247.564 47.5522 247.395 47.2998 247.395 46.374C247.395 39.9782 247.395 33.8348 247.395 27.6073Z" fill="white"/>
<path d="M96.5047 27.5231C96.5047 21.2114 96.5047 14.9839 96.5047 8.6722C96.5047 7.74649 96.2522 7.49402 95.4107 7.57817C93.6434 7.74649 91.792 7.57817 90.0247 7.57817C89.099 7.57817 88.9307 7.3257 88.9307 6.48415C88.9307 4.88518 88.9307 3.37038 88.9307 1.77142C88.9307 1.09818 89.099 0.845703 89.8564 0.845703C96.7572 0.845703 103.742 0.845703 110.559 0.845703C111.064 0.845703 111.4 1.01401 111.4 1.68726C111.4 3.45454 111.4 5.22181 111.4 6.82078C111.4 7.49402 111.148 7.66234 110.559 7.66234C108.707 7.66234 106.772 7.66234 105.004 7.66234C104.079 7.66234 103.826 7.9148 103.826 8.84051C103.826 21.2114 103.826 33.5824 103.826 45.9533C103.826 47.1315 103.405 47.4681 102.311 47.4681C100.797 47.2998 99.366 47.2998 97.767 47.4681C96.8413 47.4681 96.4205 47.2156 96.4205 46.2899C96.5888 39.9782 96.5047 33.6665 96.5047 27.5231Z" fill="white"/>
<path d="M211.882 24.2414C211.882 31.4788 211.882 38.8003 211.882 46.0377C211.882 47.1318 211.714 47.5526 210.536 47.3842C208.937 47.2159 207.17 47.3842 205.402 47.3842C204.729 47.3842 204.477 47.1318 204.477 46.4585C204.477 43.3447 204.477 40.1468 204.477 37.0331C204.477 25.5037 204.477 13.8902 204.477 2.36084C204.477 1.26681 204.729 0.846029 205.823 1.01434C207.422 1.18265 209.021 1.18265 210.788 1.01434C211.63 1.01434 211.882 1.26681 211.882 2.10837C211.882 9.42993 211.882 16.8357 211.882 24.2414Z" fill="white"/>
<path d="M172.077 24.2417C172.077 31.4791 172.077 38.8848 172.077 46.2064C172.077 47.3004 171.824 47.5529 170.73 47.3846C169.215 47.2163 167.785 47.2163 166.27 47.3846C165.092 47.5529 164.671 47.1321 164.671 45.7856C164.671 34.088 164.671 22.4744 164.671 10.7768C164.671 7.83132 164.671 4.97002 164.671 2.02457C164.671 0.930541 164.923 0.678066 166.017 0.846377C167.616 1.01469 169.131 1.01469 170.73 0.846377C171.824 0.846377 172.077 1.09885 172.077 2.19288C172.077 9.59859 172.077 16.836 172.077 24.2417Z" fill="white"/>
<path d="M85.4788 24.1581C85.4788 31.5639 85.4788 38.9696 85.4788 46.3753C85.4788 47.301 85.3105 47.5535 84.3848 47.5535C82.7858 47.3852 81.1868 47.3852 79.4196 47.5535C78.4939 47.5535 78.0731 47.301 78.2414 46.3753C78.2414 35.8558 78.2414 25.4205 78.2414 14.901C78.2414 10.6932 78.2414 6.40125 78.2414 2.27761C78.2414 1.43605 78.4097 1.18359 79.3354 1.18359C80.9344 1.35191 82.5333 1.35191 84.3006 1.18359C85.3946 1.18359 85.6471 1.43605 85.6471 2.53008C85.3105 9.43086 85.4788 16.8366 85.4788 24.1581Z" fill="white"/>
<path d="M32.288 25.0764C35 26.6115 35.5629 28.6583 34.8465 31.2168C34.0278 34.1847 32.0833 35.7197 29.1155 35.8733C27.9898 35.9756 26.9152 35.8733 25.8406 35.6174C25.1754 35.4639 24.8684 35.5151 24.7661 36.2826C24.6126 37.3572 24.2544 38.3294 24.0497 39.404C23.9473 39.9157 23.7938 40.0692 23.231 39.9157C22.5658 39.6598 21.5935 39.8133 21.2865 39.2505C20.9795 38.7388 21.5424 37.92 21.5935 37.2037C21.747 36.5385 21.9006 35.8733 22.1052 35.3104C22.2076 34.901 22.1052 34.7475 21.6959 34.6452C20.0585 34.1335 20.0585 34.1335 19.6491 35.7709C19.3932 36.5896 19.2397 37.4083 19.0862 38.3294C18.9839 38.7388 18.8304 38.8411 18.5234 38.6364H18.421C17.7046 38.4829 16.6812 38.4829 16.3742 37.9712C15.9649 37.5619 16.5277 36.6408 16.6812 35.9244C16.8348 35.2592 16.9371 34.6963 17.1929 34.1335C17.3465 33.6218 17.1929 33.4683 16.7836 33.4171C15.2997 33.1101 13.8157 32.7007 12.383 32.3425C11.9736 32.2402 11.8713 32.0867 12.076 31.6773C12.383 30.961 12.7412 30.1934 13.0482 29.477C13.2017 29.0677 13.4576 29.0677 13.7646 29.17C14.2763 29.3235 14.7368 29.4259 15.2997 29.477C15.9649 29.6306 16.3742 29.3235 16.5277 28.6583C17.5 24.6671 18.5745 20.6247 19.5468 16.6334C19.7003 15.8147 19.3932 15.1495 18.5745 14.8937C18.0117 14.7402 17.4488 14.5867 16.9371 14.4843C16.4254 14.382 16.3742 14.1773 16.5277 13.7679C16.7836 13.0516 16.6812 11.977 17.1929 11.5676C17.7046 11.1583 18.6769 11.8235 19.3932 11.977C20.3143 12.1305 21.133 12.3863 22.0029 12.6422C22.5146 12.7445 22.6681 12.7445 22.8216 12.1305C23.0775 11.0048 23.3845 9.82786 23.6403 8.70213C23.7427 8.29277 23.8962 8.19043 24.3055 8.29277C25.0219 8.54862 26.0453 8.44628 26.4547 8.95798C26.7617 9.46968 26.1988 10.3396 26.0453 11.0048C25.8918 11.5676 25.7895 12.2328 25.5336 12.7957C25.4313 13.1027 25.5336 13.2051 25.8406 13.3586C27.5804 13.9214 27.5804 13.9214 27.9898 12.2328C28.1433 11.4141 28.3991 10.6978 28.5526 9.87904C28.655 9.46968 28.8085 9.36734 29.1155 9.57201C29.8319 9.82786 30.8553 9.72552 31.2646 10.2372C31.674 10.7489 31.0088 11.6188 30.9576 12.284C30.8041 13.0004 30.2924 13.9214 30.4459 14.5866C30.5994 15.1495 31.7763 15.2519 32.3904 15.5589C32.7997 15.8147 33.2091 15.9682 33.5161 16.2241C35.2559 17.3498 36.0746 18.9361 35.8187 20.9829C35.5629 22.9273 34.5907 24.4112 32.6462 25.0764C32.3904 24.9741 32.288 25.0764 32.288 25.0764Z" fill="#1F3C71"/>
<path d="M67.0495 34.0882C67.0495 35.2664 67.0495 36.5287 66.8812 37.7069C66.6287 39.7266 65.703 40.6523 63.6833 40.8206C62.5051 40.989 61.1586 40.8206 59.8962 40.8206C59.3913 40.8206 59.0547 40.6523 59.0547 40.1474C59.0547 35.8554 59.0547 31.6477 59.0547 27.3557C59.0547 26.8508 59.223 26.5141 59.7279 26.6825C60.822 26.6825 61.916 26.6825 62.9259 26.6825C65.1981 26.8508 66.4604 27.8606 66.7129 30.217C66.8812 31.3952 66.8812 32.7417 67.0495 34.0882Z" fill="#1F3C71"/>
<path d="M58.9718 13.6374C58.9718 11.8701 58.9718 10.2711 58.9718 8.50385C58.9718 7.8306 59.1402 7.40982 59.8976 7.57813C60.8233 7.74644 61.749 7.57813 62.7589 7.57813C64.6103 7.57813 65.7043 8.50384 65.9568 10.2711C66.3776 12.4592 66.3776 14.5631 65.9568 16.7511C65.536 18.6026 64.442 19.6966 62.4222 19.8649C58.8877 20.1174 58.8877 20.1174 58.8877 16.667C58.9719 15.6571 58.9718 14.5631 58.9718 13.6374Z" fill="#1F3C71"/>
<path d="M153.225 24.2424C153.225 28.2819 153.225 32.3213 153.225 36.3608C153.225 37.0341 153.225 37.7073 153.057 38.3806C152.636 40.232 151.458 41.2419 149.522 41.2419C147.503 41.2419 146.409 40.3161 145.904 38.3806C145.735 37.7073 145.735 37.2024 145.735 36.5291C145.735 28.1977 145.735 19.9504 145.735 11.619C145.735 10.9457 145.735 10.2725 145.988 9.59925C146.493 7.74782 147.587 6.90625 149.607 6.90625C151.458 6.90625 152.552 7.83198 153.141 9.59925C153.309 10.2725 153.394 11.114 153.394 11.7873C153.225 16.0792 153.225 20.1187 153.225 24.2424Z" fill="#1F3C71"/>
<path d="M124.649 37.9187C124.649 37.5093 124.752 37.1 124.649 36.6906C124.547 36.0254 124.905 35.8719 125.468 35.9742C126.133 36.0766 126.85 35.8719 127.105 36.6906C127.412 37.6117 127.515 38.5839 127.003 39.4538C126.747 39.8631 125.11 40.1701 124.803 39.9655C124.649 39.8631 124.649 39.7096 124.649 39.5561C124.649 38.9421 124.649 38.4815 124.649 37.9187Z" fill="#203B70"/>
<path d="M25.6871 31.8291C24.2032 31.7267 22.8216 31.4197 21.3376 31.0104C21.0306 30.908 20.826 30.7545 21.0306 30.4475C21.44 28.7077 21.8493 27.0191 22.361 25.3817C22.4634 25.1258 22.4634 24.87 22.8727 24.9723C24.6125 25.3817 26.4035 25.791 27.9385 26.7633C28.8596 27.3261 29.576 28.1448 29.4736 29.3218C29.3713 30.7033 28.5014 31.6244 27.1198 31.8802C26.6081 31.8291 26.1988 31.8291 25.6871 31.8291Z" fill="white"/>
<path d="M27.2219 22.7728C25.8403 22.7728 24.6634 22.4658 23.5377 22.1076C23.1283 22.0053 23.1283 21.8518 23.2307 21.4424C23.64 19.9073 23.9471 18.4234 24.3564 16.8371C24.4588 16.5813 24.5099 16.4278 24.8681 16.5301C26.4032 16.9395 28.0406 17.1953 29.3711 18.2699C30.0874 18.8327 30.4456 19.6515 30.2921 20.5725C30.1386 21.4936 29.6269 22.1076 28.757 22.4658C28.143 22.7728 27.6313 22.824 27.2219 22.7728Z" fill="white"/>
</g>
</svg>
