<svg width="230" height="55" viewBox="0 0 230 55" fill="none" xmlns="http://www.w3.org/2000/svg">
<path d="M40.3406 27.2402L26.8936 40.6873H53.7877L40.3406 27.2402Z" fill="#B9B9B9"/>
<path d="M13.4471 27.242L0 13.7949V40.689L13.4471 27.242Z" fill="#E7E7E7"/>
<path d="M40.3406 27.242L53.7877 13.7949H26.8936L40.3406 27.242Z" fill="#B9B9B9"/>
<path d="M26.8933 13.7947L40.3404 0.347656H13.4463L26.8933 13.7947Z" fill="#CCCCCC"/>
<path d="M40.3406 54.1365L53.7877 40.6895H26.8936L40.3406 54.1365Z" fill="#C3C3C3"/>
<path d="M13.4471 54.1365L26.8941 40.6895H0L13.4471 54.1365Z" fill="#D3D3D3"/>
<path d="M40.3406 0.347656L26.8936 13.7947H53.7877L40.3406 0.347656Z" fill="#C3C3C3"/>
<path d="M0 13.7947H26.8941L13.4471 0.347656L0 13.7947Z" fill="#D3D3D3"/>
<path d="M26.8933 40.6895L13.4463 54.1365H40.3404L26.8933 40.6895Z" fill="#CCCCCC"/>
<path d="M13.4471 27.2402L0 40.6873H26.8941L13.4471 27.2402Z" fill="#DDDDDD"/>
<path d="M26.8941 13.7949H0L13.4471 27.242L26.8941 13.7949Z" fill="#DDDDDD"/>
<path fill-rule="evenodd" clip-rule="evenodd" d="M69.4046 32.1858C70.1161 32.1858 70.6497 31.9724 71.0055 31.5811C71.3612 31.1898 71.5391 30.6206 71.5391 29.8379H76.4483L76.4839 29.9447C76.5906 31.6878 75.8435 33.3954 74.5273 34.5337C73.1043 35.7433 71.29 36.3836 69.4046 36.3124C66.7721 36.3124 64.78 35.4942 63.357 33.8934C61.8985 32.1147 61.1158 29.8735 61.2225 27.5968V27.241C61.2225 24.6797 61.934 22.5808 63.357 20.9444C64.7444 19.308 66.7721 18.5253 69.369 18.5253C71.5391 18.5253 73.2822 19.1301 74.5985 20.3396C75.9503 21.6203 76.6262 23.4702 76.5195 25.32L76.4839 25.4267H71.5746C71.6102 24.7152 71.3968 24.0038 71.041 23.4346C70.6853 22.9365 70.1517 22.6875 69.4046 22.6875C68.373 22.6875 67.6615 23.1144 67.2702 23.9326C66.8077 24.9998 66.5942 26.1382 66.6654 27.2766V27.6323C66.6654 29.0553 66.8788 30.1937 67.2702 31.0119C67.6259 31.7589 68.373 32.1858 69.4046 32.1858ZM88.4368 23.5413H86.4802C85.8755 23.5413 85.3774 23.648 84.9861 23.8259C84.5948 24.0393 84.3102 24.3239 84.1323 24.7152V35.9923H78.7606V18.8099H83.8122L83.99 21.3357C84.2746 20.5175 84.7727 19.806 85.4486 19.2368C86.0178 18.7388 86.7648 18.4898 87.5119 18.4898C88.0099 18.4898 88.508 18.5609 89.006 18.6676L88.4368 23.5413ZM98.6466 28.415V28.5573H98.7533L101.599 18.8099H107.327L100.461 38.5181C99.9273 39.7987 99.2514 40.8304 98.3976 41.6486C97.5438 42.4668 96.2276 42.8937 94.3777 42.8937C93.9153 42.8937 93.5239 42.8581 93.2393 42.787C92.9547 42.7514 92.4923 42.6447 91.8519 42.4668L92.4923 38.6603L92.8124 38.7315L93.097 38.7671C93.9508 38.7671 94.5556 38.6248 94.9469 38.3757C95.3382 38.1267 95.6228 37.7354 95.8363 37.2374L96.2631 36.1346L90.2867 18.7744H96.0141L98.6466 28.415ZM119.315 27.4189C119.315 25.9959 119.102 24.7864 118.675 23.9326C118.248 23.0433 117.572 22.6164 116.647 22.6164C116.042 22.6164 115.509 22.7231 115.117 22.9365C114.691 23.15 114.37 23.4702 114.121 23.897V31.083C114.37 31.4388 114.726 31.7234 115.117 31.9012C115.616 32.0791 116.149 32.1858 116.683 32.1503C117.643 32.1503 118.284 31.7589 118.71 30.9763C119.173 29.9447 119.386 28.8419 119.315 27.7035V27.4189ZM124.687 27.7391C124.687 30.336 124.082 32.3993 122.944 33.9645C121.805 35.5298 119.956 36.3836 118.035 36.3124C116.505 36.348 115.082 35.6721 114.157 34.4626V42.5735H108.785V18.8099H113.801L114.015 20.6954C114.868 19.308 116.398 18.4542 118.035 18.4898C120.169 18.4898 121.805 19.308 122.979 20.9444C124.224 22.8654 124.829 25.1421 124.723 27.4189V27.7391H124.687ZM133.403 14.541V18.8099H136.32V22.5097H133.403V30.4071C133.403 31.0119 133.545 31.4388 133.758 31.7234C134.007 32.008 134.399 32.1503 134.754 32.1503C135.288 32.1503 135.822 32.1147 136.32 32.008L136.675 35.9923C135.608 36.2413 134.505 36.3836 133.367 36.3836C131.588 36.3836 130.272 35.8856 129.347 34.9606C128.422 34.0357 127.96 32.5416 127.96 30.5139V22.5808H125.541V18.8811H127.96V14.6122H133.403V14.541ZM143.043 27.5612C143.043 28.9842 143.257 30.1225 143.719 30.9407C144.182 31.7589 144.929 32.1503 146.031 32.1503C147.099 32.1503 147.846 31.7589 148.273 30.9052C148.735 30.087 148.949 28.9486 148.949 27.5256V27.1699C148.984 25.9959 148.771 24.8575 148.273 23.8259C147.81 22.9721 147.063 22.5808 145.96 22.5808C144.893 22.5808 144.146 23.0077 143.719 23.8615C143.257 24.7152 143.043 25.818 143.043 27.2054V27.5612ZM137.672 27.241C137.565 24.9287 138.347 22.6875 139.877 20.9444C141.336 19.308 143.399 18.4898 145.996 18.4898C148.628 18.4898 150.656 19.308 152.115 20.9444C153.609 22.6875 154.427 24.9287 154.32 27.241V27.5968C154.32 30.1937 153.573 32.2926 152.115 33.8934C150.656 35.5298 148.628 36.3124 145.996 36.3124C143.363 36.3124 141.3 35.4942 139.842 33.8934C138.347 32.1503 137.565 29.8735 137.672 27.5968V27.241ZM161.649 18.8099L161.862 21.229C162.431 20.3752 163.107 19.6993 163.961 19.2368C164.815 18.7388 165.74 18.4898 166.7 18.5253C168.408 18.5253 169.724 19.0589 170.649 20.1617C171.609 21.2646 172.072 23.0077 172.072 25.3912V36.0279H166.7V25.3556C166.7 24.3595 166.487 23.6836 166.095 23.2567C165.704 22.8654 165.099 22.6519 164.281 22.6519C163.392 22.6164 162.538 23.0077 161.969 23.6836V36.0279H156.633V18.8455H161.649V18.8099ZM182.495 22.6164C181.712 22.6164 181.143 22.8654 180.752 23.4346C180.361 23.9682 180.147 24.7152 180.04 25.6402L180.076 25.7113H184.701V25.32C184.701 24.4307 184.523 23.7903 184.167 23.3279C183.811 22.8298 183.278 22.6164 182.495 22.6164ZM182.886 36.3124C180.325 36.3124 178.333 35.5298 176.803 33.929C175.274 32.3281 174.455 30.1581 174.526 27.9525V27.3477C174.526 24.7152 175.202 22.5808 176.59 20.9444C177.977 19.308 179.934 18.4542 182.495 18.4898C184.843 18.4898 186.657 19.2012 187.973 20.5886C189.361 22.1539 190.072 24.1816 189.966 26.2449V29.0553H180.112L180.076 29.162C180.218 30.0514 180.538 30.7629 181.179 31.3321C181.784 31.9012 182.566 32.1858 183.598 32.1858C185.234 32.2214 186.871 31.8657 188.365 31.1186L189.645 34.3914C188.756 34.9962 187.76 35.4587 186.728 35.7788C185.519 36.1346 184.238 36.3124 182.886 36.3124ZM207.041 28.7707H207.148L208.998 18.8099H213.943L209.887 35.9923H205.334L202.523 26.8853H202.417L199.606 35.9923H195.053L190.997 18.8099H195.942L197.828 28.8419H197.934L200.745 18.8099H204.124L207.041 28.7707ZM224.828 31.1542C224.828 30.7273 224.579 30.3715 224.117 30.0158C223.299 29.5533 222.409 29.2687 221.484 29.1264C219.848 28.8774 218.283 28.2727 216.931 27.2766C215.899 26.4584 215.366 25.2133 215.401 23.897C215.401 22.4029 216.113 20.98 217.322 20.055C218.603 19.0234 220.346 18.4898 222.48 18.4898C224.793 18.4898 226.607 18.9878 227.959 20.0195C229.24 20.9088 229.987 22.4029 229.916 23.9682L229.88 24.0749H224.686C224.686 23.399 224.508 22.901 224.152 22.5452C223.797 22.1895 223.263 22.0116 222.516 22.0116C221.947 22.0116 221.484 22.1539 221.093 22.4741C220.737 22.7587 220.524 23.1856 220.524 23.648C220.559 24.1105 220.773 24.5374 221.164 24.7864C221.982 25.2489 222.907 25.5335 223.832 25.6402C225.504 25.8892 227.105 26.5295 228.493 27.49C229.524 28.3438 230.093 29.6245 229.987 30.9763C229.987 32.506 229.311 33.7867 227.923 34.7828C226.322 35.85 224.401 36.3836 222.48 36.2769C220.133 36.2769 218.283 35.6721 216.931 34.4982C215.579 33.3242 214.903 31.9724 214.974 30.5139L215.01 30.4071H219.884C219.919 31.2253 220.133 31.7945 220.631 32.1503C221.093 32.506 221.769 32.6839 222.623 32.6839C223.334 32.6839 223.903 32.5416 224.259 32.257C224.651 32.0791 224.828 31.6522 224.828 31.1542Z" fill="white"/>
</svg>
