<svg width="236" height="55" viewBox="0 0 236 55" fill="none" xmlns="http://www.w3.org/2000/svg">
<g opacity="0.5">
<path d="M19.293 21.1738C17.7365 21.1738 16.5059 21.8253 15.6733 23.0922C14.8046 24.359 14.3703 26.1327 14.3703 28.3768C14.3703 33.0462 16.1439 35.3989 19.6911 35.3989C20.777 35.3989 21.7905 35.2179 22.8402 34.9646C23.8175 34.675 24.8672 34.313 25.8807 33.8787V39.4529C23.8537 40.3216 21.5371 40.756 19.0034 40.756C15.3114 40.756 12.5243 39.7063 10.6059 37.5707C8.68745 35.4351 7.60156 32.3584 7.60156 28.3406C7.60156 25.8069 8.10831 23.5989 9.04942 21.6805C9.99052 19.7621 11.366 18.3143 13.1034 17.2646C14.8408 16.2149 17.0126 15.7081 19.3654 15.7081C22.0077 15.7081 24.469 16.2511 26.8942 17.4094L24.8672 22.5854C23.9985 22.1511 23.0574 21.8253 22.1887 21.5357C21.2476 21.2824 20.2703 21.1738 19.293 21.1738ZM48.1414 30.983C48.1414 34.0597 47.3089 36.4848 45.6801 38.186C44.0151 39.8873 41.7347 40.756 38.7666 40.756C35.9071 40.756 33.6629 39.8873 31.9617 38.1136C30.2605 36.34 29.4279 33.9873 29.4279 30.9468C29.4279 27.8701 30.2605 25.5173 31.8893 23.7799C33.5543 22.0787 35.9071 21.21 38.8752 21.21C40.7574 21.21 42.35 21.6081 43.7617 22.3682C45.2095 23.1284 46.2954 24.2867 47.0555 25.7707C47.7795 27.291 48.1414 28.9922 48.1414 30.983ZM35.9433 30.983C35.9433 32.5756 36.1605 33.8425 36.5948 34.675C37.0292 35.5075 37.7531 35.9419 38.8028 35.9419C39.7801 35.9419 40.504 35.5075 40.9384 34.675C41.3727 33.8063 41.5537 32.5756 41.5537 30.983C41.5537 29.3903 41.3365 28.1959 40.9384 27.3633C40.504 26.5308 39.7801 26.1689 38.8028 26.1689C37.8255 26.1689 37.1016 26.567 36.6672 27.3633C36.1605 28.1235 35.9433 29.3179 35.9433 30.983ZM58.385 40.4302H51.9059V21.6081H58.385V40.4302ZM51.7249 16.9026C51.7249 15.9253 52.0144 15.2014 52.5574 14.6946C53.1003 14.1879 54.0052 13.9707 55.1997 13.9707C56.3942 13.9707 57.2991 14.1879 57.8421 14.6946C58.385 15.2014 58.6746 15.8891 58.6746 16.8302C58.6746 18.7486 57.5163 19.6897 55.1997 19.6897C52.8832 19.7621 51.7249 18.821 51.7249 16.9026ZM74.8181 40.4302V30.1505C74.8181 28.8836 74.6371 27.9425 74.2752 27.3633C73.9494 26.7118 73.3341 26.386 72.574 26.386C71.4881 26.386 70.6917 26.8204 70.2212 27.6891C69.7144 28.5578 69.4973 30.0419 69.4973 32.2136V40.4664H63.0181V21.6443H67.9046L68.7371 23.9609H69.1353C69.6782 23.0922 70.4384 22.4044 71.4519 21.9701C72.4292 21.5357 73.5513 21.3186 74.8543 21.3186C76.9537 21.3186 78.5463 21.9339 79.7046 23.1284C80.8629 24.3228 81.4782 26.0603 81.4782 28.232V40.5026H74.8905L74.8181 40.4302ZM100.3 34.675C100.3 36.702 99.6488 38.186 98.2733 39.2357C96.8979 40.2854 94.9071 40.7922 92.3371 40.7922C90.9617 40.7922 89.7672 40.7198 88.7175 40.575C87.6678 40.394 86.6181 40.1406 85.5684 39.7425V34.5302C86.5457 34.9646 87.6678 35.3627 88.8623 35.6161C90.0568 35.9057 91.1065 36.0505 92.12 36.0505C93.5678 36.0505 94.2193 35.7247 94.2193 35.0732C94.2193 34.7474 94.0022 34.4578 93.604 34.2044C93.2059 33.9511 92.0476 33.4443 90.2016 32.648C88.5003 31.9241 87.2697 31.164 86.5819 30.2228C85.9304 29.2817 85.5322 28.1959 85.5322 26.748C85.5322 24.9744 86.1838 23.5989 87.5592 22.694C88.9347 21.7167 90.8169 21.21 93.2783 21.21C94.5451 21.21 95.7034 21.3909 96.7531 21.6443C97.839 21.9339 98.9973 22.2959 100.156 22.8026L98.3819 26.9652C97.5132 26.567 96.6083 26.2412 95.631 25.9879C94.6537 25.6983 93.8574 25.5535 93.2783 25.5535C92.2286 25.5535 91.6856 25.8431 91.6856 26.3137C91.6856 26.6394 91.8666 26.929 92.2286 27.1462C92.5905 27.3633 93.6764 27.7977 95.4862 28.5216C96.7893 29.0646 97.8028 29.6075 98.4181 30.1143C99.0697 30.621 99.5764 31.2725 99.866 31.9965C100.119 32.7928 100.3 33.6253 100.3 34.675ZM115.177 40.756C114.236 40.756 113.367 40.575 112.607 40.3216C111.847 39.9959 111.123 39.4529 110.363 38.6204H110.073C110.291 39.9235 110.363 40.756 110.363 41.0817V48.6106H103.884V21.6081H109.168L110.11 24.0333H110.399C111.594 22.2235 113.259 21.2824 115.394 21.2824C117.494 21.2824 119.122 22.1511 120.281 23.8523C121.475 25.5535 122.054 27.9787 122.054 30.9468C122.054 33.9873 121.439 36.3762 120.172 38.1498C118.941 39.8873 117.276 40.756 115.177 40.756ZM113.005 26.3498C112.064 26.3498 111.34 26.6756 110.978 27.3995C110.58 28.0511 110.363 29.1008 110.363 30.44V30.9468C110.363 32.5394 110.58 33.7339 111.014 34.4578C111.449 35.1817 112.1 35.5437 113.041 35.5437C113.874 35.5437 114.489 35.2179 114.851 34.494C115.249 33.7701 115.394 32.5756 115.394 30.9106C115.394 29.3179 115.213 28.1597 114.851 27.4357C114.489 26.7118 113.874 26.3498 113.005 26.3498ZM134.868 40.756C131.719 40.756 129.33 39.9235 127.556 38.2946C125.855 36.6296 124.986 34.2406 124.986 31.1278C124.986 27.9425 125.819 25.5173 127.411 23.8161C129.004 22.1149 131.321 21.2462 134.289 21.2462C137.148 21.2462 139.284 21.9701 140.84 23.4541C142.397 24.9382 143.157 27.0376 143.157 29.8247V32.7566H131.538C131.61 33.8063 131.972 34.6388 132.696 35.2179C133.42 35.8333 134.397 36.0867 135.664 36.0867C136.822 36.0867 137.872 35.9781 138.813 35.7609C139.791 35.5437 140.804 35.1455 141.962 34.675V39.3443C140.913 39.8511 139.863 40.213 138.813 40.4302C137.691 40.6474 136.352 40.756 134.868 40.756ZM134.506 25.6983C133.746 25.6983 133.058 25.9155 132.587 26.4222C132.081 26.929 131.755 27.6167 131.719 28.6664H137.329C137.329 27.7253 137.04 27.0014 136.569 26.4584C135.99 25.9879 135.302 25.6983 134.506 25.6983ZM159.083 40.4302L157.816 37.9689H157.708C156.839 39.0547 155.934 39.7787 155.029 40.1768C154.088 40.575 152.93 40.7922 151.518 40.7922C149.745 40.7922 148.333 40.2492 147.356 39.1995C146.306 38.1498 145.799 36.6296 145.799 34.675C145.799 32.6842 146.523 31.164 147.898 30.2228C149.274 29.2455 151.301 28.6664 153.943 28.5578L157.092 28.4492V28.1597C157.092 26.6032 156.332 25.8431 154.776 25.8431C153.4 25.8431 151.627 26.2775 149.564 27.2186L147.681 22.9112C149.889 21.7529 152.64 21.21 155.97 21.21C158.395 21.21 160.278 21.8253 161.581 23.0198C162.884 24.2143 163.572 25.8793 163.572 28.0149V40.3216H159.119L159.083 40.4302ZM154.305 36.159C155.065 36.159 155.753 35.8695 156.332 35.3989C156.875 34.8922 157.165 34.2406 157.165 33.4805V31.9965L155.681 32.0689C153.545 32.1413 152.495 32.9376 152.495 34.4216C152.423 35.6161 153.038 36.159 154.305 36.159ZM174.322 29.8247C175.082 28.5578 175.77 27.6167 176.349 26.8928L180.584 21.5719H187.859L181.308 29.6075L188.221 40.4302H180.801L176.675 33.6615L174.575 35.2541V40.3578H168.024V14.5136H174.575V24.6848C174.575 26.4584 174.467 28.1597 174.177 29.7885H174.322V29.8247ZM199.551 40.756C196.402 40.756 194.013 39.9235 192.239 38.2946C190.538 36.6296 189.669 34.2406 189.669 31.1278C189.669 27.9425 190.502 25.5173 192.094 23.8161C193.687 22.1149 196.003 21.2462 198.971 21.2462C201.831 21.2462 203.967 21.9701 205.523 23.4541C207.079 24.9382 207.84 27.0376 207.84 29.8247V32.7566H196.184C196.257 33.8063 196.619 34.6388 197.343 35.2179C198.067 35.8333 199.044 36.0867 200.311 36.0867C201.469 36.0867 202.519 35.9781 203.46 35.7609C204.437 35.5437 205.451 35.1455 206.609 34.675V39.3443C205.559 39.8511 204.51 40.213 203.46 40.4302C202.374 40.6474 201.035 40.756 199.551 40.756ZM199.152 25.6983C198.392 25.6983 197.705 25.9155 197.234 26.4222C196.727 26.929 196.402 27.6167 196.365 28.6664H201.976C201.976 27.7253 201.686 27.0014 201.216 26.4584C200.637 25.9879 199.985 25.6983 199.152 25.6983ZM222.825 21.2462C223.368 21.2462 223.911 21.3186 224.418 21.3547L224.816 21.4271L224.2 27.5443C223.657 27.4357 222.933 27.3271 221.992 27.3271C220.544 27.3271 219.531 27.6529 218.916 28.3044C218.264 28.956 217.938 29.8971 217.938 31.0916V40.3216H211.459V21.4995H216.31L217.287 24.54H217.613C218.156 23.5627 218.916 22.7302 219.857 22.1149C220.906 21.5719 221.884 21.2462 222.825 21.2462Z" fill="white"/>
</g>
</svg>
