<svg width="227" height="42" viewBox="0 0 227 42" fill="none" xmlns="http://www.w3.org/2000/svg">
<path d="M26.2261 34.4998C30.5996 33.8695 34.5797 32.3027 37.7425 29.9615C41.4351 27.2422 43.6294 22.1456 43.0846 16.1486C42.4793 9.37724 36.3049 0.516826 21.9887 0.552844C16.1927 0.552844 10.5631 1.92153 6.55273 5.14513C2.61807 8.31472 0 13.0871 0 17.9135C0 25.7834 6.4468 32.3567 16.3894 34.2477L27.3005 41.4512L26.2261 34.4998Z" fill="white"/>
<path d="M13.499 7.43124C12.5305 7.43124 11.7284 7.86346 11.1231 8.7459C10.5178 9.62834 10.2151 10.7629 10.2151 12.1496C10.2151 14.1126 10.6237 15.7154 11.4258 16.94C12.243 18.1826 13.2872 18.7949 14.5735 18.7949C15.6177 18.7949 16.4954 18.3807 17.1916 17.5163C17.8877 16.6699 18.2509 15.6073 18.2509 14.3467C18.2509 12.4918 17.7818 10.871 16.8284 9.48426C15.875 8.11558 14.7854 7.43124 13.499 7.43124ZM14.3919 6.38672C16.5106 6.38672 18.2509 7.21513 19.6129 8.87196C20.9749 10.5288 21.6559 12.6538 21.6559 15.2471C21.6559 18.4707 20.5966 21.3522 18.493 23.8915C16.3895 26.4307 13.7412 28.0155 10.548 28.6278L9.26172 28.8799C9.11038 28.898 9.00445 28.916 8.88338 28.916C8.59585 28.916 8.45965 28.7539 8.47478 28.4117C8.48992 28.2316 8.53532 28.1236 8.62612 28.0875C8.71692 28.0515 8.98932 27.9615 9.47358 27.8534C11.002 27.4932 12.4851 26.6648 13.9379 25.3502C15.3907 24.0355 16.3592 22.6668 16.8284 21.2081L17.131 20.2716C17.237 19.9475 17.2975 19.6954 17.2975 19.4973C17.2975 19.1551 17.1916 18.993 16.9494 19.011C16.8435 19.029 16.7073 19.0831 16.5257 19.2091C15.9658 19.6233 15.2545 20.0015 14.4373 20.3077C13.605 20.6138 12.924 20.7759 12.364 20.7759C10.8658 20.7759 9.60978 20.1636 8.58072 18.921C7.56678 17.6964 7.06738 16.1656 7.06738 14.3647C7.06738 12.0235 7.76352 10.1146 9.12552 8.61983C10.5026 7.12509 12.2581 6.38672 14.3919 6.38672Z" fill="#184292"/>
<path d="M29.3887 7.43124C28.4202 7.43124 27.6181 7.86346 27.0128 8.7459C26.4074 9.62834 26.1048 10.7629 26.1048 12.1496C26.1048 14.1126 26.5134 15.7154 27.3154 16.94C28.1326 18.1826 29.1768 18.7949 30.4632 18.7949C31.5074 18.7949 32.3851 18.3807 33.0812 17.5163C33.7774 16.6699 34.1406 15.6073 34.1406 14.3467C34.1406 12.4918 33.6714 10.871 32.718 9.48426C31.7646 8.11558 30.6599 7.43124 29.3887 7.43124ZM30.2664 6.38672C32.3851 6.38672 34.1254 7.21513 35.4874 8.87196C36.8494 10.5288 37.5304 12.6538 37.5304 15.2471C37.5304 18.4707 36.4711 21.3522 34.3676 23.8915C32.264 26.4307 29.6157 28.0155 26.4226 28.6278L25.1362 28.8799C24.9849 28.898 24.879 28.916 24.7579 28.916C24.4704 28.916 24.3342 28.7539 24.3493 28.4117C24.3644 28.2316 24.4098 28.1236 24.5006 28.0875C24.5914 28.0515 24.8638 27.9615 25.3481 27.8534C26.8766 27.4932 28.3596 26.6648 29.8124 25.3502C31.2501 24.0355 32.2338 22.6668 32.7029 21.2081L33.0056 20.2716C33.1115 19.9475 33.172 19.6954 33.172 19.4973C33.172 19.1551 33.0661 18.993 32.824 19.011C32.718 19.029 32.5818 19.0831 32.4002 19.2091C31.8403 19.6233 31.129 20.0015 30.3118 20.3077C29.4946 20.6138 28.7985 20.7759 28.2386 20.7759C26.7404 20.7759 25.4843 20.1636 24.4552 18.921C23.4413 17.6964 22.9268 16.1656 22.9268 14.3647C22.9268 12.0235 23.6229 10.1146 24.9849 8.61983C26.3772 7.12509 28.1326 6.38672 30.2664 6.38672Z" fill="#184292"/>
<path d="M83.7469 4.56962C83.2324 4.56962 82.9449 4.82175 82.8843 5.30799L82.733 6.46056L82.4909 8.15341L82.279 9.79223C82.1579 10.4225 82.0823 10.9088 82.0671 11.269C82.0369 11.6652 82.2639 11.8453 82.7027 11.8453C83.0054 11.8453 83.2475 11.5931 83.3989 11.0709L83.5653 10.5486C83.9891 9.17992 84.2917 8.31549 84.5339 7.97332C84.776 7.63115 85.2451 7.30699 85.9715 7.03685C86.9703 6.67667 88.8166 6.47857 91.5557 6.47857C92.721 6.47857 93.2961 6.98282 93.2961 7.97332V24.7397L93.3112 25.6221C93.3112 26.7387 93.0237 27.6211 92.4335 28.2875C91.8584 28.9358 91.0412 29.296 89.9667 29.35C89.5581 29.386 89.2857 29.422 89.1798 29.5121C89.0587 29.6021 88.9831 29.7822 88.9679 30.0703C88.9528 30.4125 89.1647 30.5746 89.5884 30.5746C89.77 30.5746 90.1029 30.5566 90.5721 30.5026L102.134 30.4305C102.376 30.4485 102.558 30.4485 102.648 30.4485C103.072 30.4485 103.284 30.3045 103.284 29.9983C103.284 29.5841 103.042 29.368 102.543 29.332C100.848 29.2419 99.6672 28.7377 98.9862 27.8552C98.3203 26.9728 97.9874 25.46 97.9874 23.335V9.10788C97.9874 7.9373 98.2447 7.19893 98.7441 6.91079C99.2586 6.60464 100.545 6.46056 102.618 6.46056C104.162 6.46056 105.342 6.71269 106.144 7.23495C106.961 7.75721 107.506 8.60363 107.794 9.77422C107.915 10.2605 108.127 10.4946 108.445 10.4946C108.823 10.4946 108.989 10.2965 108.989 9.86426C108.989 9.46806 108.944 8.9278 108.838 8.26146C108.717 7.45106 108.641 6.94681 108.641 6.7307L108.535 5.36202C108.505 4.78573 108.096 4.49758 107.34 4.49758C107.234 4.46157 83.8983 4.56962 83.7469 4.56962Z" fill="white"/>
<path d="M69.2959 4.98205C69.2959 5.21616 69.4018 5.37824 69.5834 5.46829C69.7802 5.55833 70.2342 5.66639 70.9303 5.75643C72.0956 5.91851 72.8976 6.24267 73.3365 6.74693C73.7754 7.25118 73.9872 8.06158 73.9872 9.21416V24.2517L73.9721 25.9265C73.9721 27.025 73.8056 27.7994 73.4878 28.2677C73.17 28.7359 72.5193 29.1321 71.5356 29.4743L70.9303 29.9245L70.9606 30.0686C71.0362 30.3387 71.233 30.4648 71.5356 30.4648H82.1895C83.0824 30.4648 83.5212 30.2847 83.5212 29.9065C83.5212 29.5103 83.1883 29.3302 82.5224 29.3302C81.5085 29.3302 80.6762 29.0781 80.0406 28.5558C79.405 28.0336 79.0115 27.2952 78.845 26.3227L78.6786 24.4317V8.40375C78.6786 7.32321 78.8299 6.60285 79.1023 6.26068C79.3898 5.9005 80.0254 5.64838 80.994 5.50431C81.2664 5.46829 81.4328 5.41426 81.5085 5.32422C81.569 5.25218 81.6144 5.0901 81.6144 4.85598C81.6144 4.54983 81.3118 4.54983 80.8578 4.54983C80.1011 4.54983 70.0374 4.4958 69.7953 4.47779C69.7802 4.47779 69.7802 4.47779 69.765 4.47779C69.4624 4.45978 69.2959 4.63987 69.2959 4.98205Z" fill="white"/>
<path d="M113.712 7.08887C112.138 8.33149 110.882 9.9523 109.959 11.9333C109.021 13.9143 108.552 15.9493 108.552 18.0383C108.552 21.8382 109.793 24.9178 112.305 27.2769C114.817 29.6361 118.055 30.8247 122.081 30.8247C126.227 30.8247 129.723 29.348 132.538 26.4125C133.613 25.2779 134.157 24.4495 134.157 23.9453C134.157 23.6571 134.021 23.5311 133.764 23.5311C133.582 23.5491 133.401 23.6571 133.219 23.8372L131.887 25.1699C130.994 26.0703 129.784 26.8267 128.24 27.439C126.697 28.0513 125.229 28.3575 123.852 28.3575C121.521 28.3575 119.357 27.457 117.374 25.6381C114.726 23.2069 113.425 19.9653 113.425 15.8953C113.425 12.7797 114.227 10.2404 115.846 8.29547C117.465 6.33249 119.554 5.36001 122.141 5.36001C125.062 5.36001 127.695 6.53059 130.071 8.90778C130.662 9.48407 131.267 10.2765 131.918 11.2489C132.568 12.2394 132.947 12.9598 133.053 13.446C133.113 13.7522 133.264 13.8963 133.476 13.8963C133.855 13.8963 134.036 13.6622 134.036 13.1759C134.036 12.8517 134.006 12.4736 133.93 12.0594L133.552 6.67466C133.552 5.84625 133.34 5.45005 132.916 5.45005C132.735 5.45005 132.614 5.48607 132.538 5.59413L132.114 6.18842C131.978 6.38652 131.781 6.49457 131.494 6.49457C131.282 6.49457 131.025 6.42254 130.752 6.26046L129.405 5.5401C127.514 4.5316 125.289 4.02734 122.732 4.02734C119.312 4.02734 116.3 5.05386 113.712 7.08887Z" fill="white"/>
<path d="M142.979 25.7125C141.057 23.2453 140.073 20.0217 140.073 16.0597C140.073 12.7101 140.83 10.0988 142.388 8.22582C143.932 6.35289 146.081 5.39841 148.82 5.39841C151.378 5.39841 153.617 6.22682 155.494 7.84763C156.795 8.94618 157.824 10.4589 158.611 12.3319C159.383 14.2048 159.777 16.1498 159.777 18.1308C159.777 21.5525 158.929 24.2898 157.265 26.3249C155.585 28.3599 153.345 29.3864 150.56 29.3864C147.443 29.4224 144.916 28.1798 142.979 25.7125ZM143.796 5.14629C141.753 5.92067 140.073 6.96519 138.741 8.31587C137.591 9.46844 136.683 10.8731 136.017 12.566C135.351 14.2588 135.019 15.9517 135.019 17.6805C135.019 21.6785 136.35 24.8661 138.983 27.2613C141.632 29.6565 145.173 30.8451 149.577 30.8451C154.192 30.8451 157.824 29.4764 160.473 26.721C163.182 23.9116 164.529 20.4899 164.529 16.4379C164.529 12.7281 163.212 9.72057 160.594 7.43343C157.976 5.14628 154.541 4.01172 150.273 4.01172C148.003 4.01172 145.839 4.38991 143.796 5.14629Z" fill="white"/>
<path d="M179.421 4.55138C178.952 4.55138 178.725 4.73147 178.725 5.09165C178.725 5.37979 178.936 5.54187 179.36 5.57789C182.463 5.77599 184.006 7.811 184.006 11.6829V19.859L183.855 24.3433C183.855 25.892 183.628 27.0626 183.174 27.891C182.705 28.7194 181.978 29.2597 180.979 29.5298C180.586 29.6379 180.374 29.818 180.374 30.0701C180.374 30.3763 180.571 30.5383 180.934 30.5383C181.146 30.5383 190.12 30.5023 190.286 30.5023C190.71 30.5023 190.922 30.3042 190.922 29.926C190.922 29.6379 190.71 29.4758 190.302 29.4398C188.092 29.2417 186.745 28.4493 186.322 27.0446C185.898 25.7299 185.686 23.1186 185.686 19.1927V11.863L185.701 11.3047C185.701 10.7465 185.868 10.4583 186.185 10.4583C186.306 10.4583 186.533 10.6204 186.866 10.9626L205.48 30.0521C205.738 30.3222 205.995 30.4483 206.237 30.4663C206.509 30.4843 206.797 30.3042 206.797 29.944L206.948 10.6384V9.71996C206.948 7.14467 207.826 5.70395 209.597 5.3978C210.035 5.32576 210.247 5.28975 210.247 4.96558C210.247 4.6054 209.96 4.55138 209.521 4.55138H200.426C200.032 4.55138 199.775 4.55138 199.775 4.89355C199.775 5.16368 200.002 5.30775 200.441 5.34377C202.333 5.46984 203.604 6.06413 204.27 7.10865C204.92 8.15317 205.238 10.1522 205.238 13.1056C205.238 15.6269 205.178 18.2742 205.041 21.0476C205.011 21.822 204.86 22.2002 204.572 22.2002C204.27 22.2002 203.649 21.732 202.711 20.7595C202.711 20.7595 187.668 5.0016 187.426 4.82151C187.184 4.64142 186.851 4.56939 186.427 4.56939C186.125 4.53337 179.421 4.55138 179.421 4.55138Z" fill="white"/>
<path d="M211.776 6.1344C210.308 7.52109 209.566 9.26796 209.566 11.357C209.566 13.1579 210.096 14.5806 211.14 15.6611C212.199 16.7417 214.182 17.8763 217.118 19.1009L220.235 20.3795C221.628 20.9378 222.611 21.5501 223.171 22.1804C223.731 22.8107 224.019 23.6391 224.019 24.6296C224.019 25.8903 223.489 26.9888 222.399 27.9613C221.31 28.9338 220.069 29.42 218.692 29.42C216.906 29.42 215.211 28.6816 213.546 27.2229C211.882 25.7462 210.732 23.9453 210.066 21.7842C209.99 21.4781 209.854 21.334 209.657 21.334C209.233 21.334 209.021 21.6401 209.021 22.2344C209.021 22.7027 210.58 28.9518 210.671 29.0598C210.777 29.1679 211.14 29.2759 211.776 29.402C212.23 29.4921 212.926 29.6901 213.879 29.9603C215.937 30.5546 217.405 30.8427 218.359 30.8427C220.659 30.8427 222.687 30.0323 224.397 28.3935C226.122 26.7727 226.97 24.8637 226.97 22.6666C226.97 20.6857 226.349 18.9748 225.108 17.5701C224.049 16.3995 221.915 15.2109 218.677 13.9863C215.953 12.9778 214.333 12.2214 213.819 11.7892C213.017 11.0869 212.608 10.2585 212.608 9.28597C212.608 8.24145 213.062 7.341 213.985 6.56661C214.908 5.79222 215.968 5.41404 217.193 5.41404C218.979 5.41404 220.674 6.04435 222.278 7.341C223.882 8.61964 224.881 10.1324 225.26 11.8973C225.365 12.3655 225.547 12.6176 225.789 12.6176C226.122 12.6176 226.304 12.3475 226.304 11.8072C226.304 11.7172 225.789 5.64815 225.789 5.64815C225.789 5.23395 225.638 5.01784 225.35 5.01784C225.244 5.01784 225.138 5.03585 225.033 5.08987L224.261 5.45005C224.049 5.5401 223.867 5.57612 223.655 5.57612C223.398 5.57612 222.959 5.46806 222.354 5.23395L220.977 4.71169C219.751 4.26146 218.495 4.02734 217.224 4.02734C215.075 4.02734 213.259 4.72969 211.776 6.1344Z" fill="white"/>
<path d="M163.53 4.9832C163.53 5.21732 163.636 5.3794 163.818 5.46944C164.015 5.55949 164.469 5.66754 165.165 5.75758C166.33 5.91967 167.132 6.26184 167.556 6.74808C167.995 7.25233 168.222 8.06273 168.222 9.21531V24.2528L168.206 25.9276C168.206 27.0262 168.04 27.8006 167.722 28.2688C167.404 28.737 166.754 29.1513 165.755 29.4754L165.15 29.9256L165.18 30.0697C165.255 30.3398 165.452 30.4839 165.74 30.4839H176.409C177.302 30.4839 177.74 30.3038 177.74 29.9256C177.74 29.5294 177.408 29.3494 176.742 29.3494C175.728 29.3494 174.895 29.0972 174.26 28.575C173.624 28.0527 173.231 27.3143 173.064 26.3419L172.898 24.4509V8.3869C172.898 7.30636 173.049 6.586 173.322 6.24383C173.609 5.88365 174.245 5.63152 175.213 5.48745C175.486 5.45143 175.652 5.3974 175.728 5.30736C175.788 5.23532 175.834 5.07324 175.834 4.83913C175.834 4.53297 175.486 4.53297 175.032 4.53297C174.29 4.53297 164.257 4.47895 164.015 4.46094C163.999 4.46094 163.984 4.46094 163.984 4.46094C163.682 4.46094 163.53 4.64103 163.53 4.9832Z" fill="white"/>
<path d="M53.5867 26.7177C53.4808 24.6467 53.4354 23.1339 53.4354 21.7832C53.4354 20.4326 53.4202 18.8298 53.9348 18.1274C54.5552 17.299 55.9475 17.299 56.9312 17.299C59.0196 17.299 59.64 17.371 61.2896 17.7672C64.1346 18.4516 65.5874 20.2705 65.5874 23.2059C65.5874 24.7187 65.1486 26.0153 64.2708 27.0959C63.1964 28.3925 61.2139 29.0409 58.3083 29.0409C55.3573 29.0589 53.6775 28.5546 53.5867 26.7177ZM53.9953 15.3C53.617 15.0118 53.4202 14.4896 53.4202 13.7512V9.03287C53.4202 7.97034 53.4959 6.8898 54.0256 6.47559C54.5098 6.07939 55.327 6.11541 56.5377 6.11541C58.6564 6.11541 60.3664 6.18745 61.6528 7.32201C62.9542 8.47459 63.605 9.98734 63.605 11.8783C63.605 14.1834 62.4397 15.4801 60.1092 15.7502H56.008C55.0546 15.7502 54.3888 15.5881 53.9953 15.3ZM45.0515 4.60266L44.537 4.58465C44.1435 4.58465 43.9619 4.76474 43.9619 5.14293C43.9619 5.4851 44.1132 5.64718 44.4008 5.68319L45.339 5.80926C45.7779 5.84528 47.4426 6.33152 48.1841 7.55613C48.5624 8.18644 48.6684 9.06888 48.6835 9.77123C48.7289 14.2195 48.7743 22.7377 48.7743 26.5376C48.7743 27.7262 48.517 28.4466 48.29 28.7707C47.7755 29.4911 46.5043 29.5091 46.2622 29.5451C45.8838 29.6171 45.7174 29.7792 45.7174 30.0674C45.7174 30.4095 45.9141 30.5716 46.3378 30.5716C48.2144 30.5716 48.2144 30.5536 60.321 30.4456C63.3931 30.4456 65.8447 29.7252 67.6607 28.2665C69.4616 26.8257 70.3696 24.8448 70.3696 22.3595C70.3696 20.7207 69.8853 19.352 68.8865 18.2535C67.9028 17.1549 66.556 16.4526 64.8459 16.1824C64.3011 16.1104 64.0287 15.9483 64.059 15.7322C64.0741 15.5881 64.3314 15.4261 64.8308 15.228C67.0251 14.3635 68.0996 12.8148 68.0996 10.6177C68.0996 8.6907 67.2218 7.15993 65.4815 6.00736C63.726 4.85478 61.3652 4.58465 58.4748 4.58465C57.3549 4.54863 45.0515 4.60266 45.0515 4.60266Z" fill="white"/>
</svg>
