<svg width="195" height="60" viewBox="0 0 195 60" fill="none" xmlns="http://www.w3.org/2000/svg">
<path d="M27 1.73205C28.8564 0.660254 31.1436 0.660254 33 1.73205L52.9808 13.2679C54.8372 14.3397 55.9808 16.3205 55.9808 18.4641V41.5359C55.9808 43.6795 54.8372 45.6603 52.9808 46.7321L33 58.2679C31.1436 59.3397 28.8564 59.3397 27 58.2679L7.01924 46.7321C5.16283 45.6603 4.01924 43.6795 4.01924 41.5359V18.4641C4.01924 16.3205 5.16283 14.3397 7.01924 13.2679L27 1.73205Z" fill="#D9D9D9" fill-opacity="0.46"/>
<mask id="mask0_698_71" style="mask-type:alpha" maskUnits="userSpaceOnUse" x="4" y="0" width="52" height="60">
<path d="M27 1.73205C28.8564 0.660254 31.1436 0.660254 33 1.73205L52.9808 13.2679C54.8372 14.3397 55.9808 16.3205 55.9808 18.4641V41.5359C55.9808 43.6795 54.8372 45.6603 52.9808 46.7321L33 58.2679C31.1436 59.3397 28.8564 59.3397 27 58.2679L7.01924 46.7321C5.16283 45.6603 4.01924 43.6795 4.01924 41.5359V18.4641C4.01924 16.3205 5.16283 14.3397 7.01924 13.2679L27 1.73205Z" fill="#D9D9D9"/>
</mask>
<g mask="url(#mask0_698_71)">
<path d="M36 45V15H25.5V45H36Z" fill="white" fill-opacity="0.46"/>
<path d="M23.5 15L1 41L7 49L36 15H23.5Z" fill="white"/>
<path d="M38 45L60.5 19L54.5 11L25.5 45H38Z" fill="white"/>
</g>
<path d="M85.2698 39H80.3219L73.7331 29.0537V39H68.7852V21.2028H73.7331L80.3219 31.2752V21.2028H85.2698V39ZM93.0361 25.1661V28.0692H98.7161V31.8306H93.0361V35.0366H99.4734V39H88.0882V21.2028H99.4734V25.1661H93.0361ZM126.986 21.2028L122.619 39H116.535L114.086 28.0945L111.587 39H105.503L101.186 21.2028H106.538L108.608 33.3705L111.41 21.2028H116.838L119.564 33.2695L121.634 21.2028H126.986ZM135.801 39.1767C133.731 39.1767 132.031 38.6887 130.701 37.7125C129.372 36.7196 128.656 35.3059 128.555 33.4715H133.831C133.882 34.0942 134.067 34.5486 134.387 34.8347C134.707 35.1208 135.119 35.2638 135.624 35.2638C136.078 35.2638 136.448 35.1545 136.735 34.9357C137.038 34.7001 137.189 34.3803 137.189 33.9764C137.189 33.4547 136.945 33.0508 136.457 32.7647C135.969 32.4786 135.178 32.1588 134.084 31.8054C132.923 31.4183 131.98 31.048 131.257 30.6946C130.55 30.3244 129.927 29.7942 129.389 29.1042C128.867 28.3974 128.606 27.4802 128.606 26.3526C128.606 25.2082 128.892 24.2321 129.464 23.4243C130.036 22.5996 130.827 21.9769 131.837 21.5562C132.847 21.1355 133.991 20.9251 135.27 20.9251C137.34 20.9251 138.99 21.4131 140.218 22.3893C141.464 23.3485 142.128 24.7033 142.213 26.4536H136.836C136.819 25.915 136.65 25.5111 136.331 25.2419C136.028 24.9726 135.632 24.838 135.144 24.838C134.774 24.838 134.471 24.9473 134.235 25.1661C134 25.3849 133.882 25.6963 133.882 26.1002C133.882 26.4368 134.008 26.7313 134.261 26.9837C134.53 27.2193 134.858 27.4297 135.245 27.6148C135.632 27.7831 136.204 28.0019 136.962 28.2712C138.089 28.6583 139.015 29.0453 139.739 29.4324C140.479 29.8027 141.11 30.3328 141.632 31.0228C142.171 31.696 142.44 32.5543 142.44 33.5977C142.44 34.658 142.171 35.6088 141.632 36.4503C141.11 37.2918 140.345 37.9566 139.335 38.4446C138.342 38.9327 137.164 39.1767 135.801 39.1767ZM156.1 29.8616C157.143 30.0972 157.968 30.6189 158.574 31.4267C159.197 32.2177 159.508 33.1265 159.508 34.1531C159.508 35.6678 158.986 36.8542 157.943 37.7125C156.899 38.5708 155.435 39 153.55 39H144.74V21.2028H153.273C155.09 21.2028 156.512 21.6067 157.539 22.4145C158.582 23.2223 159.104 24.3583 159.104 25.8225C159.104 26.8659 158.826 27.741 158.271 28.4479C157.732 29.1379 157.009 29.6091 156.1 29.8616ZM149.688 28.2712H152.187C153.432 28.2712 154.055 27.7579 154.055 26.7313C154.055 25.671 153.432 25.1409 152.187 25.1409H149.688V28.2712ZM152.566 35.0114C153.811 35.0114 154.434 34.4897 154.434 33.4463C154.434 32.9077 154.266 32.4954 153.929 32.2093C153.609 31.9232 153.146 31.7801 152.54 31.7801H149.688V35.0114H152.566ZM175.081 21.2028V25.1409H170.335V39H165.387V25.1409H160.692V21.2028H175.081ZM176.306 30.0635C176.306 28.3132 176.668 26.7565 177.391 25.3933C178.132 24.0133 179.175 22.9446 180.522 22.1873C181.868 21.4131 183.416 21.0261 185.167 21.0261C187.388 21.0261 189.256 21.6235 190.771 22.8184C192.285 23.9965 193.262 25.6037 193.699 27.6401H188.373C188.053 26.9669 187.607 26.4536 187.035 26.1002C186.479 25.7467 185.831 25.57 185.091 25.57C183.946 25.57 183.029 25.9824 182.339 26.807C181.666 27.6148 181.329 28.7003 181.329 30.0635C181.329 31.4435 181.666 32.5459 182.339 33.3705C183.029 34.1783 183.946 34.5822 185.091 34.5822C185.831 34.5822 186.479 34.4055 187.035 34.0521C187.607 33.6987 188.053 33.1854 188.373 32.5122H193.699C193.262 34.5486 192.285 36.1642 190.771 37.3591C189.256 38.5372 187.388 39.1262 185.167 39.1262C183.416 39.1262 181.868 38.7476 180.522 37.9902C179.175 37.2161 178.132 36.1474 177.391 34.7842C176.668 33.4042 176.306 31.8306 176.306 30.0635Z" fill="white"/>
</svg>
