<svg width="218" height="43" viewBox="0 0 218 43" fill="none" xmlns="http://www.w3.org/2000/svg">
<g opacity="0.5" clip-path="url(#clip0_673_105984)">
<path d="M72.628 15.7039H65.3043V34.3642H60.0206V15.7039H52.7305V10.6543H72.628V15.7039Z" fill="white"/>
<path d="M74.5028 24.0641H81.1576C81.1131 23.3062 80.812 22.6485 80.2547 22.0912C79.7197 21.5337 78.9059 21.2551 77.8135 21.2551C76.8325 21.2551 76.0523 21.545 75.4726 22.1245C74.8929 22.7042 74.5697 23.3508 74.5028 24.0641ZM81.5255 28.3781L85.7725 29.582C85.3489 31.1203 84.4684 32.3911 83.1307 33.3943C81.793 34.3752 80.1209 34.8657 78.1144 34.8657C75.7067 34.8657 73.6557 34.0631 71.9613 32.458C70.2893 30.8527 69.4531 28.7013 69.4531 26.0037C69.4531 23.4177 70.2669 21.3108 71.8944 19.6834C73.5441 18.0559 75.4949 17.2422 77.7466 17.2422C80.3327 17.2422 82.3615 18.0002 83.8329 19.5161C85.3266 21.0098 86.0735 23.0943 86.0735 25.7697C86.0735 26.6168 86.0401 27.1407 85.9732 27.3414H74.4025C74.447 28.2554 74.8373 29.0247 75.5729 29.6489C76.3086 30.2508 77.1781 30.5518 78.1813 30.5518C79.898 30.5518 81.0127 29.8273 81.5255 28.3781Z" fill="white"/>
<path d="M95.3239 21.924C94.2315 21.924 93.3174 22.2917 92.5817 23.0275C91.8683 23.7632 91.5116 24.7776 91.5116 26.0706C91.5116 27.3414 91.8795 28.3447 92.6152 29.0803C93.3732 29.816 94.2984 30.1839 95.3908 30.1839C96.3048 30.1839 97.0517 29.9498 97.6314 29.4817C98.2333 28.9912 98.6346 28.4004 98.8352 27.7093L103.316 29.0803C102.915 30.6633 102.012 32.0232 100.608 33.1602C99.2254 34.2972 97.4864 34.8657 95.3908 34.8657C92.8938 34.8657 90.7759 34.0408 89.037 32.3911C87.3203 30.7189 86.4619 28.6122 86.4619 26.0706C86.4619 23.5068 87.298 21.4001 88.9701 19.7502C90.6645 18.0782 92.749 17.2422 95.2236 17.2422C97.3862 17.2422 99.1585 17.7995 100.541 18.9142C101.923 20.0289 102.815 21.4001 103.216 23.0275L98.6681 24.3986C98.4674 23.6851 98.0884 23.0943 97.5311 22.6262C96.9737 22.158 96.2379 21.924 95.3239 21.924Z" fill="white"/>
<path d="M109.821 24.599V34.3639H104.738V10.1523H109.821V18.8136C110.825 17.8104 112.24 17.3088 114.068 17.3088C116.142 17.3088 117.702 17.9331 118.75 19.1815C119.821 20.4077 120.356 21.9906 120.356 23.9302V34.3639H115.272V24.7997C115.272 23.9302 115.038 23.2391 114.57 22.7263C114.124 22.1911 113.455 21.9237 112.564 21.9237C111.783 21.9237 111.137 22.18 110.624 22.6928C110.134 23.1833 109.866 23.8186 109.821 24.599Z" fill="white"/>
<path d="M130.58 30.1839C131.627 30.1839 132.508 29.8273 133.222 29.1138C133.957 28.4004 134.326 27.3749 134.326 26.0372C134.326 24.6996 133.957 23.6851 133.222 22.9941C132.508 22.2806 131.627 21.924 130.58 21.924C129.555 21.924 128.674 22.2806 127.938 22.9941C127.203 23.7074 126.834 24.7218 126.834 26.0372C126.834 27.3525 127.203 28.3781 127.938 29.1138C128.674 29.8273 129.555 30.1839 130.58 30.1839ZM130.58 17.2422C133.099 17.2422 135.194 18.067 136.866 19.7168C138.561 21.3666 139.409 23.4733 139.409 26.0372C139.409 28.601 138.561 30.7189 136.866 32.3911C135.194 34.0408 133.099 34.8657 130.58 34.8657C128.083 34.8657 125.987 34.0297 124.293 32.3576C122.598 30.6855 121.751 28.5788 121.751 26.0372C121.751 23.4957 122.598 21.4001 124.293 19.7502C125.987 18.0782 128.083 17.2422 130.58 17.2422Z" fill="white"/>
<path d="M146.092 40.7153H141.009V17.7411H145.924V19.4466C146.303 18.867 146.927 18.3764 147.797 17.9752C148.688 17.5516 149.692 17.3398 150.806 17.3398C153.17 17.3398 155.043 18.1535 156.424 19.781C157.83 21.3862 158.532 23.4595 158.532 26.001C158.532 28.5427 157.785 30.6383 156.291 32.2881C154.82 33.9156 152.925 34.7292 150.606 34.7292C148.51 34.7292 147.005 34.1719 146.092 33.0572V40.7153ZM152.445 29.1111C153.182 28.3754 153.549 27.3498 153.549 26.0345C153.549 24.7191 153.182 23.7048 152.445 22.9914C151.731 22.278 150.84 21.9213 149.77 21.9213C148.723 21.9213 147.83 22.278 147.095 22.9914C146.381 23.7048 146.024 24.7191 146.024 26.0345C146.024 27.3498 146.381 28.3754 147.095 29.1111C147.83 29.8246 148.723 30.1812 149.77 30.1812C150.84 30.1812 151.731 29.8246 152.445 29.1111Z" fill="white"/>
<path d="M163.984 24.0641H170.639C170.596 23.3062 170.294 22.6485 169.736 22.0912C169.202 21.5337 168.388 21.2551 167.296 21.2551C166.315 21.2551 165.534 21.545 164.955 22.1245C164.374 22.7042 164.052 23.3508 163.984 24.0641ZM171.008 28.3781L175.254 29.582C174.831 31.1203 173.951 32.3911 172.613 33.3943C171.275 34.3752 169.603 34.8657 167.596 34.8657C165.189 34.8657 163.137 34.0631 161.444 32.458C159.771 30.8527 158.935 28.7013 158.935 26.0037C158.935 23.4177 159.749 21.3108 161.376 19.6834C163.026 18.0559 164.977 17.2422 167.229 17.2422C169.814 17.2422 171.844 18.0002 173.315 19.5161C174.809 21.0098 175.556 23.0943 175.556 25.7697C175.556 26.6168 175.523 27.1407 175.455 27.3414H163.884C163.929 28.2554 164.319 29.0247 165.055 29.6489C165.79 30.2508 166.66 30.5518 167.663 30.5518C169.379 30.5518 170.495 29.8273 171.008 28.3781Z" fill="white"/>
<path d="M193.5 10.1523V31.3876C193.5 32.3908 193.544 33.3828 193.634 34.3639H188.751C188.662 33.8287 188.617 33.2937 188.617 32.7586C188.217 33.3383 187.614 33.8176 186.811 34.1966C186.031 34.5533 185.151 34.7317 184.17 34.7317C181.806 34.7317 179.845 33.918 178.285 32.2905C176.723 30.6407 175.943 28.5451 175.943 26.0035C175.943 23.5065 176.701 21.4444 178.217 19.8169C179.733 18.1671 181.662 17.3423 184.002 17.3423C186.277 17.3423 187.77 17.9107 188.484 19.0477V10.1523H193.5ZM182.13 22.9938C181.416 23.7072 181.059 24.7215 181.059 26.0369C181.059 27.3523 181.416 28.3778 182.13 29.1135C182.865 29.827 183.758 30.1837 184.805 30.1837C185.853 30.1837 186.733 29.827 187.447 29.1135C188.182 28.3778 188.551 27.3523 188.551 26.0369C188.551 24.7215 188.182 23.7072 187.447 22.9938C186.733 22.2804 185.853 21.9237 184.805 21.9237C183.758 21.9237 182.865 22.2804 182.13 22.9938Z" fill="white"/>
<path d="M201.492 34.3633H196.409V17.7429H201.492V34.3633ZM196.843 14.7666C196.263 14.1871 195.974 13.4847 195.974 12.6598C195.974 11.835 196.263 11.1327 196.843 10.5531C197.423 9.97342 198.114 9.68359 198.916 9.68359C199.741 9.68359 200.443 9.97342 201.024 10.5531C201.625 11.1327 201.926 11.835 201.926 12.6598C201.926 13.4847 201.625 14.1871 201.024 14.7666C200.443 15.3463 199.741 15.6361 198.916 15.6361C198.114 15.6361 197.423 15.3463 196.843 14.7666Z" fill="white"/>
<path d="M203.27 29.7826C203.27 28.3781 203.727 27.2522 204.64 26.4051C205.554 25.5356 206.736 24.9894 208.185 24.7665L212.098 24.1645C212.9 24.053 213.302 23.674 213.302 23.0275C213.302 22.5148 213.079 22.0912 212.633 21.7567C212.209 21.4001 211.619 21.2216 210.86 21.2216C210.013 21.2216 209.333 21.467 208.821 21.9574C208.33 22.4255 208.063 22.9941 208.018 23.6629L203.604 22.76C203.715 21.3777 204.396 20.1181 205.644 18.9811C206.914 17.8218 208.665 17.2422 210.893 17.2422C213.413 17.2422 215.264 17.8441 216.446 19.048C217.649 20.2518 218.251 21.7902 218.251 23.6629V31.7891C218.251 32.8369 218.318 33.6952 218.451 34.3641H213.87C213.759 33.9182 213.703 33.294 213.703 32.4914C212.744 34.052 211.184 34.8323 209.021 34.8323C207.261 34.8323 205.855 34.3418 204.808 33.3609C203.782 32.3576 203.27 31.1648 203.27 29.7826ZM210.259 31.1537C211.129 31.1537 211.853 30.8974 212.432 30.3846C213.012 29.8718 213.302 29.0247 213.302 27.843V27.1073L210.158 27.609C208.91 27.8095 208.285 28.4227 208.285 29.4482C208.285 29.9164 208.441 30.3177 208.753 30.652C209.088 30.9865 209.59 31.1537 210.259 31.1537Z" fill="white"/>
<path d="M28.6837 24.5298C28.684 24.8184 28.7601 25.102 28.9044 25.3519C29.0488 25.6017 29.2563 25.8093 29.5063 25.9536L34.6836 28.9422C34.9334 29.0862 35.2168 29.162 35.5052 29.1619C35.7936 29.1617 36.0768 29.0856 36.3264 28.9414C36.5762 28.7971 36.7836 28.5897 36.9276 28.3399C37.0718 28.0902 37.1477 27.8068 37.1477 27.5184V11.7669C37.1477 11.4788 37.0719 11.1956 36.9279 10.946C36.7838 10.6964 36.5765 10.4891 36.3269 10.345L22.6857 2.47357C22.4359 2.3296 22.1528 2.25385 21.8645 2.25391C21.5764 2.25397 21.2932 2.32984 21.0435 2.4739C20.7939 2.61798 20.5865 2.82516 20.4423 3.07469C20.298 3.32422 20.2219 3.60731 20.2217 3.89555V9.87446C20.2218 10.1629 20.2977 10.4462 20.4417 10.696C20.5858 10.9459 20.7929 11.1535 21.0425 11.2982L27.8613 15.2313C28.1111 15.3751 28.3186 15.5823 28.4626 15.832C28.6068 16.0817 28.6824 16.365 28.6821 16.6533L28.6837 24.5298Z" fill="white"/>
<path d="M18.5742 22.4898V30.3664C18.5741 30.6549 18.6498 30.9383 18.7939 31.1883C18.938 31.4382 19.1453 31.6457 19.395 31.7902L24.5723 34.7787C24.8221 34.9228 25.1055 34.9986 25.3939 34.9984C25.6823 34.9982 25.9655 34.9222 26.2153 34.7779C26.465 34.6337 26.6723 34.4262 26.8164 34.1765C26.9605 33.9268 27.0364 33.6434 27.0364 33.355V17.6035C27.0363 17.3149 26.9601 17.0314 26.8157 16.7815C26.6714 16.5316 26.4638 16.3241 26.2138 16.1798L12.5745 8.30491C12.3247 8.16039 12.0415 8.08419 11.7531 8.08398C11.4646 8.08377 11.1812 8.15957 10.9314 8.30374C10.6816 8.44791 10.4742 8.65536 10.33 8.90519C10.1859 9.15504 10.1101 9.43845 10.1104 9.72689V15.7058C10.1099 15.9941 10.1856 16.2774 10.3297 16.5271C10.4738 16.7767 10.6813 16.984 10.9311 17.1278L17.7534 21.0661C18.003 21.2106 18.2103 21.4183 18.3544 21.6681C18.4984 21.918 18.5742 22.2014 18.5742 22.4898Z" fill="white"/>
<path d="M16.1052 22.019L2.46407 14.1494C2.21423 14.0053 1.93089 13.9296 1.64251 13.9297C1.35413 13.9298 1.07087 14.0058 0.82117 14.1501C0.571474 14.2944 0.364144 14.5018 0.220003 14.7516C0.0758607 15.0014 -1.51217e-05 15.2846 3.85251e-08 15.573V31.3263C-6.23941e-05 31.6145 0.0757586 31.8977 0.219837 32.1473C0.363916 32.3969 0.571173 32.6042 0.820772 32.7483L9.28467 37.6276L14.462 40.6162C14.7116 40.7607 14.9949 40.837 15.2833 40.8371C15.5718 40.8373 15.8552 40.7616 16.105 40.6174C16.3548 40.4732 16.5622 40.2658 16.7064 40.016C16.8505 39.7661 16.9262 39.4826 16.926 39.1942V23.4427C16.9259 23.1544 16.85 22.871 16.7059 22.6211C16.5619 22.3713 16.3547 22.1637 16.1052 22.019Z" fill="white"/>
</g>
<defs>
<clipPath id="clip0_673_105984">
<rect width="218" height="43" fill="white"/>
</clipPath>
</defs>
</svg>
