<svg width="15" height="15" viewBox="0 0 15 15" fill="none" xmlns="http://www.w3.org/2000/svg">
<path d="M10.4723 8.71694C10.341 8.71694 10.215 8.76912 10.1221 8.86199C10.0292 8.95487 9.97702 9.08083 9.97702 9.21218C9.97702 9.34352 10.0292 9.46949 10.1221 9.56237C10.215 9.65524 10.341 9.70742 10.4723 9.70742H12.1231C12.2545 9.70742 12.3804 9.65524 12.4733 9.56237C12.5662 9.46949 12.6183 9.34352 12.6183 9.21218C12.6183 9.08083 12.5662 8.95487 12.4733 8.86199C12.3804 8.76912 12.2545 8.71694 12.1231 8.71694H10.4723ZM0.0722665 1.94869C0.0722665 1.46709 0.263581 1.00521 0.604123 0.66467C0.944665 0.324128 1.40654 0.132812 1.88813 0.132812H10.8025C11.2841 0.132812 11.7459 0.324128 12.0865 0.66467C12.427 1.00521 12.6183 1.46709 12.6183 1.94869V2.77937C13.2451 2.82125 13.8326 3.09979 14.2617 3.55857C14.6908 4.01736 14.9295 4.62209 14.9295 5.25028V12.1836C14.9295 12.8404 14.6686 13.4702 14.2042 13.9346C13.7398 14.3989 13.11 14.6598 12.4533 14.6598H2.55109C1.89437 14.6598 1.26454 14.3989 0.800168 13.9346C0.335791 13.4702 0.0749077 12.8404 0.0749077 12.1836V5.25028H0.0722665V2.11377H0.0795299C0.0746366 2.05888 0.072213 2.0038 0.0722665 1.94869ZM12.4533 3.76456H1.06538V12.1836C1.06538 12.5777 1.22191 12.9556 1.50053 13.2342C1.77916 13.5128 2.15706 13.6694 2.55109 13.6694H12.4533C12.8473 13.6694 13.2252 13.5128 13.5038 13.2342C13.7824 12.9556 13.939 12.5777 13.939 12.1836V5.25028C13.939 4.85624 13.7824 4.47834 13.5038 4.19972C13.2252 3.92109 12.8473 3.76456 12.4533 3.76456ZM11.6279 1.94869C11.6279 1.49307 11.2581 1.12329 10.8025 1.12329H1.88813C1.66923 1.12329 1.45928 1.21025 1.30449 1.36504C1.1497 1.51984 1.06274 1.72978 1.06274 1.94869C1.06274 2.1676 1.1497 2.37754 1.30449 2.53233C1.45928 2.68712 1.66923 2.77408 1.88813 2.77408H11.6279V1.94869Z" fill="#FFD02F"/>
</svg>
