<svg width="171" height="70" viewBox="0 0 171 70" fill="none" xmlns="http://www.w3.org/2000/svg">
<g clip-path="url(#clip0_6877_587)">
<path d="M90.1836 40.1875C97.1898 48.9338 94.4408 59.0102 94.8172 69.0084H81.665C81.665 64.8047 81.6858 60.6777 81.6606 56.5508C81.6113 48.4566 79.5302 46.3437 71.5747 46.2989C67.7596 46.2774 63.9444 46.2952 59.8429 46.2952V32.9288C64.3998 32.9288 68.845 32.9624 73.2894 32.9204C78.9741 32.8667 82.372 30.1653 82.3892 25.7653C82.4061 21.446 78.8569 18.5606 73.3205 18.5379C63.429 18.4972 53.5373 18.5264 43.1953 18.5264V5.65385C55.4832 5.65385 67.8359 4.48397 79.8626 5.96371C93.4722 7.6382 100.008 24.5547 92.758 36.3302C91.9772 37.5986 91.1056 38.811 90.1836 40.1875Z" fill="white"/>
<path d="M170.569 38.795C171.66 49.5637 163.107 62.3615 151.456 66.8842C139.151 71.6604 127.523 70.0198 117.684 61.076C107.562 51.8756 104.785 40.342 108.587 27.134C109.598 23.6226 109.039 22.4706 112.856 22.5337C115.847 22.5831 121.015 22.6642 125.051 22.6642C118.428 31.0333 116.988 39.2695 122.1 47.6826C126.506 54.9343 133.443 58.1721 141.868 56.9712C152.168 55.5029 157.394 48.5957 159.395 38.795" fill="white"/>
<path d="M14.6052 52.5353H0.972656V5.30078H14.6052V52.5353Z" fill="white"/>
<path d="M17.7188 55.2695H49.6843V68.9827H17.7188V55.2695Z" fill="white"/>
<path d="M103.078 17.3278L120.327 0.679688L120.587 17.3278H103.078Z" fill="#F76C00"/>
<path d="M125.508 6.97861V21.4698C125.508 21.4698 134.65 15.4318 142.585 16.6394V3.87328C142.585 3.87328 132.408 3.18326 125.508 6.97861Z" fill="white"/>
</g>
<defs>
<clipPath id="clip0_6877_587">
<rect width="169.693" height="68.8267" fill="white" transform="translate(0.972656 0.679688)"/>
</clipPath>
</defs>
</svg>
