<svg width="215" height="48" viewBox="0 0 215 48" fill="none" xmlns="http://www.w3.org/2000/svg">
<path d="M54.9224 31.8135V14.0345H62.2151C63.0366 14.0345 63.791 14.1099 64.4783 14.2608C65.1824 14.3949 65.786 14.638 66.2889 14.9901C66.8086 15.3421 67.211 15.8115 67.496 16.3983C67.781 16.9851 67.9235 17.7143 67.9235 18.5861C67.9235 19.3908 67.7391 20.1284 67.3702 20.799C67.0014 21.4529 66.4566 21.9474 65.7357 22.2827C66.708 22.5342 67.4541 23.0204 67.9738 23.7412C68.4935 24.4454 68.7533 25.3674 68.7533 26.5074C68.7533 27.5301 68.5605 28.3851 68.1749 29.0724C67.8061 29.743 67.2864 30.2795 66.6158 30.6819C65.962 31.0842 65.1992 31.3776 64.3274 31.562C63.4557 31.7297 62.5252 31.8135 61.5361 31.8135H54.9224ZM58.0658 28.9467H61.8127C62.2821 28.9467 62.7432 28.9132 63.1958 28.8461C63.6485 28.7791 64.0592 28.6617 64.428 28.4941C64.7969 28.3264 65.0819 28.0833 65.283 27.7648C65.501 27.4295 65.6099 27.002 65.6099 26.4823C65.6099 26.0129 65.5261 25.6273 65.3585 25.3255C65.1908 25.0238 64.9561 24.789 64.6544 24.6214C64.3693 24.437 64.0257 24.3113 63.6233 24.2442C63.221 24.1604 62.8018 24.1185 62.366 24.1185H58.0658V28.9467ZM58.0658 21.478H61.3852C61.9049 21.478 62.3743 21.4277 62.7935 21.3271C63.2126 21.2265 63.573 21.0757 63.8748 20.8745C64.1766 20.6565 64.4113 20.3967 64.5789 20.0949C64.7466 19.7764 64.8304 19.3908 64.8304 18.9381C64.8304 18.3514 64.6963 17.9155 64.428 17.6305C64.1598 17.3287 63.791 17.1359 63.3216 17.0521C62.8689 16.9515 62.3576 16.9012 61.7876 16.9012H58.0658V21.478ZM71.2667 31.8135V14.0345H74.3346V31.8135H71.2667ZM83.3683 31.9895C82.0104 31.9895 80.8369 31.7129 79.8477 31.1597C78.8754 30.6064 78.121 29.8185 77.5845 28.7958C77.0648 27.7732 76.8049 26.5745 76.8049 25.1998C76.8049 23.8083 77.0732 22.6096 77.6096 21.6037C78.1461 20.5811 78.9005 19.7848 79.8729 19.2148C80.8452 18.6448 82.0104 18.3598 83.3683 18.3598C84.7095 18.3598 85.8663 18.6448 86.8386 19.2148C87.811 19.7848 88.557 20.5895 89.0767 21.6289C89.5964 22.6515 89.8563 23.8586 89.8563 25.2501C89.8563 26.608 89.5964 27.7983 89.0767 28.821C88.5738 29.8269 87.8361 30.6064 86.8638 31.1597C85.8914 31.7129 84.7263 31.9895 83.3683 31.9895ZM83.3432 29.1982C84.1814 29.1982 84.852 29.0138 85.355 28.6449C85.8747 28.2761 86.2519 27.7899 86.4866 27.1864C86.7213 26.5829 86.8386 25.929 86.8386 25.2249C86.8386 24.5208 86.7213 23.8586 86.4866 23.2383C86.2519 22.618 85.8747 22.1235 85.355 21.7546C84.852 21.369 84.1814 21.1762 83.3432 21.1762C82.5049 21.1762 81.826 21.369 81.3063 21.7546C80.7866 22.1235 80.4094 22.618 80.1746 23.2383C79.9399 23.8418 79.8226 24.504 79.8226 25.2249C79.8226 25.929 79.9399 26.5913 80.1746 27.2116C80.4261 27.8151 80.8033 28.3013 81.3063 28.6701C81.826 29.0221 82.5049 29.1982 83.3432 29.1982ZM98.1468 31.9895C96.7721 31.9895 95.6153 31.7129 94.6765 31.1597C93.7377 30.5896 93.0252 29.7933 92.539 28.7707C92.0528 27.748 91.8097 26.5661 91.8097 25.2249C91.8097 23.8838 92.0612 22.7018 92.5641 21.6792C93.0671 20.6398 93.8047 19.8267 94.7771 19.2399C95.7494 18.6531 96.9313 18.3598 98.3228 18.3598C99.3455 18.3598 100.251 18.5358 101.039 18.8879C101.843 19.2399 102.489 19.7596 102.975 20.447C103.478 21.1176 103.797 21.9558 103.931 22.9617H100.913C100.712 22.3246 100.376 21.8636 99.9071 21.5786C99.4544 21.2768 98.9096 21.1259 98.2725 21.1259C97.4175 21.1259 96.7385 21.3355 96.2356 21.7546C95.7494 22.157 95.3974 22.6683 95.1794 23.2886C94.9615 23.9089 94.8525 24.5543 94.8525 25.2249C94.8525 25.929 94.9699 26.5913 95.2046 27.2116C95.4393 27.8151 95.7997 28.3013 96.2859 28.6701C96.7888 29.0389 97.4343 29.2233 98.2222 29.2233C98.8593 29.2233 99.4293 29.0808 99.9322 28.7958C100.452 28.5108 100.787 28.0498 100.938 27.4127H104.056C103.939 28.4354 103.595 29.2904 103.025 29.9777C102.472 30.6483 101.768 31.1513 100.913 31.4866C100.058 31.8219 99.1359 31.9895 98.1468 31.9895ZM106.36 31.8135V14.0345H109.428V23.867H111.339L114.834 18.5609H118.279L113.979 24.8729L118.631 31.8135H115.061L111.515 26.5577H109.428V31.8135H106.36ZM125.922 31.9895C124.547 31.9895 123.39 31.7129 122.451 31.1597C121.512 30.5896 120.8 29.7933 120.314 28.7707C119.828 27.748 119.585 26.5661 119.585 25.2249C119.585 23.8838 119.836 22.7018 120.339 21.6792C120.842 20.6398 121.58 19.8267 122.552 19.2399C123.524 18.6531 124.706 18.3598 126.098 18.3598C127.12 18.3598 128.026 18.5358 128.813 18.8879C129.618 19.2399 130.264 19.7596 130.75 20.447C131.253 21.1176 131.571 21.9558 131.705 22.9617H128.688C128.487 22.3246 128.151 21.8636 127.682 21.5786C127.229 21.2768 126.684 21.1259 126.047 21.1259C125.192 21.1259 124.513 21.3355 124.01 21.7546C123.524 22.157 123.172 22.6683 122.954 23.2886C122.736 23.9089 122.627 24.5543 122.627 25.2249C122.627 25.929 122.745 26.5913 122.979 27.2116C123.214 27.8151 123.575 28.3013 124.061 28.6701C124.564 29.0389 125.209 29.2233 125.997 29.2233C126.634 29.2233 127.204 29.0808 127.707 28.7958C128.227 28.5108 128.562 28.0498 128.713 27.4127H131.831C131.714 28.4354 131.37 29.2904 130.8 29.9777C130.247 30.6483 129.543 31.1513 128.688 31.4866C127.833 31.8219 126.911 31.9895 125.922 31.9895ZM134.134 31.8135V14.0345H137.202V20.2709C137.554 19.8183 137.965 19.4495 138.435 19.1645C138.904 18.8795 139.399 18.6783 139.918 18.5609C140.438 18.4268 140.933 18.3598 141.402 18.3598C142.659 18.3598 143.648 18.6364 144.369 19.1896C145.09 19.7429 145.593 20.4805 145.878 21.4026C146.18 22.3246 146.331 23.364 146.331 24.5208V31.8135H143.263V25.0489C143.263 24.5963 143.229 24.1352 143.162 23.6658C143.095 23.1964 142.961 22.7773 142.76 22.4085C142.576 22.0229 142.291 21.7127 141.905 21.478C141.536 21.2433 141.042 21.1259 140.421 21.1259C139.834 21.1259 139.332 21.2517 138.912 21.5032C138.493 21.7379 138.158 22.0648 137.907 22.4839C137.672 22.903 137.496 23.364 137.378 23.867C137.261 24.3699 137.202 24.8729 137.202 25.3758V31.8135H134.134ZM153.438 31.9895C152.817 31.9895 152.231 31.9057 151.677 31.738C151.124 31.5704 150.63 31.3273 150.194 31.0088C149.758 30.6735 149.406 30.2627 149.137 29.7766C148.886 29.2736 148.76 28.6869 148.76 28.0163C148.76 27.1613 148.928 26.4655 149.263 25.929C149.599 25.3758 150.051 24.9567 150.621 24.6717C151.208 24.3867 151.87 24.1939 152.608 24.0933C153.345 23.976 154.117 23.9173 154.921 23.9173H157.511C157.511 23.3305 157.419 22.8276 157.235 22.4085C157.05 21.9726 156.757 21.6289 156.355 21.3774C155.969 21.1259 155.466 21.0002 154.846 21.0002C154.444 21.0002 154.066 21.0505 153.714 21.1511C153.379 21.2349 153.086 21.3774 152.834 21.5786C152.599 21.763 152.432 22.0061 152.331 22.3079H149.188C149.305 21.6205 149.54 21.0337 149.892 20.5476C150.261 20.0446 150.705 19.6339 151.225 19.3154C151.761 18.9968 152.348 18.7621 152.985 18.6112C153.622 18.4436 154.268 18.3598 154.921 18.3598C156.849 18.3598 158.249 18.913 159.121 20.0195C160.009 21.1259 160.454 22.6767 160.454 24.6717V31.8135H157.738L157.662 30.1035C157.277 30.6735 156.816 31.0926 156.279 31.3608C155.743 31.6291 155.223 31.7967 154.72 31.8638C154.217 31.9476 153.79 31.9895 153.438 31.9895ZM154.041 29.4999C154.712 29.4999 155.307 29.3742 155.827 29.1227C156.346 28.8713 156.757 28.5192 157.059 28.0666C157.377 27.6139 157.537 27.0942 157.537 26.5074V26.0799H155.123C154.72 26.0799 154.318 26.0967 153.915 26.1302C153.53 26.147 153.178 26.2141 152.859 26.3314C152.541 26.432 152.281 26.5913 152.08 26.8092C151.895 27.0271 151.803 27.3373 151.803 27.7396C151.803 28.142 151.904 28.4689 152.105 28.7204C152.323 28.9719 152.599 29.1646 152.935 29.2988C153.287 29.4329 153.656 29.4999 154.041 29.4999ZM163.383 31.8135V18.5609H166.451V31.8135H163.383ZM164.917 17.027C164.33 17.027 163.861 16.8509 163.508 16.4989C163.156 16.1468 162.98 15.6858 162.98 15.1158C162.98 14.5625 163.165 14.1099 163.534 13.7578C163.902 13.389 164.363 13.2046 164.917 13.2046C165.453 13.2046 165.914 13.3806 166.3 13.7327C166.685 14.0848 166.878 14.5458 166.878 15.1158C166.878 15.6858 166.694 16.1468 166.325 16.4989C165.956 16.8509 165.487 17.027 164.917 17.027ZM169.424 31.8135V18.5609H172.291L172.467 20.2458C172.819 19.7764 173.23 19.4076 173.699 19.1393C174.168 18.8711 174.663 18.6783 175.183 18.5609C175.702 18.4268 176.189 18.3598 176.641 18.3598C177.899 18.3598 178.888 18.6364 179.609 19.1896C180.346 19.7429 180.866 20.4805 181.168 21.4026C181.469 22.3246 181.62 23.3557 181.62 24.4957V31.8135H178.552V24.9986C178.552 24.5124 178.519 24.043 178.452 23.5904C178.385 23.121 178.251 22.7018 178.049 22.333C177.865 21.9642 177.597 21.6708 177.245 21.4529C176.893 21.2349 176.423 21.1259 175.836 21.1259C175.116 21.1259 174.504 21.3187 174.001 21.7043C173.498 22.0899 173.121 22.6096 172.869 23.2635C172.618 23.9005 172.492 24.6298 172.492 25.4513V31.8135H169.424ZM185.005 31.8135V14.0345H197.428V16.9012H188.149V22.2073H196.095V25.074H188.149V31.8135H185.005ZM198.347 31.8135L204.307 22.9114L198.549 14.0345H202.321L206.294 20.5476L210.217 14.0345H213.914L208.18 22.8862L214.115 31.8135H210.343L206.193 25.2752L201.969 31.8135H198.347Z" fill="black"/>
<circle cx="23.8279" cy="23.3357" r="22.3357" stroke="#ECB300" stroke-width="1.51429"/>
<path d="M27.1762 12.2626C28.181 12.5656 28.8704 13.0138 29.274 13.2836C29.7743 13.6157 30.1568 13.9436 30.4133 14.1884C31.2162 15.1223 31.4811 16.1143 31.6282 16.6622C31.9309 17.787 31.8972 18.7582 31.8258 19.36C31.4474 18.9989 30.7958 18.476 29.8583 18.1024C29.1142 17.8077 28.4458 17.7081 27.975 17.6749C27.9876 17.4757 28.0086 16.8448 27.5882 16.2388C27.0291 15.4336 26.1421 15.2966 25.9907 15.2759H19.4746V18.5963H27.8068C28.2272 18.6254 28.8536 18.7126 29.5514 18.9906C30.7454 19.4638 31.4558 20.2109 31.8804 20.6716C32.7296 21.5889 34.634 23.6393 34.5373 26.7605C34.5247 27.2254 34.3523 30.7368 31.3423 32.7498C29.4926 33.9908 27.5588 33.995 26.8315 33.9576H16.5318V23.9962H26.4111C26.7222 23.6102 27.0333 23.2242 27.3444 22.8382C27.6891 22.9254 28.3281 23.1371 28.9545 23.66C29.5851 24.1872 29.9046 24.7807 30.0475 25.1003C29.8878 25.3991 29.6608 25.7395 29.3286 26.0715C28.265 27.1299 26.8988 27.2835 26.4069 27.3167H19.4704V30.6372H27.6681C28.1263 30.5707 29.3791 30.3259 30.2829 29.2799C31.6366 27.7193 31.3423 25.3576 30.3712 23.9008C30.2913 23.7804 29.1815 22.17 27.3696 21.9209C26.8988 21.8545 26.533 21.9209 26.4069 21.9209C23.7794 21.9209 16.6832 21.9209 16.5234 21.9209V11.9596C16.5234 11.9596 17.4651 11.9554 19.3106 11.9596C21.0343 11.9388 22.7831 11.943 24.553 11.9679C24.9061 11.972 25.2592 11.9803 25.6082 11.9845C26.264 12.0301 26.7937 12.1547 27.1636 12.2667L27.1762 12.2626Z" fill="#ECB300"/>
</svg>
