<svg width="74" height="75" viewBox="0 0 74 75" fill="none" xmlns="http://www.w3.org/2000/svg">
<path d="M36.8776 74.2621C57.2133 74.2621 73.6986 57.7768 73.6986 37.4411C73.6986 17.1054 57.2133 0.620117 36.8776 0.620117C16.5419 0.620117 0.0566406 17.1054 0.0566406 37.4411C0.0566406 57.7768 16.5419 74.2621 36.8776 74.2621Z" fill="url(#paint0_linear_3937_923)"/>
<path d="M19.4374 48.1004C19.7494 47.7884 20.1774 47.6064 20.6324 47.6064H61.8634C62.6164 47.6064 62.9934 48.5154 62.4614 49.0484L54.3164 57.1934C54.0044 57.5054 53.5764 57.6874 53.1214 57.6874H11.8904C11.1374 57.6874 10.7604 56.7784 11.2924 56.2454L19.4374 48.1004Z" fill="white"/>
<path d="M19.4374 17.6903C19.7624 17.3783 20.1904 17.1963 20.6324 17.1963H61.8634C62.6164 17.1963 62.9934 18.1053 62.4614 18.6383L54.3164 26.7833C54.0044 27.0953 53.5764 27.2773 53.1214 27.2773H11.8904C11.1374 27.2773 10.7604 26.3683 11.2924 25.8353L19.4374 17.6903Z" fill="white"/>
<path d="M54.3164 32.7982C54.0044 32.4862 53.5764 32.3042 53.1214 32.3042H11.8904C11.1374 32.3042 10.7604 33.2132 11.2924 33.7462L19.4374 41.8912C19.7494 42.2032 20.1774 42.3852 20.6324 42.3852H61.8634C62.6164 42.3852 62.9934 41.4762 62.4614 40.9432L54.3164 32.7982Z" fill="white"/>
<defs>
<linearGradient id="paint0_linear_3937_923" x1="69.1514" y1="4.53042" x2="9.29284" y2="65.5704" gradientUnits="userSpaceOnUse">
<stop stop-color="#00FFA3"/>
<stop offset="1" stop-color="#DC1FFF"/>
</linearGradient>
</defs>
</svg>
