<svg width="74" height="75" viewBox="0 0 74 75" fill="none" xmlns="http://www.w3.org/2000/svg">
<path d="M37.1179 74.2621C57.5239 74.2621 73.9389 57.8471 73.9389 37.4411C73.9389 17.0351 57.5239 0.620117 37.1179 0.620117C16.7119 0.620117 0.296875 17.0351 0.296875 37.4411C0.296875 57.8481 16.7119 74.2621 37.1179 74.2621Z" fill="#2775CA"/>
<path d="M47.2439 43.2699C47.2439 37.9019 44.0219 36.0599 37.5789 35.2909C32.9759 34.6759 32.0559 33.4499 32.0559 31.3029C32.0559 29.1559 33.5909 27.7759 36.6589 27.7759C39.4209 27.7759 40.9559 28.6969 41.7219 30.9979C41.8769 31.4579 42.3369 31.7639 42.7969 31.7639H45.2529C45.8679 31.7639 46.3279 31.3039 46.3279 30.6889V30.5339C45.7129 27.1579 42.9509 24.5509 39.4239 24.2449V20.5629C39.4239 19.9479 38.9639 19.4879 38.1979 19.3369H35.8969C35.2819 19.3369 34.8219 19.7969 34.6709 20.5629V24.0909C30.0679 24.7059 27.1519 27.7729 27.1519 31.6099C27.1519 36.6729 30.2189 38.6689 36.6629 39.4339C40.9599 40.1999 42.3409 41.1199 42.3409 43.5759C42.3409 46.0319 40.1939 47.7179 37.2779 47.7179C33.2899 47.7179 31.9089 46.0319 31.4489 43.7299C31.2939 43.1149 30.8339 42.8089 30.3739 42.8089H27.7669C27.1519 42.8089 26.6919 43.2689 26.6919 43.8839V44.0389C27.3069 47.8759 29.7589 50.6369 34.8219 51.4029V55.0849C34.8219 55.6999 35.2819 56.1599 36.0479 56.3109H38.3489C38.9639 56.3109 39.4239 55.8509 39.5749 55.0849V51.4029C44.1729 50.6339 47.2439 47.4119 47.2439 43.2699Z" fill="white"/>
<path d="M29.294 59.3793C17.327 55.0823 11.189 41.7343 15.641 29.9223C17.942 23.4783 23.005 18.5703 29.294 16.2693C29.909 15.9633 30.215 15.5033 30.215 14.7343V12.5873C30.215 11.9723 29.909 11.5123 29.294 11.3613C29.139 11.3613 28.834 11.3613 28.679 11.5163C14.105 16.1193 6.126 31.6133 10.729 46.1903C13.49 54.7803 20.089 61.3793 28.679 64.1403C29.294 64.4463 29.905 64.1403 30.06 63.5253C30.215 63.3703 30.215 63.2193 30.215 62.9103V60.7633C30.214 60.3003 29.754 59.6893 29.294 59.3793ZM45.554 11.5123C44.939 11.2063 44.328 11.5123 44.173 12.1273C44.018 12.2823 44.018 12.4333 44.018 12.7423V14.8893C44.018 15.5043 44.478 16.1153 44.939 16.4243C56.906 20.7213 63.044 34.0693 58.592 45.8813C56.291 52.3253 51.228 57.2333 44.939 59.5343C44.324 59.8403 44.018 60.3003 44.018 61.0693V63.2163C44.018 63.8313 44.324 64.2913 44.939 64.4423C45.094 64.4423 45.399 64.4423 45.554 64.2873C60.128 59.6843 68.107 44.1903 63.504 29.6133C60.742 20.8723 53.993 14.2743 45.554 11.5123Z" fill="white"/>
</svg>
