<svg width="172" height="34" viewBox="0 0 172 34" fill="none" xmlns="http://www.w3.org/2000/svg">
<path d="M7.63236 30V7.02927H16.6611C23.0419 7.02927 27.6679 11.8148 27.6679 18.5146C27.6679 25.2144 23.0738 30 16.6611 30H7.63236ZM12.0032 11.4001V25.6292H16.6611C20.6172 25.6292 23.2971 22.7578 23.2971 18.5146C23.2971 14.2714 20.6172 11.4001 16.6611 11.4001H12.0032Z" fill="white"/>
<g clip-path="url(#clip0_229_24985)">
<path d="M19.758 29.465L11.6369 29.5214C11.6337 29.528 11.6303 29.5348 11.6266 29.5417C11.5846 29.6214 11.5134 29.7217 11.3952 29.8186C11.1572 30.0138 10.7468 30.1808 10.0446 30.1661C9.33477 30.1512 8.91184 29.9304 8.66511 29.6937C8.54323 29.5767 8.46825 29.4595 8.42334 29.3695C8.40877 29.3403 8.39736 29.3139 8.38851 29.2913L7.25432 28.8209C7.25406 28.8208 7.2538 28.8207 7.25353 28.8206C7.18647 28.7933 7.12967 28.7448 7.0928 28.6817C7.05585 28.6185 7.04132 28.5447 7.05197 28.472C7.052 28.4718 7.05204 28.4716 7.05208 28.4713L7.20986 28.4948C7.24568 28.238 7.34287 27.6913 7.34287 27.6913L19.758 29.465ZM19.758 29.465C19.762 29.4739 19.7663 29.4833 19.771 29.493C19.8125 29.579 19.8823 29.6908 19.997 29.8029C20.2292 30.0298 20.6294 30.2426 21.3058 30.2667C22.0027 30.2915 22.4643 30 22.7486 29.7001C22.8895 29.5516 22.9862 29.4019 23.048 29.289C23.0708 29.2474 23.0889 29.2106 23.1029 29.1804L23.4839 29.1103C23.4842 29.1102 23.4845 29.1102 23.4849 29.1101C23.6505 29.0814 23.8071 29.0151 23.9421 28.9163C24.0773 28.8173 24.1871 28.6884 24.2621 28.5398L24.2622 28.5396C24.2709 28.5222 24.2784 28.5056 24.2851 28.4898L24.2853 28.4894C24.3232 28.4003 24.3476 28.2821 24.3646 28.1656C24.382 28.046 24.3933 27.9154 24.4004 27.7948C24.4075 27.6738 24.4105 27.5608 24.4112 27.4756C24.4116 27.433 24.4114 27.3967 24.4107 27.3694C24.4104 27.3558 24.41 27.3435 24.4094 27.3332L24.4093 27.3326C24.4091 27.3282 24.408 27.3061 24.4025 27.2858C24.3968 27.2653 24.3855 27.2424 24.3812 27.2335L24.3804 27.2319C24.3733 27.2174 24.364 27.1992 24.3538 27.1793C24.3505 27.1729 24.347 27.1662 24.3435 27.1593C24.3246 27.1225 24.3022 27.079 24.279 27.0322C24.2215 26.9163 24.1687 26.7994 24.151 26.7296C24.1367 26.6729 24.1266 26.5775 24.1146 26.4635C24.1108 26.4271 24.1067 26.3888 24.1023 26.3492C24.0938 26.2733 24.0837 26.1948 24.0703 26.1283C24.0636 26.0951 24.0553 26.0612 24.0446 26.0304C24.0349 26.0024 24.0186 25.963 23.9895 25.9292C23.8777 25.7996 23.6352 25.6605 23.2304 25.6694C23.0757 25.6727 22.8131 25.61 22.5707 25.5374C22.4535 25.5023 22.3473 25.4669 22.2703 25.4403C22.2319 25.427 22.2008 25.4159 22.1795 25.4082L22.1552 25.3993L22.149 25.397L22.1479 25.3965L22.1416 25.3941L22.1175 25.3847C22.0964 25.3765 22.0655 25.3647 22.0254 25.3498C21.9452 25.3199 21.8283 25.2774 21.681 25.227C21.3863 25.1262 20.9691 24.9933 20.4777 24.8643C19.4976 24.6072 18.2117 24.3631 17.0129 24.4284C14.6333 24.5581 13.0901 25.3129 12.5402 25.6172C12.2964 25.7521 12.0168 25.8178 11.7927 25.8489C11.6816 25.8643 11.5865 25.8709 11.5196 25.8736C11.4862 25.875 11.4599 25.8754 11.4424 25.8755L11.4229 25.8754L11.4184 25.8753L11.4176 25.8753L11.4176 25.8753L11.4175 25.8753L11.4175 25.8753L11.4174 25.8753L11.4105 25.8751L11.4034 25.8756C10.1181 25.9554 9.28027 26.106 8.76039 26.2385C8.50037 26.3047 8.3196 26.3665 8.20199 26.4128C8.14318 26.4359 8.10013 26.4552 8.07085 26.4693C8.06381 26.4727 8.05756 26.4757 8.05208 26.4785C7.81085 26.5167 7.62787 26.6088 7.4929 26.7336C7.3538 26.8623 7.27457 27.0175 7.23016 27.162C7.18594 27.3059 7.17495 27.4431 7.17454 27.5428C7.17433 27.5931 7.1768 27.635 7.17941 27.6648C7.18014 27.6732 7.18089 27.6807 7.1816 27.6872L19.758 29.465Z" fill="white" stroke="white" stroke-width="0.319038"/>
<path d="M23.9648 27.6058C24.004 27.4646 24.0276 27.334 23.8645 27.2416C23.8138 27.2108 23.7771 27.1615 23.7624 27.1041C23.7238 26.8855 23.5505 26.7937 23.3917 26.6876C23.1561 26.5315 22.9224 26.3736 22.6865 26.2182C22.6449 26.1853 22.5966 26.1618 22.545 26.1495C21.9825 26.0861 21.4203 26.0442 20.8572 26.1566C19.9959 26.329 19.2153 26.6913 18.4834 27.1629C17.8231 27.5844 17.1012 27.9011 16.3434 28.1018C14.911 28.4913 13.4504 28.6115 11.9712 28.5603C11.8788 28.5574 11.7864 28.56 11.682 28.5599C11.6919 28.7463 11.7009 28.9197 11.7118 29.1354C12.1141 29.1184 12.5 29.1367 12.8739 29.0798C13.8673 28.9271 14.8515 28.7126 15.8488 28.578C16.8249 28.443 17.8192 28.6062 18.7006 29.0458C19.0377 29.2116 19.3604 29.1299 19.679 29.1675C19.6965 28.8098 19.6904 28.4744 19.7341 28.1458C19.8058 27.5972 20.0385 27.1344 20.5671 26.8761C20.8506 26.7374 21.1544 26.7213 21.4635 26.7331C22.2944 26.7642 22.8608 27.2491 22.9915 28.0685C23.0328 28.3263 23.0289 28.5907 23.0458 28.8527C23.2065 28.8749 23.4594 28.799 23.4815 28.7083C23.5489 28.426 23.6216 28.1436 23.6638 27.8581C23.7025 27.5983 23.7082 27.5764 23.9648 27.6058Z" fill="url(#paint0_linear_229_24985)"/>
<path d="M12.0323 26.6821C11.8937 26.7768 11.8549 26.9007 11.9254 27.0646C12.0968 27.4702 12.2612 27.8772 12.4234 28.2878C12.4586 28.375 12.4989 28.4185 12.6002 28.4138C12.7882 28.4049 12.9769 28.4119 13.2311 28.4123C13.6705 28.371 14.1762 28.3369 14.678 28.2734C15.7825 28.134 16.8465 27.8572 17.8496 27.3578C18.1866 27.1903 18.278 26.9112 18.3111 26.5889C18.3327 26.3834 18.2761 26.3469 18.0725 26.3501C16.3006 26.38 14.5283 26.4087 12.7556 26.4365C12.4873 26.441 12.2499 26.5338 12.0323 26.6821Z" fill="url(#paint1_linear_229_24985)"/>
<path d="M11.7658 28.3859C11.9343 28.401 12.105 28.3924 12.2869 28.3927C12.2704 28.3405 12.2563 28.285 12.2348 28.2324C12.098 27.8955 11.9601 27.5591 11.8211 27.223C11.6593 26.8343 11.723 26.6434 12.1056 26.4558C12.4001 26.3123 12.6998 26.1782 13.0042 26.0569C13.8594 25.7169 14.7516 25.5054 15.6484 25.3099C16.3429 25.1581 17.0423 25.0837 17.7513 25.1555C18.8689 25.2685 19.9493 25.5439 21.0073 25.9097C21.067 25.9335 21.1301 25.9479 21.1942 25.9523C21.4774 25.9574 21.7646 25.9554 22.0496 25.9559C21.8419 25.8577 21.6271 25.8019 21.4176 25.7313C20.3914 25.3868 19.3599 25.0628 18.2678 24.9932C17.0022 24.9121 15.7456 24.9563 14.5313 25.354C13.8671 25.5714 13.2279 25.8631 12.5693 26.0982C12.2659 26.2069 11.9521 26.2842 11.6328 26.329C11.2022 26.3887 10.7642 26.3901 10.3319 26.4385C9.63244 26.5205 8.94756 26.6975 8.29629 26.9648C8.53155 27.0778 8.54064 27.1452 8.35491 27.2777C8.13478 27.4348 7.90795 27.5824 7.68783 27.7398C7.63962 27.775 7.5836 27.8283 7.5736 27.8809C7.52896 28.117 7.49387 28.3556 7.46834 28.5946C7.46295 28.6461 7.49749 28.7391 7.53536 28.7525C7.82374 28.855 8.11711 28.9424 8.40798 29.0343C8.38692 28.7084 8.3502 28.429 8.35454 28.1515C8.36437 27.5513 8.71033 27.0901 9.27431 26.882C9.60059 26.7607 9.93944 26.7418 10.2825 26.7505C10.7109 26.7597 11.0352 26.953 11.2729 27.3019C11.4711 27.5942 11.5672 27.9248 11.641 28.2653C11.6519 28.3119 11.7198 28.3819 11.7658 28.3859Z" fill="url(#paint2_linear_229_24985)"/>
<path d="M21.3128 27.2638C20.9798 27.2626 20.6599 27.3933 20.4234 27.6271C20.1869 27.8609 20.0531 28.1788 20.0514 28.5109C20.0508 28.6769 20.0831 28.8414 20.1465 28.9949C20.21 29.1484 20.3032 29.2879 20.421 29.4053C20.5387 29.5226 20.6786 29.6156 20.8325 29.6788C20.9865 29.742 21.1515 29.7741 21.3179 29.7734C21.4829 29.773 21.6461 29.7401 21.7983 29.6765C21.9504 29.6129 22.0884 29.5199 22.2044 29.4029C22.3203 29.2859 22.4119 29.1472 22.4739 28.9948C22.5359 28.8423 22.567 28.6792 22.5655 28.5147C22.5667 28.3502 22.5351 28.1872 22.4726 28.035C22.4101 27.8828 22.3179 27.7445 22.2013 27.6282C22.0848 27.5118 21.9462 27.4197 21.7937 27.3571C21.6412 27.2946 21.4777 27.2629 21.3128 27.2638Z" fill="url(#paint3_linear_229_24985)"/>
<path d="M10.0559 27.2453C9.88925 27.2438 9.72398 27.2752 9.56954 27.3376C9.41511 27.4001 9.27455 27.4923 9.15594 27.609C9.03733 27.7257 8.94299 27.8646 8.87835 28.0178C8.81371 28.171 8.78004 28.3354 8.77926 28.5015C8.78289 28.8338 8.91727 29.1514 9.15343 29.3858C9.3896 29.6202 9.70866 29.7528 10.0419 29.7549C10.3751 29.7544 10.6946 29.6229 10.9311 29.3888C11.1676 29.1548 11.302 28.8372 11.305 28.5049C11.3059 28.173 11.175 27.8542 10.9409 27.6182C10.7069 27.3822 10.3887 27.2481 10.0559 27.2453Z" fill="url(#paint4_linear_229_24985)"/>
<path d="M14.3484 26.2737C15.4609 26.2541 16.5735 26.2314 17.6862 26.2057C17.7396 26.2058 17.8243 26.1914 17.8406 26.1579C17.9614 25.9074 18.0687 25.6506 18.1896 25.3747C16.3302 25.0839 14.6574 25.6867 12.973 26.2206L12.9772 26.269C13.0222 26.2729 13.0671 26.2811 13.1121 26.2809C13.5242 26.2798 13.9363 26.2811 14.3484 26.2737Z" fill="url(#paint5_linear_229_24985)"/>
<path d="M16.2231 28.7056C15.7777 28.7339 15.3332 28.7896 14.8913 28.8542C14.4699 28.916 14.0527 29.0057 13.6333 29.0831L13.6428 29.1357L18.5319 29.1437C18.4703 29.1111 18.4509 29.0984 18.4296 29.0902C17.7191 28.8182 16.9865 28.6571 16.2231 28.7056Z" fill="url(#paint6_linear_229_24985)"/>
<path d="M19.5982 25.6674C19.348 25.5943 19.0925 25.5378 18.8257 25.4709C18.7725 25.7145 18.7268 25.9241 18.6762 26.1557C19.0423 26.1563 19.3603 26.1042 19.6241 25.8747C19.718 25.7916 19.7323 25.7069 19.5982 25.6674Z" fill="url(#paint7_linear_229_24985)"/>
<path d="M18.5313 26.0853C18.5815 25.8827 18.6229 25.6776 18.6779 25.4249C18.5454 25.4346 18.3748 25.405 18.3457 25.4561C18.2168 25.6815 18.129 25.93 18.0128 26.2016C18.181 26.191 18.3141 26.188 18.4451 26.1706C18.4652 26.1641 18.4835 26.153 18.4985 26.1382C18.5134 26.1234 18.5247 26.1053 18.5313 26.0853Z" fill="url(#paint8_linear_229_24985)"/>
<path d="M20.7389 25.9823L19.9292 25.7427L19.6259 26.1147C19.9812 26.2092 20.4515 26.1577 20.7389 25.9823Z" fill="url(#paint9_linear_229_24985)"/>
<path d="M18.9447 26.6986L19.7008 26.333L19.6892 26.2716L18.4447 26.3285L18.4798 26.4881C18.8864 26.4189 18.9041 26.4253 18.9447 26.6986Z" fill="url(#paint10_linear_229_24985)"/>
<path d="M23.4272 26.1549C23.2266 26.115 23.022 26.0956 22.8191 26.0674L22.8095 26.1094L23.6463 26.6658C23.6631 26.3473 23.5971 26.1887 23.4272 26.1549Z" fill="url(#paint11_linear_229_24985)"/>
<path d="M23.8737 27.7982C23.7978 28.0982 23.7237 28.3908 23.6506 28.6805C23.7826 28.7288 23.8347 28.6918 23.8653 28.582C23.8985 28.4699 23.9428 28.3614 23.9975 28.2581C24.118 28.0235 24.0958 27.937 23.8737 27.7982Z" fill="url(#paint12_linear_229_24985)"/>
<path d="M8.24337 27.1614C7.71247 27.0546 7.53522 27.1903 7.59473 27.6084L8.24337 27.1614Z" fill="url(#paint13_linear_229_24985)"/>
<path d="M18.7441 26.609C18.4725 26.6459 18.4661 26.6537 18.4022 27.0187C18.5839 26.9215 18.7473 26.837 18.7441 26.609Z" fill="url(#paint14_linear_229_24985)"/>
</g>
<path d="M34.8767 30.1211H30.2065V13.1011H34.8767V14.7697C36.0607 13.468 37.7958 12.7671 39.7806 12.7671V17.2889C39.5804 17.2553 39.3302 17.2224 39.13 17.2224C36.8114 17.2224 34.8767 18.8574 34.8767 21.1434V30.1204V30.1211ZM40.2975 21.6111C40.2975 16.6387 44.0669 12.7506 48.9708 12.7506C53.8747 12.7506 57.1106 16.2546 57.1106 21.2606C57.1106 21.978 57.044 22.729 56.944 23.48H44.8346C45.4852 25.3153 47.2198 26.3667 49.3882 26.3667C50.9226 26.3667 52.3904 25.816 53.2747 24.7982L56.1267 27.6513C54.5588 29.3866 52.2402 30.4379 49.2881 30.4379C44.2176 30.4715 40.2981 26.5835 40.2981 21.6111H40.2975ZM48.8707 16.8224C46.8688 16.8224 45.0513 18.1242 44.7175 20.1598H52.8573C52.5906 18.0741 50.8554 16.8224 48.8707 16.8224ZM58.745 21.6111C58.745 16.7388 62.1146 12.7506 66.9849 12.7506C68.9196 12.7506 70.6541 13.6347 71.7887 14.8699V13.1011H76.4589V30.1211H71.7887V28.2857C70.6712 29.5374 68.9367 30.4715 66.9849 30.4715C62.1146 30.4715 58.745 26.5169 58.745 21.6111ZM67.5848 17.4226C65.2662 17.4226 63.3981 19.2915 63.3981 21.6111C63.3981 23.9306 65.2662 25.7995 67.5848 25.7995C69.9034 25.7995 71.7716 23.9306 71.7716 21.6111C71.7716 19.2915 69.9034 17.4226 67.5848 17.4226ZM79.6942 30.1211V13.1011H84.3643V14.7032C85.6155 13.4515 87.4 12.7677 89.2682 12.7677C91.7534 12.7677 93.7217 13.8856 94.8557 15.8046C96.4571 13.9021 98.058 12.7677 100.811 12.7677C104.73 12.7677 107.449 15.5879 107.449 19.7757V30.1211H102.779V21.0274C102.779 18.5412 101.411 17.2895 99.5093 17.2895C97.4745 17.2895 95.9066 18.7915 95.9066 21.1104V30.1375H91.2365V21.0439C91.2365 18.5577 89.8688 17.306 87.967 17.306C85.9322 17.306 84.3643 18.841 84.3643 21.1605V30.154H79.6942V30.1204V30.1211ZM118.541 30.4715C113.671 30.4715 109.684 26.4833 109.684 21.6282C109.684 16.773 113.671 12.7677 118.541 12.7677C121.06 12.7677 123.345 13.8191 124.946 15.5207L121.643 18.8245C120.892 17.9733 119.775 17.4226 118.541 17.4226C116.222 17.4226 114.354 19.2915 114.354 21.6111C114.354 23.9306 116.222 25.7995 118.541 25.7995C119.758 25.7995 120.892 25.2488 121.643 24.3977L124.946 27.7014C123.344 29.4201 121.059 30.4715 118.541 30.4715ZM125.513 21.6111C125.513 16.7388 128.883 12.7506 133.753 12.7506C135.688 12.7506 137.422 13.6347 138.557 14.8699V13.1011H143.227V30.1211H138.557V28.2857C137.439 29.5374 135.705 30.4715 133.753 30.4715C128.883 30.4715 125.513 26.5169 125.513 21.6111ZM134.37 17.4226C132.051 17.4226 130.183 19.2915 130.183 21.6111C130.183 23.9306 132.051 25.7995 134.37 25.7995C136.689 25.7995 138.557 23.9306 138.557 21.6111C138.557 19.2915 136.672 17.4226 134.37 17.4226ZM151.133 30.1211H146.463V13.1011H151.133V14.7697C152.317 13.468 154.052 12.7671 156.037 12.7671V17.2889C155.837 17.2553 155.587 17.2224 155.386 17.2224C153.068 17.2224 151.133 18.8574 151.133 21.1434V30.1204V30.1211ZM156.954 27.5011L159.573 24.3305C160.941 25.482 162.942 26.3661 164.81 26.3661C166.245 26.3661 167.295 25.7818 167.295 25.0314C167.295 23.8799 165.594 23.563 164.443 23.2626C161.524 22.4787 157.638 21.6276 157.638 17.8561C157.638 14.9358 160.558 12.75 164.577 12.75C167.229 12.75 169.614 13.6677 171.382 15.1025L169.031 18.2395C167.88 17.3555 166.061 16.8047 164.611 16.8047C163.009 16.8047 162.292 17.3219 162.292 17.8891C162.292 18.673 163.726 18.9405 165.494 19.3575C169.131 20.0749 171.999 21.3601 171.999 25.0143C171.999 28.185 168.897 30.4208 164.677 30.4208C161.741 30.4373 159.122 29.4531 156.954 27.5005V27.5011Z" fill="white"/>
<defs>
<linearGradient id="paint0_linear_229_24985" x1="17.8359" y1="29.1645" x2="17.8444" y2="23.9127" gradientUnits="userSpaceOnUse">
<stop stop-color="#030404"/>
<stop offset="0.45" stop-color="#043798"/>
</linearGradient>
<linearGradient id="paint1_linear_229_24985" x1="15.1005" y1="28.4182" x2="15.1062" y2="24.888" gradientUnits="userSpaceOnUse">
<stop stop-color="#030404"/>
<stop offset="0.45" stop-color="#043798"/>
</linearGradient>
<linearGradient id="paint2_linear_229_24985" x1="14.7559" y1="29.0446" x2="14.7673" y2="22.081" gradientUnits="userSpaceOnUse">
<stop stop-color="#030404"/>
<stop offset="0.45" stop-color="#043798"/>
</linearGradient>
<linearGradient id="paint3_linear_229_24985" x1="21.3065" y1="29.7734" x2="21.3135" y2="25.4998" gradientUnits="userSpaceOnUse">
<stop stop-color="#030404"/>
<stop offset="0.45" stop-color="#043798"/>
</linearGradient>
<linearGradient id="paint4_linear_229_24985" x1="10.0401" y1="29.7549" x2="10.0471" y2="25.4813" gradientUnits="userSpaceOnUse">
<stop stop-color="#030404"/>
<stop offset="0.45" stop-color="#043798"/>
</linearGradient>
<linearGradient id="paint5_linear_229_24985" x1="15.5805" y1="26.2849" x2="15.5833" y2="24.6014" gradientUnits="userSpaceOnUse">
<stop stop-color="#030404"/>
<stop offset="0.45" stop-color="#043798"/>
</linearGradient>
<linearGradient id="paint6_linear_229_24985" x1="16.0826" y1="29.1397" x2="16.0838" y2="28.3848" gradientUnits="userSpaceOnUse">
<stop stop-color="#030404"/>
<stop offset="0.45" stop-color="#043798"/>
</linearGradient>
<linearGradient id="paint7_linear_229_24985" x1="19.1861" y1="26.1565" x2="19.188" y2="24.9901" gradientUnits="userSpaceOnUse">
<stop stop-color="#030404"/>
<stop offset="0.45" stop-color="#043798"/>
</linearGradient>
<linearGradient id="paint8_linear_229_24985" x1="18.3447" y1="26.2022" x2="18.3469" y2="24.8777" gradientUnits="userSpaceOnUse">
<stop stop-color="#030404"/>
<stop offset="0.45" stop-color="#043798"/>
</linearGradient>
<linearGradient id="paint9_linear_229_24985" x1="20.1822" y1="26.1616" x2="20.1834" y2="25.4489" gradientUnits="userSpaceOnUse">
<stop stop-color="#030404"/>
<stop offset="0.45" stop-color="#043798"/>
</linearGradient>
<linearGradient id="paint10_linear_229_24985" x1="19.0722" y1="26.6988" x2="19.0733" y2="25.9695" gradientUnits="userSpaceOnUse">
<stop stop-color="#030404"/>
<stop offset="0.45" stop-color="#043798"/>
</linearGradient>
<linearGradient id="paint11_linear_229_24985" x1="23.2286" y1="26.6651" x2="23.2303" y2="25.6484" gradientUnits="userSpaceOnUse">
<stop stop-color="#030404"/>
<stop offset="0.45" stop-color="#043798"/>
</linearGradient>
<linearGradient id="paint12_linear_229_24985" x1="23.8597" y1="28.7015" x2="23.8622" y2="27.1633" gradientUnits="userSpaceOnUse">
<stop stop-color="#030404"/>
<stop offset="0.45" stop-color="#043798"/>
</linearGradient>
<linearGradient id="paint13_linear_229_24985" x1="7.91308" y1="27.6089" x2="7.91442" y2="26.7874" gradientUnits="userSpaceOnUse">
<stop stop-color="#030404"/>
<stop offset="0.45" stop-color="#043798"/>
</linearGradient>
<linearGradient id="paint14_linear_229_24985" x1="18.5728" y1="27.0189" x2="18.574" y2="26.3203" gradientUnits="userSpaceOnUse">
<stop stop-color="#030404"/>
<stop offset="0.45" stop-color="#043798"/>
</linearGradient>
<clipPath id="clip0_229_24985">
<rect width="19.1423" height="6.80716" fill="white" transform="translate(6.07257 24.0557) rotate(0.0933951)"/>
</clipPath>
</defs>
</svg>
