<svg width="23" height="23" viewBox="0 0 23 23" fill="none" xmlns="http://www.w3.org/2000/svg">
<g clip-path="url(#clip0_12_79049)">
<path d="M22.4772 14.161C21.0081 20.0539 15.0392 23.6399 9.14559 22.1707C3.25474 20.7015 -0.331599 14.7326 1.13793 8.84006C2.60643 2.94647 8.57496 -0.64022 14.4668 0.828968C20.3601 2.29816 23.9464 8.26772 22.4772 14.161Z" fill="#F7931A"/>
<path d="M16.6566 9.93284C16.8752 8.46915 15.7607 7.68231 14.2369 7.1574L14.7312 5.17465L13.524 4.87387L13.0427 6.80437C12.7258 6.72531 12.3999 6.65072 12.0761 6.57681L12.5608 4.63359L11.3546 4.33281L10.8599 6.31487C10.5973 6.25506 10.3395 6.19593 10.0892 6.13372L10.0906 6.12753L8.42616 5.71193L8.10509 7.001C8.10509 7.001 9.00056 7.20622 8.98166 7.21893C9.47047 7.34097 9.55916 7.66443 9.54403 7.92087L8.98097 10.1797C9.01466 10.1882 9.05831 10.2006 9.10644 10.2199L8.97925 10.1882L8.18966 13.3525C8.12984 13.501 7.97825 13.7237 7.63656 13.6392C7.64859 13.6567 6.75931 13.4202 6.75931 13.4202L6.16016 14.8021L7.73109 15.1936C8.02328 15.2668 8.30962 15.3435 8.59116 15.4157L8.09169 17.4214L9.29722 17.7222L9.79222 15.7381C10.1212 15.8275 10.4409 15.91 10.7537 15.9877L10.2607 17.9625L11.4677 18.2633L11.9671 16.2616C14.0252 16.6511 15.5731 16.494 16.2238 14.6329C16.7487 13.1342 16.198 12.2697 15.1152 11.7056C15.9037 11.523 16.4981 11.0043 16.6566 9.93284ZM13.8987 13.7997C13.5253 15.2984 11.0022 14.4886 10.1838 14.2851L10.8465 11.6282C11.6646 11.8324 14.2874 12.2367 13.8987 13.7997ZM14.2716 9.91118C13.9313 11.2745 11.831 10.5818 11.1493 10.412L11.7502 8.00234C12.4319 8.17215 14.6264 8.48909 14.2716 9.91118Z" fill="white"/>
</g>
<defs>
<clipPath id="clip0_12_79049">
<rect width="22" height="22" fill="white" transform="translate(0.808594 0.5)"/>
</clipPath>
</defs>
</svg>
