<svg width="24" height="23" viewBox="0 0 24 23" fill="none" xmlns="http://www.w3.org/2000/svg">
<g clip-path="url(#clip0_12_79058)">
<path d="M11.8086 23C18.1599 23 23.3086 17.8513 23.3086 11.5C23.3086 5.14873 18.1599 0 11.8086 0C5.45732 0 0.308594 5.14873 0.308594 11.5C0.308594 17.8513 5.45732 23 11.8086 23Z" fill="black"/>
<path d="M17.056 5.05816H19.2015L14.7349 9.68944C13.1175 11.3666 10.4955 11.3666 8.88184 9.68944L4.41432 5.05816H6.55976L9.9518 8.57624C10.9776 9.637 12.6364 9.637 13.6594 8.57624L17.056 5.05816ZM6.53308 17.9418H4.38672L8.88184 13.2793C10.4992 11.6021 13.1212 11.6021 14.7386 13.2793L19.2337 17.9418H17.0873L13.6668 14.3925C12.641 13.3317 10.9822 13.3317 9.95916 14.3925L6.53308 17.9418Z" fill="white"/>
</g>
<defs>
<clipPath id="clip0_12_79058">
<rect width="23" height="23" fill="white" transform="translate(0.308594)"/>
</clipPath>
</defs>
</svg>
