<svg width="24" height="23" viewBox="0 0 24 23" fill="none" xmlns="http://www.w3.org/2000/svg">
<g clip-path="url(#clip0_12_79063)">
<path d="M11.8008 22.5021C18.1544 22.5021 23.3008 17.5672 23.3008 11.4824C23.3008 5.39751 18.1544 0.462646 11.8008 0.462646C5.44714 0.462646 0.300781 5.39751 0.300781 11.4824C0.300781 17.5672 5.45155 22.5021 11.8008 22.5021Z" fill="#FF060A"/>
<path d="M18.2678 9.50402C17.6333 8.94004 16.7521 8.08085 16.0383 7.4728L15.9943 7.44636C15.9238 7.39349 15.8445 7.34943 15.7607 7.31858C14.0335 7.01016 5.99675 5.56935 5.84254 5.58698C5.79848 5.59138 5.75442 5.60901 5.71917 5.63104L5.67951 5.66188C5.63104 5.71035 5.59139 5.76763 5.56936 5.83372L5.56055 5.86016V6.00556V6.02759C6.4638 8.44215 10.0372 16.3467 10.7422 18.2061C10.7862 18.3339 10.8655 18.5718 11.0153 18.5851H11.0506C11.1299 18.5851 11.4736 18.1489 11.4736 18.1489C11.4736 18.1489 17.6113 11.0197 18.2326 10.2619C18.3119 10.1694 18.3824 10.068 18.4441 9.96226C18.4617 9.87855 18.4529 9.79483 18.422 9.71552C18.3912 9.63621 18.3339 9.5613 18.2678 9.50402ZM13.0422 10.3368L15.6594 8.25709L17.1971 9.61418L13.0422 10.3368ZM12.0243 10.2002L7.51687 6.65767L14.8134 7.94866L12.0243 10.2002ZM12.4297 11.1255L17.0429 10.4117L11.7688 16.5054L12.4297 11.1255ZM6.90442 7.01456L11.6498 10.8699L10.9625 16.5098L6.90442 7.01456Z" fill="white"/>
</g>
<defs>
<clipPath id="clip0_12_79063">
<rect width="23" height="22.1188" fill="white" transform="translate(0.308594 0.440613)"/>
</clipPath>
</defs>
</svg>
