<svg width="24" height="23" viewBox="0 0 24 23" fill="none" xmlns="http://www.w3.org/2000/svg">
<circle cx="11.8086" cy="11.5" r="11.5" fill="black"/>
<g clip-path="url(#clip0_12_79057)">
<path d="M6.66607 14.6222C6.75918 14.5288 6.8856 14.4762 7.0175 14.476H19.1441C19.1933 14.4759 19.2413 14.4904 19.2822 14.5177C19.3231 14.545 19.355 14.5838 19.3738 14.6292C19.3926 14.6747 19.3975 14.7247 19.3879 14.7729C19.3782 14.8211 19.3545 14.8654 19.3197 14.9001L16.9242 17.2955C16.8781 17.3416 16.8233 17.3782 16.763 17.4031C16.7027 17.4281 16.6381 17.4409 16.5728 17.4408H4.44622C4.3974 17.4405 4.34974 17.4259 4.30921 17.3986C4.26867 17.3714 4.23705 17.3329 4.21829 17.2878C4.19954 17.2427 4.19447 17.1931 4.20373 17.1452C4.21299 17.0972 4.23616 17.0531 4.27036 17.0182L6.66607 14.6222Z" fill="url(#paint0_linear_12_79057)"/>
<path d="M6.66607 5.67822C6.76019 5.58646 6.88605 5.5345 7.0175 5.53317H19.1441C19.1933 5.53309 19.2413 5.54763 19.2822 5.57492C19.3231 5.60221 19.355 5.64103 19.3738 5.68646C19.3926 5.73189 19.3975 5.78188 19.3879 5.83009C19.3782 5.87831 19.3545 5.92257 19.3197 5.95727L16.9242 8.35268C16.8781 8.39881 16.8233 8.43538 16.763 8.46032C16.7027 8.48526 16.6381 8.49808 16.5728 8.49804H4.44622C4.3974 8.49774 4.34974 8.48306 4.30921 8.45584C4.26867 8.42863 4.23705 8.39007 4.21829 8.34499C4.19954 8.29991 4.19447 8.25031 4.20373 8.20237C4.21299 8.15443 4.23616 8.11028 4.27036 8.07543L6.66607 5.67822Z" fill="url(#paint1_linear_12_79057)"/>
<path d="M16.9238 10.1218C16.8776 10.0757 16.8228 10.0391 16.7625 10.0142C16.7022 9.98923 16.6376 9.97641 16.5723 9.97645H4.44575C4.39662 9.97646 4.34859 9.99103 4.30774 10.0183C4.26689 10.0456 4.23504 10.0844 4.21622 10.1298C4.1974 10.1752 4.19246 10.2251 4.20201 10.2733C4.21156 10.3215 4.23518 10.3658 4.26988 10.4006L6.66559 12.796C6.71174 12.8421 6.76653 12.8787 6.82684 12.9036C6.88714 12.9286 6.95176 12.9414 7.01702 12.9413H19.1436C19.1928 12.9414 19.2409 12.9269 19.2818 12.8996C19.3227 12.8723 19.3545 12.8335 19.3733 12.788C19.3921 12.7426 19.397 12.6926 19.3874 12.6444C19.3778 12.5962 19.354 12.5519 19.3192 12.5172L16.9238 10.1218Z" fill="url(#paint2_linear_12_79057)"/>
</g>
<defs>
<linearGradient id="paint0_linear_12_79057" x1="17.9857" y1="4.10232" x2="9.59296" y2="20.1772" gradientUnits="userSpaceOnUse">
<stop stop-color="#00FFA3"/>
<stop offset="1" stop-color="#DC1FFF"/>
</linearGradient>
<linearGradient id="paint1_linear_12_79057" x1="14.3162" y1="2.18635" x2="5.92373" y2="18.2615" gradientUnits="userSpaceOnUse">
<stop stop-color="#00FFA3"/>
<stop offset="1" stop-color="#DC1FFF"/>
</linearGradient>
<linearGradient id="paint2_linear_12_79057" x1="16.1387" y1="3.13806" x2="7.7462" y2="19.2132" gradientUnits="userSpaceOnUse">
<stop stop-color="#00FFA3"/>
<stop offset="1" stop-color="#DC1FFF"/>
</linearGradient>
<clipPath id="clip0_12_79057">
<rect width="15.1959" height="11.9089" fill="white" transform="translate(4.19727 5.53316)"/>
</clipPath>
</defs>
</svg>
