<svg width="24" height="23" viewBox="0 0 24 23" fill="none" xmlns="http://www.w3.org/2000/svg">
<circle cx="11.8089" cy="11.5" r="11.2698" fill="#212121"/>
<g clip-path="url(#clip0_12_58852)">
<path d="M8.59744 10.1817L11.8074 6.97184L15.019 10.1834L16.8868 8.31557L11.8074 3.23602L6.72973 8.31392L8.59744 10.1817ZM3.54297 11.5003L5.41082 9.63246L7.27854 11.5002L5.41071 13.368L3.54297 11.5003ZM8.59744 12.8194L11.8074 16.0293L15.0189 12.8179L16.8877 14.6846L16.8868 14.6856L11.8074 19.7651L6.72956 14.6874L6.72692 14.6847L8.59744 12.8194ZM16.3366 11.5013L18.2044 9.6335L20.0721 11.5012L18.2043 13.3691L16.3366 11.5013Z" fill="#F3BA2F"/>
<path d="M13.7009 11.5005H13.7017L11.8064 9.60516L10.4057 11.0058H10.4056L10.2447 11.1668L9.9128 11.4988L9.91016 11.5014L9.9128 11.5041L11.8064 13.3978L13.7017 11.5024L13.7026 11.5014L13.7009 11.5005Z" fill="#F3BA2F"/>
</g>
<defs>
<clipPath id="clip0_12_58852">
<rect width="16.5291" height="16.5291" fill="white" transform="translate(3.54297 3.23602)"/>
</clipPath>
</defs>
</svg>
