<svg width="24" height="23" viewBox="0 0 24 23" fill="none" xmlns="http://www.w3.org/2000/svg">
<g clip-path="url(#clip0_12_79066)">
<path d="M11.8086 23C18.1599 23 23.3086 17.8513 23.3086 11.5C23.3086 5.14873 18.1599 0 11.8086 0C5.45732 0 0.308594 5.14873 0.308594 11.5C0.308594 17.8513 5.45732 23 11.8086 23Z" fill="#0088CC"/>
<path fill-rule="evenodd" clip-rule="evenodd" d="M8.60449 7.59821H15.0527C15.2991 7.59821 15.5045 7.63928 15.7509 7.7625C16.0384 7.88571 16.2027 8.09107 16.2848 8.25536C16.2848 8.25536 16.2848 8.29643 16.3259 8.29643C16.4491 8.50178 16.5313 8.74821 16.5313 9.03571C16.5313 9.28214 16.4902 9.52857 16.3259 9.775L12.2598 16.7571C12.1777 16.9214 12.0134 17.0036 11.8081 17.0036C11.6438 17.0036 11.4795 16.9214 11.3563 16.7571L7.37235 9.775C7.2902 9.61071 7.12592 9.40536 7.12592 9.07678C7.08485 8.78928 7.16699 8.54286 7.2902 8.29643C7.41342 8.05 7.61878 7.84464 7.90628 7.7625C8.1527 7.59821 8.4402 7.59821 8.60449 7.59821ZM11.3152 8.58393H8.60449C8.4402 8.58393 8.35806 8.58393 8.31699 8.625C8.23485 8.66607 8.19378 8.70714 8.1527 8.78928C8.11163 8.83036 8.11163 8.9125 8.11163 8.99464C8.11163 9.03571 8.1527 9.07678 8.23485 9.24107L11.3152 14.5804V8.58393ZM12.3009 8.58393V14.6214L15.4223 9.24107C15.4634 9.15893 15.4634 9.07678 15.4634 8.99464C15.4634 8.9125 15.4634 8.83036 15.4223 8.78928C15.3813 8.74821 15.3813 8.70714 15.3402 8.70714L15.2991 8.66607C15.217 8.625 15.1348 8.625 15.0116 8.625H12.3009V8.58393Z" fill="white"/>
</g>
<defs>
<clipPath id="clip0_12_79066">
<rect width="23" height="23" fill="white" transform="translate(0.308594)"/>
</clipPath>
</defs>
</svg>
