<svg width="24" height="23" viewBox="0 0 24 23" fill="none" xmlns="http://www.w3.org/2000/svg">
<circle cx="11.8089" cy="11.5" r="11.2698" fill="#26A17B"/>
<path fill-rule="evenodd" clip-rule="evenodd" d="M13.6005 12.829C13.5272 12.8345 13.1485 12.8571 12.304 12.8571C11.6322 12.8571 11.1553 12.8369 10.9879 12.829C8.3919 12.7148 6.45419 12.2629 6.45419 11.7218C6.45419 11.1808 8.3919 10.7295 10.9879 10.6134V12.3789C11.1577 12.3911 11.6438 12.4198 12.3156 12.4198C13.1217 12.4198 13.5253 12.3863 13.598 12.3795V10.6146C16.1885 10.7301 18.122 11.182 18.122 11.7218C18.122 12.2617 16.1892 12.7136 13.598 12.8284L13.6005 12.829ZM13.6005 10.4321V8.85221H17.2157V6.44305H7.37267V8.85221H10.9873V10.4314C8.04931 10.5664 5.83984 11.1484 5.83984 11.8458C5.83984 12.5432 8.04931 13.1246 10.9873 13.2601V18.3227H13.5998V13.2583C16.5311 13.1233 18.7369 12.542 18.7369 11.8452C18.7369 11.1484 16.533 10.567 13.5998 10.4314L13.6005 10.4321Z" fill="white"/>
</svg>
