<svg width="23" height="23" viewBox="0 0 23 23" fill="none" xmlns="http://www.w3.org/2000/svg">
<g clip-path="url(#clip0_12_79042)">
<path d="M11.809 22.4956C17.9021 22.4956 22.8035 17.5942 22.8035 11.5011C22.8035 5.40794 17.9021 0.506592 11.809 0.506592C5.7158 0.506592 0.814453 5.40794 0.814453 11.5011C0.814453 17.5942 5.7158 22.4956 11.809 22.4956Z" fill="#2775CA"/>
<path d="M14.8324 13.2415C14.8324 11.6385 13.8704 11.0888 11.9464 10.859C10.5721 10.6754 10.2972 10.3093 10.2972 9.66831C10.2972 9.02733 10.7557 8.61504 11.6715 8.61504C12.4961 8.61504 12.9546 8.8899 13.1833 9.57706C13.2294 9.71449 13.3669 9.80574 13.5043 9.80574H14.2376C14.4212 9.80574 14.5587 9.66831 14.5587 9.4847V9.43853C14.3751 8.43033 13.5505 7.65192 12.4972 7.56067V6.46122C12.4972 6.27761 12.3598 6.14018 12.1311 6.0951H11.4439C11.2603 6.0951 11.1229 6.23253 11.0778 6.46122V7.51449C9.70351 7.6981 8.83274 8.61394 8.83274 9.75957C8.83274 11.2713 9.74859 11.8672 11.6726 12.0959C12.9557 12.3246 13.368 12.5994 13.368 13.3328C13.368 14.0661 12.727 14.5697 11.8562 14.5697C10.6655 14.5697 10.2532 14.0661 10.1158 13.379C10.0696 13.1953 9.93219 13.1041 9.79476 13.1041H9.01635C8.83274 13.1041 8.69531 13.2415 8.69531 13.4251V13.4713C8.87892 14.6169 9.61115 15.4415 11.1229 15.6702V16.7697C11.1229 16.9533 11.2603 17.0907 11.489 17.1358H12.1762C12.3598 17.1358 12.4972 16.9983 12.5423 16.7697V15.6702C13.9155 15.4404 14.8324 14.4784 14.8324 13.2415Z" fill="white"/>
<path d="M9.47323 18.0516C5.90001 16.7686 4.06723 12.7831 5.39647 9.25602C6.08362 7.33198 7.59537 5.86642 9.47323 5.17926C9.65684 5.088 9.74809 4.95057 9.74809 4.72079V4.07981C9.74809 3.8962 9.65684 3.75877 9.47323 3.71369C9.42705 3.71369 9.3358 3.71369 9.28962 3.75987C4.938 5.13418 2.55549 9.76067 3.9298 14.1134C4.75439 16.6784 6.7246 18.6486 9.28962 19.4732C9.47323 19.5645 9.65574 19.4732 9.70191 19.2896C9.74809 19.2434 9.74809 19.1983 9.74809 19.106V18.465C9.74809 18.3265 9.61066 18.144 9.47323 18.0516ZM14.3284 3.75877C14.1448 3.66751 13.9623 3.75877 13.9161 3.94238C13.8699 3.98855 13.8699 4.03363 13.8699 4.12599V4.76696C13.8699 4.95057 14.0074 5.13308 14.1448 5.22544C17.718 6.50849 19.5508 10.494 18.2216 14.021C17.5344 15.9451 16.0227 17.4106 14.1448 18.0978C13.9612 18.1891 13.8699 18.3265 13.8699 18.5563V19.1973C13.8699 19.3809 13.9612 19.5183 14.1448 19.5634C14.191 19.5634 14.2822 19.5634 14.3284 19.5172C18.68 18.1429 21.0625 13.5164 19.6882 9.16367C18.8636 6.55357 16.8483 4.58336 14.3284 3.75877Z" fill="white"/>
</g>
<defs>
<clipPath id="clip0_12_79042">
<rect width="22" height="21.989" fill="white" transform="translate(0.808594 0.505493)"/>
</clipPath>
</defs>
</svg>
